<?xml version="1.0" standalone="yes"?>

<svg version="1.1" viewBox="0.0 0.0 960.0 720.0" fill="none" stroke="none" stroke-linecap="square" stroke-miterlimit="10" xmlns="http://www.w3.org/2000/svg" xmlns:xlink="http://www.w3.org/1999/xlink"><clipPath id="p.0"><path d="m0 0l960.0 0l0 720.0l-960.0 0l0 -720.0z" clip-rule="nonzero"></path></clipPath><g clip-path="url(#p.0)"><path fill="#000000" fill-opacity="0.0" d="m0 0l960.0 0l0 720.0l-960.0 0z" fill-rule="nonzero"></path><path fill="#000000" fill-opacity="0.0" d="m57.842518 8.724409l844.31494 0l0 156.47244l-844.31494 0z" fill-rule="nonzero"></path><path fill="#000000" d="m116.92968 109.88441l26.390617 -68.71875l9.796875 0l28.125 68.71875l-10.359375 0l-8.015625 -20.8125l-28.734375 0l-7.5468674 20.8125l-9.65625 0zm19.828117 -28.21875l23.296875 0l-7.171875 -19.03125q-3.28125 -8.671875 -4.875 -14.25q-1.3125 6.609375 -3.703125 13.125l-7.546875 20.15625zm49.125 32.34375l8.203125 1.21875q0.515625 3.796875 2.859375 5.53125q3.140625 2.34375 8.578125 2.34375q5.859375 0 9.046875 -2.34375q3.1875 -2.34375 4.3125 -6.5625q0.65625 -2.578125 0.609375 -10.828125q-5.53125 6.515625 -13.78125 6.515625q-10.265625 0 -15.890625 -7.40625q-5.625 -7.40625 -5.625 -17.765625q0 -7.125 2.578125 -13.140625q2.578125 -6.03125 7.46875 -9.3125q4.90625 -3.28125 11.515625 -3.28125q8.8125 0 14.53125 7.125l0 -6.0l7.78125 0l0 43.03125q0 11.625 -2.375 16.46875q-2.359375 4.859375 -7.5 7.671875q-5.125 2.8124924 -12.625 2.8124924q-8.90625 0 -14.390625 -4.0156174q-5.484375 -4.0 -5.296875 -12.0625zm6.984375 -29.90625q0 9.796875 3.890625 14.296875q3.890625 4.5 9.75 4.5q5.8125 0 9.75 -4.46875q3.9375 -4.484375 3.9375 -14.046875q0 -9.140625 -4.0625 -13.78125q-4.046875 -4.640625 -9.765625 -4.640625q-5.625 0 -9.5625 4.578125q-3.9375 4.5625 -3.9375 13.5625zm46.40625 29.90625l8.203125 1.21875q0.515625 3.796875 2.859375 5.53125q3.140625 2.34375 8.57814 2.34375q5.859375 0 9.046875 -2.34375q3.1875 -2.34375 4.3125 -6.5625q0.65625 -2.578125 0.609375 -10.828125q-5.53125 6.515625 -13.78125 6.515625q-10.26564 0 -15.89064 -7.40625q-5.625 -7.40625 -5.625 -17.765625q0 -7.125 2.578125 -13.140625q2.578125 -6.03125 7.46875 -9.3125q4.90625 -3.28125 11.51564 -3.28125q8.8125 0 14.53125 7.125l0 -6.0l7.78125 0l0 43.03125q0 11.625 -2.375 16.46875q-2.359375 4.859375 -7.5 7.671875q-5.125 2.8124924 -12.625 2.8124924q-8.906265 0 -14.39064 -4.0156174q-5.484375 -4.0 -5.296875 -12.0625zm6.984375 -29.90625q0 9.796875 3.890625 14.296875q3.890625 4.5 9.750015 4.5q5.8125 0 9.75 -4.46875q3.9375 -4.484375 3.9375 -14.046875q0 -9.140625 -4.0625 -13.78125q-4.046875 -4.640625 -9.765625 -4.640625q-5.6250153 0 -9.562515 4.578125q-3.9375 4.5625 -3.9375 13.5625zm47.85939 25.78125l0 -49.78125l7.59375 0l0 7.546875q2.90625 -5.296875 5.359375 -6.984375q2.46875 -1.6875 5.421875 -1.6875q4.265625 0 8.671875 2.71875l-2.90625 7.828125q-3.09375 -1.828125 -6.1875 -1.828125q-2.765625 0 -4.96875 1.671875q-2.203125 1.65625 -3.140625 4.609375q-1.40625 4.5 -1.40625 9.84375l0 26.0625l-8.4375 0zm66.140625 -16.03125l8.71875 1.078125q-2.0625 7.640625 -7.640625 11.859375q-5.578125 4.21875 -14.25 4.21875q-10.921875 0 -17.328125 -6.71875q-6.390625 -6.734375 -6.390625 -18.875q0 -12.5625 6.46875 -19.5q6.46875 -6.9375 16.78125 -6.9375q9.984375 0 16.3125 6.796875q6.328125 6.796875 6.328125 19.125q0 0.75 -0.046875 2.25l-37.125 0q0.46875 8.203125 4.640625 12.5625q4.171875 4.359375 10.40625 4.359375q4.640625 0 7.921875 -2.4375q3.28125 -2.4375 5.203125 -7.78125zm-27.703125 -13.640625l27.796875 0q-0.5625 -6.28125 -3.1875 -9.421875q-4.03125 -4.875 -10.453125 -4.875q-5.8125 0 -9.78125 3.890625q-3.953125 3.890625 -4.375 10.40625zm45.46875 33.796875l8.203125 1.21875q0.515625 3.796875 2.859375 5.53125q3.140625 2.34375 8.578125 2.34375q5.859375 0 9.046875 -2.34375q3.1875 -2.34375 4.3125 -6.5625q0.65625 -2.578125 0.609375 -10.828125q-5.53125 6.515625 -13.78125 6.515625q-10.265625 0 -15.890625 -7.40625q-5.625 -7.40625 -5.625 -17.765625q0 -7.125 2.578125 -13.140625q2.578125 -6.03125 7.46875 -9.3125q4.90625 -3.28125 11.515625 -3.28125q8.8125 0 14.53125 7.125l0 -6.0l7.78125 0l0 43.03125q0 11.625 -2.375 16.46875q-2.359375 4.859375 -7.5 7.671875q-5.125 2.8124924 -12.625 2.8124924q-8.90625 0 -14.390625 -4.0156174q-5.484375 -4.0 -5.296875 -12.0625zm6.984375 -29.90625q0 9.796875 3.890625 14.296875q3.890625 4.5 9.75 4.5q5.8125 0 9.75 -4.46875q3.9375 -4.484375 3.9375 -14.046875q0 -9.140625 -4.0625 -13.78125q-4.046875 -4.640625 -9.765625 -4.640625q-5.625 0 -9.5625 4.578125q-3.9375 4.5625 -3.9375 13.5625zm80.4375 19.640625q-4.6875 3.984375 -9.03125 5.625q-4.328125 1.640625 -9.296875 1.640625q-8.203125 0 -12.609375 -4.0q-4.40625 -4.015625 -4.40625 -10.25q0 -3.65625 1.65625 -6.671875q1.671875 -3.03125 4.359375 -4.859375q2.703125 -1.828125 6.078125 -2.765625q2.484375 -0.65625 7.5 -1.265625q10.21875 -1.21875 15.046875 -2.90625q0.046875 -1.734375 0.046875 -2.203125q0 -5.15625 -2.390625 -7.265625q-3.234375 -2.859375 -9.609375 -2.859375q-5.953125 0 -8.796875 2.09375q-2.828125 2.078125 -4.1875 7.375l-8.25 -1.125q1.125 -5.296875 3.703125 -8.546875q2.578125 -3.265625 7.453125 -5.015625q4.875 -1.765625 11.296875 -1.765625q6.375 0 10.359375 1.5q3.984375 1.5 5.859375 3.78125q1.875 2.265625 2.625 5.734375q0.421875 2.15625 0.421875 7.78125l0 11.25q0 11.765625 0.53125 14.890625q0.546875 3.109375 2.140625 5.96875l-8.8125 0q-1.3125 -2.625 -1.6875 -6.140625zm-0.703125 -18.84375q-4.59375 1.875 -13.78125 3.1875q-5.203125 0.75 -7.359375 1.6875q-2.15625 0.9375 -3.328125 2.75q-1.171875 1.796875 -1.171875 4.0q0 3.375 2.546875 5.625q2.5625 2.25 7.484375 2.25q4.875 0 8.671875 -2.125q3.796875 -2.140625 5.578125 -5.84375q1.359375 -2.859375 1.359375 -8.4375l0 -3.09375zm40.03125 17.4375l1.21875 7.453125q-3.5625 0.75 -6.375 0.75q-4.59375 0 -7.125 -1.453125q-2.53125 -1.453125 -3.5625 -3.8125q-1.03125 -2.375 -1.03125 -9.96875l0 -28.640625l-6.1875 0l0 -6.5625l6.1875 0l0 -12.328125l8.390625 -5.0625l0 17.390625l8.484375 0l0 6.5625l-8.484375 0l0 29.109375q0 3.609375 0.4375 4.640625q0.453125 1.03125 1.453125 1.640625q1.015625 0.609375 2.890625 0.609375q1.40625 0 3.703125 -0.328125zm42.328125 -8.484375l8.71875 1.078125q-2.0625 7.640625 -7.640625 11.859375q-5.578125 4.21875 -14.25 4.21875q-10.921875 0 -17.328125 -6.71875q-6.390625 -6.734375 -6.390625 -18.875q0 -12.5625 6.46875 -19.5q6.46875 -6.9375 16.78125 -6.9375q9.984375 0 16.3125 6.796875q6.328125 6.796875 6.328125 19.125q0 0.75 -0.046875 2.25l-37.125 0q0.46875 8.203125 4.640625 12.5625q4.171875 4.359375 10.40625 4.359375q4.640625 0 7.921875 -2.4375q3.28125 -2.4375 5.203125 -7.78125zm-27.703125 -13.640625l27.796875 0q-0.5625 -6.28125 -3.1875 -9.421875q-4.03125 -4.875 -10.453125 -4.875q-5.8125 0 -9.78125 3.890625q-3.953125 3.890625 -4.375 10.40625zm79.3125 29.671875l0 -6.28125q-4.734375 7.40625 -13.921875 7.40625q-5.953125 0 -10.953125 -3.28125q-4.984375 -3.28125 -7.734375 -9.15625q-2.734375 -5.890625 -2.734375 -13.53125q0 -7.453125 2.484375 -13.515625q2.484375 -6.078125 7.453125 -9.3125q4.96875 -3.234375 11.109375 -3.234375q4.5 0 8.015625 1.90625q3.515625 1.890625 5.71875 4.9375l0 -24.65625l8.390625 0l0 68.71875l-7.828125 0zm-26.671875 -24.84375q0 9.5625 4.03125 14.296875q4.03125 4.734375 9.515625 4.734375q5.53125 0 9.390625 -4.515625q3.875 -4.53125 3.875 -13.8125q0 -10.21875 -3.9375 -15.0q-3.9375 -4.78125 -9.703125 -4.78125q-5.625 0 -9.40625 4.59375q-3.765625 4.59375 -3.765625 14.484375zm75.515625 24.84375l0 -68.71875l23.671875 0q8.015625 0 12.234375 0.984375q5.90625 1.359375 10.078125 4.921875q5.4375 4.59375 8.125 11.75q2.703125 7.140625 2.703125 16.328125q0 7.828125 -1.828125 13.875q-1.828125 6.046875 -4.6875 10.015625q-2.859375 3.953125 -6.265625 6.234375q-3.390625 2.265625 -8.203125 3.4375q-4.796875 1.171875 -11.03125 1.171875l-24.796875 0zm9.09375 -8.109375l14.671875 0q6.796875 0 10.65625 -1.265625q3.875 -1.265625 6.171875 -3.5625q3.234375 -3.234375 5.03125 -8.6875q1.8125 -5.46875 1.8125 -13.25q0 -10.78125 -3.546875 -16.5625q-3.53125 -5.796875 -8.59375 -7.765625q-3.65625 -1.40625 -11.765625 -1.40625l-14.4375 0l0 52.5zm91.640625 1.96875q-4.6875 3.984375 -9.03125 5.625q-4.328125 1.640625 -9.296875 1.640625q-8.203125 0 -12.609375 -4.0q-4.40625 -4.015625 -4.40625 -10.25q0 -3.65625 1.65625 -6.671875q1.671875 -3.03125 4.359375 -4.859375q2.703125 -1.828125 6.078125 -2.765625q2.484375 -0.65625 7.5 -1.265625q10.21875 -1.21875 15.046875 -2.90625q0.046875 -1.734375 0.046875 -2.203125q0 -5.15625 -2.390625 -7.265625q-3.234375 -2.859375 -9.609375 -2.859375q-5.953125 0 -8.796875 2.09375q-2.828125 2.078125 -4.1875 7.375l-8.25 -1.125q1.125 -5.296875 3.703125 -8.546875q2.578125 -3.265625 7.453125 -5.015625q4.875 -1.765625 11.296875 -1.765625q6.375 0 10.359375 1.5q3.984375 1.5 5.859375 3.78125q1.875 2.265625 2.625 5.734375q0.421875 2.15625 0.421875 7.78125l0 11.25q0 11.765625 0.53125 14.890625q0.546875 3.109375 2.140625 5.96875l-8.8125 0q-1.3125 -2.625 -1.6875 -6.140625zm-0.703125 -18.84375q-4.59375 1.875 -13.78125 3.1875q-5.203125 0.75 -7.359375 1.6875q-2.15625 0.9375 -3.328125 2.75q-1.171875 1.796875 -1.171875 4.0q0 3.375 2.546875 5.625q2.5625 2.25 7.484375 2.25q4.875 0 8.671875 -2.125q3.796875 -2.140625 5.578125 -5.84375q1.359375 -2.859375 1.359375 -8.4375l0 -3.09375zm40.03125 17.4375l1.21875 7.453125q-3.5625 0.75 -6.375 0.75q-4.59375 0 -7.125 -1.453125q-2.53125 -1.453125 -3.5625 -3.8125q-1.03125 -2.375 -1.03125 -9.96875l0 -28.640625l-6.1875 0l0 -6.5625l6.1875 0l0 -12.328125l8.390625 -5.0625l0 17.390625l8.484375 0l0 6.5625l-8.484375 0l0 29.109375q0 3.609375 0.4375 4.640625q0.453125 1.03125 1.453125 1.640625q1.015625 0.609375 2.890625 0.609375q1.40625 0 3.703125 -0.328125zm40.734375 1.40625q-4.6875 3.984375 -9.03125 5.625q-4.328125 1.640625 -9.296875 1.640625q-8.203125 0 -12.609375 -4.0q-4.40625 -4.015625 -4.40625 -10.25q0 -3.65625 1.65625 -6.671875q1.671875 -3.03125 4.359375 -4.859375q2.703125 -1.828125 6.078125 -2.765625q2.484375 -0.65625 7.5 -1.265625q10.21875 -1.21875 15.046875 -2.90625q0.046875 -1.734375 0.046875 -2.203125q0 -5.15625 -2.390625 -7.265625q-3.234375 -2.859375 -9.609375 -2.859375q-5.953125 0 -8.796875 2.09375q-2.828125 2.078125 -4.1875 7.375l-8.25 -1.125q1.125 -5.296875 3.703125 -8.546875q2.578125 -3.265625 7.453125 -5.015625q4.875 -1.765625 11.296875 -1.765625q6.375 0 10.359375 1.5q3.984375 1.5 5.859375 3.78125q1.875 2.265625 2.625 5.734375q0.421875 2.15625 0.421875 7.78125l0 11.25q0 11.765625 0.53125 14.890625q0.546875 3.109375 2.140625 5.96875l-8.8125 0q-1.3125 -2.625 -1.6875 -6.140625zm-0.703125 -18.84375q-4.59375 1.875 -13.78125 3.1875q-5.203125 0.75 -7.359375 1.6875q-2.15625 0.9375 -3.328125 2.75q-1.171875 1.796875 -1.171875 4.0q0 3.375 2.546875 5.625q2.5625 2.25 7.484375 2.25q4.875 0 8.671875 -2.125q3.796875 -2.140625 5.578125 -5.84375q1.359375 -2.859375 1.359375 -8.4375l0 -3.09375z" fill-rule="nonzero"></path><path fill="#000000" fill-opacity="0.0" d="m122.026245 361.4672l465.60632 0l0 321.6378l-465.60632 0z" fill-rule="nonzero"></path><path fill="#000000" d="m134.72937 416.54718l0 -34.359375l11.84375 0q4.0 0 6.109375 0.484375q2.953125 0.6875 5.046875 2.46875q2.71875 2.296875 4.0625 5.875q1.34375 3.5625 1.34375 8.15625q0 3.921875 -0.921875 6.953125q-0.90625 3.015625 -2.34375 5.0q-1.421875 1.96875 -3.125 3.109375q-1.6875 1.140625 -4.09375 1.734375q-2.40625 0.578125 -5.515625 0.578125l-12.40625 0zm4.546875 -4.0625l7.34375 0q3.390625 0 5.328125 -0.625q1.9375 -0.640625 3.078125 -1.78125q1.625 -1.625 2.515625 -4.34375q0.90625 -2.734375 0.90625 -6.625q0 -5.390625 -1.765625 -8.28125q-1.765625 -2.90625 -4.296875 -3.890625q-1.828125 -0.703125 -5.890625 -0.703125l-7.21875 0l0 26.25zm29.601562 -25.453125l0 -4.84375l4.21875 0l0 4.84375l-4.21875 0zm0 29.515625l0 -24.890625l4.21875 0l0 24.890625l-4.21875 0zm10.6484375 0l0 -24.890625l3.765625 0l0 3.484375q1.171875 -1.828125 3.109375 -2.9375q1.953125 -1.109375 4.4375 -1.109375q2.765625 0 4.53125 1.15625q1.78125 1.140625 2.5 3.203125q2.953125 -4.359375 7.6875 -4.359375q3.703125 0 5.6875 2.046875q2.0 2.046875 2.0 6.3125l0 17.09375l-4.1875 0l0 -15.6875q0 -2.53125 -0.421875 -3.640625q-0.40625 -1.109375 -1.484375 -1.78125q-1.078125 -0.6875 -2.53125 -0.6875q-2.625 0 -4.359375 1.75q-1.734375 1.734375 -1.734375 5.578125l0 14.46875l-4.21875 0l0 -16.171875q0 -2.8125 -1.03125 -4.21875q-1.03125 -1.40625 -3.375 -1.40625q-1.78125 0 -3.296875 0.9375q-1.5 0.9375 -2.1875 2.75q-0.671875 1.796875 -0.671875 5.1875l0 12.921875l-4.21875 0zm57.015625 -8.015625l4.359375 0.53125q-1.03125 3.828125 -3.828125 5.9375q-2.78125 2.109375 -7.109375 2.109375q-5.46875 0 -8.671875 -3.359375q-3.1875 -3.375 -3.1875 -9.4375q0 -6.28125 3.234375 -9.75q3.234375 -3.46875 8.390625 -3.46875q4.984375 0 8.140625 3.40625q3.171875 3.390625 3.171875 9.546875q0 0.375 -0.015625 1.125l-18.5625 0q0.234375 4.109375 2.3125 6.296875q2.09375 2.171875 5.203125 2.171875q2.328125 0 3.96875 -1.21875q1.640625 -1.21875 2.59375 -3.890625zm-13.84375 -6.828125l13.890625 0q-0.28125 -3.140625 -1.59375 -4.703125q-2.015625 -2.4375 -5.21875 -2.4375q-2.90625 0 -4.890625 1.953125q-1.984375 1.9375 -2.1875 5.1875zm23.507812 14.84375l0 -24.890625l3.796875 0l0 3.53125q2.734375 -4.09375 7.921875 -4.09375q2.25 0 4.125 0.8125q1.890625 0.796875 2.828125 2.109375q0.9375 1.3125 1.3125 3.125q0.234375 1.171875 0.234375 4.09375l0 15.3125l-4.21875 0l0 -15.140625q0 -2.578125 -0.5 -3.859375q-0.484375 -1.28125 -1.734375 -2.03125q-1.25 -0.765625 -2.9375 -0.765625q-2.703125 0 -4.65625 1.71875q-1.953125 1.703125 -1.953125 6.484375l0 13.59375l-4.21875 0zm25.007812 -7.4375l4.171875 -0.65625q0.34375 2.515625 1.953125 3.859375q1.609375 1.328125 4.484375 1.328125q2.90625 0 4.3125 -1.1875q1.40625 -1.1875 1.40625 -2.78125q0 -1.421875 -1.234375 -2.25q-0.875 -0.5625 -4.3125 -1.421875q-4.640625 -1.171875 -6.4375 -2.03125q-1.796875 -0.859375 -2.71875 -2.359375q-0.921875 -1.515625 -0.921875 -3.34375q0 -1.671875 0.75 -3.078125q0.765625 -1.421875 2.078125 -2.359375q0.984375 -0.734375 2.6875 -1.234375q1.703125 -0.5 3.640625 -0.5q2.9375 0 5.140625 0.84375q2.21875 0.84375 3.265625 2.28125q1.0625 1.4375 1.46875 3.859375l-4.125 0.5625q-0.28125 -1.921875 -1.640625 -3.0q-1.34375 -1.078125 -3.796875 -1.078125q-2.90625 0 -4.15625 0.96875q-1.234375 0.953125 -1.234375 2.234375q0 0.828125 0.515625 1.484375q0.515625 0.671875 1.609375 1.125q0.640625 0.234375 3.734375 1.078125q4.46875 1.1875 6.234375 1.953125q1.78125 0.765625 2.78125 2.21875q1.015625 1.453125 1.015625 3.609375q0 2.109375 -1.234375 3.96875q-1.234375 1.859375 -3.5625 2.890625q-2.3125 1.015625 -5.234375 1.015625q-4.859375 0 -7.40625 -2.015625q-2.53125 -2.015625 -3.234375 -5.984375zm25.703125 -22.078125l0 -4.84375l4.21875 0l0 4.84375l-4.21875 0zm0 29.515625l0 -24.890625l4.21875 0l0 24.890625l-4.21875 0zm9.0703125 -12.453125q0 -6.90625 3.84375 -10.234375q3.21875 -2.765625 7.828125 -2.765625q5.140625 0 8.390625 3.359375q3.265625 3.359375 3.265625 9.296875q0 4.796875 -1.453125 7.5625q-1.4375 2.75 -4.1875 4.28125q-2.75 1.515625 -6.015625 1.515625q-5.21875 0 -8.453125 -3.34375q-3.21875 -3.359375 -3.21875 -9.671875zm4.34375 0q0 4.78125 2.078125 7.171875q2.09375 2.375 5.25 2.375q3.140625 0 5.21875 -2.390625q2.09375 -2.390625 2.09375 -7.296875q0 -4.609375 -2.09375 -6.984375q-2.09375 -2.390625 -5.21875 -2.390625q-3.15625 0 -5.25 2.375q-2.078125 2.359375 -2.078125 7.140625zm23.929688 12.453125l0 -24.890625l3.796875 0l0 3.53125q2.734375 -4.09375 7.921875 -4.09375q2.25 0 4.125 0.8125q1.890625 0.796875 2.828125 2.109375q0.9375 1.3125 1.3125 3.125q0.234375 1.171875 0.234375 4.09375l0 15.3125l-4.21875 0l0 -15.140625q0 -2.578125 -0.5 -3.859375q-0.484375 -1.28125 -1.734375 -2.03125q-1.25 -0.765625 -2.9375 -0.765625q-2.703125 0 -4.65625 1.71875q-1.953125 1.703125 -1.953125 6.484375l0 13.59375l-4.21875 0zm25.007812 -7.4375l4.171875 -0.65625q0.34375 2.515625 1.953125 3.859375q1.609375 1.328125 4.484375 1.328125q2.90625 0 4.3125 -1.1875q1.40625 -1.1875 1.40625 -2.78125q0 -1.421875 -1.234375 -2.25q-0.875 -0.5625 -4.3125 -1.421875q-4.640625 -1.171875 -6.4375 -2.03125q-1.796875 -0.859375 -2.71875 -2.359375q-0.921875 -1.515625 -0.921875 -3.34375q0 -1.671875 0.75 -3.078125q0.765625 -1.421875 2.078125 -2.359375q0.984375 -0.734375 2.6875 -1.234375q1.703125 -0.5 3.640625 -0.5q2.9375 0 5.140625 0.84375q2.21875 0.84375 3.265625 2.28125q1.0625 1.4375 1.46875 3.859375l-4.125 0.5625q-0.28125 -1.921875 -1.640625 -3.0q-1.34375 -1.078125 -3.796875 -1.078125q-2.90625 0 -4.15625 0.96875q-1.234375 0.953125 -1.234375 2.234375q0 0.828125 0.515625 1.484375q0.515625 0.671875 1.609375 1.125q0.640625 0.234375 3.734375 1.078125q4.46875 1.1875 6.234375 1.953125q1.78125 0.765625 2.78125 2.21875q1.015625 1.453125 1.015625 3.609375q0 2.109375 -1.234375 3.96875q-1.234375 1.859375 -3.5625 2.890625q-2.3125 1.015625 -5.234375 1.015625q-4.859375 0 -7.40625 -2.015625q-2.53125 -2.015625 -3.234375 -5.984375z" fill-rule="nonzero"></path><path fill="#000000" d="m140.54968 450.6878q2.578125 0 5.0625 1.34375q2.484375 1.328125 3.859375 3.8125q1.390625 2.484375 1.390625 5.15625q0 4.28125 -3.03125 7.3125q-3.015625 3.015625 -7.28125 3.015625q-4.296875 0 -7.328125 -3.015625q-3.015625 -3.03125 -3.015625 -7.3125q0 -2.703125 1.375 -5.171875q1.390625 -2.46875 3.875 -3.796875q2.484375 -1.34375 5.09375 -1.34375z" fill-rule="nonzero"></path><path fill="#000000" d="m183.51062 474.54718l0 -34.359375l4.546875 0l0 34.359375l-4.546875 0zm28.164062 0l0 -3.140625q-2.359375 3.703125 -6.953125 3.703125q-2.984375 0 -5.484375 -1.640625q-2.484375 -1.640625 -3.859375 -4.578125q-1.375 -2.953125 -1.375 -6.765625q0 -3.734375 1.234375 -6.765625q1.25 -3.03125 3.734375 -4.640625q2.484375 -1.625 5.5625 -1.625q2.25 0 4.0 0.953125q1.765625 0.9375 2.859375 2.46875l0 -12.328125l4.203125 0l0 34.359375l-3.921875 0zm-13.328125 -12.421875q0 4.78125 2.015625 7.15625q2.015625 2.359375 4.75 2.359375q2.765625 0 4.703125 -2.265625q1.9375 -2.265625 1.9375 -6.90625q0 -5.109375 -1.96875 -7.5q-1.96875 -2.390625 -4.859375 -2.390625q-2.8125 0 -4.703125 2.296875q-1.875 2.296875 -1.875 7.25zm40.914062 4.40625l4.359375 0.53125q-1.03125 3.828125 -3.828125 5.9375q-2.78125 2.109375 -7.109375 2.109375q-5.46875 0 -8.671875 -3.359375q-3.1875 -3.375 -3.1875 -9.4375q0 -6.28125 3.234375 -9.75q3.234375 -3.46875 8.390625 -3.46875q4.984375 0 8.140625 3.40625q3.171875 3.390625 3.171875 9.546875q0 0.375 -0.015625 1.125l-18.5625 0q0.234375 4.109375 2.3125 6.296875q2.09375 2.171875 5.203125 2.171875q2.328125 0 3.96875 -1.21875q1.640625 -1.21875 2.59375 -3.890625zm-13.84375 -6.828125l13.890625 0q-0.28125 -3.140625 -1.59375 -4.703125q-2.015625 -2.4375 -5.21875 -2.4375q-2.90625 0 -4.890625 1.953125q-1.984375 1.9375 -2.1875 5.1875zm23.507812 14.84375l0 -24.890625l3.796875 0l0 3.53125q2.734375 -4.09375 7.921875 -4.09375q2.25 0 4.125 0.8125q1.890625 0.796875 2.828125 2.109375q0.9375 1.3125 1.3125 3.125q0.234375 1.171875 0.234375 4.09375l0 15.3125l-4.21875 0l0 -15.140625q0 -2.578125 -0.5 -3.859375q-0.484375 -1.28125 -1.734375 -2.03125q-1.25 -0.765625 -2.9375 -0.765625q-2.703125 0 -4.65625 1.71875q-1.953125 1.703125 -1.953125 6.484375l0 13.59375l-4.21875 0zm35.898438 -3.78125l0.609375 3.734375q-1.78125 0.375 -3.1875 0.375q-2.296875 0 -3.5625 -0.71875q-1.265625 -0.734375 -1.78125 -1.921875q-0.515625 -1.1875 -0.515625 -4.984375l0 -14.3125l-3.09375 0l0 -3.28125l3.09375 0l0 -6.171875l4.203125 -2.53125l0 8.703125l4.234375 0l0 3.28125l-4.234375 0l0 14.546875q0 1.8125 0.21875 2.328125q0.21875 0.515625 0.71875 0.828125q0.515625 0.296875 1.453125 0.296875q0.703125 0 1.84375 -0.171875zm4.1484375 -25.734375l0 -4.84375l4.21875 0l0 4.84375l-4.21875 0zm0 29.515625l0 -24.890625l4.21875 0l0 24.890625l-4.21875 0zm11.6484375 0l0 -21.609375l-3.71875 0l0 -3.28125l3.71875 0l0 -2.65625q0 -2.5 0.453125 -3.71875q0.609375 -1.640625 2.140625 -2.65625q1.53125 -1.03125 4.296875 -1.03125q1.78125 0 3.9375 0.421875l-0.625 3.6875q-1.3125 -0.234375 -2.484375 -0.234375q-1.921875 0 -2.71875 0.828125q-0.796875 0.8125 -0.796875 3.0625l0 2.296875l4.84375 0l0 3.28125l-4.84375 0l0 21.609375l-4.203125 0zm12.3515625 -29.515625l0 -4.84375l4.21875 0l0 4.84375l-4.21875 0zm0 29.515625l0 -24.890625l4.21875 0l0 24.890625l-4.21875 0zm27.679688 -8.015625l4.359375 0.53125q-1.03125 3.828125 -3.828125 5.9375q-2.78125 2.109375 -7.109375 2.109375q-5.46875 0 -8.671875 -3.359375q-3.1875 -3.375 -3.1875 -9.4375q0 -6.28125 3.234375 -9.75q3.234375 -3.46875 8.390625 -3.46875q4.984375 0 8.140625 3.40625q3.171875 3.390625 3.171875 9.546875q0 0.375 -0.015625 1.125l-18.5625 0q0.234375 4.109375 2.3125 6.296875q2.09375 2.171875 5.203125 2.171875q2.328125 0 3.96875 -1.21875q1.640625 -1.21875 2.59375 -3.890625zm-13.84375 -6.828125l13.890625 0q-0.28125 -3.140625 -1.59375 -4.703125q-2.015625 -2.4375 -5.21875 -2.4375q-2.90625 0 -4.890625 1.953125q-1.984375 1.9375 -2.1875 5.1875zm23.460938 14.84375l0 -24.890625l3.796875 0l0 3.765625q1.453125 -2.640625 2.671875 -3.484375q1.234375 -0.84375 2.71875 -0.84375q2.125 0 4.328125 1.359375l-1.453125 3.90625q-1.546875 -0.90625 -3.09375 -0.90625q-1.375 0 -2.484375 0.828125q-1.09375 0.828125 -1.5625 2.3125q-0.703125 2.25 -0.703125 4.921875l0 13.03125l-4.21875 0zm14.34375 -7.4375l4.171875 -0.65625q0.34375 2.515625 1.953125 3.859375q1.609375 1.328125 4.484375 1.328125q2.90625 0 4.3125 -1.1875q1.40625 -1.1875 1.40625 -2.78125q0 -1.421875 -1.234375 -2.25q-0.875 -0.5625 -4.3125 -1.421875q-4.640625 -1.171875 -6.4375 -2.03125q-1.796875 -0.859375 -2.71875 -2.359375q-0.921875 -1.515625 -0.921875 -3.34375q0 -1.671875 0.75 -3.078125q0.765625 -1.421875 2.078125 -2.359375q0.984375 -0.734375 2.6875 -1.234375q1.703125 -0.5 3.640625 -0.5q2.9375 0 5.140625 0.84375q2.21875 0.84375 3.265625 2.28125q1.0625 1.4375 1.46875 3.859375l-4.125 0.5625q-0.28125 -1.921875 -1.640625 -3.0q-1.34375 -1.078125 -3.796875 -1.078125q-2.90625 0 -4.15625 0.96875q-1.234375 0.953125 -1.234375 2.234375q0 0.828125 0.515625 1.484375q0.515625 0.671875 1.609375 1.125q0.640625 0.234375 3.734375 1.078125q4.46875 1.1875 6.234375 1.953125q1.78125 0.765625 2.78125 2.21875q1.015625 1.453125 1.015625 3.609375q0 2.109375 -1.234375 3.96875q-1.234375 1.859375 -3.5625 2.890625q-2.3125 1.015625 -5.234375 1.015625q-4.859375 0 -7.40625 -2.015625q-2.53125 -2.015625 -3.234375 -5.984375z" fill-rule="nonzero"></path><path fill="#000000" d="m140.54968 508.6878q2.578125 0 5.0625 1.34375q2.484375 1.328125 3.859375 3.8125q1.390625 2.484375 1.390625 5.15625q0 4.28125 -3.03125 7.3125q-3.015625 3.015625 -7.28125 3.015625q-4.296875 0 -7.328125 -3.015625q-3.015625 -3.03125 -3.015625 -7.3125q0 -2.703125 1.375 -5.171875q1.390625 -2.46875 3.875 -3.796875q2.484375 -1.34375 5.09375 -1.34375z" fill-rule="nonzero"></path><path fill="#000000" d="m208.77625 528.8597q3.15625 2.1875 5.828125 3.1875l-1.328125 3.171875q-3.703125 -1.328125 -7.390625 -4.21875q-3.8125 2.140625 -8.4375 2.140625q-4.65625 0 -8.453125 -2.25q-3.796875 -2.265625 -5.859375 -6.34375q-2.046875 -4.078125 -2.046875 -9.1875q0 -5.078125 2.0625 -9.25q2.0625 -4.171875 5.875 -6.34375q3.8125 -2.1875 8.515625 -2.1875q4.765625 0 8.578125 2.265625q3.828125 2.25 5.828125 6.328125q2.0 4.0625 2.0 9.171875q0 4.234375 -1.296875 7.625q-1.28125 3.390625 -3.875 5.890625zm-10.015625 -5.8125q3.9375 1.109375 6.5 3.28125q4.0 -3.65625 4.0 -10.984375q0 -4.171875 -1.421875 -7.28125q-1.40625 -3.125 -4.140625 -4.84375q-2.734375 -1.734375 -6.125 -1.734375q-5.09375 0 -8.453125 3.484375q-3.34375 3.484375 -3.34375 10.390625q0 6.703125 3.3125 10.296875q3.328125 3.578125 8.484375 3.578125q2.4375 0 4.59375 -0.90625q-2.140625 -1.390625 -4.5 -1.96875l1.09375 -3.3125zm37.085938 9.5l0 -3.65625q-2.90625 4.21875 -7.90625 4.21875q-2.203125 0 -4.109375 -0.84375q-1.90625 -0.84375 -2.84375 -2.125q-0.921875 -1.28125 -1.296875 -3.125q-0.25 -1.25 -0.25 -3.9375l0 -15.421875l4.21875 0l0 13.796875q0 3.3125 0.25 4.453125q0.40625 1.671875 1.6875 2.625q1.296875 0.9375 3.1875 0.9375q1.90625 0 3.5625 -0.96875q1.671875 -0.96875 2.359375 -2.640625q0.6875 -1.6875 0.6875 -4.875l0 -13.328125l4.21875 0l0 24.890625l-3.765625 0zm26.617188 -3.078125q-2.34375 2.0 -4.515625 2.828125q-2.15625 0.8125 -4.640625 0.8125q-4.109375 0 -6.3125 -2.0q-2.203125 -2.015625 -2.203125 -5.125q0 -1.828125 0.828125 -3.34375q0.84375 -1.515625 2.1875 -2.421875q1.34375 -0.921875 3.03125 -1.390625q1.25 -0.328125 3.75 -0.625q5.109375 -0.609375 7.53125 -1.453125q0.015625 -0.875 0.015625 -1.109375q0 -2.578125 -1.1875 -3.625q-1.625 -1.4375 -4.8125 -1.4375q-2.96875 0 -4.390625 1.046875q-1.421875 1.046875 -2.09375 3.6875l-4.125 -0.5625q0.5625 -2.640625 1.84375 -4.265625q1.296875 -1.640625 3.734375 -2.515625q2.4375 -0.875 5.640625 -0.875q3.1875 0 5.171875 0.75q2.0 0.75 2.9375 1.890625q0.9375 1.125 1.3125 2.859375q0.21875 1.078125 0.21875 3.890625l0 5.625q0 5.890625 0.265625 7.453125q0.265625 1.546875 1.0625 2.984375l-4.40625 0q-0.65625 -1.3125 -0.84375 -3.078125zm-0.34375 -9.421875q-2.296875 0.9375 -6.890625 1.59375q-2.609375 0.375 -3.6875 0.84375q-1.078125 0.46875 -1.671875 1.375q-0.578125 0.90625 -0.578125 2.0q0 1.6875 1.28125 2.8125q1.28125 1.125 3.734375 1.125q2.4375 0 4.328125 -1.0625q1.90625 -1.0625 2.796875 -2.921875q0.6875 -1.421875 0.6875 -4.21875l0 -1.546875zm10.8046875 12.5l0 -24.890625l3.796875 0l0 3.53125q2.734375 -4.09375 7.921875 -4.09375q2.25 0 4.125 0.8125q1.890625 0.796875 2.828125 2.109375q0.9375 1.3125 1.3125 3.125q0.234375 1.171875 0.234375 4.09375l0 15.3125l-4.21875 0l0 -15.140625q0 -2.578125 -0.5 -3.859375q-0.484375 -1.28125 -1.734375 -2.03125q-1.25 -0.765625 -2.9375 -0.765625q-2.703125 0 -4.65625 1.71875q-1.953125 1.703125 -1.953125 6.484375l0 13.59375l-4.21875 0zm35.898438 -3.78125l0.609375 3.734375q-1.78125 0.375 -3.1875 0.375q-2.296875 0 -3.5625 -0.71875q-1.265625 -0.734375 -1.78125 -1.921875q-0.515625 -1.1875 -0.515625 -4.984375l0 -14.3125l-3.09375 0l0 -3.28125l3.09375 0l0 -6.171875l4.203125 -2.53125l0 8.703125l4.234375 0l0 3.28125l-4.234375 0l0 14.546875q0 1.8125 0.21875 2.328125q0.21875 0.515625 0.71875 0.828125q0.515625 0.296875 1.453125 0.296875q0.703125 0 1.84375 -0.171875zm4.1484375 -25.734375l0 -4.84375l4.21875 0l0 4.84375l-4.21875 0zm0 29.515625l0 -24.890625l4.21875 0l0 24.890625l-4.21875 0zm19.851562 -3.78125l0.609375 3.734375q-1.78125 0.375 -3.1875 0.375q-2.296875 0 -3.5625 -0.71875q-1.265625 -0.734375 -1.78125 -1.921875q-0.515625 -1.1875 -0.515625 -4.984375l0 -14.3125l-3.09375 0l0 -3.28125l3.09375 0l0 -6.171875l4.203125 -2.53125l0 8.703125l4.234375 0l0 3.28125l-4.234375 0l0 14.546875q0 1.8125 0.21875 2.328125q0.21875 0.515625 0.71875 0.828125q0.515625 0.296875 1.453125 0.296875q0.703125 0 1.84375 -0.171875zm20.367188 0.703125q-2.34375 2.0 -4.515625 2.828125q-2.15625 0.8125 -4.640625 0.8125q-4.109375 0 -6.3125 -2.0q-2.203125 -2.015625 -2.203125 -5.125q0 -1.828125 0.828125 -3.34375q0.84375 -1.515625 2.1875 -2.421875q1.34375 -0.921875 3.03125 -1.390625q1.25 -0.328125 3.75 -0.625q5.109375 -0.609375 7.53125 -1.453125q0.015625 -0.875 0.015625 -1.109375q0 -2.578125 -1.1875 -3.625q-1.625 -1.4375 -4.8125 -1.4375q-2.96875 0 -4.390625 1.046875q-1.421875 1.046875 -2.09375 3.6875l-4.125 -0.5625q0.5625 -2.640625 1.84375 -4.265625q1.296875 -1.640625 3.734375 -2.515625q2.4375 -0.875 5.640625 -0.875q3.1875 0 5.171875 0.75q2.0 0.75 2.9375 1.890625q0.9375 1.125 1.3125 2.859375q0.21875 1.078125 0.21875 3.890625l0 5.625q0 5.890625 0.265625 7.453125q0.265625 1.546875 1.0625 2.984375l-4.40625 0q-0.65625 -1.3125 -0.84375 -3.078125zm-0.34375 -9.421875q-2.296875 0.9375 -6.890625 1.59375q-2.609375 0.375 -3.6875 0.84375q-1.078125 0.46875 -1.671875 1.375q-0.578125 0.90625 -0.578125 2.0q0 1.6875 1.28125 2.8125q1.28125 1.125 3.734375 1.125q2.4375 0 4.328125 -1.0625q1.90625 -1.0625 2.796875 -2.921875q0.6875 -1.421875 0.6875 -4.21875l0 -1.546875zm20.007812 8.71875l0.609375 3.734375q-1.78125 0.375 -3.1875 0.375q-2.296875 0 -3.5625 -0.71875q-1.265625 -0.734375 -1.78125 -1.921875q-0.515625 -1.1875 -0.515625 -4.984375l0 -14.3125l-3.09375 0l0 -3.28125l3.09375 0l0 -6.171875l4.203125 -2.53125l0 8.703125l4.234375 0l0 3.28125l-4.234375 0l0 14.546875q0 1.8125 0.21875 2.328125q0.21875 0.515625 0.71875 0.828125q0.515625 0.296875 1.453125 0.296875q0.703125 0 1.84375 -0.171875zm4.1484375 -25.734375l0 -4.84375l4.21875 0l0 4.84375l-4.21875 0zm0 29.515625l0 -24.890625l4.21875 0l0 24.890625l-4.21875 0zm17.554688 0l-9.46875 -24.890625l4.453125 0l5.34375 14.90625q0.875 2.40625 1.59375 5.015625q0.5625 -1.96875 1.578125 -4.734375l5.53125 -15.1875l4.328125 0l-9.421875 24.890625l-3.9375 0zm34.125 -8.015625l4.359375 0.53125q-1.03125 3.828125 -3.828125 5.9375q-2.78125 2.109375 -7.109375 2.109375q-5.46875 0 -8.671875 -3.359375q-3.1875 -3.375 -3.1875 -9.4375q0 -6.28125 3.234375 -9.75q3.234375 -3.46875 8.390625 -3.46875q4.984375 0 8.140625 3.40625q3.171875 3.390625 3.171875 9.546875q0 0.375 -0.015625 1.125l-18.5625 0q0.234375 4.109375 2.3125 6.296875q2.09375 2.171875 5.203125 2.171875q2.328125 0 3.96875 -1.21875q1.640625 -1.21875 2.59375 -3.890625zm-13.84375 -6.828125l13.890625 0q-0.28125 -3.140625 -1.59375 -4.703125q-2.015625 -2.4375 -5.21875 -2.4375q-2.90625 0 -4.890625 1.953125q-1.984375 1.9375 -2.1875 5.1875zm37.1875 14.84375l0 -34.359375l12.890625 0q3.9375 0 6.3125 1.046875q2.390625 1.03125 3.734375 3.203125q1.34375 2.171875 1.34375 4.53125q0 2.203125 -1.203125 4.15625q-1.1875 1.9375 -3.59375 3.140625q3.109375 0.90625 4.78125 3.109375q1.6875 2.203125 1.6875 5.203125q0 2.421875 -1.03125 4.5q-1.015625 2.0625 -2.515625 3.1875q-1.5 1.125 -3.765625 1.703125q-2.25 0.578125 -5.53125 0.578125l-13.109375 0zm4.546875 -19.921875l7.4375 0q3.015625 0 4.328125 -0.40625q1.734375 -0.515625 2.609375 -1.703125q0.890625 -1.203125 0.890625 -3.0q0 -1.71875 -0.828125 -3.015625q-0.8125 -1.296875 -2.34375 -1.78125q-1.515625 -0.484375 -5.21875 -0.484375l-6.875 0l0 10.390625zm0 15.859375l8.5625 0q2.203125 0 3.09375 -0.15625q1.5625 -0.28125 2.609375 -0.9375q1.0625 -0.65625 1.734375 -1.90625q0.6875 -1.265625 0.6875 -2.90625q0 -1.921875 -0.984375 -3.328125q-0.984375 -1.421875 -2.734375 -2.0q-1.734375 -0.578125 -5.015625 -0.578125l-7.953125 0l0 11.8125zm27.140625 -25.453125l0 -4.84375l4.21875 0l0 4.84375l-4.21875 0zm0 29.515625l0 -24.890625l4.21875 0l0 24.890625l-4.21875 0zm10.6484375 0l0 -24.890625l3.796875 0l0 3.53125q2.734375 -4.09375 7.921875 -4.09375q2.25 0 4.125 0.8125q1.890625 0.796875 2.828125 2.109375q0.9375 1.3125 1.3125 3.125q0.234375 1.171875 0.234375 4.09375l0 15.3125l-4.21875 0l0 -15.140625q0 -2.578125 -0.5 -3.859375q-0.484375 -1.28125 -1.734375 -2.03125q-1.25 -0.765625 -2.9375 -0.765625q-2.703125 0 -4.65625 1.71875q-1.953125 1.703125 -1.953125 6.484375l0 13.59375l-4.21875 0zm25.007812 -7.4375l4.171875 -0.65625q0.34375 2.515625 1.953125 3.859375q1.609375 1.328125 4.484375 1.328125q2.90625 0 4.3125 -1.1875q1.40625 -1.1875 1.40625 -2.78125q0 -1.421875 -1.234375 -2.25q-0.875 -0.5625 -4.3125 -1.421875q-4.640625 -1.171875 -6.4375 -2.03125q-1.796875 -0.859375 -2.71875 -2.359375q-0.921875 -1.515625 -0.921875 -3.34375q0 -1.671875 0.75 -3.078125q0.765625 -1.421875 2.078125 -2.359375q0.984375 -0.734375 2.6875 -1.234375q1.703125 -0.5 3.640625 -0.5q2.9375 0 5.140625 0.84375q2.21875 0.84375 3.265625 2.28125q1.0625 1.4375 1.46875 3.859375l-4.125 0.5625q-0.28125 -1.921875 -1.640625 -3.0q-1.34375 -1.078125 -3.796875 -1.078125q-2.90625 0 -4.15625 0.96875q-1.234375 0.953125 -1.234375 2.234375q0 0.828125 0.515625 1.484375q0.515625 0.671875 1.609375 1.125q0.640625 0.234375 3.734375 1.078125q4.46875 1.1875 6.234375 1.953125q1.78125 0.765625 2.78125 2.21875q1.015625 1.453125 1.015625 3.609375q0 2.109375 -1.234375 3.96875q-1.234375 1.859375 -3.5625 2.890625q-2.3125 1.015625 -5.234375 1.015625q-4.859375 0 -7.40625 -2.015625q-2.53125 -2.015625 -3.234375 -5.984375z" fill-rule="nonzero"></path><path fill="#000000" d="m140.54968 566.6878q2.578125 0 5.0625 1.34375q2.484375 1.328125 3.859375 3.8125q1.390625 2.484375 1.390625 5.15625q0 4.28125 -3.03125 7.3125q-3.015625 3.015625 -7.28125 3.015625q-4.296875 0 -7.328125 -3.015625q-3.015625 -3.03125 -3.015625 -7.3125q0 -2.703125 1.375 -5.171875q1.390625 -2.46875 3.875 -3.796875q2.484375 -1.34375 5.09375 -1.34375z" fill-rule="nonzero"></path><path fill="#000000" d="m191.47937 590.5472l0 -30.3125l-11.328125 0l0 -4.046875l27.234375 0l0 4.046875l-11.359375 0l0 30.3125l-4.546875 0zm37.070312 -8.015625l4.359375 0.53125q-1.03125 3.828125 -3.828125 5.9375q-2.78125 2.109375 -7.109375 2.109375q-5.46875 0 -8.671875 -3.359375q-3.1875 -3.375 -3.1875 -9.4375q0 -6.28125 3.234375 -9.75q3.234375 -3.46875 8.390625 -3.46875q4.984375 0 8.140625 3.40625q3.171875 3.390625 3.171875 9.546875q0 0.375 -0.015625 1.125l-18.5625 0q0.234375 4.109375 2.3125 6.296875q2.09375 2.171875 5.203125 2.171875q2.328125 0 3.96875 -1.21875q1.640625 -1.21875 2.59375 -3.890625zm-13.84375 -6.828125l13.890625 0q-0.28125 -3.140625 -1.59375 -4.703125q-2.015625 -2.4375 -5.21875 -2.4375q-2.90625 0 -4.890625 1.953125q-1.984375 1.9375 -2.1875 5.1875zm23.507812 14.84375l0 -24.890625l3.765625 0l0 3.484375q1.171875 -1.828125 3.109375 -2.9375q1.953125 -1.109375 4.4375 -1.109375q2.765625 0 4.53125 1.15625q1.78125 1.140625 2.5 3.203125q2.953125 -4.359375 7.6875 -4.359375q3.703125 0 5.6875 2.046875q2.0 2.046875 2.0 6.3125l0 17.09375l-4.1875 0l0 -15.6875q0 -2.53125 -0.421875 -3.640625q-0.40625 -1.109375 -1.484375 -1.78125q-1.078125 -0.6875 -2.53125 -0.6875q-2.625 0 -4.359375 1.75q-1.734375 1.734375 -1.734375 5.578125l0 14.46875l-4.21875 0l0 -16.171875q0 -2.8125 -1.03125 -4.21875q-1.03125 -1.40625 -3.375 -1.40625q-1.78125 0 -3.296875 0.9375q-1.5 0.9375 -2.1875 2.75q-0.671875 1.796875 -0.671875 5.1875l0 12.921875l-4.21875 0zm39.984375 9.546875l0 -34.4375l3.84375 0l0 3.234375q1.359375 -1.90625 3.0625 -2.84375q1.71875 -0.953125 4.15625 -0.953125q3.1875 0 5.625 1.640625q2.4375 1.640625 3.671875 4.625q1.25 2.984375 1.25 6.546875q0 3.828125 -1.375 6.890625q-1.375 3.046875 -3.984375 4.6875q-2.609375 1.625 -5.5 1.625q-2.109375 0 -3.78125 -0.890625q-1.671875 -0.890625 -2.75 -2.25l0 12.125l-4.21875 0zm3.8125 -21.859375q0 4.8125 1.9375 7.109375q1.953125 2.296875 4.71875 2.296875q2.8125 0 4.8125 -2.375q2.015625 -2.390625 2.015625 -7.375q0 -4.765625 -1.96875 -7.125q-1.953125 -2.375 -4.671875 -2.375q-2.6875 0 -4.765625 2.53125q-2.078125 2.515625 -2.078125 7.3125zm21.304688 -0.140625q0 -6.90625 3.84375 -10.234375q3.21875 -2.765625 7.828125 -2.765625q5.140625 0 8.390625 3.359375q3.265625 3.359375 3.265625 9.296875q0 4.796875 -1.453125 7.5625q-1.4375 2.75 -4.1875 4.28125q-2.75 1.515625 -6.015625 1.515625q-5.21875 0 -8.453125 -3.34375q-3.21875 -3.359375 -3.21875 -9.671875zm4.34375 0q0 4.78125 2.078125 7.171875q2.09375 2.375 5.25 2.375q3.140625 0 5.21875 -2.390625q2.09375 -2.390625 2.09375 -7.296875q0 -4.609375 -2.09375 -6.984375q-2.09375 -2.390625 -5.21875 -2.390625q-3.15625 0 -5.25 2.375q-2.078125 2.359375 -2.078125 7.140625zm23.882812 12.453125l0 -24.890625l3.796875 0l0 3.765625q1.453125 -2.640625 2.671875 -3.484375q1.234375 -0.84375 2.71875 -0.84375q2.125 0 4.328125 1.359375l-1.453125 3.90625q-1.546875 -0.90625 -3.09375 -0.90625q-1.375 0 -2.484375 0.828125q-1.09375 0.828125 -1.5625 2.3125q-0.703125 2.25 -0.703125 4.921875l0 13.03125l-4.21875 0zm32.265625 -3.078125q-2.34375 2.0 -4.515625 2.828125q-2.15625 0.8125 -4.640625 0.8125q-4.109375 0 -6.3125 -2.0q-2.203125 -2.015625 -2.203125 -5.125q0 -1.828125 0.828125 -3.34375q0.84375 -1.515625 2.1875 -2.421875q1.34375 -0.921875 3.03125 -1.390625q1.25 -0.328125 3.75 -0.625q5.109375 -0.609375 7.53125 -1.453125q0.015625 -0.875 0.015625 -1.109375q0 -2.578125 -1.1875 -3.625q-1.625 -1.4375 -4.8125 -1.4375q-2.96875 0 -4.390625 1.046875q-1.421875 1.046875 -2.09375 3.6875l-4.125 -0.5625q0.5625 -2.640625 1.84375 -4.265625q1.296875 -1.640625 3.734375 -2.515625q2.4375 -0.875 5.640625 -0.875q3.1875 0 5.171875 0.75q2.0 0.75 2.9375 1.890625q0.9375 1.125 1.3125 2.859375q0.21875 1.078125 0.21875 3.890625l0 5.625q0 5.890625 0.265625 7.453125q0.265625 1.546875 1.0625 2.984375l-4.40625 0q-0.65625 -1.3125 -0.84375 -3.078125zm-0.34375 -9.421875q-2.296875 0.9375 -6.890625 1.59375q-2.609375 0.375 -3.6875 0.84375q-1.078125 0.46875 -1.671875 1.375q-0.578125 0.90625 -0.578125 2.0q0 1.6875 1.28125 2.8125q1.28125 1.125 3.734375 1.125q2.4375 0 4.328125 -1.0625q1.90625 -1.0625 2.796875 -2.921875q0.6875 -1.421875 0.6875 -4.21875l0 -1.546875zm10.7109375 12.5l0 -34.359375l4.21875 0l0 34.359375l-4.21875 0zm24.4375 0l0 -34.359375l12.890625 0q3.9375 0 6.3125 1.046875q2.390625 1.03125 3.734375 3.203125q1.34375 2.171875 1.34375 4.53125q0 2.203125 -1.203125 4.15625q-1.1875 1.9375 -3.59375 3.140625q3.109375 0.90625 4.78125 3.109375q1.6875 2.203125 1.6875 5.203125q0 2.421875 -1.03125 4.5q-1.015625 2.0625 -2.515625 3.1875q-1.5 1.125 -3.765625 1.703125q-2.25 0.578125 -5.53125 0.578125l-13.109375 0zm4.546875 -19.921875l7.4375 0q3.015625 0 4.328125 -0.40625q1.734375 -0.515625 2.609375 -1.703125q0.890625 -1.203125 0.890625 -3.0q0 -1.71875 -0.828125 -3.015625q-0.8125 -1.296875 -2.34375 -1.78125q-1.515625 -0.484375 -5.21875 -0.484375l-6.875 0l0 10.390625zm0 15.859375l8.5625 0q2.203125 0 3.09375 -0.15625q1.5625 -0.28125 2.609375 -0.9375q1.0625 -0.65625 1.734375 -1.90625q0.6875 -1.265625 0.6875 -2.90625q0 -1.921875 -0.984375 -3.328125q-0.984375 -1.421875 -2.734375 -2.0q-1.734375 -0.578125 -5.015625 -0.578125l-7.953125 0l0 11.8125zm27.140625 -25.453125l0 -4.84375l4.21875 0l0 4.84375l-4.21875 0zm0 29.515625l0 -24.890625l4.21875 0l0 24.890625l-4.21875 0zm10.6484375 0l0 -24.890625l3.796875 0l0 3.53125q2.734375 -4.09375 7.921875 -4.09375q2.25 0 4.125 0.8125q1.890625 0.796875 2.828125 2.109375q0.9375 1.3125 1.3125 3.125q0.234375 1.171875 0.234375 4.09375l0 15.3125l-4.21875 0l0 -15.140625q0 -2.578125 -0.5 -3.859375q-0.484375 -1.28125 -1.734375 -2.03125q-1.25 -0.765625 -2.9375 -0.765625q-2.703125 0 -4.65625 1.71875q-1.953125 1.703125 -1.953125 6.484375l0 13.59375l-4.21875 0zm25.007812 -7.4375l4.171875 -0.65625q0.34375 2.515625 1.953125 3.859375q1.609375 1.328125 4.484375 1.328125q2.90625 0 4.3125 -1.1875q1.40625 -1.1875 1.40625 -2.78125q0 -1.421875 -1.234375 -2.25q-0.875 -0.5625 -4.3125 -1.421875q-4.640625 -1.171875 -6.4375 -2.03125q-1.796875 -0.859375 -2.71875 -2.359375q-0.921875 -1.515625 -0.921875 -3.34375q0 -1.671875 0.75 -3.078125q0.765625 -1.421875 2.078125 -2.359375q0.984375 -0.734375 2.6875 -1.234375q1.703125 -0.5 3.640625 -0.5q2.9375 0 5.140625 0.84375q2.21875 0.84375 3.265625 2.28125q1.0625 1.4375 1.46875 3.859375l-4.125 0.5625q-0.28125 -1.921875 -1.640625 -3.0q-1.34375 -1.078125 -3.796875 -1.078125q-2.90625 0 -4.15625 0.96875q-1.234375 0.953125 -1.234375 2.234375q0 0.828125 0.515625 1.484375q0.515625 0.671875 1.609375 1.125q0.640625 0.234375 3.734375 1.078125q4.46875 1.1875 6.234375 1.953125q1.78125 0.765625 2.78125 2.21875q1.015625 1.453125 1.015625 3.609375q0 2.109375 -1.234375 3.96875q-1.234375 1.859375 -3.5625 2.890625q-2.3125 1.015625 -5.234375 1.015625q-4.859375 0 -7.40625 -2.015625q-2.53125 -2.015625 -3.234375 -5.984375z" fill-rule="nonzero"></path><path fill="#000000" d="m140.54968 624.6878q2.578125 0 5.0625 1.34375q2.484375 1.328125 3.859375 3.8125q1.390625 2.484375 1.390625 5.15625q0 4.28125 -3.03125 7.3125q-3.015625 3.015625 -7.28125 3.015625q-4.296875 0 -7.328125 -3.015625q-3.015625 -3.03125 -3.015625 -7.3125q0 -2.703125 1.375 -5.171875q1.390625 -2.46875 3.875 -3.796875q2.484375 -1.34375 5.09375 -1.34375z" fill-rule="nonzero"></path><path fill="#000000" d="m198.8075 635.0628l0 -4.03125l14.5625 -0.015625l0 12.75q-3.359375 2.671875 -6.921875 4.03125q-3.5625 1.34375 -7.3125 1.34375q-5.0625 0 -9.203125 -2.171875q-4.125 -2.171875 -6.234375 -6.265625q-2.109375 -4.109375 -2.109375 -9.171875q0 -5.015625 2.09375 -9.359375q2.09375 -4.359375 6.03125 -6.46875q3.9375 -2.109375 9.078125 -2.109375q3.71875 0 6.734375 1.21875q3.015625 1.203125 4.71875 3.359375q1.71875 2.15625 2.609375 5.625l-4.109375 1.125q-0.765625 -2.625 -1.921875 -4.125q-1.140625 -1.5 -3.28125 -2.40625q-2.125 -0.90625 -4.734375 -0.90625q-3.109375 0 -5.390625 0.953125q-2.265625 0.953125 -3.671875 2.5q-1.390625 1.546875 -2.15625 3.390625q-1.3125 3.1875 -1.3125 6.921875q0 4.59375 1.578125 7.6875q1.578125 3.09375 4.59375 4.59375q3.03125 1.5 6.4375 1.5q2.953125 0 5.765625 -1.140625q2.8125 -1.140625 4.265625 -2.421875l0 -6.40625l-10.109375 0zm37.757812 5.46875l4.359375 0.53125q-1.03125 3.828125 -3.828125 5.9375q-2.78125 2.109375 -7.109375 2.109375q-5.46875 0 -8.671875 -3.359375q-3.1875 -3.375 -3.1875 -9.4375q0 -6.28125 3.234375 -9.75q3.234375 -3.46875 8.390625 -3.46875q4.984375 0 8.140625 3.40625q3.171875 3.390625 3.171875 9.546875q0 0.375 -0.015625 1.125l-18.5625 0q0.234375 4.109375 2.3125 6.296875q2.09375 2.171875 5.203125 2.171875q2.328125 0 3.96875 -1.21875q1.640625 -1.21875 2.59375 -3.890625zm-13.84375 -6.828125l13.890625 0q-0.28125 -3.140625 -1.59375 -4.703125q-2.015625 -2.4375 -5.21875 -2.4375q-2.90625 0 -4.890625 1.953125q-1.984375 1.9375 -2.1875 5.1875zm21.929688 2.390625q0 -6.90625 3.84375 -10.234375q3.21875 -2.765625 7.828125 -2.765625q5.140625 0 8.390625 3.359375q3.265625 3.359375 3.265625 9.296875q0 4.796875 -1.453125 7.5625q-1.4375 2.75 -4.1875 4.28125q-2.75 1.515625 -6.015625 1.515625q-5.21875 0 -8.453125 -3.34375q-3.21875 -3.359375 -3.21875 -9.671875zm4.34375 0q0 4.78125 2.078125 7.171875q2.09375 2.375 5.25 2.375q3.140625 0 5.21875 -2.390625q2.09375 -2.390625 2.09375 -7.296875q0 -4.609375 -2.09375 -6.984375q-2.09375 -2.390625 -5.21875 -2.390625q-3.15625 0 -5.25 2.375q-2.078125 2.359375 -2.078125 7.140625zm23.148438 14.515625l4.109375 0.609375q0.25 1.90625 1.421875 2.765625q1.578125 1.171875 4.296875 1.171875q2.921875 0 4.515625 -1.171875q1.59375 -1.171875 2.15625 -3.28125q0.328125 -1.28125 0.3125 -5.421875q-2.765625 3.265625 -6.890625 3.265625q-5.140625 0 -7.953125 -3.703125q-2.8125 -3.703125 -2.8125 -8.890625q0 -3.5625 1.28125 -6.5625q1.296875 -3.015625 3.75 -4.65625q2.453125 -1.640625 5.75 -1.640625q4.40625 0 7.265625 3.5625l0 -3.0l3.890625 0l0 21.515625q0 5.8125 -1.1875 8.234375q-1.171875 2.4375 -3.75 3.84375q-2.5625 1.40625 -6.3125 1.40625q-4.453125 0 -7.203125 -2.015625q-2.734375 -2.0 -2.640625 -6.03125zm3.5 -14.953125q0 4.890625 1.9375 7.140625q1.953125 2.25 4.875 2.25q2.90625 0 4.875 -2.234375q1.96875 -2.234375 1.96875 -7.015625q0 -4.578125 -2.03125 -6.890625q-2.015625 -2.328125 -4.875 -2.328125q-2.8125 0 -4.78125 2.296875q-1.96875 2.28125 -1.96875 6.78125zm23.929688 12.890625l0 -24.890625l3.796875 0l0 3.765625q1.453125 -2.640625 2.671875 -3.484375q1.234375 -0.84375 2.71875 -0.84375q2.125 0 4.328125 1.359375l-1.453125 3.90625q-1.546875 -0.90625 -3.09375 -0.90625q-1.375 0 -2.484375 0.828125q-1.09375 0.828125 -1.5625 2.3125q-0.703125 2.25 -0.703125 4.921875l0 13.03125l-4.21875 0zm32.265625 -3.078125q-2.34375 2.0 -4.515625 2.828125q-2.15625 0.8125 -4.640625 0.8125q-4.109375 0 -6.3125 -2.0q-2.203125 -2.015625 -2.203125 -5.125q0 -1.828125 0.828125 -3.34375q0.84375 -1.515625 2.1875 -2.421875q1.34375 -0.921875 3.03125 -1.390625q1.25 -0.328125 3.75 -0.625q5.109375 -0.609375 7.53125 -1.453125q0.015625 -0.875 0.015625 -1.109375q0 -2.578125 -1.1875 -3.625q-1.625 -1.4375 -4.8125 -1.4375q-2.96875 0 -4.390625 1.046875q-1.421875 1.046875 -2.09375 3.6875l-4.125 -0.5625q0.5625 -2.640625 1.84375 -4.265625q1.296875 -1.640625 3.734375 -2.515625q2.4375 -0.875 5.640625 -0.875q3.1875 0 5.171875 0.75q2.0 0.75 2.9375 1.890625q0.9375 1.125 1.3125 2.859375q0.21875 1.078125 0.21875 3.890625l0 5.625q0 5.890625 0.265625 7.453125q0.265625 1.546875 1.0625 2.984375l-4.40625 0q-0.65625 -1.3125 -0.84375 -3.078125zm-0.34375 -9.421875q-2.296875 0.9375 -6.890625 1.59375q-2.609375 0.375 -3.6875 0.84375q-1.078125 0.46875 -1.671875 1.375q-0.578125 0.90625 -0.578125 2.0q0 1.6875 1.28125 2.8125q1.28125 1.125 3.734375 1.125q2.4375 0 4.328125 -1.0625q1.90625 -1.0625 2.796875 -2.921875q0.6875 -1.421875 0.6875 -4.21875l0 -1.546875zm10.8046875 22.046875l0 -34.4375l3.84375 0l0 3.234375q1.359375 -1.90625 3.0625 -2.84375q1.71875 -0.953125 4.15625 -0.953125q3.1875 0 5.625 1.640625q2.4375 1.640625 3.671875 4.625q1.25 2.984375 1.25 6.546875q0 3.828125 -1.375 6.890625q-1.375 3.046875 -3.984375 4.6875q-2.609375 1.625 -5.5 1.625q-2.109375 0 -3.78125 -0.890625q-1.671875 -0.890625 -2.75 -2.25l0 12.125l-4.21875 0zm3.8125 -21.859375q0 4.8125 1.9375 7.109375q1.953125 2.296875 4.71875 2.296875q2.8125 0 4.8125 -2.375q2.015625 -2.390625 2.015625 -7.375q0 -4.765625 -1.96875 -7.125q-1.953125 -2.375 -4.671875 -2.375q-2.6875 0 -4.765625 2.53125q-2.078125 2.515625 -2.078125 7.3125zm22.882812 12.3125l0 -34.359375l4.21875 0l0 12.328125q2.953125 -3.421875 7.453125 -3.421875q2.765625 0 4.796875 1.09375q2.046875 1.078125 2.921875 3.0q0.875 1.921875 0.875 5.578125l0 15.78125l-4.21875 0l0 -15.78125q0 -3.15625 -1.375 -4.59375q-1.359375 -1.453125 -3.875 -1.453125q-1.875 0 -3.53125 0.984375q-1.640625 0.96875 -2.34375 2.640625q-0.703125 1.65625 -0.703125 4.578125l0 13.625l-4.21875 0zm26.710938 -29.515625l0 -4.84375l4.21875 0l0 4.84375l-4.21875 0zm0 29.515625l0 -24.890625l4.21875 0l0 24.890625l-4.21875 0zm26.882812 -9.125l4.15625 0.546875q-0.6875 4.28125 -3.484375 6.71875q-2.796875 2.421875 -6.875 2.421875q-5.109375 0 -8.21875 -3.34375q-3.109375 -3.34375 -3.109375 -9.578125q0 -4.03125 1.328125 -7.046875q1.34375 -3.03125 4.078125 -4.53125q2.734375 -1.515625 5.9375 -1.515625q4.0625 0 6.640625 2.046875q2.578125 2.046875 3.296875 5.828125l-4.09375 0.625q-0.59375 -2.5 -2.078125 -3.765625q-1.484375 -1.265625 -3.59375 -1.265625q-3.1875 0 -5.1875 2.28125q-1.984375 2.28125 -1.984375 7.234375q0 5.015625 1.921875 7.296875q1.921875 2.265625 5.015625 2.265625q2.484375 0 4.140625 -1.515625q1.671875 -1.53125 2.109375 -4.703125zm21.445312 9.125l0 -34.359375l12.890625 0q3.9375 0 6.3125 1.046875q2.390625 1.03125 3.734375 3.203125q1.34375 2.171875 1.34375 4.53125q0 2.203125 -1.203125 4.15625q-1.1875 1.9375 -3.59375 3.140625q3.109375 0.90625 4.78125 3.109375q1.6875 2.203125 1.6875 5.203125q0 2.421875 -1.03125 4.5q-1.015625 2.0625 -2.515625 3.1875q-1.5 1.125 -3.765625 1.703125q-2.25 0.578125 -5.53125 0.578125l-13.109375 0zm4.546875 -19.921875l7.4375 0q3.015625 0 4.328125 -0.40625q1.734375 -0.515625 2.609375 -1.703125q0.890625 -1.203125 0.890625 -3.0q0 -1.71875 -0.828125 -3.015625q-0.8125 -1.296875 -2.34375 -1.78125q-1.515625 -0.484375 -5.21875 -0.484375l-6.875 0l0 10.390625zm0 15.859375l8.5625 0q2.203125 0 3.09375 -0.15625q1.5625 -0.28125 2.609375 -0.9375q1.0625 -0.65625 1.734375 -1.90625q0.6875 -1.265625 0.6875 -2.90625q0 -1.921875 -0.984375 -3.328125q-0.984375 -1.421875 -2.734375 -2.0q-1.734375 -0.578125 -5.015625 -0.578125l-7.953125 0l0 11.8125zm27.140625 -25.453125l0 -4.84375l4.21875 0l0 4.84375l-4.21875 0zm0 29.515625l0 -24.890625l4.21875 0l0 24.890625l-4.21875 0zm10.6484375 0l0 -24.890625l3.796875 0l0 3.53125q2.734375 -4.09375 7.921875 -4.09375q2.25 0 4.125 0.8125q1.890625 0.796875 2.828125 2.109375q0.9375 1.3125 1.3125 3.125q0.234375 1.171875 0.234375 4.09375l0 15.3125l-4.21875 0l0 -15.140625q0 -2.578125 -0.5 -3.859375q-0.484375 -1.28125 -1.734375 -2.03125q-1.25 -0.765625 -2.9375 -0.765625q-2.703125 0 -4.65625 1.71875q-1.953125 1.703125 -1.953125 6.484375l0 13.59375l-4.21875 0zm25.007812 -7.4375l4.171875 -0.65625q0.34375 2.515625 1.953125 3.859375q1.609375 1.328125 4.484375 1.328125q2.90625 0 4.3125 -1.1875q1.40625 -1.1875 1.40625 -2.78125q0 -1.421875 -1.234375 -2.25q-0.875 -0.5625 -4.3125 -1.421875q-4.640625 -1.171875 -6.4375 -2.03125q-1.796875 -0.859375 -2.71875 -2.359375q-0.921875 -1.515625 -0.921875 -3.34375q0 -1.671875 0.75 -3.078125q0.765625 -1.421875 2.078125 -2.359375q0.984375 -0.734375 2.6875 -1.234375q1.703125 -0.5 3.640625 -0.5q2.9375 0 5.140625 0.84375q2.21875 0.84375 3.265625 2.28125q1.0625 1.4375 1.46875 3.859375l-4.125 0.5625q-0.28125 -1.921875 -1.640625 -3.0q-1.34375 -1.078125 -3.796875 -1.078125q-2.90625 0 -4.15625 0.96875q-1.234375 0.953125 -1.234375 2.234375q0 0.828125 0.515625 1.484375q0.515625 0.671875 1.609375 1.125q0.640625 0.234375 3.734375 1.078125q4.46875 1.1875 6.234375 1.953125q1.78125 0.765625 2.78125 2.21875q1.015625 1.453125 1.015625 3.609375q0 2.109375 -1.234375 3.96875q-1.234375 1.859375 -3.5625 2.890625q-2.3125 1.015625 -5.234375 1.015625q-4.859375 0 -7.40625 -2.015625q-2.53125 -2.015625 -3.234375 -5.984375z" fill-rule="nonzero"></path><path stroke="#9e9e9e" stroke-width="1.0" stroke-linecap="butt" d="m100.0 191.5853l0 165.78479" fill-rule="nonzero"></path><path stroke="#9e9e9e" stroke-width="1.0" stroke-linecap="butt" d="m290.0 191.5853l0 165.78479" fill-rule="nonzero"></path><path stroke="#9e9e9e" stroke-width="1.0" stroke-linecap="butt" d="m480.0 191.5853l0 165.78479" fill-rule="nonzero"></path><path stroke="#9e9e9e" stroke-width="1.0" stroke-linecap="butt" d="m670.0 191.5853l0 165.78479" fill-rule="nonzero"></path><path stroke="#9e9e9e" stroke-width="1.0" stroke-linecap="butt" d="m860.0 191.5853l0 165.78479" fill-rule="nonzero"></path><path stroke="#9e9e9e" stroke-width="1.0" stroke-linecap="butt" d="m99.50131 192.08398l760.9973 0" fill-rule="nonzero"></path><path stroke="#9e9e9e" stroke-width="1.0" stroke-linecap="butt" d="m99.50131 233.28084l760.9973 0" fill-rule="nonzero"></path><path stroke="#9e9e9e" stroke-width="1.0" stroke-linecap="butt" d="m99.50131 274.4777l760.9973 0" fill-rule="nonzero"></path><path stroke="#9e9e9e" stroke-width="1.0" stroke-linecap="butt" d="m99.50131 315.67453l760.9973 0" fill-rule="nonzero"></path><path stroke="#9e9e9e" stroke-width="1.0" stroke-linecap="butt" d="m99.50131 356.8714l760.9973 0" fill-rule="nonzero"></path><path fill="#000000" fill-opacity="0.0" d="m598.3937 361.4672l465.60632 0l0 242.11026l-465.60632 0z" fill-rule="nonzero"></path><path fill="#000000" d="m610.9562 416.54718l0 -34.359375l6.84375 0l8.140625 24.328125q1.125 3.390625 1.640625 5.078125q0.578125 -1.875 1.828125 -5.5l8.21875 -23.90625l6.125 0l0 34.359375l-4.390625 0l0 -28.765625l-9.984375 28.765625l-4.09375 0l-9.9375 -29.25l0 29.25l-4.390625 0zm56.625 -8.015625l4.359375 0.53125q-1.03125 3.828125 -3.828125 5.9375q-2.78125 2.109375 -7.109375 2.109375q-5.46875 0 -8.671875 -3.359375q-3.1875 -3.375 -3.1875 -9.4375q0 -6.28125 3.234375 -9.75q3.234375 -3.46875 8.390625 -3.46875q4.984375 0 8.140625 3.40625q3.171875 3.390625 3.171875 9.546875q0 0.375 -0.015625 1.125l-18.5625 0q0.234375 4.109375 2.3125 6.296875q2.09375 2.171875 5.203125 2.171875q2.328125 0 3.96875 -1.21875q1.640625 -1.21875 2.59375 -3.890625zm-13.84375 -6.828125l13.890625 0q-0.28125 -3.140625 -1.59375 -4.703125q-2.015625 -2.4375 -5.21875 -2.4375q-2.90625 0 -4.890625 1.953125q-1.984375 1.9375 -2.1875 5.1875zm39.742188 11.765625q-2.34375 2.0 -4.515625 2.828125q-2.15625 0.8125 -4.640625 0.8125q-4.109375 0 -6.3125 -2.0q-2.203125 -2.015625 -2.203125 -5.125q0 -1.828125 0.828125 -3.34375q0.84375 -1.515625 2.1875 -2.421875q1.34375 -0.921875 3.03125 -1.390625q1.25 -0.328125 3.75 -0.625q5.109375 -0.609375 7.53125 -1.453125q0.015625 -0.875 0.015625 -1.109375q0 -2.578125 -1.1875 -3.625q-1.625 -1.4375 -4.8125 -1.4375q-2.96875 0 -4.390625 1.046875q-1.421875 1.046875 -2.09375 3.6875l-4.125 -0.5625q0.5625 -2.640625 1.84375 -4.265625q1.296875 -1.640625 3.734375 -2.515625q2.4375 -0.875 5.640625 -0.875q3.1875 0 5.171875 0.75q2.0 0.75 2.9375 1.890625q0.9375 1.125 1.3125 2.859375q0.21875 1.078125 0.21875 3.890625l0 5.625q0 5.890625 0.265625 7.453125q0.265625 1.546875 1.0625 2.984375l-4.40625 0q-0.65625 -1.3125 -0.84375 -3.078125zm-0.34375 -9.421875q-2.296875 0.9375 -6.890625 1.59375q-2.609375 0.375 -3.6875 0.84375q-1.078125 0.46875 -1.671875 1.375q-0.578125 0.90625 -0.578125 2.0q0 1.6875 1.28125 2.8125q1.28125 1.125 3.734375 1.125q2.4375 0 4.328125 -1.0625q1.90625 -1.0625 2.796875 -2.921875q0.6875 -1.421875 0.6875 -4.21875l0 -1.546875zm9.1171875 5.0625l4.171875 -0.65625q0.34375 2.515625 1.953125 3.859375q1.609375 1.328125 4.484375 1.328125q2.90625 0 4.3125 -1.1875q1.40625 -1.1875 1.40625 -2.78125q0 -1.421875 -1.234375 -2.25q-0.875 -0.5625 -4.3125 -1.421875q-4.640625 -1.171875 -6.4375 -2.03125q-1.796875 -0.859375 -2.71875 -2.359375q-0.921875 -1.515625 -0.921875 -3.34375q0 -1.671875 0.75 -3.078125q0.765625 -1.421875 2.078125 -2.359375q0.984375 -0.734375 2.6875 -1.234375q1.703125 -0.5 3.640625 -0.5q2.9375 0 5.140625 0.84375q2.21875 0.84375 3.265625 2.28125q1.0625 1.4375 1.46875 3.859375l-4.125 0.5625q-0.28125 -1.921875 -1.640625 -3.0q-1.34375 -1.078125 -3.796875 -1.078125q-2.90625 0 -4.15625 0.96875q-1.234375 0.953125 -1.234375 2.234375q0 0.828125 0.515625 1.484375q0.515625 0.671875 1.609375 1.125q0.640625 0.234375 3.734375 1.078125q4.46875 1.1875 6.234375 1.953125q1.78125 0.765625 2.78125 2.21875q1.015625 1.453125 1.015625 3.609375q0 2.109375 -1.234375 3.96875q-1.234375 1.859375 -3.5625 2.890625q-2.3125 1.015625 -5.234375 1.015625q-4.859375 0 -7.40625 -2.015625q-2.53125 -2.015625 -3.234375 -5.984375zm42.0 7.4375l0 -3.65625q-2.90625 4.21875 -7.90625 4.21875q-2.203125 0 -4.109375 -0.84375q-1.90625 -0.84375 -2.84375 -2.125q-0.921875 -1.28125 -1.296875 -3.125q-0.25 -1.25 -0.25 -3.9375l0 -15.421875l4.21875 0l0 13.796875q0 3.3125 0.25 4.453125q0.40625 1.671875 1.6875 2.625q1.296875 0.9375 3.1875 0.9375q1.90625 0 3.5625 -0.96875q1.671875 -0.96875 2.359375 -2.640625q0.6875 -1.6875 0.6875 -4.875l0 -13.328125l4.21875 0l0 24.890625l-3.765625 0zm10.3359375 0l0 -24.890625l3.796875 0l0 3.765625q1.453125 -2.640625 2.671875 -3.484375q1.234375 -0.84375 2.71875 -0.84375q2.125 0 4.328125 1.359375l-1.453125 3.90625q-1.546875 -0.90625 -3.09375 -0.90625q-1.375 0 -2.484375 0.828125q-1.09375 0.828125 -1.5625 2.3125q-0.703125 2.25 -0.703125 4.921875l0 13.03125l-4.21875 0zm33.0625 -8.015625l4.359375 0.53125q-1.03125 3.828125 -3.828125 5.9375q-2.78125 2.109375 -7.109375 2.109375q-5.46875 0 -8.671875 -3.359375q-3.1875 -3.375 -3.1875 -9.4375q0 -6.28125 3.234375 -9.75q3.234375 -3.46875 8.390625 -3.46875q4.984375 0 8.140625 3.40625q3.171875 3.390625 3.171875 9.546875q0 0.375 -0.015625 1.125l-18.5625 0q0.234375 4.109375 2.3125 6.296875q2.09375 2.171875 5.203125 2.171875q2.328125 0 3.96875 -1.21875q1.640625 -1.21875 2.59375 -3.890625zm-13.84375 -6.828125l13.890625 0q-0.28125 -3.140625 -1.59375 -4.703125q-2.015625 -2.4375 -5.21875 -2.4375q-2.90625 0 -4.890625 1.953125q-1.984375 1.9375 -2.1875 5.1875zm21.820312 7.40625l4.171875 -0.65625q0.34375 2.515625 1.953125 3.859375q1.609375 1.328125 4.484375 1.328125q2.90625 0 4.3125 -1.1875q1.40625 -1.1875 1.40625 -2.78125q0 -1.421875 -1.234375 -2.25q-0.875 -0.5625 -4.3125 -1.421875q-4.640625 -1.171875 -6.4375 -2.03125q-1.796875 -0.859375 -2.71875 -2.359375q-0.921875 -1.515625 -0.921875 -3.34375q0 -1.671875 0.75 -3.078125q0.765625 -1.421875 2.078125 -2.359375q0.984375 -0.734375 2.6875 -1.234375q1.703125 -0.5 3.640625 -0.5q2.9375 0 5.140625 0.84375q2.21875 0.84375 3.265625 2.28125q1.0625 1.4375 1.46875 3.859375l-4.125 0.5625q-0.28125 -1.921875 -1.640625 -3.0q-1.34375 -1.078125 -3.796875 -1.078125q-2.90625 0 -4.15625 0.96875q-1.234375 0.953125 -1.234375 2.234375q0 0.828125 0.515625 1.484375q0.515625 0.671875 1.609375 1.125q0.640625 0.234375 3.734375 1.078125q4.46875 1.1875 6.234375 1.953125q1.78125 0.765625 2.78125 2.21875q1.015625 1.453125 1.015625 3.609375q0 2.109375 -1.234375 3.96875q-1.234375 1.859375 -3.5625 2.890625q-2.3125 1.015625 -5.234375 1.015625q-4.859375 0 -7.40625 -2.015625q-2.53125 -2.015625 -3.234375 -5.984375z" fill-rule="nonzero"></path><path fill="#000000" d="m616.9171 450.6878q2.578125 0 5.0625 1.34375q2.484375 1.328125 3.859375 3.8125q1.390625 2.484375 1.390625 5.15625q0 4.28125 -3.03125 7.3125q-3.015625 3.015625 -7.28125 3.015625q-4.296875 0 -7.328125 -3.015625q-3.015625 -3.03125 -3.015625 -7.3125q0 -2.703125 1.375 -5.171875q1.390625 -2.46875 3.875 -3.796875q2.484375 -1.34375 5.09375 -1.34375z" fill-rule="nonzero"></path><path fill="#000000" d="m683.6124 462.5003l4.546875 1.140625q-1.421875 5.609375 -5.140625 8.5625q-3.71875 2.9375 -9.078125 2.9375q-5.5625 0 -9.046875 -2.265625q-3.46875 -2.265625 -5.296875 -6.546875q-1.8125 -4.296875 -1.8125 -9.21875q0 -5.375 2.046875 -9.359375q2.0625 -4.0 5.84375 -6.078125q3.78125 -2.078125 8.328125 -2.078125q5.15625 0 8.671875 2.625q3.515625 2.625 4.90625 7.390625l-4.484375 1.046875q-1.1875 -3.75 -3.46875 -5.453125q-2.265625 -1.71875 -5.71875 -1.71875q-3.953125 0 -6.625 1.90625q-2.65625 1.890625 -3.734375 5.09375q-1.078125 3.203125 -1.078125 6.59375q0 4.390625 1.28125 7.65625q1.28125 3.265625 3.96875 4.890625q2.703125 1.609375 5.84375 1.609375q3.8125 0 6.453125 -2.203125q2.65625 -2.203125 3.59375 -6.53125zm8.0390625 -0.40625q0 -6.90625 3.84375 -10.234375q3.21875 -2.765625 7.828125 -2.765625q5.140625 0 8.390625 3.359375q3.265625 3.359375 3.265625 9.296875q0 4.796875 -1.453125 7.5625q-1.4375 2.75 -4.1875 4.28125q-2.75 1.515625 -6.015625 1.515625q-5.21875 0 -8.453125 -3.34375q-3.21875 -3.359375 -3.21875 -9.671875zm4.34375 0q0 4.78125 2.078125 7.171875q2.09375 2.375 5.25 2.375q3.140625 0 5.21875 -2.390625q2.09375 -2.390625 2.09375 -7.296875q0 -4.609375 -2.09375 -6.984375q-2.09375 -2.390625 -5.21875 -2.390625q-3.15625 0 -5.25 2.375q-2.078125 2.359375 -2.078125 7.140625zm40.242188 12.453125l0 -3.65625q-2.90625 4.21875 -7.90625 4.21875q-2.203125 0 -4.109375 -0.84375q-1.90625 -0.84375 -2.84375 -2.125q-0.921875 -1.28125 -1.296875 -3.125q-0.25 -1.25 -0.25 -3.9375l0 -15.421875l4.21875 0l0 13.796875q0 3.3125 0.25 4.453125q0.40625 1.671875 1.6875 2.625q1.296875 0.9375 3.1875 0.9375q1.90625 0 3.5625 -0.96875q1.671875 -0.96875 2.359375 -2.640625q0.6875 -1.6875 0.6875 -4.875l0 -13.328125l4.21875 0l0 24.890625l-3.765625 0zm10.3828125 0l0 -24.890625l3.796875 0l0 3.53125q2.734375 -4.09375 7.921875 -4.09375q2.25 0 4.125 0.8125q1.890625 0.796875 2.828125 2.109375q0.9375 1.3125 1.3125 3.125q0.234375 1.171875 0.234375 4.09375l0 15.3125l-4.21875 0l0 -15.140625q0 -2.578125 -0.5 -3.859375q-0.484375 -1.28125 -1.734375 -2.03125q-1.25 -0.765625 -2.9375 -0.765625q-2.703125 0 -4.65625 1.71875q-1.953125 1.703125 -1.953125 6.484375l0 13.59375l-4.21875 0zm35.898438 -3.78125l0.609375 3.734375q-1.78125 0.375 -3.1875 0.375q-2.296875 0 -3.5625 -0.71875q-1.265625 -0.734375 -1.78125 -1.921875q-0.515625 -1.1875 -0.515625 -4.984375l0 -14.3125l-3.09375 0l0 -3.28125l3.09375 0l0 -6.171875l4.203125 -2.53125l0 8.703125l4.234375 0l0 3.28125l-4.234375 0l0 14.546875q0 1.8125 0.21875 2.328125q0.21875 0.515625 0.71875 0.828125q0.515625 0.296875 1.453125 0.296875q0.703125 0 1.84375 -0.171875z" fill-rule="nonzero"></path><path fill="#000000" d="m616.9171 508.6878q2.578125 0 5.0625 1.34375q2.484375 1.328125 3.859375 3.8125q1.390625 2.484375 1.390625 5.15625q0 4.28125 -3.03125 7.3125q-3.015625 3.015625 -7.28125 3.015625q-4.296875 0 -7.328125 -3.015625q-3.015625 -3.03125 -3.015625 -7.3125q0 -2.703125 1.375 -5.171875q1.390625 -2.46875 3.875 -3.796875q2.484375 -1.34375 5.09375 -1.34375z" fill-rule="nonzero"></path><path fill="#000000" d="m657.5499 521.5003l4.296875 -0.375q0.296875 2.578125 1.40625 4.234375q1.125 1.65625 3.46875 2.671875q2.34375 1.015625 5.265625 1.015625q2.609375 0 4.59375 -0.765625q2.0 -0.78125 2.96875 -2.125q0.96875 -1.34375 0.96875 -2.9375q0 -1.625 -0.9375 -2.828125q-0.9375 -1.203125 -3.09375 -2.03125q-1.375 -0.53125 -6.109375 -1.671875q-4.734375 -1.140625 -6.640625 -2.140625q-2.453125 -1.296875 -3.671875 -3.203125q-1.203125 -1.90625 -1.203125 -4.28125q0 -2.59375 1.46875 -4.859375q1.484375 -2.265625 4.3125 -3.4375q2.84375 -1.171875 6.3125 -1.171875q3.828125 0 6.734375 1.234375q2.921875 1.234375 4.484375 3.625q1.578125 2.390625 1.703125 5.40625l-4.359375 0.328125q-0.359375 -3.25 -2.390625 -4.90625q-2.015625 -1.671875 -5.984375 -1.671875q-4.125 0 -6.015625 1.515625q-1.875 1.5 -1.875 3.640625q0 1.84375 1.328125 3.046875q1.3125 1.1875 6.859375 2.453125q5.546875 1.25 7.609375 2.1875q3.0 1.375 4.421875 3.5q1.4375 2.125 1.4375 4.890625q0 2.734375 -1.578125 5.171875q-1.5625 2.421875 -4.515625 3.78125q-2.9375 1.34375 -6.609375 1.34375q-4.671875 0 -7.828125 -1.359375q-3.140625 -1.375 -4.9375 -4.09375q-1.796875 -2.734375 -1.890625 -6.1875zm49.34375 11.046875l0 -3.65625q-2.90625 4.21875 -7.90625 4.21875q-2.203125 0 -4.109375 -0.84375q-1.90625 -0.84375 -2.84375 -2.125q-0.921875 -1.28125 -1.296875 -3.125q-0.25 -1.25 -0.25 -3.9375l0 -15.421875l4.21875 0l0 13.796875q0 3.3125 0.25 4.453125q0.40625 1.671875 1.6875 2.625q1.296875 0.9375 3.1875 0.9375q1.90625 0 3.5625 -0.96875q1.671875 -0.96875 2.359375 -2.640625q0.6875 -1.6875 0.6875 -4.875l0 -13.328125l4.21875 0l0 24.890625l-3.765625 0zm10.3828125 0l0 -24.890625l3.765625 0l0 3.484375q1.171875 -1.828125 3.109375 -2.9375q1.953125 -1.109375 4.4375 -1.109375q2.765625 0 4.53125 1.15625q1.78125 1.140625 2.5 3.203125q2.953125 -4.359375 7.6875 -4.359375q3.703125 0 5.6875 2.046875q2.0 2.046875 2.0 6.3125l0 17.09375l-4.1875 0l0 -15.6875q0 -2.53125 -0.421875 -3.640625q-0.40625 -1.109375 -1.484375 -1.78125q-1.078125 -0.6875 -2.53125 -0.6875q-2.625 0 -4.359375 1.75q-1.734375 1.734375 -1.734375 5.578125l0 14.46875l-4.21875 0l0 -16.171875q0 -2.8125 -1.03125 -4.21875q-1.03125 -1.40625 -3.375 -1.40625q-1.78125 0 -3.296875 0.9375q-1.5 0.9375 -2.1875 2.75q-0.671875 1.796875 -0.671875 5.1875l0 12.921875l-4.21875 0z" fill-rule="nonzero"></path><path fill="#000000" d="m616.9171 566.6878q2.578125 0 5.0625 1.34375q2.484375 1.328125 3.859375 3.8125q1.390625 2.484375 1.390625 5.15625q0 4.28125 -3.03125 7.3125q-3.015625 3.015625 -7.28125 3.015625q-4.296875 0 -7.328125 -3.015625q-3.015625 -3.03125 -3.015625 -7.3125q0 -2.703125 1.375 -5.171875q1.390625 -2.46875 3.875 -3.796875q2.484375 -1.34375 5.09375 -1.34375z" fill-rule="nonzero"></path><path fill="#000000" d="m655.31555 590.5472l13.203125 -34.359375l4.90625 0l14.0625 34.359375l-5.1875 0l-4.0 -10.40625l-14.375 0l-3.765625 10.40625l-4.84375 0zm9.921875 -14.109375l11.65625 0l-3.59375 -9.515625q-1.640625 -4.34375 -2.4375 -7.125q-0.65625 3.296875 -1.84375 6.5625l-3.78125 10.078125zm32.25 14.109375l-9.46875 -24.890625l4.453125 0l5.34375 14.90625q0.875 2.40625 1.59375 5.015625q0.5625 -1.96875 1.578125 -4.734375l5.53125 -15.1875l4.328125 0l-9.421875 24.890625l-3.9375 0zm34.125 -8.015625l4.359375 0.53125q-1.03125 3.828125 -3.828125 5.9375q-2.78125 2.109375 -7.109375 2.109375q-5.46875 0 -8.671875 -3.359375q-3.1875 -3.375 -3.1875 -9.4375q0 -6.28125 3.234375 -9.75q3.234375 -3.46875 8.390625 -3.46875q4.984375 0 8.140625 3.40625q3.171875 3.390625 3.171875 9.546875q0 0.375 -0.015625 1.125l-18.5625 0q0.234375 4.109375 2.3125 6.296875q2.09375 2.171875 5.203125 2.171875q2.328125 0 3.96875 -1.21875q1.640625 -1.21875 2.59375 -3.890625zm-13.84375 -6.828125l13.890625 0q-0.28125 -3.140625 -1.59375 -4.703125q-2.015625 -2.4375 -5.21875 -2.4375q-2.90625 0 -4.890625 1.953125q-1.984375 1.9375 -2.1875 5.1875zm23.460938 14.84375l0 -24.890625l3.796875 0l0 3.765625q1.453125 -2.640625 2.671875 -3.484375q1.234375 -0.84375 2.71875 -0.84375q2.125 0 4.328125 1.359375l-1.453125 3.90625q-1.546875 -0.90625 -3.09375 -0.90625q-1.375 0 -2.484375 0.828125q-1.09375 0.828125 -1.5625 2.3125q-0.703125 2.25 -0.703125 4.921875l0 13.03125l-4.21875 0zm32.265625 -3.078125q-2.34375 2.0 -4.515625 2.828125q-2.15625 0.8125 -4.640625 0.8125q-4.109375 0 -6.3125 -2.0q-2.203125 -2.015625 -2.203125 -5.125q0 -1.828125 0.828125 -3.34375q0.84375 -1.515625 2.1875 -2.421875q1.34375 -0.921875 3.03125 -1.390625q1.25 -0.328125 3.75 -0.625q5.109375 -0.609375 7.53125 -1.453125q0.015625 -0.875 0.015625 -1.109375q0 -2.578125 -1.1875 -3.625q-1.625 -1.4375 -4.8125 -1.4375q-2.96875 0 -4.390625 1.046875q-1.421875 1.046875 -2.09375 3.6875l-4.125 -0.5625q0.5625 -2.640625 1.84375 -4.265625q1.296875 -1.640625 3.734375 -2.515625q2.4375 -0.875 5.640625 -0.875q3.1875 0 5.171875 0.75q2.0 0.75 2.9375 1.890625q0.9375 1.125 1.3125 2.859375q0.21875 1.078125 0.21875 3.890625l0 5.625q0 5.890625 0.265625 7.453125q0.265625 1.546875 1.0625 2.984375l-4.40625 0q-0.65625 -1.3125 -0.84375 -3.078125zm-0.34375 -9.421875q-2.296875 0.9375 -6.890625 1.59375q-2.609375 0.375 -3.6875 0.84375q-1.078125 0.46875 -1.671875 1.375q-0.578125 0.90625 -0.578125 2.0q0 1.6875 1.28125 2.8125q1.28125 1.125 3.734375 1.125q2.4375 0 4.328125 -1.0625q1.90625 -1.0625 2.796875 -2.921875q0.6875 -1.421875 0.6875 -4.21875l0 -1.546875zm10.0234375 14.5625l4.109375 0.609375q0.25 1.90625 1.421875 2.765625q1.578125 1.171875 4.296875 1.171875q2.921875 0 4.515625 -1.171875q1.59375 -1.171875 2.15625 -3.28125q0.328125 -1.28125 0.3125 -5.421875q-2.765625 3.265625 -6.890625 3.265625q-5.140625 0 -7.953125 -3.703125q-2.8125 -3.703125 -2.8125 -8.890625q0 -3.5625 1.28125 -6.5625q1.296875 -3.015625 3.75 -4.65625q2.453125 -1.640625 5.75 -1.640625q4.40625 0 7.265625 3.5625l0 -3.0l3.890625 0l0 21.515625q0 5.8125 -1.1875 8.234375q-1.171875 2.4375 -3.75 3.84375q-2.5625 1.40625 -6.3125 1.40625q-4.453125 0 -7.203125 -2.015625q-2.734375 -2.0 -2.640625 -6.03125zm3.5 -14.953125q0 4.890625 1.9375 7.140625q1.953125 2.25 4.875 2.25q2.90625 0 4.875 -2.234375q1.96875 -2.234375 1.96875 -7.015625q0 -4.578125 -2.03125 -6.890625q-2.015625 -2.328125 -4.875 -2.328125q-2.8125 0 -4.78125 2.296875q-1.96875 2.28125 -1.96875 6.78125zm41.007812 4.875l4.359375 0.53125q-1.03125 3.828125 -3.828125 5.9375q-2.78125 2.109375 -7.109375 2.109375q-5.46875 0 -8.671875 -3.359375q-3.1875 -3.375 -3.1875 -9.4375q0 -6.28125 3.234375 -9.75q3.234375 -3.46875 8.390625 -3.46875q4.984375 0 8.140625 3.40625q3.171875 3.390625 3.171875 9.546875q0 0.375 -0.015625 1.125l-18.5625 0q0.234375 4.109375 2.3125 6.296875q2.09375 2.171875 5.203125 2.171875q2.328125 0 3.96875 -1.21875q1.640625 -1.21875 2.59375 -3.890625zm-13.84375 -6.828125l13.890625 0q-0.28125 -3.140625 -1.59375 -4.703125q-2.015625 -2.4375 -5.21875 -2.4375q-2.90625 0 -4.890625 1.953125q-1.984375 1.9375 -2.1875 5.1875z" fill-rule="nonzero"></path><path fill="#000000" d="m616.9171 624.6878q2.578125 0 5.0625 1.34375q2.484375 1.328125 3.859375 3.8125q1.390625 2.484375 1.390625 5.15625q0 4.28125 -3.03125 7.3125q-3.015625 3.015625 -7.28125 3.015625q-4.296875 0 -7.328125 -3.015625q-3.015625 -3.03125 -3.015625 -7.3125q0 -2.703125 1.375 -5.171875q1.390625 -2.46875 3.875 -3.796875q2.484375 -1.34375 5.09375 -1.34375z" fill-rule="nonzero"></path><path fill="#000000" d="m658.9562 648.5472l0 -34.359375l6.84375 0l8.140625 24.328125q1.125 3.390625 1.640625 5.078125q0.578125 -1.875 1.828125 -5.5l8.21875 -23.90625l6.125 0l0 34.359375l-4.390625 0l0 -28.765625l-9.984375 28.765625l-4.09375 0l-9.9375 -29.25l0 29.25l-4.390625 0zm39.609375 -29.515625l0 -4.84375l4.21875 0l0 4.84375l-4.21875 0zm0 29.515625l0 -24.890625l4.21875 0l0 24.890625l-4.21875 0zm10.6484375 0l0 -24.890625l3.796875 0l0 3.53125q2.734375 -4.09375 7.921875 -4.09375q2.25 0 4.125 0.8125q1.890625 0.796875 2.828125 2.109375q0.9375 1.3125 1.3125 3.125q0.234375 1.171875 0.234375 4.09375l0 15.3125l-4.21875 0l0 -15.140625q0 -2.578125 -0.5 -3.859375q-0.484375 -1.28125 -1.734375 -2.03125q-1.25 -0.765625 -2.9375 -0.765625q-2.703125 0 -4.65625 1.71875q-1.953125 1.703125 -1.953125 6.484375l0 13.59375l-4.21875 0zm27.789062 0l0 -4.8125l4.8125 0l0 4.8125q0 2.65625 -0.9375 4.28125q-0.9375 1.625 -2.984375 2.515625l-1.171875 -1.796875q1.34375 -0.59375 1.96875 -1.734375q0.640625 -1.125 0.703125 -3.265625l-2.390625 0zm25.96875 0l0 -34.359375l6.84375 0l8.140625 24.328125q1.125 3.390625 1.640625 5.078125q0.578125 -1.875 1.828125 -5.5l8.21875 -23.90625l6.125 0l0 34.359375l-4.390625 0l0 -28.765625l-9.984375 28.765625l-4.09375 0l-9.9375 -29.25l0 29.25l-4.390625 0zm55.828125 -3.078125q-2.34375 2.0 -4.515625 2.828125q-2.15625 0.8125 -4.640625 0.8125q-4.109375 0 -6.3125 -2.0q-2.203125 -2.015625 -2.203125 -5.125q0 -1.828125 0.828125 -3.34375q0.84375 -1.515625 2.1875 -2.421875q1.34375 -0.921875 3.03125 -1.390625q1.25 -0.328125 3.75 -0.625q5.109375 -0.609375 7.53125 -1.453125q0.015625 -0.875 0.015625 -1.109375q0 -2.578125 -1.1875 -3.625q-1.625 -1.4375 -4.8125 -1.4375q-2.96875 0 -4.390625 1.046875q-1.421875 1.046875 -2.09375 3.6875l-4.125 -0.5625q0.5625 -2.640625 1.84375 -4.265625q1.296875 -1.640625 3.734375 -2.515625q2.4375 -0.875 5.640625 -0.875q3.1875 0 5.171875 0.75q2.0 0.75 2.9375 1.890625q0.9375 1.125 1.3125 2.859375q0.21875 1.078125 0.21875 3.890625l0 5.625q0 5.890625 0.265625 7.453125q0.265625 1.546875 1.0625 2.984375l-4.40625 0q-0.65625 -1.3125 -0.84375 -3.078125zm-0.34375 -9.421875q-2.296875 0.9375 -6.890625 1.59375q-2.609375 0.375 -3.6875 0.84375q-1.078125 0.46875 -1.671875 1.375q-0.578125 0.90625 -0.578125 2.0q0 1.6875 1.28125 2.8125q1.28125 1.125 3.734375 1.125q2.4375 0 4.328125 -1.0625q1.90625 -1.0625 2.796875 -2.921875q0.6875 -1.421875 0.6875 -4.21875l0 -1.546875zm7.9921875 12.5l9.09375 -12.9375l-8.421875 -11.953125l5.28125 0l3.8125 5.828125q1.078125 1.671875 1.734375 2.796875q1.03125 -1.546875 1.90625 -2.75l4.1875 -5.875l5.046875 0l-8.609375 11.71875l9.265625 13.171875l-5.1875 0l-5.109375 -7.734375l-1.359375 -2.09375l-6.53125 9.828125l-5.109375 0z" fill-rule="nonzero"></path><path fill="#000000" fill-opacity="0.0" d="m73.84252 120.72441l844.31494 0l0 98.83464l-844.31494 0z" fill-rule="nonzero"></path><path fill="#000000" d="m386.42383 176.54628q-2.90625 -3.671875 -4.921875 -8.59375q-2.015625 -4.921875 -2.015625 -10.203125q0 -4.640625 1.5 -8.90625q1.765625 -4.9375 5.4375 -9.84375l2.515625 0q-2.359375 4.0625 -3.125 5.796875q-1.1875 2.703125 -1.875 5.625q-0.84375 3.65625 -0.84375 7.34375q0 9.40625 5.84375 18.78125l-2.515625 0zm7.0546875 -8.421875l0 -28.640625l9.859375 0q3.34375 0 5.09375 0.421875q2.46875 0.5625 4.203125 2.046875q2.265625 1.90625 3.390625 4.890625q1.125 2.984375 1.125 6.8125q0 3.25 -0.765625 5.78125q-0.765625 2.515625 -1.953125 4.171875q-1.1875 1.640625 -2.609375 2.59375q-1.421875 0.9375 -3.421875 1.4375q-2.0 0.484375 -4.59375 0.484375l-10.328125 0zm3.78125 -3.375l6.109375 0q2.84375 0 4.453125 -0.53125q1.609375 -0.53125 2.5625 -1.484375q1.34375 -1.34375 2.09375 -3.625q0.765625 -2.28125 0.765625 -5.515625q0 -4.5 -1.484375 -6.90625q-1.46875 -2.40625 -3.578125 -3.234375q-1.53125 -0.578125 -4.90625 -0.578125l-6.015625 0l0 21.875zm38.183594 0.8125q-1.953125 1.65625 -3.765625 2.34375q-1.796875 0.6875 -3.875 0.6875q-3.40625 0 -5.25 -1.671875q-1.828125 -1.671875 -1.828125 -4.265625q0 -1.53125 0.6875 -2.78125q0.6875 -1.265625 1.8125 -2.015625q1.125 -0.765625 2.53125 -1.15625q1.03125 -0.28125 3.125 -0.53125q4.265625 -0.515625 6.265625 -1.21875q0.03125 -0.71875 0.03125 -0.90625q0 -2.15625 -1.0 -3.03125q-1.34375 -1.1875 -4.0 -1.1875q-2.484375 0 -3.671875 0.875q-1.171875 0.859375 -1.75 3.0625l-3.4375 -0.46875q0.46875 -2.203125 1.546875 -3.5625q1.078125 -1.359375 3.109375 -2.09375q2.03125 -0.734375 4.703125 -0.734375q2.65625 0 4.3125 0.625q1.671875 0.625 2.453125 1.578125q0.78125 0.953125 1.09375 2.390625q0.171875 0.90625 0.171875 3.25l0 4.6875q0 4.890625 0.21875 6.203125q0.234375 1.296875 0.890625 2.484375l-3.671875 0q-0.546875 -1.09375 -0.703125 -2.5625zm-0.296875 -7.84375q-1.90625 0.78125 -5.734375 1.328125q-2.171875 0.3125 -3.078125 0.703125q-0.890625 0.390625 -1.375 1.140625q-0.484375 0.75 -0.484375 1.671875q0 1.40625 1.0625 2.34375q1.0625 0.9375 3.109375 0.9375q2.03125 0 3.609375 -0.890625q1.59375 -0.890625 2.328125 -2.4375q0.5625 -1.1875 0.5625 -3.515625l0 -1.28125zm16.683594 7.265625l0.515625 3.09375q-1.484375 0.328125 -2.65625 0.328125q-1.921875 0 -2.984375 -0.609375q-1.046875 -0.609375 -1.484375 -1.59375q-0.421875 -0.984375 -0.421875 -4.15625l0 -11.9375l-2.578125 0l0 -2.734375l2.578125 0l0 -5.125l3.5 -2.109375l0 7.234375l3.53125 0l0 2.734375l-3.53125 0l0 12.140625q0 1.5 0.1875 1.9375q0.1875 0.421875 0.59375 0.671875q0.421875 0.25 1.203125 0.25q0.59375 0 1.546875 -0.125zm16.972656 0.578125q-1.953125 1.65625 -3.765625 2.34375q-1.796875 0.6875 -3.875 0.6875q-3.40625 0 -5.25 -1.671875q-1.828125 -1.671875 -1.828125 -4.265625q0 -1.53125 0.6875 -2.78125q0.6875 -1.265625 1.8125 -2.015625q1.125 -0.765625 2.53125 -1.15625q1.03125 -0.28125 3.125 -0.53125q4.265625 -0.515625 6.265625 -1.21875q0.03125 -0.71875 0.03125 -0.90625q0 -2.15625 -1.0 -3.03125q-1.34375 -1.1875 -4.0 -1.1875q-2.484375 0 -3.671875 0.875q-1.171875 0.859375 -1.75 3.0625l-3.4375 -0.46875q0.46875 -2.203125 1.546875 -3.5625q1.078125 -1.359375 3.109375 -2.09375q2.03125 -0.734375 4.703125 -0.734375q2.65625 0 4.3125 0.625q1.671875 0.625 2.453125 1.578125q0.78125 0.953125 1.09375 2.390625q0.171875 0.90625 0.171875 3.25l0 4.6875q0 4.890625 0.21875 6.203125q0.234375 1.296875 0.890625 2.484375l-3.671875 0q-0.546875 -1.09375 -0.703125 -2.5625zm-0.296875 -7.84375q-1.90625 0.78125 -5.734375 1.328125q-2.171875 0.3125 -3.078125 0.703125q-0.890625 0.390625 -1.375 1.140625q-0.484375 0.75 -0.484375 1.671875q0 1.40625 1.0625 2.34375q1.0625 0.9375 3.109375 0.9375q2.03125 0 3.609375 -0.890625q1.59375 -0.890625 2.328125 -2.4375q0.5625 -1.1875 0.5625 -3.515625l0 -1.28125zm41.0 0.359375l3.796875 0.96875q-1.203125 4.65625 -4.296875 7.109375q-3.09375 2.453125 -7.5625 2.453125q-4.625 0 -7.53125 -1.875q-2.90625 -1.890625 -4.421875 -5.46875q-1.5 -3.578125 -1.5 -7.671875q0 -4.46875 1.703125 -7.796875q1.703125 -3.34375 4.859375 -5.0625q3.15625 -1.734375 6.953125 -1.734375q4.296875 0 7.21875 2.1875q2.9375 2.1875 4.078125 6.15625l-3.71875 0.875q-1.0 -3.125 -2.90625 -4.546875q-1.890625 -1.421875 -4.75 -1.421875q-3.3125 0 -5.53125 1.578125q-2.203125 1.578125 -3.109375 4.25q-0.890625 2.65625 -0.890625 5.5q0 3.640625 1.0625 6.375q1.0625 2.71875 3.296875 4.078125q2.25 1.34375 4.875 1.34375q3.1875 0 5.390625 -1.828125q2.203125 -1.84375 2.984375 -5.46875zm21.605469 10.046875l0 -3.046875q-2.421875 3.515625 -6.578125 3.515625q-1.84375 0 -3.4375 -0.703125q-1.59375 -0.703125 -2.359375 -1.765625q-0.765625 -1.0625 -1.078125 -2.609375q-0.21875 -1.03125 -0.21875 -3.28125l0 -12.859375l3.515625 0l0 11.515625q0 2.75 0.21875 3.703125q0.328125 1.390625 1.390625 2.1875q1.078125 0.78125 2.671875 0.78125q1.578125 0 2.953125 -0.8125q1.390625 -0.8125 1.96875 -2.203125q0.578125 -1.390625 0.578125 -4.046875l0 -11.125l3.515625 0l0 20.75l-3.140625 0zm11.886719 0l-3.25 0l0 -28.640625l3.515625 0l0 10.21875q2.21875 -2.796875 5.671875 -2.796875q1.921875 0 3.625 0.78125q1.71875 0.765625 2.8125 2.171875q1.109375 1.390625 1.734375 3.359375q0.625 1.96875 0.625 4.21875q0 5.328125 -2.640625 8.25q-2.640625 2.90625 -6.328125 2.90625q-3.671875 0 -5.765625 -3.0625l0 2.59375zm-0.03125 -10.53125q0 3.734375 1.015625 5.390625q1.65625 2.71875 4.484375 2.71875q2.3125 0 3.984375 -2.0q1.6875 -2.0 1.6875 -5.96875q0 -4.0625 -1.609375 -6.0q-1.609375 -1.9375 -3.90625 -1.9375q-2.296875 0 -3.984375 2.015625q-1.671875 2.0 -1.671875 5.78125zm33.246094 3.84375l3.625 0.453125q-0.859375 3.1875 -3.1875 4.953125q-2.3125 1.75 -5.9375 1.75q-4.546875 0 -7.21875 -2.796875q-2.65625 -2.8125 -2.65625 -7.875q0 -5.234375 2.6875 -8.125q2.703125 -2.890625 7.0 -2.890625q4.15625 0 6.796875 2.84375q2.640625 2.828125 2.640625 7.96875q0 0.3125 -0.03125 0.9375l-15.46875 0q0.203125 3.40625 1.9375 5.234375q1.734375 1.8125 4.34375 1.8125q1.921875 0 3.28125 -1.015625q1.375 -1.015625 2.1875 -3.25zm-11.546875 -5.671875l11.578125 0q-0.234375 -2.625 -1.328125 -3.9375q-1.671875 -2.03125 -4.359375 -2.03125q-2.421875 0 -4.078125 1.625q-1.640625 1.625 -1.8125 4.34375zm18.183594 6.171875l3.46875 -0.546875q0.296875 2.078125 1.625 3.203125q1.34375 1.109375 3.75 1.109375q2.421875 0 3.59375 -0.984375q1.171875 -0.984375 1.171875 -2.3125q0 -1.203125 -1.03125 -1.875q-0.71875 -0.46875 -3.59375 -1.203125q-3.875 -0.96875 -5.375 -1.671875q-1.484375 -0.71875 -2.265625 -1.984375q-0.765625 -1.265625 -0.765625 -2.78125q0 -1.390625 0.640625 -2.5625q0.640625 -1.1875 1.734375 -1.96875q0.8125 -0.609375 2.21875 -1.03125q1.421875 -0.421875 3.046875 -0.421875q2.4375 0 4.28125 0.703125q1.859375 0.703125 2.734375 1.90625q0.875 1.203125 1.203125 3.21875l-3.4375 0.46875q-0.234375 -1.609375 -1.359375 -2.5q-1.109375 -0.90625 -3.171875 -0.90625q-2.421875 0 -3.453125 0.8125q-1.03125 0.796875 -1.03125 1.875q0 0.671875 0.421875 1.21875q0.4375 0.578125 1.359375 0.9375q0.515625 0.203125 3.09375 0.90625q3.734375 1.0 5.203125 1.640625q1.484375 0.625 2.3125 1.84375q0.84375 1.203125 0.84375 3.0q0 1.75 -1.03125 3.3125q-1.015625 1.546875 -2.953125 2.40625q-1.921875 0.84375 -4.375 0.84375q-4.03125 0 -6.15625 -1.671875q-2.125 -1.6875 -2.703125 -4.984375zm23.703125 14.609375l-2.515625 0q5.84375 -9.375 5.84375 -18.78125q0 -3.671875 -0.84375 -7.28125q-0.65625 -2.921875 -1.859375 -5.625q-0.75 -1.75 -3.140625 -5.859375l2.515625 0q3.671875 4.90625 5.4375 9.84375q1.5 4.265625 1.5 8.90625q0 5.28125 -2.03125 10.203125q-2.015625 4.921875 -4.90625 8.59375z" fill-rule="nonzero"></path></g></svg>

