<?xml version="1.0" standalone="yes"?>

<svg version="1.1" viewBox="0.0 0.0 587.6010498687664 501.8556430446194" fill="none" stroke="none" stroke-linecap="square" stroke-miterlimit="10" xmlns="http://www.w3.org/2000/svg" xmlns:xlink="http://www.w3.org/1999/xlink"><clipPath id="p.0"><path d="m0 0l587.6011 0l0 501.85565l-587.6011 0l0 -501.85565z" clip-rule="nonzero"></path></clipPath><g clip-path="url(#p.0)"><path fill="#000000" fill-opacity="0.0" d="m0 0l587.6011 0l0 501.85565l-587.6011 0z" fill-rule="nonzero"></path><path fill="#000000" fill-opacity="0.0" d="m144.14699 363.17584l322.74017 0" fill-rule="nonzero"></path><path stroke="#000000" stroke-width="2.0" stroke-linejoin="round" stroke-linecap="butt" d="m144.14699 363.17584l322.74017 0" fill-rule="nonzero"></path><path fill="#000000" fill-opacity="0.0" d="m145.02362 203.99738l0 159.18109" fill-rule="nonzero"></path><path stroke="#000000" stroke-width="2.0" stroke-linejoin="round" stroke-linecap="butt" d="m145.02362 203.99738l0 159.18109" fill-rule="nonzero"></path><path fill="#000000" fill-opacity="0.0" d="m337.02362 206.08958l0 157.07088" fill-rule="nonzero"></path><path stroke="#000000" stroke-width="2.0" stroke-linejoin="round" stroke-linecap="butt" d="m337.02362 206.08958l0 157.07088" fill-rule="nonzero"></path><path fill="#000000" fill-opacity="0.0" d="m209.02362 205.56653l0 157.6063" fill-rule="nonzero"></path><path stroke="#000000" stroke-width="2.0" stroke-linejoin="round" stroke-linecap="butt" d="m209.02362 205.56653l0 157.6063" fill-rule="nonzero"></path><path fill="#000000" fill-opacity="0.0" d="m465.02362 205.04347l0 158.11024" fill-rule="nonzero"></path><path stroke="#000000" stroke-width="2.0" stroke-linejoin="round" stroke-linecap="butt" d="m465.02362 205.04347l0 158.11024" fill-rule="nonzero"></path><path fill="#000000" fill-opacity="0.0" d="m273.02362 205.56653l0 157.6063" fill-rule="nonzero"></path><path stroke="#000000" stroke-width="2.0" stroke-linejoin="round" stroke-linecap="butt" d="m273.02362 205.56653l0 157.6063" fill-rule="nonzero"></path><path fill="#000000" fill-opacity="0.0" d="m401.02362 206.08958l0 157.07088" fill-rule="nonzero"></path><path stroke="#000000" stroke-width="2.0" stroke-linejoin="round" stroke-linecap="butt" d="m401.02362 206.08958l0 157.07088" fill-rule="nonzero"></path><path fill="#000000" d="m158.17848 295.6404l0 0c0 -3.8703308 3.1375275 -7.0078735 7.0078735 -7.0078735l0 0c1.8585968 0 3.6410828 0.7383423 4.955307 2.0525818c1.3142395 1.314209 2.0525665 3.0967102 2.0525665 4.9552917l0 0c0 3.8703613 -3.1375427 7.0078735 -7.0078735 7.0078735l0 0c-3.870346 0 -7.0078735 -3.1375122 -7.0078735 -7.0078735z" fill-rule="nonzero"></path><path stroke="#000000" stroke-width="2.0" stroke-linejoin="round" stroke-linecap="butt" d="m158.17848 295.6404l0 0c0 -3.8703308 3.1375275 -7.0078735 7.0078735 -7.0078735l0 0c1.8585968 0 3.6410828 0.7383423 4.955307 2.0525818c1.3142395 1.314209 2.0525665 3.0967102 2.0525665 4.9552917l0 0c0 3.8703613 -3.1375427 7.0078735 -7.0078735 7.0078735l0 0c-3.870346 0 -7.0078735 -3.1375122 -7.0078735 -7.0078735z" fill-rule="nonzero"></path><path fill="#000000" d="m172.19423 319.96326l0 0c0 -3.8703308 3.1375275 -7.0078735 7.0078735 -7.0078735l0 0c1.8585968 0 3.6410828 0.73831177 4.955307 2.0525513c1.3142395 1.3142395 2.0525665 3.0967102 2.0525665 4.9553223l0 0c0 3.8703308 -3.1375275 7.0078735 -7.0078735 7.0078735l0 0c-3.870346 0 -7.0078735 -3.1375427 -7.0078735 -7.0078735z" fill-rule="nonzero"></path><path stroke="#000000" stroke-width="2.0" stroke-linejoin="round" stroke-linecap="butt" d="m172.19423 319.96326l0 0c0 -3.8703308 3.1375275 -7.0078735 7.0078735 -7.0078735l0 0c1.8585968 0 3.6410828 0.73831177 4.955307 2.0525513c1.3142395 1.3142395 2.0525665 3.0967102 2.0525665 4.9553223l0 0c0 3.8703308 -3.1375275 7.0078735 -7.0078735 7.0078735l0 0c-3.870346 0 -7.0078735 -3.1375427 -7.0078735 -7.0078735z" fill-rule="nonzero"></path><path fill="#000000" d="m281.3832 295.6404l0 0c0 -3.8703308 3.1375122 -7.0078735 7.0078735 -7.0078735l0 0c1.8586121 0 3.6410828 0.7383423 4.9553223 2.0525818c1.314209 1.314209 2.0525513 3.0967102 2.0525513 4.9552917l0 0c0 3.8703613 -3.1375427 7.0078735 -7.0078735 7.0078735l0 0c-3.8703613 0 -7.0078735 -3.1375122 -7.0078735 -7.0078735z" fill-rule="nonzero"></path><path stroke="#000000" stroke-width="2.0" stroke-linejoin="round" stroke-linecap="butt" d="m281.3832 295.6404l0 0c0 -3.8703308 3.1375122 -7.0078735 7.0078735 -7.0078735l0 0c1.8586121 0 3.6410828 0.7383423 4.9553223 2.0525818c1.314209 1.314209 2.0525513 3.0967102 2.0525513 4.9552917l0 0c0 3.8703613 -3.1375427 7.0078735 -7.0078735 7.0078735l0 0c-3.8703613 0 -7.0078735 -3.1375122 -7.0078735 -7.0078735z" fill-rule="nonzero"></path><path fill="#000000" d="m314.9239 319.96326l0 0c0 -3.8703308 3.1375122 -7.0078735 7.0078735 -7.0078735l0 0c1.8586121 0 3.6410828 0.73831177 4.9553223 2.0525513c1.314209 1.3142395 2.0525513 3.0967102 2.0525513 4.9553223l0 0c0 3.8703308 -3.1375427 7.0078735 -7.0078735 7.0078735l0 0c-3.8703613 0 -7.0078735 -3.1375427 -7.0078735 -7.0078735z" fill-rule="nonzero"></path><path stroke="#000000" stroke-width="2.0" stroke-linejoin="round" stroke-linecap="butt" d="m314.9239 319.96326l0 0c0 -3.8703308 3.1375122 -7.0078735 7.0078735 -7.0078735l0 0c1.8586121 0 3.6410828 0.73831177 4.9553223 2.0525513c1.314209 1.3142395 2.0525513 3.0967102 2.0525513 4.9553223l0 0c0 3.8703308 -3.1375427 7.0078735 -7.0078735 7.0078735l0 0c-3.8703613 0 -7.0078735 -3.1375427 -7.0078735 -7.0078735z" fill-rule="nonzero"></path><path fill="#000000" d="m361.61942 265.80316l0 0c0 -3.8703613 3.1375427 -7.0078735 7.0078735 -7.0078735l0 0c1.8586121 0 3.6410828 0.73831177 4.9553223 2.0525513c1.3142395 1.3142395 2.0525513 3.0967102 2.0525513 4.9553223l0 0c0 3.8703308 -3.1375122 7.0078735 -7.0078735 7.0078735l0 0c-3.8703308 0 -7.0078735 -3.1375427 -7.0078735 -7.0078735z" fill-rule="nonzero"></path><path stroke="#000000" stroke-width="2.0" stroke-linejoin="round" stroke-linecap="butt" d="m361.61942 265.80316l0 0c0 -3.8703613 3.1375427 -7.0078735 7.0078735 -7.0078735l0 0c1.8586121 0 3.6410828 0.73831177 4.9553223 2.0525513c1.3142395 1.3142395 2.0525513 3.0967102 2.0525513 4.9553223l0 0c0 3.8703308 -3.1375122 7.0078735 -7.0078735 7.0078735l0 0c-3.8703308 0 -7.0078735 -3.1375427 -7.0078735 -7.0078735z" fill-rule="nonzero"></path><path fill="#000000" d="m426.72702 287.94226l0 0c0 -3.8703308 3.1375427 -7.0078735 7.0078735 -7.0078735l0 0c1.8586121 0 3.6411133 0.73831177 4.9553223 2.0525513c1.3142395 1.3142395 2.0525513 3.0967102 2.0525513 4.9553223l0 0c0 3.8703308 -3.1375122 7.0078735 -7.0078735 7.0078735l0 0c-3.8703308 0 -7.0078735 -3.1375427 -7.0078735 -7.0078735z" fill-rule="nonzero"></path><path stroke="#000000" stroke-width="2.0" stroke-linejoin="round" stroke-linecap="butt" d="m426.72702 287.94226l0 0c0 -3.8703308 3.1375427 -7.0078735 7.0078735 -7.0078735l0 0c1.8586121 0 3.6411133 0.73831177 4.9553223 2.0525513c1.3142395 1.3142395 2.0525513 3.0967102 2.0525513 4.9553223l0 0c0 3.8703308 -3.1375122 7.0078735 -7.0078735 7.0078735l0 0c-3.8703308 0 -7.0078735 -3.1375427 -7.0078735 -7.0078735z" fill-rule="nonzero"></path><path fill="#000000" d="m310.30447 279.8189l0 0c0 -3.8703613 3.1375122 -7.0078735 7.0078735 -7.0078735l0 0c1.8585815 0 3.6410828 0.73831177 4.9552917 2.0525513c1.3142395 1.3142395 2.0525818 3.0967102 2.0525818 4.9553223l0 0c0 3.8703308 -3.1375427 7.0078735 -7.0078735 7.0078735l0 0c-3.8703613 0 -7.0078735 -3.1375427 -7.0078735 -7.0078735z" fill-rule="nonzero"></path><path stroke="#000000" stroke-width="2.0" stroke-linejoin="round" stroke-linecap="butt" d="m310.30447 279.8189l0 0c0 -3.8703613 3.1375122 -7.0078735 7.0078735 -7.0078735l0 0c1.8585815 0 3.6410828 0.73831177 4.9552917 2.0525513c1.3142395 1.3142395 2.0525818 3.0967102 2.0525818 4.9553223l0 0c0 3.8703308 -3.1375427 7.0078735 -7.0078735 7.0078735l0 0c-3.8703613 0 -7.0078735 -3.1375427 -7.0078735 -7.0078735z" fill-rule="nonzero"></path><path fill="#000000" d="m288.5958 251.7874l0 0c0 -3.870346 3.1375427 -7.0078735 7.0078735 -7.0078735l0 0c1.8586121 0 3.6410828 0.738327 4.9553223 2.0525665c1.3142395 1.3142242 2.0525513 3.0967102 2.0525513 4.955307l0 0c0 3.870346 -3.1375122 7.007889 -7.0078735 7.007889l0 0c-3.8703308 0 -7.0078735 -3.1375427 -7.0078735 -7.007889z" fill-rule="nonzero"></path><path stroke="#000000" stroke-width="2.0" stroke-linejoin="round" stroke-linecap="butt" d="m288.5958 251.7874l0 0c0 -3.870346 3.1375427 -7.0078735 7.0078735 -7.0078735l0 0c1.8586121 0 3.6410828 0.738327 4.9553223 2.0525665c1.3142395 1.3142242 2.0525513 3.0967102 2.0525513 4.955307l0 0c0 3.870346 -3.1375122 7.007889 -7.0078735 7.007889l0 0c-3.8703308 0 -7.0078735 -3.1375427 -7.0078735 -7.007889z" fill-rule="nonzero"></path><path fill="#000000" fill-opacity="0.0" d="m152.88715 363.18634l328.85037 0l0 44.724426l-328.85037 0z" fill-rule="nonzero"></path><path fill="#000000" d="m181.81625 388.49698l0 1.609375l-8.984375 0q-0.015625 -0.609375 0.1875 -1.15625q0.34375 -0.921875 1.09375 -1.8125q0.765625 -0.890625 2.1875 -2.0625q2.21875 -1.8125 3.0 -2.875q0.78125 -1.0625 0.78125 -2.015625q0 -0.984375 -0.71875 -1.671875q-0.703125 -0.6875 -1.84375 -0.6875q-1.203125 0 -1.9375 0.734375q-0.71875 0.71875 -0.71875 2.0l-1.71875 -0.171875q0.171875 -1.921875 1.328125 -2.921875q1.15625 -1.015625 3.09375 -1.015625q1.953125 0 3.09375 1.09375q1.140625 1.078125 1.140625 2.6875q0 0.8125 -0.34375 1.609375q-0.328125 0.78125 -1.109375 1.65625q-0.765625 0.859375 -2.5625 2.390625q-1.5 1.265625 -1.9375 1.71875q-0.421875 0.4375 -0.703125 0.890625l6.671875 0zm53.427505 -5.09375q0 -2.421875 0.5 -3.890625q0.5 -1.46875 1.46875 -2.265625q0.984375 -0.796875 2.46875 -0.796875q1.09375 0 1.921875 0.4375q0.828125 0.4375 1.359375 1.28125q0.546875 0.828125 0.84375 2.015625q0.3125 1.1875 0.3125 3.21875q0 2.390625 -0.5 3.859375q-0.484375 1.46875 -1.46875 2.28125q-0.96875 0.796875 -2.46875 0.796875q-1.96875 0 -3.078125 -1.40625q-1.359375 -1.703125 -1.359375 -5.53125zm1.71875 0q0 3.34375 0.78125 4.453125q0.796875 1.109375 1.9375 1.109375q1.15625 0 1.9375 -1.109375q0.78125 -1.125 0.78125 -4.453125q0 -3.359375 -0.78125 -4.46875q-0.78125 -1.109375 -1.953125 -1.109375q-1.15625 0 -1.828125 0.984375q-0.875 1.234375 -0.875 4.59375zm65.84938 6.703125l0 -3.25l-5.90625 0l0 -1.53125l6.21875 -8.8125l1.359375 0l0 8.8125l1.84375 0l0 1.53125l-1.84375 0l0 3.25l-1.671875 0zm0 -4.78125l0 -6.140625l-4.25 6.140625l4.25 0zm63.14624 4.78125l-1.671875 0l0 -10.640625q-0.59375 0.578125 -1.578125 1.15625q-0.984375 0.5625 -1.765625 0.859375l0 -1.625q1.40625 -0.65625 2.453125 -1.59375q1.046875 -0.9375 1.484375 -1.8125l1.078125 0l0 13.65625zm69.876465 -1.609375l0 1.609375l-8.984375 0q-0.015625 -0.609375 0.1875 -1.15625q0.34375 -0.921875 1.09375 -1.8125q0.765625 -0.890625 2.1875 -2.0625q2.21875 -1.8125 3.0 -2.875q0.78125 -1.0625 0.78125 -2.015625q0 -0.984375 -0.71875 -1.671875q-0.703125 -0.6875 -1.84375 -0.6875q-1.203125 0 -1.9375 0.734375q-0.71875 0.71875 -0.71875 2.0l-1.71875 -0.171875q0.171875 -1.921875 1.328125 -2.921875q1.15625 -1.015625 3.09375 -1.015625q1.953125 0 3.09375 1.09375q1.140625 1.078125 1.140625 2.6875q0 0.8125 -0.34375 1.609375q-0.328125 0.78125 -1.109375 1.65625q-0.765625 0.859375 -2.5625 2.390625q-1.5 1.265625 -1.9375 1.71875q-0.421875 0.4375 -0.703125 0.890625l6.671875 0z" fill-rule="nonzero"></path><path fill="#000000" d="m442.72702 303.94226l0 0c0 -3.8703308 3.1375427 -7.0078735 7.0078735 -7.0078735l0 0c1.8586121 0 3.6411133 0.73831177 4.9553223 2.0525513c1.3142395 1.3142395 2.0525513 3.0967102 2.0525513 4.9553223l0 0c0 3.8703308 -3.1375122 7.0078735 -7.0078735 7.0078735l0 0c-3.8703308 0 -7.0078735 -3.1375427 -7.0078735 -7.0078735z" fill-rule="nonzero"></path><path stroke="#000000" stroke-width="2.0" stroke-linejoin="round" stroke-linecap="butt" d="m442.72702 303.94226l0 0c0 -3.8703308 3.1375427 -7.0078735 7.0078735 -7.0078735l0 0c1.8586121 0 3.6411133 0.73831177 4.9553223 2.0525513c1.3142395 1.3142395 2.0525513 3.0967102 2.0525513 4.9553223l0 0c0 3.8703308 -3.1375122 7.0078735 -7.0078735 7.0078735l0 0c-3.8703308 0 -7.0078735 -3.1375427 -7.0078735 -7.0078735z" fill-rule="nonzero"></path><path fill="#000000" fill-opacity="0.0" d="m47.55118 51.425198l525.57477 0l0 82.61417l-525.57477 0z" fill-rule="nonzero"></path><path fill="#000000" d="m103.02217 106.505196l0 -34.359375l12.890625 0q3.9375 0 6.3125 1.046875q2.390625 1.03125 3.734375 3.203125q1.34375 2.171875 1.34375 4.53125q0 2.203125 -1.203125 4.15625q-1.1875 1.9375 -3.59375 3.140625q3.109375 0.90625 4.78125 3.109375q1.6875 2.203125 1.6875 5.203125q0 2.421875 -1.03125 4.5q-1.015625 2.0625 -2.515625 3.1875q-1.5 1.125 -3.765625 1.703125q-2.25 0.578125 -5.53125 0.578125l-13.109375 0zm4.546875 -19.921875l7.4375 0q3.015625 0 4.328125 -0.40625q1.734375 -0.515625 2.609375 -1.703125q0.890625 -1.203125 0.890625 -3.0q0 -1.71875 -0.828125 -3.015625q-0.8125 -1.296875 -2.34375 -1.78125q-1.515625 -0.484375 -5.21875 -0.484375l-6.875 0l0 10.390625zm0 15.859375l8.5625 0q2.203125 0 3.09375 -0.15625q1.5625 -0.28125 2.609375 -0.9375q1.0625 -0.65625 1.734375 -1.90625q0.6875 -1.265625 0.6875 -2.90625q0 -1.921875 -0.984375 -3.328125q-0.984375 -1.421875 -2.734375 -2.0q-1.734375 -0.578125 -5.015625 -0.578125l-7.953125 0l0 11.8125zm27.140625 -25.453125l0 -4.84375l4.21875 0l0 4.84375l-4.21875 0zm0 29.515625l0 -24.890625l4.21875 0l0 24.890625l-4.21875 0zm10.6484375 0l0 -24.890625l3.796875 0l0 3.53125q2.734375 -4.09375 7.921875 -4.09375q2.25 0 4.125 0.8125q1.890625 0.796875 2.828125 2.109375q0.9375 1.3125 1.3125 3.125q0.234375 1.171875 0.234375 4.09375l0 15.3125l-4.21875 0l0 -15.140625q0 -2.578125 -0.5 -3.859375q-0.484375 -1.28125 -1.734375 -2.03125q-1.25 -0.765625 -2.9375 -0.765625q-2.703125 0 -4.65625 1.71875q-1.953125 1.703125 -1.953125 6.484375l0 13.59375l-4.21875 0zm26.695312 0l0 -24.890625l3.796875 0l0 3.53125q2.734375 -4.09375 7.921875 -4.09375q2.25 0 4.125 0.8125q1.890625 0.796875 2.828125 2.109375q0.9375 1.3125 1.3125 3.125q0.234375 1.171875 0.234375 4.09375l0 15.3125l-4.21875 0l0 -15.140625q0 -2.578125 -0.5 -3.859375q-0.484375 -1.28125 -1.734375 -2.03125q-1.25 -0.765625 -2.9375 -0.765625q-2.703125 0 -4.65625 1.71875q-1.953125 1.703125 -1.953125 6.484375l0 13.59375l-4.21875 0zm43.726562 -8.015625l4.359375 0.53125q-1.03125 3.828125 -3.828125 5.9375q-2.78125 2.109375 -7.109375 2.109375q-5.46875 0 -8.671875 -3.359375q-3.1875 -3.375 -3.1875 -9.4375q0 -6.28125 3.234375 -9.75q3.234375 -3.46875 8.390625 -3.46875q4.984375 0 8.140625 3.40625q3.171875 3.390625 3.171875 9.546875q0 0.375 -0.015625 1.125l-18.5625 0q0.234375 4.109375 2.3125 6.296875q2.09375 2.171875 5.203125 2.171875q2.328125 0 3.96875 -1.21875q1.640625 -1.21875 2.59375 -3.890625zm-13.84375 -6.828125l13.890625 0q-0.28125 -3.140625 -1.59375 -4.703125q-2.015625 -2.4375 -5.21875 -2.4375q-2.90625 0 -4.890625 1.953125q-1.984375 1.9375 -2.1875 5.1875zm39.648438 14.84375l0 -3.140625q-2.359375 3.703125 -6.953125 3.703125q-2.984375 0 -5.484375 -1.640625q-2.484375 -1.640625 -3.859375 -4.578125q-1.375 -2.953125 -1.375 -6.765625q0 -3.734375 1.234375 -6.765625q1.25 -3.03125 3.734375 -4.640625q2.484375 -1.625 5.5625 -1.625q2.25 0 4.0 0.953125q1.765625 0.9375 2.859375 2.46875l0 -12.328125l4.203125 0l0 34.359375l-3.921875 0zm-13.328125 -12.421875q0 4.78125 2.015625 7.15625q2.015625 2.359375 4.75 2.359375q2.765625 0 4.703125 -2.265625q1.9375 -2.265625 1.9375 -6.90625q0 -5.109375 -1.96875 -7.5q-1.96875 -2.390625 -4.859375 -2.390625q-2.8125 0 -4.703125 2.296875q-1.875 2.296875 -1.875 7.25zm33.968765 12.421875l13.203125 -34.359375l4.90625 0l14.0625 34.359375l-5.1875 0l-4.0 -10.40625l-14.375 0l-3.765625 10.40625l-4.84375 0zm9.921875 -14.109375l11.65625 0l-3.59375 -9.515625q-1.640625 -4.34375 -2.4375 -7.125q-0.65625 3.296875 -1.84375 6.5625l-3.78125 10.078125zm24.5625 16.171875l4.109375 0.609375q0.25 1.90625 1.421875 2.765625q1.578125 1.171875 4.296875 1.171875q2.921875 0 4.515625 -1.171875q1.59375 -1.171875 2.15625 -3.28125q0.328125 -1.28125 0.3125 -5.421875q-2.765625 3.265625 -6.890625 3.265625q-5.140625 0 -7.953125 -3.703125q-2.8125 -3.703125 -2.8125 -8.890625q0 -3.5625 1.28125 -6.5625q1.296875 -3.015625 3.75 -4.65625q2.453125 -1.640625 5.75 -1.640625q4.40625 0 7.265625 3.5625l0 -3.0l3.890625 0l0 21.515625q0 5.8125 -1.1875 8.234375q-1.171875 2.4375 -3.75 3.84375q-2.5625 1.40625 -6.3125 1.40625q-4.453125 0 -7.203125 -2.015625q-2.734375 -2.0 -2.640625 -6.03125zm3.5 -14.953125q0 4.890625 1.9375 7.140625q1.953125 2.25 4.875 2.25q2.90625 0 4.875 -2.234375q1.96875 -2.234375 1.96875 -7.015625q0 -4.578125 -2.03125 -6.890625q-2.015625 -2.328125 -4.875 -2.328125q-2.8125 0 -4.78125 2.296875q-1.96875 2.28125 -1.96875 6.78125zm23.195312 14.953125l4.109375 0.609375q0.25 1.90625 1.421875 2.765625q1.578125 1.171875 4.296875 1.171875q2.921875 0 4.515625 -1.171875q1.59375 -1.171875 2.15625 -3.28125q0.328125 -1.28125 0.3125 -5.421875q-2.765625 3.265625 -6.890625 3.265625q-5.140625 0 -7.953125 -3.703125q-2.8125 -3.703125 -2.8125 -8.890625q0 -3.5625 1.28125 -6.5625q1.296875 -3.015625 3.75 -4.65625q2.453125 -1.640625 5.75 -1.640625q4.40625 0 7.265625 3.5625l0 -3.0l3.890625 0l0 21.515625q0 5.8125 -1.1875 8.234375q-1.171875 2.4375 -3.75 3.84375q-2.5625 1.40625 -6.3125 1.40625q-4.453125 0 -7.203125 -2.015625q-2.734375 -2.0 -2.640625 -6.03125zm3.5 -14.953125q0 4.890625 1.9375 7.140625q1.953125 2.25 4.875 2.25q2.90625 0 4.875 -2.234375q1.96875 -2.234375 1.96875 -7.015625q0 -4.578125 -2.03125 -6.890625q-2.015625 -2.328125 -4.875 -2.328125q-2.8125 0 -4.78125 2.296875q-1.96875 2.28125 -1.96875 6.78125zm23.929688 12.890625l0 -24.890625l3.796875 0l0 3.765625q1.453125 -2.640625 2.671875 -3.484375q1.234375 -0.84375 2.71875 -0.84375q2.125 0 4.328125 1.359375l-1.453125 3.90625q-1.546875 -0.90625 -3.09375 -0.90625q-1.375 0 -2.484375 0.828125q-1.09375 0.828125 -1.5625 2.3125q-0.703125 2.25 -0.703125 4.921875l0 13.03125l-4.21875 0zm33.0625 -8.015625l4.359375 0.53125q-1.03125 3.828125 -3.828125 5.9375q-2.78125 2.109375 -7.109375 2.109375q-5.46875 0 -8.671875 -3.359375q-3.1875 -3.375 -3.1875 -9.4375q0 -6.28125 3.234375 -9.75q3.234375 -3.46875 8.390625 -3.46875q4.984375 0 8.140625 3.40625q3.171875 3.390625 3.171875 9.546875q0 0.375 -0.015625 1.125l-18.5625 0q0.234375 4.109375 2.3125 6.296875q2.09375 2.171875 5.203125 2.171875q2.328125 0 3.96875 -1.21875q1.640625 -1.21875 2.59375 -3.890625zm-13.84375 -6.828125l13.890625 0q-0.28125 -3.140625 -1.59375 -4.703125q-2.015625 -2.4375 -5.21875 -2.4375q-2.90625 0 -4.890625 1.953125q-1.984375 1.9375 -2.1875 5.1875zm22.726562 16.90625l4.109375 0.609375q0.25 1.90625 1.421875 2.765625q1.578125 1.171875 4.296875 1.171875q2.921875 0 4.515625 -1.171875q1.59375 -1.171875 2.15625 -3.28125q0.328125 -1.28125 0.3125 -5.421875q-2.765625 3.265625 -6.890625 3.265625q-5.140625 0 -7.953125 -3.703125q-2.8125 -3.703125 -2.8125 -8.890625q0 -3.5625 1.28125 -6.5625q1.296875 -3.015625 3.75 -4.65625q2.453125 -1.640625 5.75 -1.640625q4.40625 0 7.265625 3.5625l0 -3.0l3.890625 0l0 21.515625q0 5.8125 -1.1875 8.234375q-1.171875 2.4375 -3.75 3.84375q-2.5625 1.40625 -6.3125 1.40625q-4.453125 0 -7.203125 -2.015625q-2.734375 -2.0 -2.640625 -6.03125zm3.5 -14.953125q0 4.890625 1.9375 7.140625q1.953125 2.25 4.875 2.25q2.90625 0 4.875 -2.234375q1.96875 -2.234375 1.96875 -7.015625q0 -4.578125 -2.03125 -6.890625q-2.015625 -2.328125 -4.875 -2.328125q-2.8125 0 -4.78125 2.296875q-1.96875 2.28125 -1.96875 6.78125zm40.210938 9.8125q-2.34375 2.0 -4.515625 2.828125q-2.15625 0.8125 -4.640625 0.8125q-4.109375 0 -6.3125 -2.0q-2.203125 -2.015625 -2.203125 -5.125q0 -1.828125 0.828125 -3.34375q0.84375 -1.515625 2.1875 -2.421875q1.34375 -0.921875 3.03125 -1.390625q1.25 -0.328125 3.75 -0.625q5.109375 -0.609375 7.53125 -1.453125q0.015625 -0.875 0.015625 -1.109375q0 -2.578125 -1.1875 -3.625q-1.625 -1.4375 -4.8125 -1.4375q-2.96875 0 -4.390625 1.046875q-1.421875 1.046875 -2.09375 3.6875l-4.125 -0.5625q0.5625 -2.640625 1.84375 -4.265625q1.296875 -1.640625 3.734375 -2.515625q2.4375 -0.875 5.640625 -0.875q3.1875 0 5.171875 0.75q2.0 0.75 2.9375 1.890625q0.9375 1.125 1.3125 2.859375q0.21875 1.078125 0.21875 3.890625l0 5.625q0 5.890625 0.265625 7.453125q0.265625 1.546875 1.0625 2.984375l-4.40625 0q-0.65625 -1.3125 -0.84375 -3.078125zm-0.34375 -9.421875q-2.296875 0.9375 -6.890625 1.59375q-2.609375 0.375 -3.6875 0.84375q-1.078125 0.46875 -1.671875 1.375q-0.578125 0.90625 -0.578125 2.0q0 1.6875 1.28125 2.8125q1.28125 1.125 3.734375 1.125q2.4375 0 4.328125 -1.0625q1.90625 -1.0625 2.796875 -2.921875q0.6875 -1.421875 0.6875 -4.21875l0 -1.546875zm20.007812 8.71875l0.609375 3.734375q-1.78125 0.375 -3.1875 0.375q-2.296875 0 -3.5625 -0.71875q-1.265625 -0.734375 -1.78125 -1.921875q-0.515625 -1.1875 -0.515625 -4.984375l0 -14.3125l-3.09375 0l0 -3.28125l3.09375 0l0 -6.171875l4.203125 -2.53125l0 8.703125l4.234375 0l0 3.28125l-4.234375 0l0 14.546875q0 1.8125 0.21875 2.328125q0.21875 0.515625 0.71875 0.828125q0.515625 0.296875 1.453125 0.296875q0.703125 0 1.84375 -0.171875zm4.1484375 -25.734375l0 -4.84375l4.21875 0l0 4.84375l-4.21875 0zm0 29.515625l0 -24.890625l4.21875 0l0 24.890625l-4.21875 0zm9.0703125 -12.453125q0 -6.90625 3.84375 -10.234375q3.21875 -2.765625 7.828125 -2.765625q5.140625 0 8.390625 3.359375q3.265625 3.359375 3.265625 9.296875q0 4.796875 -1.453125 7.5625q-1.4375 2.75 -4.1875 4.28125q-2.75 1.515625 -6.015625 1.515625q-5.21875 0 -8.453125 -3.34375q-3.21875 -3.359375 -3.21875 -9.671875zm4.34375 0q0 4.78125 2.078125 7.171875q2.09375 2.375 5.25 2.375q3.140625 0 5.21875 -2.390625q2.09375 -2.390625 2.09375 -7.296875q0 -4.609375 -2.09375 -6.984375q-2.09375 -2.390625 -5.21875 -2.390625q-3.15625 0 -5.25 2.375q-2.078125 2.359375 -2.078125 7.140625zm23.929688 12.453125l0 -24.890625l3.796875 0l0 3.53125q2.734375 -4.09375 7.921875 -4.09375q2.25 0 4.1250305 0.8125q1.890625 0.796875 2.828125 2.109375q0.9375 1.3125 1.3125 3.125q0.234375 1.171875 0.234375 4.09375l0 15.3125l-4.21875 0l0 -15.140625q0 -2.578125 -0.5 -3.859375q-0.484375 -1.28125 -1.7344055 -2.03125q-1.25 -0.765625 -2.9375 -0.765625q-2.703125 0 -4.65625 1.71875q-1.953125 1.703125 -1.953125 6.484375l0 13.59375l-4.21875 0z" fill-rule="nonzero"></path></g></svg>

