<?xml version="1.0" standalone="yes"?>

<svg version="1.1" viewBox="0.0 0.0 960.0 720.0" fill="none" stroke="none" stroke-linecap="square" stroke-miterlimit="10" xmlns="http://www.w3.org/2000/svg" xmlns:xlink="http://www.w3.org/1999/xlink"><clipPath id="p.0"><path d="m0 0l960.0 0l0 720.0l-960.0 0l0 -720.0z" clip-rule="nonzero"></path></clipPath><g clip-path="url(#p.0)"><path fill="#000000" fill-opacity="0.0" d="m0 0l960.0 0l0 720.0l-960.0 0z" fill-rule="nonzero"></path><path fill="#000000" fill-opacity="0.0" d="m326.17322 8.826772l307.65356 0l0 189.13387l-307.65356 0z" fill-rule="nonzero"></path><path fill="#000000" d="m345.04822 140.70677l0 -91.625l31.5625 0q10.6875 0 16.3125 1.3125q7.875 1.8125 13.4375 6.5625q7.25 6.125 10.84375 15.656254q3.59375 9.53125 3.59375 21.78125q0 10.4375 -2.4375 18.5q-2.4375 8.0625 -6.25 13.34375q-3.8125 5.2812424 -8.34375 8.312492q-4.53125 3.03125 -10.9375 4.59375q-6.40625 1.5625 -14.71875 1.5625l-33.0625 0zm12.125 -10.8125l19.5625 0q9.0625 0 14.21875 -1.6875q5.15625 -1.6874924 8.21875 -4.7499924q4.3125 -4.3125 6.71875 -11.59375q2.40625 -7.28125 2.40625 -17.65625q0 -14.375 -4.71875 -22.09375q-4.71875 -7.71875 -11.46875 -10.343754q-4.875 -1.875 -15.6875 -1.875l-19.25 0l0 70.0zm122.1875 2.625q-6.25 5.3125 -12.03125 7.5q-5.78125 2.1875 -12.40625 2.1875q-10.9375 0 -16.8125 -5.34375q-5.875 -5.34375 -5.875 -13.656242q0 -4.875 2.21875 -8.90625q2.21875 -4.03125 5.8125 -6.46875q3.59375 -2.4375 8.09375 -3.6875q3.3125 -0.875 10.0 -1.6875q13.625 -1.625 20.0625 -3.875q0.0625 -2.3125 0.0625 -2.9375q0 -6.875 -3.1875 -9.6875q-4.3125 -3.8125 -12.8125 -3.8125q-7.9375 0 -11.71875 2.78125q-3.78125 2.78125 -5.59375 9.84375l-11.0 -1.5q1.5 -7.0625 4.9375 -11.40625q3.4375 -4.34375 9.9375 -6.6875q6.5 -2.34375 15.0625 -2.34375q8.5 0 13.8125 2.0q5.3125 2.0 7.8125 5.03125q2.5 3.03125 3.5 7.65625q0.5625 2.875 0.5625 10.375l0 15.0q0 15.687492 0.71875 19.843742q0.71875 4.15625 2.84375 7.96875l-11.75 0q-1.75 -3.5 -2.25 -8.1875zm-0.9375 -25.124992q-6.125 2.5 -18.375 4.25q-6.9375 1.0 -9.8125 2.25q-2.875 1.25 -4.4375 3.65625q-1.5625 2.40625 -1.5625 5.34375q0 4.5 3.40625 7.4999924q3.40625 3.0 9.96875 3.0q6.5 0 11.5625 -2.84375q5.0625 -2.8437424 7.4375 -7.7812424q1.8125 -3.8125 1.8125 -11.25l0 -4.125zm53.375 23.249992l1.625 9.9375q-4.75 1.0 -8.5 1.0q-6.125 0 -9.5 -1.9375q-3.375 -1.9375 -4.75 -5.09375q-1.375 -3.15625 -1.375 -13.281242l0 -38.1875l-8.25 0l0 -8.75l8.25 0l0 -16.437504l11.1875 -6.75l0 23.187504l11.3125 0l0 8.75l-11.3125 0l0 38.8125q0 4.8125 0.59375 6.1874924q0.59375 1.375 1.9375 2.1875q1.34375 0.8125 3.84375 0.8125q1.875 0 4.9375 -0.4375zm54.3125 1.875q-6.25 5.3125 -12.03125 7.5q-5.78125 2.1875 -12.40625 2.1875q-10.9375 0 -16.8125 -5.34375q-5.875 -5.34375 -5.875 -13.656242q0 -4.875 2.21875 -8.90625q2.21875 -4.03125 5.8125 -6.46875q3.59375 -2.4375 8.09375 -3.6875q3.3125 -0.875 10.0 -1.6875q13.625 -1.625 20.0625 -3.875q0.0625 -2.3125 0.0625 -2.9375q0 -6.875 -3.1875 -9.6875q-4.3125 -3.8125 -12.8125 -3.8125q-7.9375 0 -11.71875 2.78125q-3.78125 2.78125 -5.59375 9.84375l-11.0 -1.5q1.5 -7.0625 4.9375 -11.40625q3.4375 -4.34375 9.9375 -6.6875q6.5 -2.34375 15.0625 -2.34375q8.5 0 13.8125 2.0q5.3125 2.0 7.8125 5.03125q2.5 3.03125 3.5 7.65625q0.5625 2.875 0.5625 10.375l0 15.0q0 15.687492 0.71875 19.843742q0.71875 4.15625 2.84375 7.96875l-11.75 0q-1.75 -3.5 -2.25 -8.1875zm-0.9375 -25.124992q-6.125 2.5 -18.375 4.25q-6.9375 1.0 -9.8125 2.25q-2.875 1.25 -4.4375 3.65625q-1.5625 2.40625 -1.5625 5.34375q0 4.5 3.40625 7.4999924q3.40625 3.0 9.96875 3.0q6.5 0 11.5625 -2.84375q5.0625 -2.8437424 7.4375 -7.7812424q1.8125 -3.8125 1.8125 -11.25l0 -4.125z" fill-rule="nonzero"></path><path fill="#000000" fill-opacity="0.0" d="m76.72966 457.71127l550.2047 0l0 242.11026l-550.2047 0z" fill-rule="nonzero"></path><path fill="#000000" d="m113.94841 500.74442l4.546875 1.140625q-1.421875 5.609375 -5.140625 8.5625q-3.71875 2.9374695 -9.078125 2.9374695q-5.5625 0 -9.046875 -2.2655945q-3.46875 -2.265625 -5.296875 -6.546875q-1.8125 -4.296875 -1.8125 -9.21875q0 -5.375 2.046875 -9.359375q2.0625 -4.0 5.84375 -6.078125q3.78125 -2.078125 8.328125 -2.078125q5.15625 0 8.671875 2.625q3.515625 2.625 4.90625 7.390625l-4.484375 1.046875q-1.1875 -3.75 -3.46875 -5.453125q-2.265625 -1.71875 -5.71875 -1.71875q-3.953125 0 -6.625 1.90625q-2.65625 1.890625 -3.734375 5.09375q-1.078125 3.203125 -1.078125 6.59375q0 4.390625 1.28125 7.65625q1.28125 3.265625 3.96875 4.890625q2.703125 1.609375 5.84375 1.609375q3.8125 0 6.453125 -2.203125q2.65625 -2.203125 3.59375 -6.53125zm8.0390625 -0.40625q0 -6.90625 3.84375 -10.234375q3.21875 -2.765625 7.828125 -2.765625q5.140625 0 8.390625 3.359375q3.265625 3.359375 3.265625 9.296875q0 4.796875 -1.453125 7.5625q-1.4375 2.75 -4.1875 4.28125q-2.75 1.5155945 -6.015625 1.5155945q-5.21875 0 -8.453125 -3.3437195q-3.21875 -3.359375 -3.21875 -9.671875zm4.34375 0q0 4.78125 2.078125 7.171875q2.09375 2.375 5.25 2.375q3.140625 0 5.21875 -2.390625q2.09375 -2.390625 2.09375 -7.296875q0 -4.609375 -2.09375 -6.984375q-2.09375 -2.390625 -5.21875 -2.390625q-3.15625 0 -5.25 2.375q-2.078125 2.359375 -2.078125 7.140625zm23.835938 12.4530945l0 -34.359344l4.21875 0l0 34.359344l-4.21875 0zm27.070312 0l0 -3.6562195q-2.90625 4.2187195 -7.90625 4.2187195q-2.203125 0 -4.109375 -0.84375q-1.90625 -0.8437195 -2.84375 -2.1249695q-0.921875 -1.28125 -1.296875 -3.125q-0.25 -1.25 -0.25 -3.9375l0 -15.421875l4.21875 0l0 13.796875q0 3.3125 0.25 4.453125q0.40625 1.671875 1.6875 2.625q1.296875 0.9375 3.1875 0.9375q1.90625 0 3.5625 -0.96875q1.671875 -0.96875 2.359375 -2.640625q0.6875 -1.6875 0.6875 -4.875l0 -13.328125l4.21875 0l0 24.890594l-3.765625 0zm10.3828125 0l0 -24.890594l3.765625 0l0 3.484375q1.171875 -1.828125 3.109375 -2.9375q1.953125 -1.109375 4.4375 -1.109375q2.765625 0 4.53125 1.15625q1.78125 1.140625 2.5 3.203125q2.953125 -4.359375 7.6875 -4.359375q3.703125 0 5.6875 2.046875q2.0 2.046875 2.0 6.3125l0 17.09372l-4.1875 0l0 -15.6874695q0 -2.53125 -0.421875 -3.640625q-0.40625 -1.109375 -1.484375 -1.78125q-1.078125 -0.6875 -2.53125 -0.6875q-2.625 0 -4.359375 1.75q-1.734375 1.734375 -1.734375 5.578125l0 14.4687195l-4.21875 0l0 -16.171844q0 -2.8125 -1.03125 -4.21875q-1.03125 -1.40625 -3.375 -1.40625q-1.78125 0 -3.296875 0.9375q-1.5 0.9375 -2.1875 2.75q-0.671875 1.796875 -0.671875 5.1875l0 12.9218445l-4.21875 0zm39.984375 0l0 -24.890594l3.796875 0l0 3.53125q2.734375 -4.09375 7.921875 -4.09375q2.25 0 4.125 0.8125q1.890625 0.796875 2.828125 2.109375q0.9375 1.3125 1.3125 3.125q0.234375 1.171875 0.234375 4.09375l0 15.3124695l-4.21875 0l0 -15.1405945q0 -2.578125 -0.5 -3.859375q-0.484375 -1.28125 -1.734375 -2.03125q-1.25 -0.765625 -2.9375 -0.765625q-2.703125 0 -4.65625 1.71875q-1.953125 1.703125 -1.953125 6.484375l0 13.5937195l-4.21875 0zm49.23436 -3.7812195l0.609375 3.7343445q-1.78125 0.375 -3.1875 0.375q-2.296875 0 -3.5625 -0.71875q-1.265625 -0.7343445 -1.78125 -1.9218445q-0.515625 -1.1875 -0.515625 -4.984375l0 -14.3125l-3.09375 0l0 -3.28125l3.09375 0l0 -6.171875l4.203125 -2.53125l0 8.703125l4.234375 0l0 3.28125l-4.234375 0l0 14.546875q0 1.8125 0.21875 2.328125q0.21875 0.515625 0.71875 0.828125q0.515625 0.296875 1.453125 0.296875q0.703125 0 1.84375 -0.171875zm3.9453125 13.3749695l-0.46875 -3.96875q1.375 0.375 2.40625 0.375q1.40625 0 2.25 -0.46875q0.84375 -0.46875 1.390625 -1.3125q0.390625 -0.625 1.28125 -3.140625q0.125 -0.34375 0.375 -1.03125l-9.4375 -24.93747l4.546875 0l5.171875 14.40625q1.015625 2.75 1.8125 5.765625q0.71875 -2.90625 1.734375 -5.671875l5.3125 -14.5l4.21875 0l-9.46875 25.31247q-1.515625 4.109375 -2.359375 5.65625q-1.125 2.078125 -2.578125 3.046875q-1.453125 0.984375 -3.46875 0.984375q-1.21875 0 -2.71875 -0.515625zm24.1875 -0.046875l0 -34.43747l3.84375 0l0 3.234375q1.359375 -1.90625 3.0625 -2.84375q1.71875 -0.953125 4.15625 -0.953125q3.1875 0 5.625 1.640625q2.4375 1.640625 3.671875 4.625q1.25 2.984375 1.25 6.546875q0 3.828125 -1.375 6.890625q-1.375 3.046875 -3.984375 4.6875q-2.609375 1.6249695 -5.5 1.6249695q-2.109375 0 -3.78125 -0.890625q-1.671875 -0.8905945 -2.75 -2.2499695l0 12.1249695l-4.21875 0zm3.8125 -21.859344q0 4.8125 1.9375 7.109375q1.953125 2.296875 4.71875 2.296875q2.8125 0 4.8125 -2.375q2.015625 -2.390625 2.015625 -7.375q0 -4.765625 -1.96875 -7.125q-1.953125 -2.375 -4.671875 -2.375q-2.6875 0 -4.765625 2.53125q-2.078125 2.515625 -2.078125 7.3125zm39.914062 4.296875l4.359375 0.53125q-1.03125 3.828125 -3.828125 5.9375q-2.78125 2.1093445 -7.109375 2.1093445q-5.46875 0 -8.671875 -3.3593445q-3.1875 -3.375 -3.1875 -9.4375q0 -6.28125 3.234375 -9.75q3.234375 -3.46875 8.390625 -3.46875q4.984375 0 8.140625 3.40625q3.171875 3.390625 3.171875 9.546875q0 0.375 -0.015625 1.125l-18.5625 0q0.234375 4.109375 2.3125 6.296875q2.09375 2.171875 5.203125 2.171875q2.328125 0 3.96875 -1.21875q1.640625 -1.21875 2.59375 -3.890625zm-13.84375 -6.828125l13.890625 0q-0.28125 -3.140625 -1.59375 -4.703125q-2.015625 -2.4375 -5.21875 -2.4375q-2.90625 0 -4.890625 1.953125q-1.984375 1.9375 -2.1875 5.1875zm21.820312 7.40625l4.171875 -0.65625q0.34375 2.515625 1.953125 3.859375q1.609375 1.328125 4.484375 1.328125q2.90625 0 4.3125 -1.1875q1.40625 -1.1875 1.40625 -2.78125q0 -1.421875 -1.234375 -2.25q-0.875 -0.5625 -4.3125 -1.421875q-4.640625 -1.171875 -6.4375 -2.03125q-1.796875 -0.859375 -2.71875 -2.359375q-0.921875 -1.515625 -0.921875 -3.34375q0 -1.671875 0.75 -3.078125q0.765625 -1.421875 2.078125 -2.359375q0.984375 -0.734375 2.6875 -1.234375q1.703125 -0.5 3.640625 -0.5q2.9375 0 5.140625 0.84375q2.21875 0.84375 3.265625 2.28125q1.0625 1.4375 1.46875 3.859375l-4.125 0.5625q-0.28125 -1.921875 -1.640625 -3.0q-1.34375 -1.078125 -3.796875 -1.078125q-2.90625 0 -4.15625 0.96875q-1.234375 0.953125 -1.234375 2.234375q0 0.828125 0.515625 1.484375q0.515625 0.671875 1.609375 1.125q0.640625 0.234375 3.734375 1.078125q4.46875 1.1875 6.234375 1.953125q1.78125 0.765625 2.78125 2.21875q1.015625 1.453125 1.015625 3.609375q0 2.109375 -1.234375 3.96875q-1.234375 1.859375 -3.5625 2.8905945q-2.3125 1.015625 -5.234375 1.015625q-4.859375 0 -7.40625 -2.0155945q-2.53125 -2.015625 -3.234375 -5.984375zm26.859375 -12.65625l0 -4.796875l4.796875 0l0 4.796875l-4.796875 0zm0 20.09372l0 -4.8124695l4.796875 0l0 4.8124695l-4.796875 0z" fill-rule="nonzero"></path><path fill="#000000" d="m95.2531 546.9319q2.578125 0 5.0625 1.34375q2.484375 1.328125 3.859375 3.8125q1.390625 2.484375 1.390625 5.15625q0 4.28125 -3.03125 7.3125q-3.015625 3.015625 -7.28125 3.015625q-4.296875 0 -7.328125 -3.015625q-3.015625 -3.03125 -3.015625 -7.3125q0 -2.703125 1.375 -5.171875q1.390625 -2.46875 3.875 -3.796875q2.484375 -1.34375 5.09375 -1.34375z" fill-rule="nonzero"></path><path fill="#000000" d="m163.47966 567.10376q3.15625 2.1875 5.828125 3.1875l-1.328125 3.171875q-3.703125 -1.328125 -7.390625 -4.21875q-3.8125 2.140625 -8.4375 2.140625q-4.65625 0 -8.453125 -2.25q-3.796875 -2.265625 -5.859375 -6.34375q-2.046875 -4.078125 -2.046875 -9.1875q0 -5.078125 2.0625 -9.25q2.0625 -4.171875 5.875 -6.34375q3.8125 -2.1875 8.515625 -2.1875q4.765625 0 8.578125 2.265625q3.828125 2.25 5.828125 6.328125q2.0 4.0625 2.0 9.171875q0 4.234375 -1.296875 7.625q-1.28125 3.390625 -3.875 5.890625zm-10.015625 -5.8125q3.9375 1.109375 6.5 3.28125q4.0 -3.65625 4.0 -10.984375q0 -4.171875 -1.421875 -7.28125q-1.40625 -3.125 -4.140625 -4.84375q-2.734375 -1.734375 -6.125 -1.734375q-5.09375 0 -8.453125 3.484375q-3.34375 3.484375 -3.34375 10.390625q0 6.703125 3.3125 10.296875q3.328125 3.578125 8.484375 3.578125q2.4375 0 4.59375 -0.90625q-2.140625 -1.390625 -4.5 -1.96875l1.09375 -3.3125zm37.085938 9.5l0 -3.65625q-2.90625 4.21875 -7.90625 4.21875q-2.203125 0 -4.109375 -0.84375q-1.90625 -0.84375 -2.84375 -2.125q-0.921875 -1.28125 -1.296875 -3.125q-0.25 -1.25 -0.25 -3.9375l0 -15.421875l4.21875 0l0 13.796875q0 3.3125 0.25 4.453125q0.40625 1.671875 1.6875 2.625q1.296875 0.9375 3.1875 0.9375q1.90625 0 3.5625 -0.96875q1.671875 -0.96875 2.359375 -2.640625q0.6875 -1.6875 0.6875 -4.875l0 -13.328125l4.21875 0l0 24.890625l-3.765625 0zm26.617188 -3.078125q-2.34375 2.0 -4.515625 2.828125q-2.15625 0.8125 -4.640625 0.8125q-4.109375 0 -6.3125 -2.0q-2.203125 -2.015625 -2.203125 -5.125q0 -1.828125 0.828125 -3.34375q0.84375 -1.515625 2.1875 -2.421875q1.34375 -0.921875 3.03125 -1.390625q1.25 -0.328125 3.75 -0.625q5.109375 -0.609375 7.53125 -1.453125q0.015625 -0.875 0.015625 -1.109375q0 -2.578125 -1.1875 -3.625q-1.625 -1.4375 -4.8125 -1.4375q-2.96875 0 -4.390625 1.046875q-1.421875 1.046875 -2.09375 3.6875l-4.125 -0.5625q0.5625 -2.640625 1.84375 -4.265625q1.296875 -1.640625 3.734375 -2.515625q2.4375 -0.875 5.640625 -0.875q3.1875 0 5.171875 0.75q2.0 0.75 2.9375 1.890625q0.9375 1.125 1.3125 2.859375q0.21875 1.078125 0.21875 3.890625l0 5.625q0 5.890625 0.265625 7.453125q0.265625 1.546875 1.0625 2.984375l-4.40625 0q-0.65625 -1.3125 -0.84375 -3.078125zm-0.34375 -9.421875q-2.296875 0.9375 -6.890625 1.59375q-2.609375 0.375 -3.6875 0.84375q-1.078125 0.46875 -1.671875 1.375q-0.578125 0.90625 -0.578125 2.0q0 1.6875 1.28125 2.8125q1.28125 1.125 3.734375 1.125q2.4375 0 4.328125 -1.0625q1.90625 -1.0625 2.796875 -2.921875q0.6875 -1.421875 0.6875 -4.21875l0 -1.546875zm10.8046875 12.5l0 -24.890625l3.796875 0l0 3.53125q2.734375 -4.09375 7.921875 -4.09375q2.25 0 4.125 0.8125q1.890625 0.796875 2.828125 2.109375q0.9375 1.3125 1.3125 3.125q0.234375 1.171875 0.234375 4.09375l0 15.3125l-4.21875 0l0 -15.140625q0 -2.578125 -0.5 -3.859375q-0.484375 -1.28125 -1.734375 -2.03125q-1.25 -0.765625 -2.9375 -0.765625q-2.703125 0 -4.65625 1.71875q-1.953125 1.703125 -1.953125 6.484375l0 13.59375l-4.21875 0zm35.898422 -3.78125l0.609375 3.734375q-1.78125 0.375 -3.1875 0.375q-2.296875 0 -3.5625 -0.71875q-1.265625 -0.734375 -1.7812347 -1.921875q-0.515625 -1.1875 -0.515625 -4.984375l0 -14.3125l-3.09375 0l0 -3.28125l3.09375 0l0 -6.171875l4.2031097 -2.53125l0 8.703125l4.234375 0l0 3.28125l-4.234375 0l0 14.546875q0 1.8125 0.21875 2.328125q0.21875 0.515625 0.71875 0.828125q0.515625 0.296875 1.453125 0.296875q0.703125 0 1.84375 -0.171875zm4.1484375 -25.734375l0 -4.84375l4.21875 0l0 4.84375l-4.21875 0zm0 29.515625l0 -24.890625l4.21875 0l0 24.890625l-4.21875 0zm19.851562 -3.78125l0.609375 3.734375q-1.78125 0.375 -3.1875 0.375q-2.296875 0 -3.5625 -0.71875q-1.265625 -0.734375 -1.78125 -1.921875q-0.515625 -1.1875 -0.515625 -4.984375l0 -14.3125l-3.09375 0l0 -3.28125l3.09375 0l0 -6.171875l4.203125 -2.53125l0 8.703125l4.234375 0l0 3.28125l-4.234375 0l0 14.546875q0 1.8125 0.21875 2.328125q0.21875 0.515625 0.71875 0.828125q0.515625 0.296875 1.453125 0.296875q0.703125 0 1.84375 -0.171875zm20.367188 0.703125q-2.34375 2.0 -4.515625 2.828125q-2.15625 0.8125 -4.640625 0.8125q-4.109375 0 -6.3125 -2.0q-2.203125 -2.015625 -2.203125 -5.125q0 -1.828125 0.828125 -3.34375q0.84375 -1.515625 2.1875 -2.421875q1.34375 -0.921875 3.03125 -1.390625q1.25 -0.328125 3.75 -0.625q5.109375 -0.609375 7.53125 -1.453125q0.015625 -0.875 0.015625 -1.109375q0 -2.578125 -1.1875 -3.625q-1.625 -1.4375 -4.8125 -1.4375q-2.96875 0 -4.390625 1.046875q-1.421875 1.046875 -2.09375 3.6875l-4.125 -0.5625q0.5625 -2.640625 1.84375 -4.265625q1.296875 -1.640625 3.734375 -2.515625q2.4375 -0.875 5.640625 -0.875q3.1875 0 5.171875 0.75q2.0 0.75 2.9375 1.890625q0.9375 1.125 1.3125 2.859375q0.21875 1.078125 0.21875 3.890625l0 5.625q0 5.890625 0.265625 7.453125q0.265625 1.546875 1.0625 2.984375l-4.40625 0q-0.65625 -1.3125 -0.84375 -3.078125zm-0.34375 -9.421875q-2.296875 0.9375 -6.890625 1.59375q-2.609375 0.375 -3.6875 0.84375q-1.078125 0.46875 -1.671875 1.375q-0.578125 0.90625 -0.578125 2.0q0 1.6875 1.28125 2.8125q1.28125 1.125 3.734375 1.125q2.4375 0 4.328125 -1.0625q1.90625 -1.0625 2.796875 -2.921875q0.6875 -1.421875 0.6875 -4.21875l0 -1.546875zm20.007812 8.71875l0.609375 3.734375q-1.78125 0.375 -3.1875 0.375q-2.296875 0 -3.5625 -0.71875q-1.265625 -0.734375 -1.78125 -1.921875q-0.515625 -1.1875 -0.515625 -4.984375l0 -14.3125l-3.09375 0l0 -3.28125l3.09375 0l0 -6.171875l4.203125 -2.53125l0 8.703125l4.234375 0l0 3.28125l-4.234375 0l0 14.546875q0 1.8125 0.21875 2.328125q0.21875 0.515625 0.71875 0.828125q0.515625 0.296875 1.453125 0.296875q0.703125 0 1.84375 -0.171875zm4.1484375 -25.734375l0 -4.84375l4.21875 0l0 4.84375l-4.21875 0zm0 29.515625l0 -24.890625l4.21875 0l0 24.890625l-4.21875 0zm17.554688 0l-9.46875 -24.890625l4.453125 0l5.34375 14.90625q0.875 2.40625 1.59375 5.015625q0.5625 -1.96875 1.578125 -4.734375l5.53125 -15.1875l4.328125 0l-9.421875 24.890625l-3.9375 0zm34.125 -8.015625l4.359375 0.53125q-1.03125 3.828125 -3.828125 5.9375q-2.78125 2.109375 -7.109375 2.109375q-5.46875 0 -8.671875 -3.359375q-3.1875 -3.375 -3.1875 -9.4375q0 -6.28125 3.234375 -9.75q3.234375 -3.46875 8.390625 -3.46875q4.984375 0 8.140625 3.40625q3.171875 3.390625 3.171875 9.546875q0 0.375 -0.015625 1.125l-18.5625 0q0.234375 4.109375 2.3125 6.296875q2.09375 2.171875 5.203125 2.171875q2.328125 0 3.96875 -1.21875q1.640625 -1.21875 2.59375 -3.890625zm-13.84375 -6.828125l13.890625 0q-0.28125 -3.140625 -1.59375 -4.703125q-2.015625 -2.4375 -5.21875 -2.4375q-2.90625 0 -4.890625 1.953125q-1.984375 1.9375 -2.1875 5.1875z" fill-rule="nonzero"></path><path fill="#000000" d="m95.2531 604.9319q2.578125 0 5.0625 1.34375q2.484375 1.328125 3.859375 3.8125q1.390625 2.484375 1.390625 5.15625q0 4.28125 -3.03125 7.3125q-3.015625 3.015625 -7.28125 3.015625q-4.296875 0 -7.328125 -3.015625q-3.015625 -3.03125 -3.015625 -7.3125q0 -2.703125 1.375 -5.171875q1.390625 -2.46875 3.875 -3.796875q2.484375 -1.34375 5.09375 -1.34375z" fill-rule="nonzero"></path><path fill="#000000" d="m161.94841 616.7444l4.546875 1.140625q-1.421875 5.609375 -5.140625 8.5625q-3.71875 2.9375 -9.078125 2.9375q-5.5625 0 -9.046875 -2.265625q-3.46875 -2.265625 -5.296875 -6.546875q-1.8125 -4.296875 -1.8125 -9.21875q0 -5.375 2.046875 -9.359375q2.0625 -4.0 5.84375 -6.078125q3.78125 -2.078125 8.328125 -2.078125q5.15625 0 8.671875 2.625q3.515625 2.625 4.90625 7.390625l-4.484375 1.046875q-1.1875 -3.75 -3.46875 -5.453125q-2.265625 -1.71875 -5.71875 -1.71875q-3.953125 0 -6.625 1.90625q-2.65625 1.890625 -3.734375 5.09375q-1.078125 3.203125 -1.078125 6.59375q0 4.390625 1.28125 7.65625q1.28125 3.265625 3.96875 4.890625q2.703125 1.609375 5.84375 1.609375q3.8125 0 6.453125 -2.203125q2.65625 -2.203125 3.59375 -6.53125zm25.851562 8.96875q-2.34375 2.0 -4.515625 2.828125q-2.15625 0.8125 -4.640625 0.8125q-4.109375 0 -6.3125 -2.0q-2.203125 -2.015625 -2.203125 -5.125q0 -1.828125 0.828125 -3.34375q0.84375 -1.515625 2.1875 -2.421875q1.34375 -0.921875 3.03125 -1.390625q1.25 -0.328125 3.75 -0.625q5.109375 -0.609375 7.53125 -1.453125q0.015625 -0.875 0.015625 -1.109375q0 -2.578125 -1.1875 -3.625q-1.625 -1.4375 -4.8125 -1.4375q-2.96875 0 -4.390625 1.046875q-1.421875 1.046875 -2.09375 3.6875l-4.125 -0.5625q0.5625 -2.640625 1.84375 -4.265625q1.296875 -1.640625 3.734375 -2.515625q2.4375 -0.875 5.640625 -0.875q3.1875 0 5.171875 0.75q2.0 0.75 2.9375 1.890625q0.9375 1.125 1.3125 2.859375q0.21875 1.078125 0.21875 3.890625l0 5.625q0 5.890625 0.265625 7.453125q0.265625 1.546875 1.0625 2.984375l-4.40625 0q-0.65625 -1.3125 -0.84375 -3.078125zm-0.34375 -9.421875q-2.296875 0.9375 -6.890625 1.59375q-2.609375 0.375 -3.6875 0.84375q-1.078125 0.46875 -1.671875 1.375q-0.578125 0.90625 -0.578125 2.0q0 1.6875 1.28125 2.8125q1.28125 1.125 3.734375 1.125q2.4375 0 4.328125 -1.0625q1.90625 -1.0625 2.796875 -2.921875q0.6875 -1.421875 0.6875 -4.21875l0 -1.546875zm20.007812 8.71875l0.609375 3.734375q-1.78125 0.375 -3.1875 0.375q-2.296875 0 -3.5625 -0.71875q-1.265625 -0.734375 -1.78125 -1.921875q-0.515625 -1.1875 -0.515625 -4.984375l0 -14.3125l-3.09375 0l0 -3.28125l3.09375 0l0 -6.171875l4.203125 -2.53125l0 8.703125l4.234375 0l0 3.28125l-4.234375 0l0 14.546875q0 1.8125 0.21875 2.328125q0.21875 0.515625 0.71875 0.828125q0.515625 0.296875 1.453125 0.296875q0.703125 0 1.84375 -0.171875zm21.164062 -4.234375l4.359375 0.53125q-1.03125 3.828125 -3.828125 5.9375q-2.78125 2.109375 -7.109375 2.109375q-5.46875 0 -8.671875 -3.359375q-3.1875 -3.375 -3.1875 -9.4375q0 -6.28125 3.234375 -9.75q3.234375 -3.46875 8.390625 -3.46875q4.984375 0 8.140625 3.40625q3.171875 3.390625 3.171875 9.546875q0 0.375 -0.015625 1.125l-18.5625 0q0.234375 4.109375 2.3125 6.296875q2.09375 2.171875 5.203125 2.171875q2.328125 0 3.96875 -1.21875q1.640625 -1.21875 2.59375 -3.890625zm-13.84375 -6.828125l13.890625 0q-0.28125 -3.140625 -1.59375 -4.703125q-2.015625 -2.4375 -5.21875 -2.4375q-2.90625 0 -4.890625 1.953125q-1.984375 1.9375 -2.1875 5.1875zm22.726562 16.90625l4.109375 0.609375q0.25 1.90625 1.421875 2.765625q1.578125 1.171875 4.296875 1.171875q2.921875 0 4.515625 -1.171875q1.59375 -1.171875 2.15625 -3.28125q0.328125 -1.28125 0.3125 -5.421875q-2.765625 3.265625 -6.890625 3.265625q-5.140625 0 -7.953125 -3.703125q-2.8125 -3.703125 -2.8125 -8.890625q0 -3.5625 1.28125 -6.5625q1.296875 -3.015625 3.75 -4.65625q2.453125 -1.640625 5.75 -1.640625q4.40625 0 7.265625 3.5625l0 -3.0l3.8906097 0l0 21.515625q0 5.8125 -1.1875 8.234375q-1.171875 2.4375 -3.7499847 3.84375q-2.5625 1.40625 -6.3125 1.40625q-4.453125 0 -7.203125 -2.015625q-2.734375 -2.0 -2.640625 -6.03125zm3.5 -14.953125q0 4.890625 1.9375 7.140625q1.953125 2.25 4.875 2.25q2.90625 0 4.875 -2.234375q1.96875 -2.234375 1.96875 -7.015625q0 -4.578125 -2.03125 -6.890625q-2.015625 -2.328125 -4.875 -2.328125q-2.8125 0 -4.78125 2.296875q-1.96875 2.28125 -1.96875 6.78125zm22.398422 0.4375q0 -6.90625 3.84375 -10.234375q3.21875 -2.765625 7.828125 -2.765625q5.140625 0 8.390625 3.359375q3.265625 3.359375 3.265625 9.296875q0 4.796875 -1.453125 7.5625q-1.4375 2.75 -4.1875 4.28125q-2.75 1.515625 -6.015625 1.515625q-5.21875 0 -8.453125 -3.34375q-3.21875 -3.359375 -3.21875 -9.671875zm4.34375 0q0 4.78125 2.078125 7.171875q2.09375 2.375 5.25 2.375q3.140625 0 5.21875 -2.390625q2.09375 -2.390625 2.09375 -7.296875q0 -4.609375 -2.09375 -6.984375q-2.09375 -2.390625 -5.21875 -2.390625q-3.15625 0 -5.25 2.375q-2.078125 2.359375 -2.078125 7.140625zm23.882812 12.453125l0 -24.890625l3.796875 0l0 3.765625q1.453125 -2.640625 2.671875 -3.484375q1.234375 -0.84375 2.71875 -0.84375q2.125 0 4.328125 1.359375l-1.453125 3.90625q-1.546875 -0.90625 -3.09375 -0.90625q-1.375 0 -2.484375 0.828125q-1.09375 0.828125 -1.5625 2.3125q-0.703125 2.25 -0.703125 4.921875l0 13.03125l-4.21875 0zm16.046875 -29.515625l0 -4.84375l4.21875 0l0 4.84375l-4.21875 0zm0 29.515625l0 -24.890625l4.21875 0l0 24.890625l-4.21875 0zm26.882812 -9.125l4.15625 0.546875q-0.6875 4.28125 -3.484375 6.71875q-2.796875 2.421875 -6.875 2.421875q-5.109375 0 -8.21875 -3.34375q-3.109375 -3.34375 -3.109375 -9.578125q0 -4.03125 1.328125 -7.046875q1.34375 -3.03125 4.078125 -4.53125q2.734375 -1.515625 5.9375 -1.515625q4.0625 0 6.640625 2.046875q2.578125 2.046875 3.296875 5.828125l-4.09375 0.625q-0.59375 -2.5 -2.078125 -3.765625q-1.484375 -1.265625 -3.59375 -1.265625q-3.1875 0 -5.1875 2.28125q-1.984375 2.28125 -1.984375 7.234375q0 5.015625 1.921875 7.296875q1.921875 2.265625 5.015625 2.265625q2.484375 0 4.140625 -1.515625q1.671875 -1.53125 2.109375 -4.703125zm24.0 6.046875q-2.34375 2.0 -4.515625 2.828125q-2.15625 0.8125 -4.640625 0.8125q-4.109375 0 -6.3125 -2.0q-2.203125 -2.015625 -2.203125 -5.125q0 -1.828125 0.828125 -3.34375q0.84375 -1.515625 2.1875 -2.421875q1.34375 -0.921875 3.03125 -1.390625q1.25 -0.328125 3.75 -0.625q5.109375 -0.609375 7.53125 -1.453125q0.015625 -0.875 0.015625 -1.109375q0 -2.578125 -1.1875 -3.625q-1.625 -1.4375 -4.8125 -1.4375q-2.96875 0 -4.390625 1.046875q-1.421875 1.046875 -2.09375 3.6875l-4.125 -0.5625q0.5625 -2.640625 1.84375 -4.265625q1.296875 -1.640625 3.734375 -2.515625q2.4375 -0.875 5.640625 -0.875q3.1875 0 5.171875 0.75q2.0 0.75 2.9375 1.890625q0.9375 1.125 1.3125 2.859375q0.21875 1.078125 0.21875 3.890625l0 5.625q0 5.890625 0.265625 7.453125q0.265625 1.546875 1.0625 2.984375l-4.40625 0q-0.65625 -1.3125 -0.84375 -3.078125zm-0.34375 -9.421875q-2.296875 0.9375 -6.890625 1.59375q-2.609375 0.375 -3.6875 0.84375q-1.078125 0.46875 -1.671875 1.375q-0.578125 0.90625 -0.578125 2.0q0 1.6875 1.28125 2.8125q1.28125 1.125 3.734375 1.125q2.4375 0 4.328125 -1.0625q1.90625 -1.0625 2.796875 -2.921875q0.6875 -1.421875 0.6875 -4.21875l0 -1.546875zm10.7109375 12.5l0 -34.359375l4.21875 0l0 34.359375l-4.21875 0z" fill-rule="nonzero"></path><path stroke="#9e9e9e" stroke-width="1.0" stroke-linecap="butt" d="m100.0 191.5853l0 248.1785" fill-rule="nonzero"></path><path stroke="#9e9e9e" stroke-width="1.0" stroke-linecap="butt" d="m290.0 191.5853l0 248.1785" fill-rule="nonzero"></path><path stroke="#9e9e9e" stroke-width="1.0" stroke-linecap="butt" d="m480.0 191.5853l0 248.1785" fill-rule="nonzero"></path><path stroke="#9e9e9e" stroke-width="1.0" stroke-linecap="butt" d="m670.0 191.5853l0 248.1785" fill-rule="nonzero"></path><path stroke="#9e9e9e" stroke-width="1.0" stroke-linecap="butt" d="m860.0 191.5853l0 248.1785" fill-rule="nonzero"></path><path stroke="#9e9e9e" stroke-width="1.0" stroke-linecap="butt" d="m99.50131 192.08398l760.9973 0" fill-rule="nonzero"></path><path stroke="#9e9e9e" stroke-width="1.0" stroke-linecap="butt" d="m99.50131 233.28084l760.9973 0" fill-rule="nonzero"></path><path stroke="#9e9e9e" stroke-width="1.0" stroke-linecap="butt" d="m99.50131 274.4777l760.9973 0" fill-rule="nonzero"></path><path stroke="#9e9e9e" stroke-width="1.0" stroke-linecap="butt" d="m99.50131 315.67453l760.9973 0" fill-rule="nonzero"></path><path stroke="#9e9e9e" stroke-width="1.0" stroke-linecap="butt" d="m99.50131 356.8714l760.9973 0" fill-rule="nonzero"></path><path stroke="#9e9e9e" stroke-width="1.0" stroke-linecap="butt" d="m99.50131 398.06824l760.9973 0" fill-rule="nonzero"></path><path stroke="#9e9e9e" stroke-width="1.0" stroke-linecap="butt" d="m99.50131 439.2651l760.9973 0" fill-rule="nonzero"></path><path fill="#000000" fill-opacity="0.0" d="m403.75067 542.9449l266.64563 0l0 139.74805l-266.64563 0z" fill-rule="nonzero"></path><path fill="#000000" d="m422.2741 574.1655q2.578125 0 5.0625 1.34375q2.484375 1.328125 3.859375 3.8125q1.390625 2.484375 1.390625 5.15625q0 4.28125 -3.03125 7.3125q-3.015625 3.015625 -7.28125 3.015625q-4.296875 0 -7.328125 -3.015625q-3.015625 -3.03125 -3.015625 -7.3125q0 -2.703125 1.375 -5.171875q1.390625 -2.46875 3.875 -3.796875q2.484375 -1.34375 5.09375 -1.34375z" fill-rule="nonzero"></path><path fill="#000000" d="m463.0788 581.2905q0 -8.5625 4.59375 -13.390625q4.59375 -4.84375 11.859375 -4.84375q4.75 0 8.5625 2.28125q3.828125 2.265625 5.828125 6.328125q2.015625 4.0625 2.015625 9.21875q0 5.234375 -2.109375 9.359375q-2.109375 4.125 -5.984375 6.25q-3.859375 2.125 -8.34375 2.125q-4.84375 0 -8.671875 -2.34375q-3.8125 -2.359375 -5.78125 -6.40625q-1.96875 -4.0625 -1.96875 -8.578125zm4.6875 0.0625q0 6.21875 3.328125 9.796875q3.34375 3.5625 8.390625 3.5625q5.125 0 8.4375 -3.609375q3.328125 -3.609375 3.328125 -10.234375q0 -4.203125 -1.421875 -7.328125q-1.421875 -3.125 -4.15625 -4.84375q-2.71875 -1.734375 -6.125 -1.734375q-4.828125 0 -8.3125 3.328125q-3.46875 3.3125 -3.46875 11.0625zm33.445312 16.671875l0 -24.890625l3.796875 0l0 3.765625q1.453125 -2.640625 2.671875 -3.484375q1.234375 -0.84375 2.71875 -0.84375q2.125 0 4.328125 1.359375l-1.453125 3.90625q-1.546875 -0.90625 -3.09375 -0.90625q-1.375 0 -2.484375 0.828125q-1.09375 0.828125 -1.5625 2.3125q-0.703125 2.25 -0.703125 4.921875l0 13.03125l-4.21875 0zm32.171875 0l0 -3.140625q-2.359375 3.703125 -6.953125 3.703125q-2.984375 0 -5.484375 -1.640625q-2.484375 -1.640625 -3.859375 -4.578125q-1.375 -2.953125 -1.375 -6.765625q0 -3.734375 1.234375 -6.765625q1.25 -3.03125 3.734375 -4.640625q2.484375 -1.625 5.5625 -1.625q2.25 0 4.0 0.953125q1.765625 0.9375 2.859375 2.46875l0 -12.328125l4.203125 0l0 34.359375l-3.921875 0zm-13.328125 -12.421875q0 4.78125 2.015625 7.15625q2.015625 2.359375 4.75 2.359375q2.765625 0 4.703125 -2.265625q1.9375 -2.265625 1.9375 -6.90625q0 -5.109375 -1.96875 -7.5q-1.96875 -2.390625 -4.859375 -2.390625q-2.8125 0 -4.703125 2.296875q-1.875 2.296875 -1.875 7.25zm23.898438 -17.09375l0 -4.84375l4.21875 0l0 4.84375l-4.21875 0zm0 29.515625l0 -24.890625l4.21875 0l0 24.890625l-4.21875 0zm10.6484375 0l0 -24.890625l3.796875 0l0 3.53125q2.734375 -4.09375 7.921875 -4.09375q2.25 0 4.125 0.8125q1.890625 0.796875 2.828125 2.109375q0.9375 1.3125 1.3125 3.125q0.234375 1.171875 0.234375 4.09375l0 15.3125l-4.21875 0l0 -15.140625q0 -2.578125 -0.5 -3.859375q-0.484375 -1.28125 -1.734375 -2.03125q-1.25 -0.765625 -2.9375 -0.765625q-2.703125 0 -4.65625 1.71875q-1.953125 1.703125 -1.953125 6.484375l0 13.59375l-4.21875 0zm42.929688 -3.078125q-2.34375 2.0 -4.515625 2.828125q-2.15625 0.8125 -4.640625 0.8125q-4.109375 0 -6.3125 -2.0q-2.203125 -2.015625 -2.203125 -5.125q0 -1.828125 0.828125 -3.34375q0.84375 -1.515625 2.1875 -2.421875q1.34375 -0.921875 3.03125 -1.390625q1.25 -0.328125 3.75 -0.625q5.109375 -0.609375 7.53125 -1.453125q0.015625 -0.875 0.015625 -1.109375q0 -2.578125 -1.1875 -3.625q-1.625 -1.4375 -4.8125 -1.4375q-2.96875 0 -4.390625 1.046875q-1.421875 1.046875 -2.09375 3.6875l-4.125 -0.5625q0.5625 -2.640625 1.84375 -4.265625q1.296875 -1.640625 3.734375 -2.515625q2.4375 -0.875 5.640625 -0.875q3.1875 0 5.171875 0.75q2.0 0.75 2.9375 1.890625q0.9375 1.125 1.3125 2.859375q0.21875 1.078125 0.21875 3.890625l0 5.625q0 5.890625 0.265625 7.453125q0.265625 1.546875 1.0625 2.984375l-4.40625 0q-0.65625 -1.3125 -0.84375 -3.078125zm-0.34375 -9.421875q-2.296875 0.9375 -6.890625 1.59375q-2.609375 0.375 -3.6875 0.84375q-1.078125 0.46875 -1.671875 1.375q-0.578125 0.90625 -0.578125 2.0q0 1.6875 1.28125 2.8125q1.28125 1.125 3.734375 1.125q2.4375 0 4.328125 -1.0625q1.90625 -1.0625 2.796875 -2.921875q0.6875 -1.421875 0.6875 -4.21875l0 -1.546875zm10.7109375 12.5l0 -34.359375l4.21875 0l0 34.359375l-4.21875 0z" fill-rule="nonzero"></path><path fill="#000000" d="m422.2741 632.1655q2.578125 0 5.0625 1.34375q2.484375 1.328125 3.859375 3.8125q1.390625 2.484375 1.390625 5.15625q0 4.28125 -3.03125 7.3125q-3.015625 3.015625 -7.28125 3.015625q-4.296875 0 -7.328125 -3.015625q-3.015625 -3.03125 -3.015625 -7.3125q0 -2.703125 1.375 -5.171875q1.390625 -2.46875 3.875 -3.796875q2.484375 -1.34375 5.09375 -1.34375z" fill-rule="nonzero"></path><path fill="#000000" d="m464.40692 656.0249l0 -34.359375l4.671875 0l18.046875 26.96875l0 -26.96875l4.359375 0l0 34.359375l-4.671875 0l-18.046875 -27.0l0 27.0l-4.359375 0zm32.601562 -12.453125q0 -6.90625 3.84375 -10.234375q3.21875 -2.765625 7.828125 -2.765625q5.140625 0 8.390625 3.359375q3.265625 3.359375 3.265625 9.296875q0 4.796875 -1.453125 7.5625q-1.4375 2.75 -4.1875 4.28125q-2.75 1.515625 -6.015625 1.515625q-5.21875 0 -8.453125 -3.34375q-3.21875 -3.359375 -3.21875 -9.671875zm4.34375 0q0 4.78125 2.078125 7.171875q2.09375 2.375 5.25 2.375q3.140625 0 5.21875 -2.390625q2.09375 -2.390625 2.09375 -7.296875q0 -4.609375 -2.09375 -6.984375q-2.09375 -2.390625 -5.21875 -2.390625q-3.15625 0 -5.25 2.375q-2.078125 2.359375 -2.078125 7.140625zm23.929688 12.453125l0 -24.890625l3.765625 0l0 3.484375q1.171875 -1.828125 3.109375 -2.9375q1.953125 -1.109375 4.4375 -1.109375q2.765625 0 4.53125 1.15625q1.78125 1.140625 2.5 3.203125q2.953125 -4.359375 7.6875 -4.359375q3.703125 0 5.6875 2.046875q2.0 2.046875 2.0 6.3125l0 17.09375l-4.1875 0l0 -15.6875q0 -2.53125 -0.421875 -3.640625q-0.40625 -1.109375 -1.484375 -1.78125q-1.078125 -0.6875 -2.53125 -0.6875q-2.625 0 -4.359375 1.75q-1.734375 1.734375 -1.734375 5.578125l0 14.46875l-4.21875 0l0 -16.171875q0 -2.8125 -1.03125 -4.21875q-1.03125 -1.40625 -3.375 -1.40625q-1.78125 0 -3.296875 0.9375q-1.5 0.9375 -2.1875 2.75q-0.671875 1.796875 -0.671875 5.1875l0 12.921875l-4.21875 0zm40.0 -29.515625l0 -4.84375l4.21875 0l0 4.84375l-4.21875 0zm0 29.515625l0 -24.890625l4.21875 0l0 24.890625l-4.21875 0zm10.6484375 0l0 -24.890625l3.796875 0l0 3.53125q2.734375 -4.09375 7.921875 -4.09375q2.25 0 4.125 0.8125q1.890625 0.796875 2.828125 2.109375q0.9375 1.3125 1.3125 3.125q0.234375 1.171875 0.234375 4.09375l0 15.3125l-4.21875 0l0 -15.140625q0 -2.578125 -0.5 -3.859375q-0.484375 -1.28125 -1.734375 -2.03125q-1.25 -0.765625 -2.9375 -0.765625q-2.703125 0 -4.65625 1.71875q-1.953125 1.703125 -1.953125 6.484375l0 13.59375l-4.21875 0zm42.929688 -3.078125q-2.34375 2.0 -4.515625 2.828125q-2.15625 0.8125 -4.640625 0.8125q-4.109375 0 -6.3125 -2.0q-2.203125 -2.015625 -2.203125 -5.125q0 -1.828125 0.828125 -3.34375q0.84375 -1.515625 2.1875 -2.421875q1.34375 -0.921875 3.03125 -1.390625q1.25 -0.328125 3.75 -0.625q5.109375 -0.609375 7.53125 -1.453125q0.015625 -0.875 0.015625 -1.109375q0 -2.578125 -1.1875 -3.625q-1.625 -1.4375 -4.8125 -1.4375q-2.96875 0 -4.390625 1.046875q-1.421875 1.046875 -2.09375 3.6875l-4.125 -0.5625q0.5625 -2.640625 1.84375 -4.265625q1.296875 -1.640625 3.734375 -2.515625q2.4375 -0.875 5.640625 -0.875q3.1875 0 5.171875 0.75q2.0 0.75 2.9375 1.890625q0.9375 1.125 1.3125 2.859375q0.21875 1.078125 0.21875 3.890625l0 5.625q0 5.890625 0.265625 7.453125q0.265625 1.546875 1.0625 2.984375l-4.40625 0q-0.65625 -1.3125 -0.84375 -3.078125zm-0.34375 -9.421875q-2.296875 0.9375 -6.890625 1.59375q-2.609375 0.375 -3.6875 0.84375q-1.078125 0.46875 -1.671875 1.375q-0.578125 0.90625 -0.578125 2.0q0 1.6875 1.28125 2.8125q1.28125 1.125 3.734375 1.125q2.4375 0 4.328125 -1.0625q1.90625 -1.0625 2.796875 -2.921875q0.6875 -1.421875 0.6875 -4.21875l0 -1.546875zm10.7109375 12.5l0 -34.359375l4.21875 0l0 34.359375l-4.21875 0z" fill-rule="nonzero"></path><path fill="#000000" fill-opacity="0.0" d="m406.11212 668.2992c-5.1066284 0 -9.246338 -4.1397095 -9.246338 -9.246338l0 -36.98761c0 -5.1066284 -4.13974 -9.246338 -9.246368 -9.246338c5.1066284 0 9.246368 -4.1397705 9.246368 -9.246338l0 -36.98761l0 0c0 -5.1066284 4.1397095 -9.246399 9.246338 -9.246399l602.9201 0c2.4522705 0 4.804138 0.9741821 6.538147 2.708191c1.7340698 1.7340698 2.708191 4.0858765 2.708191 6.538208l0 36.98761c0 5.1065674 4.1397705 9.246338 9.246338 9.246338c-5.1065674 0 -9.246338 4.1397095 -9.246338 9.246338l0 36.98761c0 5.1066284 -4.1397095 9.246338 -9.246338 9.246338z" fill-rule="nonzero"></path><path fill="#000000" fill-opacity="0.0" d="m406.11212 668.2992c-5.1066284 0 -9.246338 -4.1397095 -9.246338 -9.246338l0 -36.98761c0 -5.1066284 -4.13974 -9.246338 -9.246368 -9.246338c5.1066284 0 9.246368 -4.1397705 9.246368 -9.246338l0 -36.98761l0 0c0 -5.1066284 4.1397095 -9.246399 9.246338 -9.246399m602.9201 0c2.4522705 0 4.804138 0.9741821 6.538147 2.708191c1.7340698 1.7340698 2.708191 4.0858765 2.708191 6.538208l0 36.98761c0 5.1065674 4.1397705 9.246338 9.246338 9.246338c-5.1065674 0 -9.246338 4.1397095 -9.246338 9.246338l0 36.98761c0 5.1066284 -4.1397095 9.246338 -9.246338 9.246338" fill-rule="nonzero"></path><path stroke="#000000" stroke-width="1.0" stroke-linejoin="round" stroke-linecap="butt" d="m406.11212 668.2992c-5.1066284 0 -9.246338 -4.1397095 -9.246338 -9.246338l0 -36.98761c0 -5.1066284 -4.13974 -9.246338 -9.246368 -9.246338c5.1066284 0 9.246368 -4.1397705 9.246368 -9.246338l0 -36.98761l0 0c0 -5.1066284 4.1397095 -9.246399 9.246338 -9.246399m602.9201 0c2.4522705 0 4.804138 0.9741821 6.538147 2.708191c1.7340698 1.7340698 2.708191 4.0858765 2.708191 6.538208l0 36.98761c0 5.1065674 4.1397705 9.246338 9.246338 9.246338c-5.1065674 0 -9.246338 4.1397095 -9.246338 9.246338l0 36.98761c0 5.1066284 -4.1397095 9.246338 -9.246338 9.246338" fill-rule="nonzero"></path></g></svg>

