<?xml version="1.0" standalone="yes"?>

<svg version="1.1" viewBox="0.0 0.0 960.0 720.0" fill="none" stroke="none" stroke-linecap="square" stroke-miterlimit="10" xmlns="http://www.w3.org/2000/svg" xmlns:xlink="http://www.w3.org/1999/xlink"><clipPath id="p.0"><path d="m0 0l960.0 0l0 720.0l-960.0 0l0 -720.0z" clip-rule="nonzero"></path></clipPath><g clip-path="url(#p.0)"><path fill="#000000" fill-opacity="0.0" d="m0 0l960.0 0l0 720.0l-960.0 0z" fill-rule="nonzero"></path><path fill="#000000" fill-opacity="0.0" d="m211.76378 8.826772l628.4724 0l0 189.13387l-628.4724 0z" fill-rule="nonzero"></path><path fill="#000000" d="m230.63878 140.70677l0 -91.625l31.562515 0q10.6875 0 16.3125 1.3125q7.875 1.8125 13.4375 6.5625q7.25 6.125 10.84375 15.656254q3.59375 9.53125 3.59375 21.78125q0 10.4375 -2.4375 18.5q-2.4375 8.0625 -6.25 13.34375q-3.8125 5.2812424 -8.34375 8.312492q-4.53125 3.03125 -10.9375 4.59375q-6.40625 1.5625 -14.71875 1.5625l-33.062515 0zm12.125 -10.8125l19.562515 0q9.0625 0 14.21875 -1.6875q5.15625 -1.6874924 8.21875 -4.7499924q4.3125 -4.3125 6.71875 -11.59375q2.40625 -7.28125 2.40625 -17.65625q0 -14.375 -4.71875 -22.09375q-4.71875 -7.71875 -11.46875 -10.343754q-4.875 -1.875 -15.6875 -1.875l-19.250015 0l0 70.0zm78.937515 -67.875l0 -12.9375l11.25 0l0 12.9375l-11.25 0zm0 78.6875l0 -66.37499l11.25 0l0 66.37499l-11.25 0zm28.25 0l0 -66.37499l10.125 0l0 10.0625q3.875 -7.0625 7.15625 -9.3125q3.28125 -2.25 7.21875 -2.25q5.6875 0 11.5625 3.625l-3.875 10.4375q-4.125 -2.4375 -8.25 -2.4375q-3.6875 0 -6.625 2.21875q-2.9375 2.21875 -4.1875 6.15625q-1.875 6.0 -1.875 13.125l0 34.749992l-11.25 0zm88.1875 -21.374992l11.625 1.4375q-2.75 10.187492 -10.1875 15.812492q-7.4375 5.625 -19.0 5.625q-14.5625 0 -23.09375 -8.96875q-8.53125 -8.968742 -8.53125 -25.156242q0 -16.75 8.625 -26.0q8.625 -9.25 22.375 -9.25q13.3125 0 21.75 9.0625q8.4375 9.0625 8.4375 25.5q0 1.0 -0.0625 3.0l-49.5 0q0.625 10.9375 6.1875 16.75q5.5625 5.8124924 13.875 5.8124924q6.1875 0 10.5625 -3.25q4.375 -3.2499924 6.9375 -10.374992zm-36.9375 -18.1875l37.0625 0q-0.75 -8.375 -4.25 -12.5625q-5.375 -6.5 -13.9375 -6.5q-7.75 0 -13.03125 5.1875q-5.28125 5.1875 -5.84375 13.875zm106.0 15.25l11.0625 1.4375q-1.8125 11.437492 -9.28125 17.906242q-7.46875 6.46875 -18.34375 6.46875q-13.625 0 -21.90625 -8.90625q-8.28125 -8.906242 -8.28125 -25.531242q0 -10.75 3.5625 -18.8125q3.5625 -8.0625 10.84375 -12.09375q7.28125 -4.03125 15.84375 -4.03125q10.8125 0 17.6875 5.46875q6.875 5.46875 8.8125 15.53125l-10.9375 1.6875q-1.5625 -6.6875 -5.53125 -10.0625q-3.96875 -3.375 -9.59375 -3.375q-8.5 0 -13.8125 6.09375q-5.3125 6.09375 -5.3125 19.28125q0 13.375 5.125 19.4375q5.125 6.0624924 13.375 6.0624924q6.625 0 11.0625 -4.0625q4.4375 -4.0624924 5.625 -12.499992zm45.25 14.249992l1.625 9.9375q-4.75 1.0 -8.5 1.0q-6.125 0 -9.5 -1.9375q-3.375 -1.9375 -4.75 -5.09375q-1.375 -3.15625 -1.375 -13.281242l0 -38.1875l-8.25 0l0 -8.75l8.25 0l0 -16.437504l11.1875 -6.75l0 23.187504l11.3125 0l0 8.75l-11.3125 0l0 38.8125q0 4.8125 0.59375 6.1874924q0.59375 1.375 1.9375 2.1875q1.34375 0.8125 3.84375 0.8125q1.875 0 4.9375 -0.4375zm11.0625 -68.625l0 -12.9375l11.25 0l0 12.9375l-11.25 0zm0 78.6875l0 -66.37499l11.25 0l0 66.37499l-11.25 0zm24.1875 -33.187492q0 -18.4375 10.25 -27.3125q8.5625 -7.375 20.875 -7.375q13.6875 0 22.375 8.96875q8.6875 8.96875 8.6875 24.78125q0 12.8125 -3.84375 20.15625q-3.84375 7.3437424 -11.1875 11.406242q-7.34375 4.0625 -16.03125 4.0625q-13.9375 0 -22.53125 -8.9375q-8.59375 -8.937492 -8.59375 -25.749992zm11.5625 0q0 12.75 5.5625 19.09375q5.5625 6.3437424 14.0 6.3437424q8.375 0 13.9375 -6.3749924q5.5625 -6.375 5.5625 -19.4375q0 -12.3125 -5.59375 -18.65625q-5.59375 -6.34375 -13.90625 -6.34375q-8.4375 0 -14.0 6.3125q-5.5625 6.3125 -5.5625 19.0625zm63.8125 33.187492l0 -66.37499l10.125 0l0 9.4375q7.3125 -10.9375 21.125 -10.9375q6.0 0 11.03125 2.15625q5.03125 2.15625 7.53125 5.65625q2.5 3.5 3.5 8.3125q0.625 3.125 0.625 10.9375l0 40.812492l-11.25 0l0 -40.374992q0 -6.875 -1.3125 -10.28125q-1.3125 -3.40625 -4.65625 -5.4375q-3.34375 -2.03125 -7.84375 -2.03125q-7.1875 0 -12.40625 4.5625q-5.21875 4.5625 -5.21875 17.3125l0 36.249992l-11.25 0z" fill-rule="nonzero"></path><path fill="#000000" fill-opacity="0.0" d="m76.97113 197.96063l909.8898 0l0 471.49603l-909.8898 0z" fill-rule="nonzero"></path><path fill="#000000" d="m94.06488 245.36063l-7.609375 -28.640625l3.890625 0l4.359375 18.78125q0.703125 2.9375 1.203125 5.859375q1.09375 -4.59375 1.296875 -5.296875l5.453125 -19.34375l4.5625 0l4.109375 14.5q1.53125 5.390625 2.21875 10.140625q0.546875 -2.71875 1.421875 -6.234375l4.5 -18.40625l3.8125 0l-7.859375 28.640625l-3.65625 0l-6.03125 -21.8125q-0.765625 -2.734375 -0.890625 -3.359375q-0.453125 1.96875 -0.84375 3.359375l-6.078125 21.8125l-3.859375 0zm32.30078 0l0 -28.640625l3.515625 0l0 10.28125q2.453125 -2.859375 6.203125 -2.859375q2.3125 0 4.0 0.921875q1.703125 0.90625 2.4375 2.515625q0.734375 1.59375 0.734375 4.640625l0 13.140625l-3.515625 0l0 -13.140625q0 -2.640625 -1.140625 -3.84375q-1.140625 -1.203125 -3.234375 -1.203125q-1.5625 0 -2.9375 0.8125q-1.375 0.8125 -1.96875 2.203125q-0.578125 1.375 -0.578125 3.828125l0 11.34375l-3.515625 0zm35.777344 -2.5625q-1.953125 1.65625 -3.765625 2.34375q-1.796875 0.6875 -3.875 0.6875q-3.40625 0 -5.25 -1.671875q-1.828125 -1.671875 -1.828125 -4.265625q0 -1.53125 0.6875 -2.78125q0.6875 -1.265625 1.8125 -2.015625q1.125 -0.765625 2.53125 -1.15625q1.03125 -0.28125 3.125 -0.53125q4.265625 -0.515625 6.265625 -1.21875q0.03125 -0.71875 0.03125 -0.90625q0 -2.15625 -1.0 -3.03125q-1.34375 -1.1875 -4.0 -1.1875q-2.484375 0 -3.671875 0.875q-1.171875 0.859375 -1.75 3.0625l-3.4375 -0.46875q0.46875 -2.203125 1.546875 -3.5625q1.078125 -1.359375 3.109375 -2.09375q2.03125 -0.734375 4.703125 -0.734375q2.65625 0 4.3125 0.625q1.671875 0.625 2.453125 1.578125q0.78125 0.953125 1.09375 2.390625q0.171875 0.90625 0.171875 3.25l0 4.6875q0 4.890625 0.21875 6.203125q0.234375 1.296875 0.890625 2.484375l-3.671875 0q-0.546875 -1.09375 -0.703125 -2.5625zm-0.296875 -7.84375q-1.90625 0.78125 -5.734375 1.328125q-2.171875 0.3125 -3.078125 0.703125q-0.890625 0.390625 -1.375 1.140625q-0.484375 0.75 -0.484375 1.671875q0 1.40625 1.0625 2.34375q1.0625 0.9375 3.109375 0.9375q2.03125 0 3.609375 -0.890625q1.59375 -0.890625 2.328125 -2.4375q0.5625 -1.1875 0.5625 -3.515625l0 -1.28125zm16.683594 7.265625l0.515625 3.09375q-1.484375 0.328125 -2.65625 0.328125q-1.921875 0 -2.984375 -0.609375q-1.046875 -0.609375 -1.484375 -1.59375q-0.421875 -0.984375 -0.421875 -4.15625l0 -11.9375l-2.578125 0l0 -2.734375l2.578125 0l0 -5.125l3.5 -2.109375l0 7.234375l3.53125 0l0 2.734375l-3.53125 0l0 12.140625q0 1.5 0.1875 1.9375q0.1875 0.421875 0.59375 0.671875q0.421875 0.25 1.203125 0.25q0.59375 0 1.546875 -0.125zm27.773438 11.09375l0 -10.15625q-0.8125 1.140625 -2.296875 1.90625q-1.46875 0.765625 -3.125 0.765625q-3.703125 0 -6.375 -2.953125q-2.65625 -2.953125 -2.65625 -8.078125q0 -3.125 1.078125 -5.609375q1.09375 -2.484375 3.15625 -3.765625q2.0625 -1.28125 4.515625 -1.28125q3.84375 0 6.0625 3.25l0 -2.78125l3.15625 0l0 28.703125l-3.515625 0zm-10.84375 -18.390625q0 4.015625 1.671875 6.015625q1.6875 2.0 4.03125 2.0q2.25 0 3.875 -1.90625q1.625 -1.90625 1.625 -5.796875q0 -4.140625 -1.71875 -6.21875q-1.703125 -2.09375 -4.015625 -2.09375q-2.28125 0 -3.875 1.953125q-1.59375 1.9375 -1.59375 6.046875zm33.464844 10.4375l0 -3.046875q-2.421875 3.515625 -6.578125 3.515625q-1.84375 0 -3.4375 -0.703125q-1.59375 -0.703125 -2.359375 -1.765625q-0.765625 -1.0625 -1.078125 -2.609375q-0.21875 -1.03125 -0.21875 -3.28125l0 -12.859375l3.515625 0l0 11.515625q0 2.75 0.21875 3.703125q0.328125 1.390625 1.390625 2.1875q1.078125 0.78125 2.671875 0.78125q1.578125 0 2.953125 -0.8125q1.390625 -0.8125 1.96875 -2.203125q0.578125 -1.390625 0.578125 -4.046875l0 -11.125l3.515625 0l0 20.75l-3.140625 0zm22.855469 -6.6875l3.625 0.453125q-0.859375 3.1875 -3.1875 4.953125q-2.3125 1.75 -5.9375 1.75q-4.546875 0 -7.21875 -2.796875q-2.65625 -2.8125 -2.65625 -7.875q0 -5.234375 2.6875 -8.125q2.703125 -2.890625 7.0 -2.890625q4.15625 0 6.796875 2.84375q2.640625 2.828125 2.640625 7.96875q0 0.3125 -0.03125 0.9375l-15.46875 0q0.203125 3.40625 1.9375 5.234375q1.734375 1.8125 4.34375 1.8125q1.921875 0 3.28125 -1.015625q1.375 -1.015625 2.1875 -3.25zm-11.546875 -5.671875l11.578125 0q-0.234375 -2.625 -1.328125 -3.9375q-1.671875 -2.03125 -4.359375 -2.03125q-2.421875 0 -4.078125 1.625q-1.640625 1.625 -1.8125 4.34375zm18.183594 6.171875l3.46875 -0.546875q0.296875 2.078125 1.625 3.203125q1.34375 1.109375 3.75 1.109375q2.421875 0 3.59375 -0.984375q1.171875 -0.984375 1.171875 -2.3125q0 -1.203125 -1.03125 -1.875q-0.71875 -0.46875 -3.59375 -1.203125q-3.875 -0.96875 -5.375 -1.671875q-1.484375 -0.71875 -2.265625 -1.984375q-0.765625 -1.265625 -0.765625 -2.78125q0 -1.390625 0.640625 -2.5625q0.640625 -1.1875 1.734375 -1.96875q0.8125 -0.609375 2.21875 -1.03125q1.421875 -0.421875 3.046875 -0.421875q2.4375 0 4.28125 0.703125q1.859375 0.703125 2.734375 1.90625q0.875 1.203125 1.203125 3.21875l-3.4375 0.46875q-0.234375 -1.609375 -1.359375 -2.5q-1.109375 -0.90625 -3.171875 -0.90625q-2.421875 0 -3.453125 0.8125q-1.03125 0.796875 -1.03125 1.875q0 0.671875 0.421875 1.21875q0.4375 0.578125 1.359375 0.9375q0.515625 0.203125 3.09375 0.90625q3.734375 1.0 5.203125 1.640625q1.484375 0.625 2.3125 1.84375q0.84375 1.203125 0.84375 3.0q0 1.75 -1.03125 3.3125q-1.015625 1.546875 -2.953125 2.40625q-1.921875 0.84375 -4.375 0.84375q-4.03125 0 -6.15625 -1.671875q-2.125 -1.6875 -2.703125 -4.984375zm29.078125 3.046875l0.515625 3.09375q-1.484375 0.328125 -2.65625 0.328125q-1.921875 0 -2.984375 -0.609375q-1.046875 -0.609375 -1.484375 -1.59375q-0.421875 -0.984375 -0.421875 -4.15625l0 -11.9375l-2.578125 0l0 -2.734375l2.578125 0l0 -5.125l3.5 -2.109375l0 7.234375l3.53125 0l0 2.734375l-3.53125 0l0 12.140625q0 1.5 0.1875 1.9375q0.1875 0.421875 0.59375 0.671875q0.421875 0.25 1.203125 0.25q0.59375 0 1.546875 -0.125zm3.4570312 -21.453125l0 -4.046875l3.515625 0l0 4.046875l-3.515625 0zm0 24.59375l0 -20.75l3.515625 0l0 20.75l-3.515625 0zm7.5585938 -10.375q0 -5.765625 3.203125 -8.53125q2.671875 -2.3125 6.53125 -2.3125q4.265625 0 6.984375 2.8125q2.71875 2.796875 2.71875 7.734375q0 4.015625 -1.203125 6.3125q-1.203125 2.28125 -3.5 3.5625q-2.296875 1.265625 -5.0 1.265625q-4.359375 0 -7.046875 -2.796875q-2.6875 -2.796875 -2.6875 -8.046875zm3.609375 0q0 3.984375 1.734375 5.96875q1.75 1.984375 4.390625 1.984375q2.609375 0 4.34375 -1.984375q1.75 -2.0 1.75 -6.078125q0 -3.859375 -1.75 -5.828125q-1.75 -1.984375 -4.34375 -1.984375q-2.640625 0 -4.390625 1.96875q-1.734375 1.96875 -1.734375 5.953125zm19.949219 10.375l0 -20.75l3.15625 0l0 2.953125q2.296875 -3.421875 6.609375 -3.421875q1.875 0 3.4375 0.6875q1.578125 0.671875 2.359375 1.765625q0.78125 1.09375 1.09375 2.59375q0.203125 0.96875 0.203125 3.421875l0 12.75l-3.515625 0l0 -12.625q0 -2.140625 -0.421875 -3.203125q-0.40625 -1.0625 -1.453125 -1.703125q-1.046875 -0.640625 -2.453125 -0.640625q-2.234375 0 -3.875 1.4375q-1.625 1.421875 -1.625 5.40625l0 11.328125l-3.515625 0zm20.839844 -6.1875l3.46875 -0.546875q0.296875 2.078125 1.625 3.203125q1.34375 1.109375 3.75 1.109375q2.421875 0 3.59375 -0.984375q1.171875 -0.984375 1.171875 -2.3125q0 -1.203125 -1.03125 -1.875q-0.71875 -0.46875 -3.59375 -1.203125q-3.875 -0.96875 -5.375 -1.671875q-1.484375 -0.71875 -2.265625 -1.984375q-0.765625 -1.265625 -0.765625 -2.78125q0 -1.390625 0.640625 -2.5625q0.640625 -1.1875 1.734375 -1.96875q0.8125 -0.609375 2.21875 -1.03125q1.421875 -0.421875 3.046875 -0.421875q2.4375 0 4.28125 0.703125q1.859375 0.703125 2.734375 1.90625q0.875 1.203125 1.203125 3.21875l-3.4375 0.46875q-0.234375 -1.609375 -1.359375 -2.5q-1.109375 -0.90625 -3.171875 -0.90625q-2.421875 0 -3.453125 0.8125q-1.03125 0.796875 -1.03125 1.875q0 0.671875 0.421875 1.21875q0.4375 0.578125 1.359375 0.9375q0.515625 0.203125 3.09375 0.90625q3.734375 1.0 5.203125 1.640625q1.484375 0.625 2.3125 1.84375q0.84375 1.203125 0.84375 3.0q0 1.75 -1.03125 3.3125q-1.015625 1.546875 -2.953125 2.40625q-1.921875 0.84375 -4.375 0.84375q-4.03125 0 -6.15625 -1.671875q-2.125 -1.6875 -2.703125 -4.984375zm45.972656 6.1875l0 -2.625q-1.96875 3.09375 -5.796875 3.09375q-2.484375 0 -4.5625 -1.359375q-2.078125 -1.375 -3.21875 -3.828125q-1.140625 -2.453125 -1.140625 -5.640625q0 -3.09375 1.03125 -5.625q1.03125 -2.53125 3.09375 -3.875q2.078125 -1.359375 4.640625 -1.359375q1.875 0 3.328125 0.796875q1.46875 0.796875 2.390625 2.0625l0 -10.28125l3.5 0l0 28.640625l-3.265625 0zm-11.109375 -10.359375q0 3.984375 1.671875 5.96875q1.6875 1.96875 3.96875 1.96875q2.3125 0 3.921875 -1.875q1.609375 -1.890625 1.609375 -5.765625q0 -4.25 -1.640625 -6.234375q-1.640625 -2.0 -4.046875 -2.0q-2.34375 0 -3.921875 1.921875q-1.5625 1.90625 -1.5625 6.015625zm18.589844 -0.015625q0 -5.765625 3.203125 -8.53125q2.671875 -2.3125 6.53125 -2.3125q4.265625 0 6.984375 2.8125q2.71875 2.796875 2.71875 7.734375q0 4.015625 -1.203125 6.3125q-1.203125 2.28125 -3.5 3.5625q-2.296875 1.265625 -5.0 1.265625q-4.359375 0 -7.046875 -2.796875q-2.6875 -2.796875 -2.6875 -8.046875zm3.609375 0q0 3.984375 1.734375 5.96875q1.75 1.984375 4.390625 1.984375q2.609375 0 4.34375 -1.984375q1.75 -2.0 1.75 -6.078125q0 -3.859375 -1.75 -5.828125q-1.75 -1.984375 -4.34375 -1.984375q-2.640625 0 -4.390625 1.96875q-1.734375 1.96875 -1.734375 5.953125zm30.90625 18.359375l-0.390625 -3.296875q1.15625 0.3125 2.015625 0.3125q1.171875 0 1.875 -0.390625q0.703125 -0.390625 1.140625 -1.09375q0.34375 -0.53125 1.078125 -2.609375q0.09375 -0.296875 0.3125 -0.859375l-7.875 -20.796875l3.796875 0l4.3125 12.015625q0.84375 2.28125 1.5 4.8125q0.609375 -2.421875 1.453125 -4.734375l4.4375 -12.09375l3.515625 0l-7.890625 21.109375q-1.28125 3.40625 -1.984375 4.703125q-0.9375 1.734375 -2.15625 2.546875q-1.203125 0.8125 -2.875 0.8125q-1.015625 0 -2.265625 -0.4375zm18.84375 -18.359375q0 -5.765625 3.203125 -8.53125q2.671875 -2.3125 6.53125 -2.3125q4.265625 0 6.984375 2.8125q2.71875 2.796875 2.71875 7.734375q0 4.015625 -1.203125 6.3125q-1.203125 2.28125 -3.5 3.5625q-2.296875 1.265625 -5.0 1.265625q-4.359375 0 -7.046875 -2.796875q-2.6875 -2.796875 -2.6875 -8.046875zm3.609375 0q0 3.984375 1.734375 5.96875q1.75 1.984375 4.390625 1.984375q2.609375 0 4.34375 -1.984375q1.75 -2.0 1.75 -6.078125q0 -3.859375 -1.75 -5.828125q-1.75 -1.984375 -4.34375 -1.984375q-2.640625 0 -4.390625 1.96875q-1.734375 1.96875 -1.734375 5.953125zm33.54297 10.375l0 -3.046875q-2.421875 3.515625 -6.578125 3.515625q-1.84375 0 -3.4375 -0.703125q-1.59375 -0.703125 -2.359375 -1.765625q-0.765625 -1.0625 -1.078125 -2.609375q-0.21875 -1.03125 -0.21875 -3.28125l0 -12.859375l3.515625 0l0 11.515625q0 2.75 0.21875 3.703125q0.328125 1.390625 1.390625 2.1875q1.078125 0.78125 2.671875 0.78125q1.578125 0 2.953125 -0.8125q1.390625 -0.8125 1.96875 -2.203125q0.578125 -1.390625 0.578125 -4.046875l0 -11.125l3.515625 0l0 20.75l-3.140625 0zm23.59375 0l-6.34375 -20.75l3.625 0l3.296875 11.984375l1.234375 4.453125q0.078125 -0.34375 1.078125 -4.28125l3.296875 -12.15625l3.609375 0l3.109375 12.03125l1.03125 3.96875l1.203125 -4.0l3.546875 -12.0l3.421875 0l-6.484375 20.75l-3.65625 0l-3.296875 -12.421875l-0.796875 -3.53125l-4.203125 15.953125l-3.671875 0zm38.589844 -2.5625q-1.953125 1.65625 -3.765625 2.34375q-1.796875 0.6875 -3.875 0.6875q-3.40625 0 -5.25 -1.671875q-1.828125 -1.671875 -1.828125 -4.265625q0 -1.53125 0.6875 -2.78125q0.6875 -1.265625 1.8125 -2.015625q1.125 -0.765625 2.53125 -1.15625q1.03125 -0.28125 3.125 -0.53125q4.265625 -0.515625 6.265625 -1.21875q0.03125 -0.71875 0.03125 -0.90625q0 -2.15625 -1.0 -3.03125q-1.34375 -1.1875 -4.0 -1.1875q-2.484375 0 -3.671875 0.875q-1.171875 0.859375 -1.75 3.0625l-3.4375 -0.46875q0.46875 -2.203125 1.546875 -3.5625q1.078125 -1.359375 3.109375 -2.09375q2.03125 -0.734375 4.703125 -0.734375q2.65625 0 4.3125 0.625q1.671875 0.625 2.453125 1.578125q0.78125 0.953125 1.09375 2.390625q0.171875 0.90625 0.171875 3.25l0 4.6875q0 4.890625 0.21875 6.203125q0.234375 1.296875 0.890625 2.484375l-3.671875 0q-0.546875 -1.09375 -0.703125 -2.5625zm-0.296875 -7.84375q-1.90625 0.78125 -5.734375 1.328125q-2.171875 0.3125 -3.078125 0.703125q-0.890625 0.390625 -1.375 1.140625q-0.484375 0.75 -0.484375 1.671875q0 1.40625 1.0625 2.34375q1.0625 0.9375 3.109375 0.9375q2.03125 0 3.609375 -0.890625q1.59375 -0.890625 2.328125 -2.4375q0.5625 -1.1875 0.5625 -3.515625l0 -1.28125zm9.011719 10.40625l0 -20.75l3.15625 0l0 2.953125q2.296875 -3.421875 6.609375 -3.421875q1.875 0 3.4375 0.6875q1.578125 0.671875 2.359375 1.765625q0.78125 1.09375 1.09375 2.59375q0.203125 0.96875 0.203125 3.421875l0 12.75l-3.515625 0l0 -12.625q0 -2.140625 -0.421875 -3.203125q-0.40625 -1.0625 -1.453125 -1.703125q-1.046875 -0.640625 -2.453125 -0.640625q-2.234375 0 -3.875 1.4375q-1.625 1.421875 -1.625 5.40625l0 11.328125l-3.515625 0zm29.917969 -3.140625l0.515625 3.09375q-1.484375 0.328125 -2.65625 0.328125q-1.921875 0 -2.984375 -0.609375q-1.046875 -0.609375 -1.484375 -1.59375q-0.421875 -0.984375 -0.421875 -4.15625l0 -11.9375l-2.578125 0l0 -2.734375l2.578125 0l0 -5.125l3.5 -2.109375l0 7.234375l3.53125 0l0 2.734375l-3.53125 0l0 12.140625q0 1.5 0.1875 1.9375q0.1875 0.421875 0.59375 0.671875q0.421875 0.25 1.203125 0.25q0.59375 0 1.546875 -0.125zm22.226562 0l0.515625 3.09375q-1.484375 0.328125 -2.65625 0.328125q-1.921875 0 -2.984375 -0.609375q-1.046875 -0.609375 -1.484375 -1.59375q-0.421875 -0.984375 -0.421875 -4.15625l0 -11.9375l-2.578125 0l0 -2.734375l2.578125 0l0 -5.125l3.5 -2.109375l0 7.234375l3.53125 0l0 2.734375l-3.53125 0l0 12.140625q0 1.5 0.1875 1.9375q0.1875 0.421875 0.59375 0.671875q0.421875 0.25 1.203125 0.25q0.59375 0 1.546875 -0.125zm2.1289062 -7.234375q0 -5.765625 3.203125 -8.53125q2.671875 -2.3125 6.53125 -2.3125q4.265625 0 6.984375 2.8125q2.71875 2.796875 2.71875 7.734375q0 4.015625 -1.203125 6.3125q-1.203125 2.28125 -3.5 3.5625q-2.296875 1.265625 -5.0 1.265625q-4.359375 0 -7.046875 -2.796875q-2.6875 -2.796875 -2.6875 -8.046875zm3.609375 0q0 3.984375 1.734375 5.96875q1.75 1.984375 4.390625 1.984375q2.609375 0 4.34375 -1.984375q1.75 -2.0 1.75 -6.078125q0 -3.859375 -1.75 -5.828125q-1.75 -1.984375 -4.34375 -1.984375q-2.640625 0 -4.390625 1.96875q-1.734375 1.96875 -1.734375 5.953125zm44.59375 7.8125q-1.953125 1.65625 -3.765625 2.34375q-1.796875 0.6875 -3.875 0.6875q-3.40625 0 -5.25 -1.671875q-1.828125 -1.671875 -1.828125 -4.265625q0 -1.53125 0.6875 -2.78125q0.6875 -1.265625 1.8125 -2.015625q1.125 -0.765625 2.53125 -1.15625q1.03125 -0.28125 3.125 -0.53125q4.265625 -0.515625 6.265625 -1.21875q0.03125 -0.71875 0.03125 -0.90625q0 -2.15625 -1.0 -3.03125q-1.34375 -1.1875 -4.0 -1.1875q-2.484375 0 -3.671875 0.875q-1.171875 0.859375 -1.75 3.0625l-3.4375 -0.46875q0.46875 -2.203125 1.546875 -3.5625q1.078125 -1.359375 3.109375 -2.09375q2.03125 -0.734375 4.703125 -0.734375q2.65625 0 4.3125 0.625q1.671875 0.625 2.453125 1.578125q0.78125 0.953125 1.09375 2.390625q0.171875 0.90625 0.171875 3.25l0 4.6875q0 4.890625 0.21875 6.203125q0.234375 1.296875 0.890625 2.484375l-3.671875 0q-0.546875 -1.09375 -0.703125 -2.5625zm-0.296875 -7.84375q-1.90625 0.78125 -5.734375 1.328125q-2.171875 0.3125 -3.078125 0.703125q-0.890625 0.390625 -1.375 1.140625q-0.484375 0.75 -0.484375 1.671875q0 1.40625 1.0625 2.34375q1.0625 0.9375 3.109375 0.9375q2.03125 0 3.609375 -0.890625q1.59375 -0.890625 2.328125 -2.4375q0.5625 -1.1875 0.5625 -3.515625l0 -1.28125zm9.011719 10.40625l0 -20.75l3.15625 0l0 2.953125q2.296875 -3.421875 6.609375 -3.421875q1.875 0 3.4375 0.6875q1.578125 0.671875 2.359375 1.765625q0.78125 1.09375 1.09375 2.59375q0.203125 0.96875 0.203125 3.421875l0 12.75l-3.515625 0l0 -12.625q0 -2.140625 -0.421875 -3.203125q-0.40625 -1.0625 -1.453125 -1.703125q-1.046875 -0.640625 -2.453125 -0.640625q-2.234375 0 -3.875 1.4375q-1.625 1.421875 -1.625 5.40625l0 11.328125l-3.515625 0zm20.839844 -6.1875l3.46875 -0.546875q0.296875 2.078125 1.625 3.203125q1.34375 1.109375 3.75 1.109375q2.421875 0 3.59375 -0.984375q1.171875 -0.984375 1.171875 -2.3125q0 -1.203125 -1.03125 -1.875q-0.71875 -0.46875 -3.59375 -1.203125q-3.875 -0.96875 -5.375 -1.671875q-1.484375 -0.71875 -2.265625 -1.984375q-0.765625 -1.265625 -0.765625 -2.78125q0 -1.390625 0.640625 -2.5625q0.640625 -1.1875 1.734375 -1.96875q0.8125 -0.609375 2.21875 -1.03125q1.421875 -0.421875 3.046875 -0.421875q2.4375 0 4.28125 0.703125q1.859375 0.703125 2.734375 1.90625q0.875 1.203125 1.203125 3.21875l-3.4375 0.46875q-0.234375 -1.609375 -1.359375 -2.5q-1.109375 -0.90625 -3.171875 -0.90625q-2.421875 0 -3.453125 0.8125q-1.03125 0.796875 -1.03125 1.875q0 0.671875 0.421875 1.21875q0.4375 0.578125 1.359375 0.9375q0.515625 0.203125 3.09375 0.90625q3.734375 1.0 5.203125 1.640625q1.484375 0.625 2.3125 1.84375q0.84375 1.203125 0.84375 3.0q0 1.75 -1.03125 3.3125q-1.015625 1.546875 -2.953125 2.40625q-1.921875 0.84375 -4.375 0.84375q-4.03125 0 -6.15625 -1.671875q-2.125 -1.6875 -2.703125 -4.984375zm25.234375 6.1875l-6.34375 -20.75l3.625 0l3.296875 11.984375l1.234375 4.453125q0.078125 -0.34375 1.078125 -4.28125l3.296875 -12.15625l3.609375 0l3.109375 12.03125l1.03125 3.96875l1.203125 -4.0l3.546875 -12.0l3.421875 0l-6.484375 20.75l-3.65625 0l-3.296875 -12.421875l-0.796875 -3.53125l-4.203125 15.953125l-3.671875 0zm39.26172 -6.6875l3.625 0.453125q-0.859375 3.1875 -3.1875 4.953125q-2.3125 1.75 -5.9375 1.75q-4.546875 0 -7.21875 -2.796875q-2.65625 -2.8125 -2.65625 -7.875q0 -5.234375 2.6875 -8.125q2.703125 -2.890625 7.0 -2.890625q4.15625 0 6.796875 2.84375q2.640625 2.828125 2.640625 7.96875q0 0.3125 -0.03125 0.9375l-15.46875 0q0.203125 3.40625 1.9375 5.234375q1.734375 1.8125 4.34375 1.8125q1.921875 0 3.28125 -1.015625q1.375 -1.015625 2.1875 -3.25zm-11.546875 -5.671875l11.578125 0q-0.234375 -2.625 -1.328125 -3.9375q-1.671875 -2.03125 -4.359375 -2.03125q-2.421875 0 -4.078125 1.625q-1.640625 1.625 -1.8125 4.34375zm19.542969 12.359375l0 -20.75l3.171875 0l0 3.15625q1.203125 -2.21875 2.234375 -2.921875q1.03125 -0.703125 2.25 -0.703125q1.78125 0 3.625 1.140625l-1.21875 3.265625q-1.28125 -0.765625 -2.578125 -0.765625q-1.15625 0 -2.078125 0.703125q-0.90625 0.6875 -1.296875 1.90625q-0.59375 1.875 -0.59375 4.109375l0 10.859375l-3.515625 0zm19.945312 -7.046875q-0.015625 -0.703125 -0.015625 -1.0625q0 -2.0625 0.578125 -3.578125q0.4375 -1.125 1.390625 -2.28125q0.703125 -0.84375 2.53125 -2.453125q1.828125 -1.609375 2.375 -2.5625q0.546875 -0.953125 0.546875 -2.09375q0 -2.046875 -1.609375 -3.59375q-1.59375 -1.5625 -3.921875 -1.5625q-2.25 0 -3.75 1.40625q-1.5 1.40625 -1.96875 4.390625l-3.609375 -0.421875q0.484375 -4.0 2.890625 -6.125q2.421875 -2.140625 6.375 -2.140625q4.203125 0 6.703125 2.296875q2.5 2.28125 2.5 5.515625q0 1.875 -0.875 3.46875q-0.875 1.578125 -3.4375 3.84375q-1.71875 1.515625 -2.25 2.25q-0.53125 0.71875 -0.78125 1.65625q-0.25 0.9375 -0.296875 3.046875l-3.375 0zm-0.21875 7.046875l0 -4.0l4.015625 0l0 4.0l-4.015625 0z" fill-rule="nonzero"></path><path fill="#000000" d="m94.06488 341.36063l-7.609375 -28.640625l3.890625 0l4.359375 18.78125q0.703125 2.9375 1.203125 5.859375q1.09375 -4.59375 1.296875 -5.296875l5.453125 -19.34375l4.5625 0l4.109375 14.5q1.53125 5.390625 2.21875 10.140625q0.546875 -2.71875 1.421875 -6.234375l4.5 -18.40625l3.8125 0l-7.859375 28.640625l-3.65625 0l-6.03125 -21.8125q-0.765625 -2.734375 -0.890625 -3.359375q-0.453125 1.96875 -0.84375 3.359375l-6.078125 21.8125l-3.859375 0zm32.30078 0l0 -28.640625l3.515625 0l0 10.28125q2.453125 -2.859375 6.203125 -2.859375q2.3125 0 4.0 0.921875q1.703125 0.90625 2.4375 2.515625q0.734375 1.59375 0.734375 4.640625l0 13.140625l-3.515625 0l0 -13.140625q0 -2.640625 -1.140625 -3.84375q-1.140625 -1.203125 -3.234375 -1.203125q-1.5625 0 -2.9375 0.8125q-1.375 0.8125 -1.96875 2.203125q-0.578125 1.375 -0.578125 3.828125l0 11.34375l-3.515625 0zm35.777344 -2.5625q-1.953125 1.65625 -3.765625 2.34375q-1.796875 0.6875 -3.875 0.6875q-3.40625 0 -5.25 -1.671875q-1.828125 -1.671875 -1.828125 -4.265625q0 -1.53125 0.6875 -2.78125q0.6875 -1.265625 1.8125 -2.015625q1.125 -0.765625 2.53125 -1.15625q1.03125 -0.28125 3.125 -0.53125q4.265625 -0.515625 6.265625 -1.21875q0.03125 -0.71875 0.03125 -0.90625q0 -2.15625 -1.0 -3.03125q-1.34375 -1.1875 -4.0 -1.1875q-2.484375 0 -3.671875 0.875q-1.171875 0.859375 -1.75 3.0625l-3.4375 -0.46875q0.46875 -2.203125 1.546875 -3.5625q1.078125 -1.359375 3.109375 -2.09375q2.03125 -0.734375 4.703125 -0.734375q2.65625 0 4.3125 0.625q1.671875 0.625 2.453125 1.578125q0.78125 0.953125 1.09375 2.390625q0.171875 0.90625 0.171875 3.25l0 4.6875q0 4.890625 0.21875 6.203125q0.234375 1.296875 0.890625 2.484375l-3.671875 0q-0.546875 -1.09375 -0.703125 -2.5625zm-0.296875 -7.84375q-1.90625 0.78125 -5.734375 1.328125q-2.171875 0.3125 -3.078125 0.703125q-0.890625 0.390625 -1.375 1.140625q-0.484375 0.75 -0.484375 1.671875q0 1.40625 1.0625 2.34375q1.0625 0.9375 3.109375 0.9375q2.03125 0 3.609375 -0.890625q1.59375 -0.890625 2.328125 -2.4375q0.5625 -1.1875 0.5625 -3.515625l0 -1.28125zm16.683594 7.265625l0.515625 3.09375q-1.484375 0.328125 -2.65625 0.328125q-1.921875 0 -2.984375 -0.609375q-1.046875 -0.609375 -1.484375 -1.59375q-0.421875 -0.984375 -0.421875 -4.15625l0 -11.9375l-2.578125 0l0 -2.734375l2.578125 0l0 -5.125l3.5 -2.109375l0 7.234375l3.53125 0l0 2.734375l-3.53125 0l0 12.140625q0 1.5 0.1875 1.9375q0.1875 0.421875 0.59375 0.671875q0.421875 0.25 1.203125 0.25q0.59375 0 1.546875 -0.125zm3.2226562 -21.703125l0 -4.078125l3.765625 0l0 3.21875q0 2.609375 -0.59375 3.765625q-0.84375 1.578125 -2.625 2.390625l-0.859375 -1.390625q1.0625 -0.4375 1.578125 -1.359375q0.515625 -0.921875 0.578125 -2.546875l-1.84375 0zm7.6992188 18.65625l3.46875 -0.546875q0.296875 2.078125 1.625 3.203125q1.34375 1.109375 3.75 1.109375q2.421875 0 3.59375 -0.984375q1.171875 -0.984375 1.171875 -2.3125q0 -1.203125 -1.03125 -1.875q-0.71875 -0.46875 -3.59375 -1.203125q-3.875 -0.96875 -5.375 -1.671875q-1.484375 -0.71875 -2.265625 -1.984375q-0.765625 -1.265625 -0.765625 -2.78125q0 -1.390625 0.640625 -2.5625q0.640625 -1.1875 1.734375 -1.96875q0.8125 -0.609375 2.21875 -1.03125q1.421875 -0.421875 3.046875 -0.421875q2.4375 0 4.28125 0.703125q1.859375 0.703125 2.734375 1.90625q0.875 1.203125 1.203125 3.21875l-3.4375 0.46875q-0.234375 -1.609375 -1.359375 -2.5q-1.109375 -0.90625 -3.171875 -0.90625q-2.421875 0 -3.453125 0.8125q-1.03125 0.796875 -1.03125 1.875q0 0.671875 0.421875 1.21875q0.4375 0.578125 1.359375 0.9375q0.515625 0.203125 3.09375 0.90625q3.734375 1.0 5.203125 1.640625q1.484375 0.625 2.3125 1.84375q0.84375 1.203125 0.84375 3.0q0 1.75 -1.03125 3.3125q-1.015625 1.546875 -2.953125 2.40625q-1.921875 0.84375 -4.375 0.84375q-4.03125 0 -6.15625 -1.671875q-2.125 -1.6875 -2.703125 -4.984375zm40.191406 3.046875l0.515625 3.09375q-1.484375 0.328125 -2.65625 0.328125q-1.921875 0 -2.984375 -0.609375q-1.046875 -0.609375 -1.484375 -1.59375q-0.421875 -0.984375 -0.421875 -4.15625l0 -11.9375l-2.578125 0l0 -2.734375l2.578125 0l0 -5.125l3.5 -2.109375l0 7.234375l3.53125 0l0 2.734375l-3.53125 0l0 12.140625q0 1.5 0.1875 1.9375q0.1875 0.421875 0.59375 0.671875q0.421875 0.25 1.203125 0.25q0.59375 0 1.546875 -0.125zm3.4414062 3.140625l0 -28.640625l3.515625 0l0 10.28125q2.453125 -2.859375 6.203125 -2.859375q2.3125 0 4.0 0.921875q1.703125 0.90625 2.4375 2.515625q0.734375 1.59375 0.734375 4.640625l0 13.140625l-3.515625 0l0 -13.140625q0 -2.640625 -1.140625 -3.84375q-1.140625 -1.203125 -3.234375 -1.203125q-1.5625 0 -2.9375 0.8125q-1.375 0.8125 -1.96875 2.203125q-0.578125 1.375 -0.578125 3.828125l0 11.34375l-3.515625 0zm36.44922 -6.6875l3.625 0.453125q-0.859375 3.1875 -3.1875 4.953125q-2.3125 1.75 -5.9375 1.75q-4.546875 0 -7.21875 -2.796875q-2.65625 -2.8125 -2.65625 -7.875q0 -5.234375 2.6875 -8.125q2.703125 -2.890625 7.0 -2.890625q4.15625 0 6.796875 2.84375q2.640625 2.828125 2.640625 7.96875q0 0.3125 -0.03125 0.9375l-15.46875 0q0.203125 3.40625 1.9375 5.234375q1.734375 1.8125 4.34375 1.8125q1.921875 0 3.28125 -1.015625q1.375 -1.015625 2.1875 -3.25zm-11.546875 -5.671875l11.578125 0q-0.234375 -2.625 -1.328125 -3.9375q-1.671875 -2.03125 -4.359375 -2.03125q-2.421875 0 -4.078125 1.625q-1.640625 1.625 -1.8125 4.34375zm30.703125 20.3125l0 -28.703125l3.203125 0l0 2.703125q1.125 -1.578125 2.546875 -2.375q1.4375 -0.796875 3.46875 -0.796875q2.65625 0 4.6875 1.375q2.03125 1.359375 3.0625 3.859375q1.03125 2.484375 1.03125 5.453125q0 3.1875 -1.140625 5.734375q-1.140625 2.546875 -3.328125 3.90625q-2.171875 1.359375 -4.5625 1.359375q-1.765625 0 -3.171875 -0.734375q-1.390625 -0.75 -2.28125 -1.890625l0 10.109375l-3.515625 0zm3.1875 -18.203125q0 4.0 1.609375 5.921875q1.625 1.90625 3.9375 1.90625q2.34375 0 4.0 -1.984375q1.671875 -1.984375 1.671875 -6.140625q0 -3.96875 -1.625 -5.9375q-1.625 -1.96875 -3.890625 -1.96875q-2.25 0 -3.984375 2.09375q-1.71875 2.09375 -1.71875 6.109375zm19.011719 10.25l0 -20.75l3.171875 0l0 3.15625q1.203125 -2.21875 2.234375 -2.921875q1.03125 -0.703125 2.25 -0.703125q1.78125 0 3.625 1.140625l-1.21875 3.265625q-1.28125 -0.765625 -2.578125 -0.765625q-1.15625 0 -2.078125 0.703125q-0.90625 0.6875 -1.296875 1.90625q-0.59375 1.875 -0.59375 4.109375l0 10.859375l-3.515625 0zm12.0546875 -10.375q0 -5.765625 3.203125 -8.53125q2.671875 -2.3125 6.53125 -2.3125q4.265625 0 6.984375 2.8125q2.71875 2.796875 2.71875 7.734375q0 4.015625 -1.203125 6.3125q-1.203125 2.28125 -3.5 3.5625q-2.296875 1.265625 -5.0 1.265625q-4.359375 0 -7.046875 -2.796875q-2.6875 -2.796875 -2.6875 -8.046875zm3.609375 0q0 3.984375 1.734375 5.96875q1.75 1.984375 4.390625 1.984375q2.609375 0 4.34375 -1.984375q1.75 -2.0 1.75 -6.078125q0 -3.859375 -1.75 -5.828125q-1.75 -1.984375 -4.34375 -1.984375q-2.640625 0 -4.390625 1.96875q-1.734375 1.96875 -1.734375 5.953125zm23.183594 10.375l-3.25 0l0 -28.640625l3.515625 0l0 10.21875q2.21875 -2.796875 5.671875 -2.796875q1.921875 0 3.625 0.78125q1.71875 0.765625 2.8125 2.171875q1.109375 1.390625 1.734375 3.359375q0.625 1.96875 0.625 4.21875q0 5.328125 -2.640625 8.25q-2.640625 2.90625 -6.328125 2.90625q-3.671875 0 -5.765625 -3.0625l0 2.59375zm-0.03125 -10.53125q0 3.734375 1.015625 5.390625q1.65625 2.71875 4.484375 2.71875q2.3125 0 3.984375 -2.0q1.6875 -2.0 1.6875 -5.96875q0 -4.0625 -1.609375 -6.0q-1.609375 -1.9375 -3.90625 -1.9375q-2.296875 0 -3.984375 2.015625q-1.671875 2.0 -1.671875 5.78125zm18.964844 10.53125l0 -28.640625l3.515625 0l0 28.640625l-3.515625 0zm23.167969 -6.6875l3.625 0.453125q-0.859375 3.1875 -3.1875 4.953125q-2.3125 1.75 -5.9375 1.75q-4.546875 0 -7.21875 -2.796875q-2.65625 -2.8125 -2.65625 -7.875q0 -5.234375 2.6875 -8.125q2.703125 -2.890625 7.0 -2.890625q4.15625 0 6.796875 2.84375q2.640625 2.828125 2.640625 7.96875q0 0.3125 -0.03125 0.9375l-15.46875 0q0.203125 3.40625 1.9375 5.234375q1.734375 1.8125 4.34375 1.8125q1.921875 0 3.28125 -1.015625q1.375 -1.015625 2.1875 -3.25zm-11.546875 -5.671875l11.578125 0q-0.234375 -2.625 -1.328125 -3.9375q-1.671875 -2.03125 -4.359375 -2.03125q-2.421875 0 -4.078125 1.625q-1.640625 1.625 -1.8125 4.34375zm19.589844 12.359375l0 -20.75l3.140625 0l0 2.921875q0.984375 -1.53125 2.59375 -2.453125q1.625 -0.9375 3.703125 -0.9375q2.296875 0 3.765625 0.96875q1.484375 0.953125 2.09375 2.671875q2.453125 -3.640625 6.40625 -3.640625q3.078125 0 4.734375 1.71875q1.671875 1.703125 1.671875 5.265625l0 14.234375l-3.5 0l0 -13.0625q0 -2.109375 -0.34375 -3.03125q-0.34375 -0.9375 -1.25 -1.5q-0.890625 -0.578125 -2.09375 -0.578125q-2.1875 0 -3.640625 1.46875q-1.4375 1.453125 -1.4375 4.65625l0 12.046875l-3.515625 0l0 -13.484375q0 -2.34375 -0.859375 -3.515625q-0.859375 -1.171875 -2.8125 -1.171875q-1.484375 0 -2.75 0.78125q-1.265625 0.78125 -1.828125 2.296875q-0.5625 1.5 -0.5625 4.328125l0 10.765625l-3.515625 0zm44.277344 7.984375l-0.390625 -3.296875q1.15625 0.3125 2.015625 0.3125q1.171875 0 1.875 -0.390625q0.703125 -0.390625 1.140625 -1.09375q0.34375 -0.53125 1.078125 -2.609375q0.09375 -0.296875 0.3125 -0.859375l-7.875 -20.796875l3.796875 0l4.3125 12.015625q0.84375 2.28125 1.5 4.8125q0.609375 -2.421875 1.453125 -4.734375l4.4375 -12.09375l3.515625 0l-7.890625 21.109375q-1.28125 3.40625 -1.984375 4.703125q-0.9375 1.734375 -2.15625 2.546875q-1.203125 0.8125 -2.875 0.8125q-1.015625 0 -2.265625 -0.4375zm18.84375 -18.359375q0 -5.765625 3.203125 -8.53125q2.671875 -2.3125 6.53125 -2.3125q4.265625 0 6.984375 2.8125q2.71875 2.796875 2.71875 7.734375q0 4.015625 -1.203125 6.3125q-1.203125 2.28125 -3.5 3.5625q-2.296875 1.265625 -5.0 1.265625q-4.359375 0 -7.046875 -2.796875q-2.6875 -2.796875 -2.6875 -8.046875zm3.609375 0q0 3.984375 1.734375 5.96875q1.75 1.984375 4.390625 1.984375q2.609375 0 4.34375 -1.984375q1.75 -2.0 1.75 -6.078125q0 -3.859375 -1.75 -5.828125q-1.75 -1.984375 -4.34375 -1.984375q-2.640625 0 -4.390625 1.96875q-1.734375 1.96875 -1.734375 5.953125zm33.54297 10.375l0 -3.046875q-2.421875 3.515625 -6.578125 3.515625q-1.84375 0 -3.4375 -0.703125q-1.59375 -0.703125 -2.359375 -1.765625q-0.765625 -1.0625 -1.078125 -2.609375q-0.21875 -1.03125 -0.21875 -3.28125l0 -12.859375l3.515625 0l0 11.515625q0 2.75 0.21875 3.703125q0.328125 1.390625 1.390625 2.1875q1.078125 0.78125 2.671875 0.78125q1.578125 0 2.953125 -0.8125q1.390625 -0.8125 1.96875 -2.203125q0.578125 -1.390625 0.578125 -4.046875l0 -11.125l3.515625 0l0 20.75l-3.140625 0zm33.296875 -2.5625q-1.953125 1.65625 -3.765625 2.34375q-1.796875 0.6875 -3.875 0.6875q-3.40625 0 -5.25 -1.671875q-1.828125 -1.671875 -1.828125 -4.265625q0 -1.53125 0.6875 -2.78125q0.6875 -1.265625 1.8125 -2.015625q1.125 -0.765625 2.53125 -1.15625q1.03125 -0.28125 3.125 -0.53125q4.265625 -0.515625 6.265625 -1.21875q0.03125 -0.71875 0.03125 -0.90625q0 -2.15625 -1.0 -3.03125q-1.34375 -1.1875 -4.0 -1.1875q-2.484375 0 -3.671875 0.875q-1.171875 0.859375 -1.75 3.0625l-3.4375 -0.46875q0.46875 -2.203125 1.546875 -3.5625q1.078125 -1.359375 3.109375 -2.09375q2.03125 -0.734375 4.703125 -0.734375q2.65625 0 4.3125 0.625q1.671875 0.625 2.453125 1.578125q0.78125 0.953125 1.09375 2.390625q0.171875 0.90625 0.171875 3.25l0 4.6875q0 4.890625 0.21875 6.203125q0.234375 1.296875 0.890625 2.484375l-3.671875 0q-0.546875 -1.09375 -0.703125 -2.5625zm-0.296875 -7.84375q-1.90625 0.78125 -5.734375 1.328125q-2.171875 0.3125 -3.078125 0.703125q-0.890625 0.390625 -1.375 1.140625q-0.484375 0.75 -0.484375 1.671875q0 1.40625 1.0625 2.34375q1.0625 0.9375 3.109375 0.9375q2.03125 0 3.609375 -0.890625q1.59375 -0.890625 2.328125 -2.4375q0.5625 -1.1875 0.5625 -3.515625l0 -1.28125zm8.964844 10.40625l0 -20.75l3.171875 0l0 3.15625q1.203125 -2.21875 2.234375 -2.921875q1.03125 -0.703125 2.25 -0.703125q1.78125 0 3.625 1.140625l-1.21875 3.265625q-1.28125 -0.765625 -2.578125 -0.765625q-1.15625 0 -2.078125 0.703125q-0.90625 0.6875 -1.296875 1.90625q-0.59375 1.875 -0.59375 4.109375l0 10.859375l-3.515625 0zm27.570312 -6.6875l3.625 0.453125q-0.859375 3.1875 -3.1875 4.953125q-2.3125 1.75 -5.9375 1.75q-4.546875 0 -7.21875 -2.796875q-2.65625 -2.8125 -2.65625 -7.875q0 -5.234375 2.6875 -8.125q2.703125 -2.890625 7.0 -2.890625q4.15625 0 6.796875 2.84375q2.640625 2.828125 2.640625 7.96875q0 0.3125 -0.03125 0.9375l-15.46875 0q0.203125 3.40625 1.9375 5.234375q1.734375 1.8125 4.34375 1.8125q1.921875 0 3.28125 -1.015625q1.375 -1.015625 2.1875 -3.25zm-11.546875 -5.671875l11.578125 0q-0.234375 -2.625 -1.328125 -3.9375q-1.671875 -2.03125 -4.359375 -2.03125q-2.421875 0 -4.078125 1.625q-1.640625 1.625 -1.8125 4.34375zm38.375 9.21875l0.515625 3.09375q-1.484375 0.328125 -2.65625 0.328125q-1.921875 0 -2.984375 -0.609375q-1.046875 -0.609375 -1.484375 -1.59375q-0.421875 -0.984375 -0.421875 -4.15625l0 -11.9375l-2.578125 0l0 -2.734375l2.578125 0l0 -5.125l3.5 -2.109375l0 7.234375l3.53125 0l0 2.734375l-3.53125 0l0 12.140625q0 1.5 0.1875 1.9375q0.1875 0.421875 0.59375 0.671875q0.421875 0.25 1.203125 0.25q0.59375 0 1.546875 -0.125zm3.3945312 3.140625l0 -20.75l3.171875 0l0 3.15625q1.203125 -2.21875 2.234375 -2.921875q1.03125 -0.703125 2.25 -0.703125q1.78125 0 3.625 1.140625l-1.21875 3.265625q-1.28125 -0.765625 -2.578125 -0.765625q-1.15625 0 -2.078125 0.703125q-0.90625 0.6875 -1.296875 1.90625q-0.59375 1.875 -0.59375 4.109375l0 10.859375l-3.515625 0zm13.2109375 7.984375l-0.390625 -3.296875q1.15625 0.3125 2.015625 0.3125q1.171875 0 1.875 -0.390625q0.703125 -0.390625 1.140625 -1.09375q0.34375 -0.53125 1.078125 -2.609375q0.09375 -0.296875 0.3125 -0.859375l-7.875 -20.796875l3.796875 0l4.3125 12.015625q0.84375 2.28125 1.5 4.8125q0.609375 -2.421875 1.453125 -4.734375l4.4375 -12.09375l3.515625 0l-7.890625 21.109375q-1.28125 3.40625 -1.984375 4.703125q-0.9375 1.734375 -2.15625 2.546875q-1.203125 0.8125 -2.875 0.8125q-1.015625 0 -2.265625 -0.4375zm20.171875 -32.578125l0 -4.046875l3.515625 0l0 4.046875l-3.515625 0zm0 24.59375l0 -20.75l3.515625 0l0 20.75l-3.515625 0zm8.871094 0l0 -20.75l3.15625 0l0 2.953125q2.296875 -3.421875 6.609375 -3.421875q1.875 0 3.4375 0.6875q1.578125 0.671875 2.359375 1.765625q0.78125 1.09375 1.09375 2.59375q0.203125 0.96875 0.203125 3.421875l0 12.75l-3.515625 0l0 -12.625q0 -2.140625 -0.421875 -3.203125q-0.40625 -1.0625 -1.453125 -1.703125q-1.046875 -0.640625 -2.453125 -0.640625q-2.234375 0 -3.875 1.4375q-1.625 1.421875 -1.625 5.40625l0 11.328125l-3.515625 0zm21.605469 1.71875l3.40625 0.515625q0.21875 1.578125 1.203125 2.296875q1.296875 0.984375 3.5625 0.984375q2.453125 0 3.78125 -0.984375q1.328125 -0.96875 1.796875 -2.734375q0.265625 -1.078125 0.25 -4.515625q-2.3125 2.71875 -5.75 2.71875q-4.265625 0 -6.609375 -3.078125q-2.34375 -3.09375 -2.34375 -7.40625q0 -2.96875 1.0625 -5.484375q1.078125 -2.515625 3.109375 -3.875q2.046875 -1.375 4.8125 -1.375q3.671875 0 6.046875 2.96875l0 -2.5l3.25 0l0 17.9375q0 4.84375 -1.0 6.859375q-0.984375 2.03125 -3.125 3.203125q-2.125 1.171875 -5.25 1.171875q-3.71875 0 -6.0 -1.671875q-2.28125 -1.671875 -2.203125 -5.03125zm2.90625 -12.46875q0 4.09375 1.609375 5.96875q1.625 1.875 4.078125 1.875q2.421875 0 4.0625 -1.859375q1.640625 -1.875 1.640625 -5.859375q0 -3.8125 -1.703125 -5.734375q-1.6875 -1.9375 -4.0625 -1.9375q-2.34375 0 -3.984375 1.90625q-1.640625 1.890625 -1.640625 5.640625zm38.765625 7.609375l0.515625 3.09375q-1.484375 0.328125 -2.65625 0.328125q-1.921875 0 -2.984375 -0.609375q-1.046875 -0.609375 -1.484375 -1.59375q-0.421875 -0.984375 -0.421875 -4.15625l0 -11.9375l-2.578125 0l0 -2.734375l2.578125 0l0 -5.125l3.5 -2.109375l0 7.234375l3.53125 0l0 2.734375l-3.53125 0l0 12.140625q0 1.5 0.1875 1.9375q0.1875 0.421875 0.59375 0.671875q0.421875 0.25 1.203125 0.25q0.59375 0 1.546875 -0.125zm2.1289062 -7.234375q0 -5.765625 3.203125 -8.53125q2.671875 -2.3125 6.53125 -2.3125q4.265625 0 6.984375 2.8125q2.71875 2.796875 2.71875 7.734375q0 4.015625 -1.203125 6.3125q-1.203125 2.28125 -3.5 3.5625q-2.296875 1.265625 -5.0 1.265625q-4.359375 0 -7.046875 -2.796875q-2.6875 -2.796875 -2.6875 -8.046875zm3.609375 0q0 3.984375 1.734375 5.96875q1.75 1.984375 4.390625 1.984375q2.609375 0 4.34375 -1.984375q1.75 -2.0 1.75 -6.078125q0 -3.859375 -1.75 -5.828125q-1.75 -1.984375 -4.34375 -1.984375q-2.640625 0 -4.390625 1.96875q-1.734375 1.96875 -1.734375 5.953125zm29.65625 4.1875l3.46875 -0.546875q0.296875 2.078125 1.625 3.203125q1.34375 1.109375 3.75 1.109375q2.421875 0 3.59375 -0.984375q1.171875 -0.984375 1.171875 -2.3125q0 -1.203125 -1.03125 -1.875q-0.71875 -0.46875 -3.59375 -1.203125q-3.875 -0.96875 -5.375 -1.671875q-1.484375 -0.71875 -2.265625 -1.984375q-0.765625 -1.265625 -0.765625 -2.78125q0 -1.390625 0.640625 -2.5625q0.640625 -1.1875 1.734375 -1.96875q0.8125 -0.609375 2.21875 -1.03125q1.421875 -0.421875 3.046875 -0.421875q2.4375 0 4.28125 0.703125q1.859375 0.703125 2.734375 1.90625q0.875 1.203125 1.203125 3.21875l-3.4375 0.46875q-0.234375 -1.609375 -1.359375 -2.5q-1.109375 -0.90625 -3.171875 -0.90625q-2.421875 0 -3.453125 0.8125q-1.03125 0.796875 -1.03125 1.875q0 0.671875 0.421875 1.21875q0.4375 0.578125 1.359375 0.9375q0.515625 0.203125 3.09375 0.90625q3.734375 1.0 5.203125 1.640625q1.484375 0.625 2.3125 1.84375q0.84375 1.203125 0.84375 3.0q0 1.75 -1.03125 3.3125q-1.015625 1.546875 -2.953125 2.40625q-1.921875 0.84375 -4.375 0.84375q-4.03125 0 -6.15625 -1.671875q-2.125 -1.6875 -2.703125 -4.984375zm20.09375 -4.1875q0 -5.765625 3.203125 -8.53125q2.671875 -2.3125 6.53125 -2.3125q4.265625 0 6.984375 2.8125q2.71875 2.796875 2.71875 7.734375q0 4.015625 -1.203125 6.3125q-1.203125 2.28125 -3.5 3.5625q-2.296875 1.265625 -5.0 1.265625q-4.359375 0 -7.046875 -2.796875q-2.6875 -2.796875 -2.6875 -8.046875zm3.609375 0q0 3.984375 1.734375 5.96875q1.75 1.984375 4.390625 1.984375q2.609375 0 4.34375 -1.984375q1.75 -2.0 1.75 -6.078125q0 -3.859375 -1.75 -5.828125q-1.75 -1.984375 -4.34375 -1.984375q-2.640625 0 -4.390625 1.96875q-1.734375 1.96875 -1.734375 5.953125zm19.871094 10.375l0 -28.640625l3.515625 0l0 28.640625l-3.515625 0zm14.730469 0l-7.890625 -20.75l3.703125 0l4.453125 12.421875q0.71875 2.015625 1.328125 4.1875q0.46875 -1.640625 1.3125 -3.953125l4.609375 -12.65625l3.609375 0l-7.84375 20.75l-3.28125 0zm28.4375 -6.6875l3.625 0.453125q-0.859375 3.1875 -3.1875 4.953125q-2.3125 1.75 -5.9375 1.75q-4.546875 0 -7.21875 -2.796875q-2.65625 -2.8125 -2.65625 -7.875q0 -5.234375 2.6875 -8.125q2.703125 -2.890625 7.0 -2.890625q4.15625 0 6.796875 2.84375q2.640625 2.828125 2.640625 7.96875q0 0.3125 -0.03125 0.9375l-15.46875 0q0.203125 3.40625 1.9375 5.234375q1.734375 1.8125 4.34375 1.8125q1.921875 0 3.28125 -1.015625q1.375 -1.015625 2.1875 -3.25zm-11.546875 -5.671875l11.578125 0q-0.234375 -2.625 -1.328125 -3.9375q-1.671875 -2.03125 -4.359375 -2.03125q-2.421875 0 -4.078125 1.625q-1.640625 1.625 -1.8125 4.34375zm26.167969 5.3125q-0.015625 -0.703125 -0.015625 -1.0625q0 -2.0625 0.578125 -3.578125q0.4375 -1.125 1.390625 -2.28125q0.703125 -0.84375 2.53125 -2.453125q1.828125 -1.609375 2.375 -2.5625q0.546875 -0.953125 0.546875 -2.09375q0 -2.046875 -1.609375 -3.59375q-1.59375 -1.5625 -3.921875 -1.5625q-2.25 0 -3.75 1.40625q-1.5 1.40625 -1.96875 4.390625l-3.609375 -0.421875q0.484375 -4.0 2.890625 -6.125q2.421875 -2.140625 6.375 -2.140625q4.203125 0 6.703125 2.296875q2.5 2.28125 2.5 5.515625q0 1.875 -0.875 3.46875q-0.875 1.578125 -3.4375 3.84375q-1.71875 1.515625 -2.25 2.25q-0.53125 0.71875 -0.78125 1.65625q-0.25 0.9375 -0.296875 3.046875l-3.375 0zm-0.21875 7.046875l0 -4.0l4.015625 0l0 4.0l-4.015625 0z" fill-rule="nonzero"></path><path fill="#000000" d="m94.06488 437.36063l-7.609375 -28.640625l3.890625 0l4.359375 18.78125q0.703125 2.9375 1.203125 5.859375q1.09375 -4.59375 1.296875 -5.296875l5.453125 -19.34375l4.5625 0l4.109375 14.5q1.53125 5.390625 2.21875 10.140625q0.546875 -2.71875 1.421875 -6.234375l4.5 -18.40625l3.8125 0l-7.859375 28.640625l-3.65625 0l-6.03125 -21.8125q-0.765625 -2.734375 -0.890625 -3.359375q-0.453125 1.96875 -0.84375 3.359375l-6.078125 21.8125l-3.859375 0zm32.30078 0l0 -28.640625l3.515625 0l0 10.28125q2.453125 -2.859375 6.203125 -2.859375q2.3125 0 4.0 0.921875q1.703125 0.90625 2.4375 2.515625q0.734375 1.59375 0.734375 4.640625l0 13.140625l-3.515625 0l0 -13.140625q0 -2.640625 -1.140625 -3.84375q-1.140625 -1.203125 -3.234375 -1.203125q-1.5625 0 -2.9375 0.8125q-1.375 0.8125 -1.96875 2.203125q-0.578125 1.375 -0.578125 3.828125l0 11.34375l-3.515625 0zm35.777344 -2.5625q-1.953125 1.65625 -3.765625 2.34375q-1.796875 0.6875 -3.875 0.6875q-3.40625 0 -5.25 -1.671875q-1.828125 -1.671875 -1.828125 -4.265625q0 -1.53125 0.6875 -2.78125q0.6875 -1.265625 1.8125 -2.015625q1.125 -0.765625 2.53125 -1.15625q1.03125 -0.28125 3.125 -0.53125q4.265625 -0.515625 6.265625 -1.21875q0.03125 -0.71875 0.03125 -0.90625q0 -2.15625 -1.0 -3.03125q-1.34375 -1.1875 -4.0 -1.1875q-2.484375 0 -3.671875 0.875q-1.171875 0.859375 -1.75 3.0625l-3.4375 -0.46875q0.46875 -2.203125 1.546875 -3.5625q1.078125 -1.359375 3.109375 -2.09375q2.03125 -0.734375 4.703125 -0.734375q2.65625 0 4.3125 0.625q1.671875 0.625 2.453125 1.578125q0.78125 0.953125 1.09375 2.390625q0.171875 0.90625 0.171875 3.25l0 4.6875q0 4.890625 0.21875 6.203125q0.234375 1.296875 0.890625 2.484375l-3.671875 0q-0.546875 -1.09375 -0.703125 -2.5625zm-0.296875 -7.84375q-1.90625 0.78125 -5.734375 1.328125q-2.171875 0.3125 -3.078125 0.703125q-0.890625 0.390625 -1.375 1.140625q-0.484375 0.75 -0.484375 1.671875q0 1.40625 1.0625 2.34375q1.0625 0.9375 3.109375 0.9375q2.03125 0 3.609375 -0.890625q1.59375 -0.890625 2.328125 -2.4375q0.5625 -1.1875 0.5625 -3.515625l0 -1.28125zm16.683594 7.265625l0.515625 3.09375q-1.484375 0.328125 -2.65625 0.328125q-1.921875 0 -2.984375 -0.609375q-1.046875 -0.609375 -1.484375 -1.59375q-0.421875 -0.984375 -0.421875 -4.15625l0 -11.9375l-2.578125 0l0 -2.734375l2.578125 0l0 -5.125l3.5 -2.109375l0 7.234375l3.53125 0l0 2.734375l-3.53125 0l0 12.140625q0 1.5 0.1875 1.9375q0.1875 0.421875 0.59375 0.671875q0.421875 0.25 1.203125 0.25q0.59375 0 1.546875 -0.125zm28.007812 3.140625l0 -2.625q-1.96875 3.09375 -5.796875 3.09375q-2.484375 0 -4.5625 -1.359375q-2.078125 -1.375 -3.21875 -3.828125q-1.140625 -2.453125 -1.140625 -5.640625q0 -3.09375 1.03125 -5.625q1.03125 -2.53125 3.09375 -3.875q2.078125 -1.359375 4.640625 -1.359375q1.875 0 3.328125 0.796875q1.46875 0.796875 2.390625 2.0625l0 -10.28125l3.5 0l0 28.640625l-3.265625 0zm-11.109375 -10.359375q0 3.984375 1.671875 5.96875q1.6875 1.96875 3.96875 1.96875q2.3125 0 3.921875 -1.875q1.609375 -1.890625 1.609375 -5.765625q0 -4.25 -1.640625 -6.234375q-1.640625 -2.0 -4.046875 -2.0q-2.34375 0 -3.921875 1.921875q-1.5625 1.90625 -1.5625 6.015625zm34.10547 3.671875l3.625 0.453125q-0.859375 3.1875 -3.1875 4.953125q-2.3125 1.75 -5.9375 1.75q-4.546875 0 -7.21875 -2.796875q-2.65625 -2.8125 -2.65625 -7.875q0 -5.234375 2.6875 -8.125q2.703125 -2.890625 7.0 -2.890625q4.15625 0 6.796875 2.84375q2.640625 2.828125 2.640625 7.96875q0 0.3125 -0.03125 0.9375l-15.46875 0q0.203125 3.40625 1.9375 5.234375q1.734375 1.8125 4.34375 1.8125q1.921875 0 3.28125 -1.015625q1.375 -1.015625 2.1875 -3.25zm-11.546875 -5.671875l11.578125 0q-0.234375 -2.625 -1.328125 -3.9375q-1.671875 -2.03125 -4.359375 -2.03125q-2.421875 0 -4.078125 1.625q-1.640625 1.625 -1.8125 4.34375zm33.121094 4.765625l3.453125 0.4375q-0.5625 3.578125 -2.90625 5.609375q-2.328125 2.015625 -5.71875 2.015625q-4.265625 0 -6.859375 -2.78125q-2.578125 -2.78125 -2.578125 -7.984375q0 -3.359375 1.109375 -5.875q1.125 -2.515625 3.390625 -3.78125q2.28125 -1.265625 4.953125 -1.265625q3.375 0 5.515625 1.71875q2.15625 1.703125 2.765625 4.84375l-3.421875 0.53125q-0.484375 -2.09375 -1.734375 -3.140625q-1.234375 -1.0625 -2.984375 -1.0625q-2.65625 0 -4.328125 1.90625q-1.65625 1.90625 -1.65625 6.03125q0 4.171875 1.59375 6.078125q1.609375 1.890625 4.1875 1.890625q2.078125 0 3.453125 -1.265625q1.390625 -1.28125 1.765625 -3.90625zm6.484375 -17.0l0 -4.046875l3.515625 0l0 4.046875l-3.515625 0zm0 24.59375l0 -20.75l3.515625 0l0 20.75l-3.515625 0zm7.4648438 -6.1875l3.46875 -0.546875q0.296875 2.078125 1.625 3.203125q1.34375 1.109375 3.75 1.109375q2.421875 0 3.59375 -0.984375q1.171875 -0.984375 1.171875 -2.3125q0 -1.203125 -1.03125 -1.875q-0.71875 -0.46875 -3.59375 -1.203125q-3.875 -0.96875 -5.375 -1.671875q-1.484375 -0.71875 -2.265625 -1.984375q-0.765625 -1.265625 -0.765625 -2.78125q0 -1.390625 0.640625 -2.5625q0.640625 -1.1875 1.734375 -1.96875q0.8125 -0.609375 2.21875 -1.03125q1.421875 -0.421875 3.046875 -0.421875q2.4375 0 4.28125 0.703125q1.859375 0.703125 2.734375 1.90625q0.875 1.203125 1.203125 3.21875l-3.4375 0.46875q-0.234375 -1.609375 -1.359375 -2.5q-1.109375 -0.90625 -3.171875 -0.90625q-2.421875 0 -3.453125 0.8125q-1.03125 0.796875 -1.03125 1.875q0 0.671875 0.421875 1.21875q0.4375 0.578125 1.359375 0.9375q0.515625 0.203125 3.09375 0.90625q3.734375 1.0 5.203125 1.640625q1.484375 0.625 2.3125 1.84375q0.84375 1.203125 0.84375 3.0q0 1.75 -1.03125 3.3125q-1.015625 1.546875 -2.953125 2.40625q-1.921875 0.84375 -4.375 0.84375q-4.03125 0 -6.15625 -1.671875q-2.125 -1.6875 -2.703125 -4.984375zm21.421875 -18.40625l0 -4.046875l3.515625 0l0 4.046875l-3.515625 0zm0 24.59375l0 -20.75l3.515625 0l0 20.75l-3.515625 0zm7.5585938 -10.375q0 -5.765625 3.203125 -8.53125q2.671875 -2.3125 6.53125 -2.3125q4.265625 0 6.984375 2.8125q2.71875 2.796875 2.71875 7.734375q0 4.015625 -1.203125 6.3125q-1.203125 2.28125 -3.5 3.5625q-2.296875 1.265625 -5.0 1.265625q-4.359375 0 -7.046875 -2.796875q-2.6875 -2.796875 -2.6875 -8.046875zm3.609375 0q0 3.984375 1.734375 5.96875q1.75 1.984375 4.390625 1.984375q2.609375 0 4.34375 -1.984375q1.75 -2.0 1.75 -6.078125q0 -3.859375 -1.75 -5.828125q-1.75 -1.984375 -4.34375 -1.984375q-2.640625 0 -4.390625 1.96875q-1.734375 1.96875 -1.734375 5.953125zm19.949219 10.375l0 -20.75l3.15625 0l0 2.953125q2.296875 -3.421875 6.609375 -3.421875q1.875 0 3.4375 0.6875q1.578125 0.671875 2.359375 1.765625q0.78125 1.09375 1.09375 2.59375q0.203125 0.96875 0.203125 3.421875l0 12.75l-3.515625 0l0 -12.625q0 -2.140625 -0.421875 -3.203125q-0.40625 -1.0625 -1.453125 -1.703125q-1.046875 -0.640625 -2.453125 -0.640625q-2.234375 0 -3.875 1.4375q-1.625 1.421875 -1.625 5.40625l0 11.328125l-3.515625 0zm20.839844 -6.1875l3.46875 -0.546875q0.296875 2.078125 1.625 3.203125q1.34375 1.109375 3.75 1.109375q2.421875 0 3.59375 -0.984375q1.171875 -0.984375 1.171875 -2.3125q0 -1.203125 -1.03125 -1.875q-0.71875 -0.46875 -3.59375 -1.203125q-3.875 -0.96875 -5.375 -1.671875q-1.484375 -0.71875 -2.265625 -1.984375q-0.765625 -1.265625 -0.765625 -2.78125q0 -1.390625 0.640625 -2.5625q0.640625 -1.1875 1.734375 -1.96875q0.8125 -0.609375 2.21875 -1.03125q1.421875 -0.421875 3.046875 -0.421875q2.4375 0 4.28125 0.703125q1.859375 0.703125 2.734375 1.90625q0.875 1.203125 1.203125 3.21875l-3.4375 0.46875q-0.234375 -1.609375 -1.359375 -2.5q-1.109375 -0.90625 -3.171875 -0.90625q-2.421875 0 -3.453125 0.8125q-1.03125 0.796875 -1.03125 1.875q0 0.671875 0.421875 1.21875q0.4375 0.578125 1.359375 0.9375q0.515625 0.203125 3.09375 0.90625q3.734375 1.0 5.203125 1.640625q1.484375 0.625 2.3125 1.84375q0.84375 1.203125 0.84375 3.0q0 1.75 -1.03125 3.3125q-1.015625 1.546875 -2.953125 2.40625q-1.921875 0.84375 -4.375 0.84375q-4.03125 0 -6.15625 -1.671875q-2.125 -1.6875 -2.703125 -4.984375zm46.05078 3.625q-1.953125 1.65625 -3.765625 2.34375q-1.796875 0.6875 -3.875 0.6875q-3.40625 0 -5.25 -1.671875q-1.828125 -1.671875 -1.828125 -4.265625q0 -1.53125 0.6875 -2.78125q0.6875 -1.265625 1.8125 -2.015625q1.125 -0.765625 2.53125 -1.15625q1.03125 -0.28125 3.125 -0.53125q4.265625 -0.515625 6.265625 -1.21875q0.03125 -0.71875 0.03125 -0.90625q0 -2.15625 -1.0 -3.03125q-1.34375 -1.1875 -4.0 -1.1875q-2.484375 0 -3.671875 0.875q-1.171875 0.859375 -1.75 3.0625l-3.4375 -0.46875q0.46875 -2.203125 1.546875 -3.5625q1.078125 -1.359375 3.109375 -2.09375q2.03125 -0.734375 4.703125 -0.734375q2.65625 0 4.3125 0.625q1.671875 0.625 2.453125 1.578125q0.78125 0.953125 1.09375 2.390625q0.171875 0.90625 0.171875 3.25l0 4.6875q0 4.890625 0.21875 6.203125q0.234375 1.296875 0.890625 2.484375l-3.671875 0q-0.546875 -1.09375 -0.703125 -2.5625zm-0.296875 -7.84375q-1.90625 0.78125 -5.734375 1.328125q-2.171875 0.3125 -3.078125 0.703125q-0.890625 0.390625 -1.375 1.140625q-0.484375 0.75 -0.484375 1.671875q0 1.40625 1.0625 2.34375q1.0625 0.9375 3.109375 0.9375q2.03125 0 3.609375 -0.890625q1.59375 -0.890625 2.328125 -2.4375q0.5625 -1.1875 0.5625 -3.515625l0 -1.28125zm8.964844 10.40625l0 -20.75l3.171875 0l0 3.15625q1.203125 -2.21875 2.234375 -2.921875q1.03125 -0.703125 2.25 -0.703125q1.78125 0 3.625 1.140625l-1.21875 3.265625q-1.28125 -0.765625 -2.578125 -0.765625q-1.15625 0 -2.078125 0.703125q-0.90625 0.6875 -1.296875 1.90625q-0.59375 1.875 -0.59375 4.109375l0 10.859375l-3.515625 0zm27.570312 -6.6875l3.625 0.453125q-0.859375 3.1875 -3.1875 4.953125q-2.3125 1.75 -5.9375 1.75q-4.546875 0 -7.21875 -2.796875q-2.65625 -2.8125 -2.65625 -7.875q0 -5.234375 2.6875 -8.125q2.703125 -2.890625 7.0 -2.890625q4.15625 0 6.796875 2.84375q2.640625 2.828125 2.640625 7.96875q0 0.3125 -0.03125 0.9375l-15.46875 0q0.203125 3.40625 1.9375 5.234375q1.734375 1.8125 4.34375 1.8125q1.921875 0 3.28125 -1.015625q1.375 -1.015625 2.1875 -3.25zm-11.546875 -5.671875l11.578125 0q-0.234375 -2.625 -1.328125 -3.9375q-1.671875 -2.03125 -4.359375 -2.03125q-2.421875 0 -4.078125 1.625q-1.640625 1.625 -1.8125 4.34375zm30.546875 20.34375l-0.390625 -3.296875q1.15625 0.3125 2.015625 0.3125q1.171875 0 1.875 -0.390625q0.703125 -0.390625 1.140625 -1.09375q0.34375 -0.53125 1.078125 -2.609375q0.09375 -0.296875 0.3125 -0.859375l-7.875 -20.796875l3.796875 0l4.3125 12.015625q0.84375 2.28125 1.5 4.8125q0.609375 -2.421875 1.453125 -4.734375l4.4375 -12.09375l3.515625 0l-7.890625 21.109375q-1.28125 3.40625 -1.984375 4.703125q-0.9375 1.734375 -2.15625 2.546875q-1.203125 0.8125 -2.875 0.8125q-1.015625 0 -2.265625 -0.4375zm18.84375 -18.359375q0 -5.765625 3.203125 -8.53125q2.671875 -2.3125 6.53125 -2.3125q4.265625 0 6.984375 2.8125q2.71875 2.796875 2.71875 7.734375q0 4.015625 -1.203125 6.3125q-1.203125 2.28125 -3.5 3.5625q-2.296875 1.265625 -5.0 1.265625q-4.359375 0 -7.046875 -2.796875q-2.6875 -2.796875 -2.6875 -8.046875zm3.609375 0q0 3.984375 1.734375 5.96875q1.75 1.984375 4.390625 1.984375q2.609375 0 4.34375 -1.984375q1.75 -2.0 1.75 -6.078125q0 -3.859375 -1.75 -5.828125q-1.75 -1.984375 -4.34375 -1.984375q-2.640625 0 -4.390625 1.96875q-1.734375 1.96875 -1.734375 5.953125zm33.54297 10.375l0 -3.046875q-2.421875 3.515625 -6.578125 3.515625q-1.84375 0 -3.4375 -0.703125q-1.59375 -0.703125 -2.359375 -1.765625q-0.765625 -1.0625 -1.078125 -2.609375q-0.21875 -1.03125 -0.21875 -3.28125l0 -12.859375l3.515625 0l0 11.515625q0 2.75 0.21875 3.703125q0.328125 1.390625 1.390625 2.1875q1.078125 0.78125 2.671875 0.78125q1.578125 0 2.953125 -0.8125q1.390625 -0.8125 1.96875 -2.203125q0.578125 -1.390625 0.578125 -4.046875l0 -11.125l3.515625 0l0 20.75l-3.140625 0zm27.4375 -3.140625l0.515625 3.09375q-1.484375 0.328125 -2.65625 0.328125q-1.921875 0 -2.984375 -0.609375q-1.046875 -0.609375 -1.484375 -1.59375q-0.421875 -0.984375 -0.421875 -4.15625l0 -11.9375l-2.578125 0l0 -2.734375l2.578125 0l0 -5.125l3.5 -2.109375l0 7.234375l3.53125 0l0 2.734375l-3.53125 0l0 12.140625q0 1.5 0.1875 1.9375q0.1875 0.421875 0.59375 0.671875q0.421875 0.25 1.203125 0.25q0.59375 0 1.546875 -0.125zm3.3945312 3.140625l0 -20.75l3.171875 0l0 3.15625q1.203125 -2.21875 2.234375 -2.921875q1.03125 -0.703125 2.25 -0.703125q1.78125 0 3.625 1.140625l-1.21875 3.265625q-1.28125 -0.765625 -2.578125 -0.765625q-1.15625 0 -2.078125 0.703125q-0.90625 0.6875 -1.296875 1.90625q-0.59375 1.875 -0.59375 4.109375l0 10.859375l-3.515625 0zm13.2109375 7.984375l-0.390625 -3.296875q1.15625 0.3125 2.015625 0.3125q1.171875 0 1.875 -0.390625q0.703125 -0.390625 1.140625 -1.09375q0.34375 -0.53125 1.078125 -2.609375q0.09375 -0.296875 0.3125 -0.859375l-7.875 -20.796875l3.796875 0l4.3125 12.015625q0.84375 2.28125 1.5 4.8125q0.609375 -2.421875 1.453125 -4.734375l4.4375 -12.09375l3.515625 0l-7.890625 21.109375q-1.28125 3.40625 -1.984375 4.703125q-0.9375 1.734375 -2.15625 2.546875q-1.203125 0.8125 -2.875 0.8125q-1.015625 0 -2.265625 -0.4375zm20.171875 -32.578125l0 -4.046875l3.515625 0l0 4.046875l-3.515625 0zm0 24.59375l0 -20.75l3.515625 0l0 20.75l-3.515625 0zm8.871094 0l0 -20.75l3.15625 0l0 2.953125q2.296875 -3.421875 6.609375 -3.421875q1.875 0 3.4375 0.6875q1.578125 0.671875 2.359375 1.765625q0.78125 1.09375 1.09375 2.59375q0.203125 0.96875 0.203125 3.421875l0 12.75l-3.515625 0l0 -12.625q0 -2.140625 -0.421875 -3.203125q-0.40625 -1.0625 -1.453125 -1.703125q-1.046875 -0.640625 -2.453125 -0.640625q-2.234375 0 -3.875 1.4375q-1.625 1.421875 -1.625 5.40625l0 11.328125l-3.515625 0zm21.605469 1.71875l3.40625 0.515625q0.21875 1.578125 1.203125 2.296875q1.296875 0.984375 3.5625 0.984375q2.453125 0 3.78125 -0.984375q1.328125 -0.96875 1.796875 -2.734375q0.265625 -1.078125 0.25 -4.515625q-2.3125 2.71875 -5.75 2.71875q-4.265625 0 -6.609375 -3.078125q-2.34375 -3.09375 -2.34375 -7.40625q0 -2.96875 1.0625 -5.484375q1.078125 -2.515625 3.109375 -3.875q2.046875 -1.375 4.8125 -1.375q3.671875 0 6.046875 2.96875l0 -2.5l3.25 0l0 17.9375q0 4.84375 -1.0 6.859375q-0.984375 2.03125 -3.125 3.203125q-2.125 1.171875 -5.25 1.171875q-3.71875 0 -6.0 -1.671875q-2.28125 -1.671875 -2.203125 -5.03125zm2.90625 -12.46875q0 4.09375 1.609375 5.96875q1.625 1.875 4.078125 1.875q2.421875 0 4.0625 -1.859375q1.640625 -1.875 1.640625 -5.859375q0 -3.8125 -1.703125 -5.734375q-1.6875 -1.9375 -4.0625 -1.9375q-2.34375 0 -3.984375 1.90625q-1.640625 1.890625 -1.640625 5.640625zm38.765625 7.609375l0.515625 3.09375q-1.484375 0.328125 -2.65625 0.328125q-1.921875 0 -2.984375 -0.609375q-1.046875 -0.609375 -1.484375 -1.59375q-0.421875 -0.984375 -0.421875 -4.15625l0 -11.9375l-2.578125 0l0 -2.734375l2.578125 0l0 -5.125l3.5 -2.109375l0 7.234375l3.53125 0l0 2.734375l-3.53125 0l0 12.140625q0 1.5 0.1875 1.9375q0.1875 0.421875 0.59375 0.671875q0.421875 0.25 1.203125 0.25q0.59375 0 1.546875 -0.125zm2.1289062 -7.234375q0 -5.765625 3.203125 -8.53125q2.671875 -2.3125 6.53125 -2.3125q4.265625 0 6.984375 2.8125q2.71875 2.796875 2.71875 7.734375q0 4.015625 -1.203125 6.3125q-1.203125 2.28125 -3.5 3.5625q-2.296875 1.265625 -5.0 1.265625q-4.359375 0 -7.046875 -2.796875q-2.6875 -2.796875 -2.6875 -8.046875zm3.609375 0q0 3.984375 1.734375 5.96875q1.75 1.984375 4.390625 1.984375q2.609375 0 4.34375 -1.984375q1.75 -2.0 1.75 -6.078125q0 -3.859375 -1.75 -5.828125q-1.75 -1.984375 -4.34375 -1.984375q-2.640625 0 -4.390625 1.96875q-1.734375 1.96875 -1.734375 5.953125zm31.0625 10.375l0 -20.75l3.140625 0l0 2.921875q0.984375 -1.53125 2.59375 -2.453125q1.625 -0.9375 3.703125 -0.9375q2.296875 0 3.765625 0.96875q1.484375 0.953125 2.09375 2.671875q2.453125 -3.640625 6.40625 -3.640625q3.078125 0 4.734375 1.71875q1.671875 1.703125 1.671875 5.265625l0 14.234375l-3.5 0l0 -13.0625q0 -2.109375 -0.34375 -3.03125q-0.34375 -0.9375 -1.25 -1.5q-0.890625 -0.578125 -2.09375 -0.578125q-2.1875 0 -3.640625 1.46875q-1.4375 1.453125 -1.4375 4.65625l0 12.046875l-3.515625 0l0 -13.484375q0 -2.34375 -0.859375 -3.515625q-0.859375 -1.171875 -2.8125 -1.171875q-1.484375 0 -2.75 0.78125q-1.265625 0.78125 -1.828125 2.296875q-0.5625 1.5 -0.5625 4.328125l0 10.765625l-3.515625 0zm46.851562 -2.5625q-1.953125 1.65625 -3.765625 2.34375q-1.796875 0.6875 -3.875 0.6875q-3.40625 0 -5.25 -1.671875q-1.828125 -1.671875 -1.828125 -4.265625q0 -1.53125 0.6875 -2.78125q0.6875 -1.265625 1.8125 -2.015625q1.125 -0.765625 2.53125 -1.15625q1.03125 -0.28125 3.125 -0.53125q4.265625 -0.515625 6.265625 -1.21875q0.03125 -0.71875 0.03125 -0.90625q0 -2.15625 -1.0 -3.03125q-1.34375 -1.1875 -4.0 -1.1875q-2.484375 0 -3.671875 0.875q-1.171875 0.859375 -1.75 3.0625l-3.4375 -0.46875q0.46875 -2.203125 1.546875 -3.5625q1.078125 -1.359375 3.109375 -2.09375q2.03125 -0.734375 4.703125 -0.734375q2.65625 0 4.3125 0.625q1.671875 0.625 2.453125 1.578125q0.78125 0.953125 1.09375 2.390625q0.171875 0.90625 0.171875 3.25l0 4.6875q0 4.890625 0.21875 6.203125q0.234375 1.296875 0.890625 2.484375l-3.671875 0q-0.546875 -1.09375 -0.703125 -2.5625zm-0.296875 -7.84375q-1.90625 0.78125 -5.734375 1.328125q-2.171875 0.3125 -3.078125 0.703125q-0.890625 0.390625 -1.375 1.140625q-0.484375 0.75 -0.484375 1.671875q0 1.40625 1.0625 2.34375q1.0625 0.9375 3.109375 0.9375q2.03125 0 3.609375 -0.890625q1.59375 -0.890625 2.328125 -2.4375q0.5625 -1.1875 0.5625 -3.515625l0 -1.28125zm9.027344 10.40625l0 -28.640625l3.515625 0l0 16.328125l8.328125 -8.4375l4.546875 0l-7.9375 7.703125l8.734375 13.046875l-4.328125 0l-6.859375 -10.609375l-2.484375 2.390625l0 8.21875l-3.515625 0zm34.1875 -6.6875l3.625 0.453125q-0.859375 3.1875 -3.1875 4.953125q-2.3125 1.75 -5.9375 1.75q-4.546875 0 -7.21875 -2.796875q-2.65625 -2.8125 -2.65625 -7.875q0 -5.234375 2.6875 -8.125q2.703125 -2.890625 7.0 -2.890625q4.15625 0 6.796875 2.84375q2.640625 2.828125 2.640625 7.96875q0 0.3125 -0.03125 0.9375l-15.46875 0q0.203125 3.40625 1.9375 5.234375q1.734375 1.8125 4.34375 1.8125q1.921875 0 3.28125 -1.015625q1.375 -1.015625 2.1875 -3.25zm-11.546875 -5.671875l11.578125 0q-0.234375 -2.625 -1.328125 -3.9375q-1.671875 -2.03125 -4.359375 -2.03125q-2.421875 0 -4.078125 1.625q-1.640625 1.625 -1.8125 4.34375zm26.167969 5.3125q-0.015625 -0.703125 -0.015625 -1.0625q0 -2.0625 0.578125 -3.578125q0.4375 -1.125 1.390625 -2.28125q0.703125 -0.84375 2.53125 -2.453125q1.828125 -1.609375 2.375 -2.5625q0.546875 -0.953125 0.546875 -2.09375q0 -2.046875 -1.609375 -3.59375q-1.59375 -1.5625 -3.921875 -1.5625q-2.25 0 -3.75 1.40625q-1.5 1.40625 -1.96875 4.390625l-3.609375 -0.421875q0.484375 -4.0 2.890625 -6.125q2.421875 -2.140625 6.375 -2.140625q4.203125 0 6.703125 2.296875q2.5 2.28125 2.5 5.515625q0 1.875 -0.875 3.46875q-0.875 1.578125 -3.4375 3.84375q-1.71875 1.515625 -2.25 2.25q-0.53125 0.71875 -0.78125 1.65625q-0.25 0.9375 -0.296875 3.046875l-3.375 0zm-0.21875 7.046875l0 -4.0l4.015625 0l0 4.0l-4.015625 0z" fill-rule="nonzero"></path><path fill="#000000" d="m94.06488 533.3606l-7.609375 -28.640594l3.890625 0l4.359375 18.78122q0.703125 2.9375 1.203125 5.859375q1.09375 -4.59375 1.296875 -5.296875l5.453125 -19.34372l4.5625 0l4.109375 14.4999695q1.53125 5.390625 2.21875 10.140625q0.546875 -2.71875 1.421875 -6.234375l4.5 -18.40622l3.8125 0l-7.859375 28.640594l-3.65625 0l-6.03125 -21.81247q-0.765625 -2.734375 -0.890625 -3.359375q-0.453125 1.96875 -0.84375 3.359375l-6.078125 21.81247l-3.859375 0zm32.30078 0l0 -28.640594l3.515625 0l0 10.2812195q2.453125 -2.859375 6.203125 -2.859375q2.3125 0 4.0 0.921875q1.703125 0.90625 2.4375 2.515625q0.734375 1.59375 0.734375 4.640625l0 13.140625l-3.515625 0l0 -13.140625q0 -2.640625 -1.140625 -3.84375q-1.140625 -1.203125 -3.234375 -1.203125q-1.5625 0 -2.9375 0.8125q-1.375 0.8125 -1.96875 2.203125q-0.578125 1.375 -0.578125 3.828125l0 11.34375l-3.515625 0zm35.777344 -2.5625q-1.953125 1.65625 -3.765625 2.34375q-1.796875 0.6875 -3.875 0.6875q-3.40625 0 -5.25 -1.671875q-1.828125 -1.671875 -1.828125 -4.265625q0 -1.53125 0.6875 -2.78125q0.6875 -1.265625 1.8125 -2.015625q1.125 -0.765625 2.53125 -1.15625q1.03125 -0.28125 3.125 -0.53125q4.265625 -0.515625 6.265625 -1.21875q0.03125 -0.71875 0.03125 -0.90625q0 -2.15625 -1.0 -3.03125q-1.34375 -1.1875 -4.0 -1.1875q-2.484375 0 -3.671875 0.875q-1.171875 0.859375 -1.75 3.0625l-3.4375 -0.46875q0.46875 -2.203125 1.546875 -3.5625q1.078125 -1.359375 3.109375 -2.09375q2.03125 -0.734375 4.703125 -0.734375q2.65625 0 4.3125 0.625q1.671875 0.625 2.453125 1.578125q0.78125 0.953125 1.09375 2.390625q0.171875 0.90625 0.171875 3.25l0 4.6875q0 4.890625 0.21875 6.203125q0.234375 1.296875 0.890625 2.484375l-3.671875 0q-0.546875 -1.09375 -0.703125 -2.5625zm-0.296875 -7.84375q-1.90625 0.78125 -5.734375 1.328125q-2.171875 0.3125 -3.078125 0.703125q-0.890625 0.390625 -1.375 1.140625q-0.484375 0.75 -0.484375 1.671875q0 1.40625 1.0625 2.34375q1.0625 0.9375 3.109375 0.9375q2.03125 0 3.609375 -0.890625q1.59375 -0.890625 2.328125 -2.4375q0.5625 -1.1875 0.5625 -3.515625l0 -1.28125zm16.683594 7.265625l0.515625 3.09375q-1.484375 0.328125 -2.65625 0.328125q-1.921875 0 -2.984375 -0.609375q-1.046875 -0.609375 -1.484375 -1.59375q-0.421875 -0.984375 -0.421875 -4.15625l0 -11.9375l-2.578125 0l0 -2.734375l2.578125 0l0 -5.1249695l3.5 -2.109375l0 7.2343445l3.53125 0l0 2.734375l-3.53125 0l0 12.140625q0 1.5 0.1875 1.9375q0.1875 0.421875 0.59375 0.671875q0.421875 0.25 1.203125 0.25q0.59375 0 1.546875 -0.125zm13.2421875 -7.234375q0 -5.765625 3.203125 -8.53125q2.671875 -2.3125 6.53125 -2.3125q4.265625 0 6.984375 2.8125q2.71875 2.796875 2.71875 7.734375q0 4.015625 -1.203125 6.3125q-1.203125 2.28125 -3.5 3.5625q-2.296875 1.265625 -5.0 1.265625q-4.359375 0 -7.046875 -2.796875q-2.6875 -2.796875 -2.6875 -8.046875zm3.609375 0q0 3.984375 1.734375 5.96875q1.75 1.984375 4.390625 1.984375q2.609375 0 4.34375 -1.984375q1.75 -2.0 1.75 -6.078125q0 -3.859375 -1.75 -5.828125q-1.75 -1.984375 -4.34375 -1.984375q-2.640625 0 -4.390625 1.96875q-1.734375 1.96875 -1.734375 5.953125zm33.54297 10.375l0 -3.046875q-2.421875 3.515625 -6.578125 3.515625q-1.84375 0 -3.4375 -0.703125q-1.59375 -0.703125 -2.359375 -1.765625q-0.765625 -1.0625 -1.078125 -2.609375q-0.21875 -1.03125 -0.21875 -3.28125l0 -12.859375l3.515625 0l0 11.515625q0 2.75 0.21875 3.703125q0.328125 1.390625 1.390625 2.1875q1.078125 0.78125 2.671875 0.78125q1.578125 0 2.953125 -0.8125q1.390625 -0.8125 1.96875 -2.203125q0.578125 -1.390625 0.578125 -4.046875l0 -11.125l3.515625 0l0 20.75l-3.140625 0zm16.324219 -3.140625l0.515625 3.09375q-1.484375 0.328125 -2.65625 0.328125q-1.921875 0 -2.984375 -0.609375q-1.046875 -0.609375 -1.484375 -1.59375q-0.421875 -0.984375 -0.421875 -4.15625l0 -11.9375l-2.578125 0l0 -2.734375l2.578125 0l0 -5.1249695l3.5 -2.109375l0 7.2343445l3.53125 0l0 2.734375l-3.53125 0l0 12.140625q0 1.5 0.1875 1.9375q0.1875 0.421875 0.59375 0.671875q0.421875 0.25 1.203125 0.25q0.59375 0 1.546875 -0.125zm16.972656 -4.453125l3.453125 0.4375q-0.5625 3.578125 -2.90625 5.609375q-2.328125 2.015625 -5.71875 2.015625q-4.265625 0 -6.859375 -2.78125q-2.578125 -2.78125 -2.578125 -7.984375q0 -3.359375 1.109375 -5.875q1.125 -2.515625 3.390625 -3.78125q2.28125 -1.265625 4.953125 -1.265625q3.375 0 5.515625 1.71875q2.15625 1.703125 2.765625 4.84375l-3.421875 0.53125q-0.484375 -2.09375 -1.734375 -3.140625q-1.234375 -1.0625 -2.984375 -1.0625q-2.65625 0 -4.328125 1.90625q-1.65625 1.90625 -1.65625 6.03125q0 4.171875 1.59375 6.078125q1.609375 1.890625 4.1875 1.890625q2.078125 0 3.453125 -1.265625q1.390625 -1.28125 1.765625 -3.90625zm5.15625 -2.78125q0 -5.765625 3.203125 -8.53125q2.671875 -2.3125 6.53125 -2.3125q4.265625 0 6.984375 2.8125q2.71875 2.796875 2.71875 7.734375q0 4.015625 -1.203125 6.3125q-1.203125 2.28125 -3.5 3.5625q-2.296875 1.265625 -5.0 1.265625q-4.359375 0 -7.046875 -2.796875q-2.6875 -2.796875 -2.6875 -8.046875zm3.609375 0q0 3.984375 1.734375 5.96875q1.75 1.984375 4.390625 1.984375q2.609375 0 4.34375 -1.984375q1.75 -2.0 1.75 -6.078125q0 -3.859375 -1.75 -5.828125q-1.75 -1.984375 -4.34375 -1.984375q-2.640625 0 -4.390625 1.96875q-1.734375 1.96875 -1.734375 5.953125zm19.949219 10.375l0 -20.75l3.140625 0l0 2.921875q0.984375 -1.53125 2.59375 -2.453125q1.625 -0.9375 3.703125 -0.9375q2.296875 0 3.765625 0.96875q1.484375 0.953125 2.09375 2.671875q2.453125 -3.640625 6.40625 -3.640625q3.078125 0 4.734375 1.71875q1.671875 1.703125 1.671875 5.265625l0 14.234375l-3.5 0l0 -13.0625q0 -2.109375 -0.34375 -3.03125q-0.34375 -0.9375 -1.25 -1.5q-0.890625 -0.578125 -2.09375 -0.578125q-2.1875 0 -3.640625 1.46875q-1.4375 1.453125 -1.4375 4.65625l0 12.046875l-3.515625 0l0 -13.484375q0 -2.34375 -0.859375 -3.515625q-0.859375 -1.171875 -2.8125 -1.171875q-1.484375 0 -2.75 0.78125q-1.265625 0.78125 -1.828125 2.296875q-0.5625 1.5 -0.5625 4.328125l0 10.765625l-3.515625 0zm47.523438 -6.6875l3.625 0.453125q-0.859375 3.1875 -3.1875 4.953125q-2.3125 1.75 -5.9375 1.75q-4.546875 0 -7.21875 -2.796875q-2.65625 -2.8125 -2.65625 -7.875q0 -5.234375 2.6875 -8.125q2.703125 -2.890625 7.0 -2.890625q4.15625 0 6.796875 2.84375q2.640625 2.828125 2.640625 7.96875q0 0.3125 -0.03125 0.9375l-15.46875 0q0.203125 3.40625 1.9375 5.234375q1.734375 1.8125 4.34375 1.8125q1.921875 0 3.28125 -1.015625q1.375 -1.015625 2.1875 -3.25zm-11.546875 -5.671875l11.578125 0q-0.234375 -2.625 -1.328125 -3.9375q-1.671875 -2.03125 -4.359375 -2.03125q-2.421875 0 -4.078125 1.625q-1.640625 1.625 -1.8125 4.34375zm18.183594 6.171875l3.46875 -0.546875q0.296875 2.078125 1.625 3.203125q1.34375 1.109375 3.75 1.109375q2.421875 0 3.59375 -0.984375q1.171875 -0.984375 1.171875 -2.3125q0 -1.203125 -1.03125 -1.875q-0.71875 -0.46875 -3.59375 -1.203125q-3.875 -0.96875 -5.375 -1.671875q-1.484375 -0.71875 -2.265625 -1.984375q-0.765625 -1.265625 -0.765625 -2.78125q0 -1.390625 0.640625 -2.5625q0.640625 -1.1875 1.734375 -1.96875q0.8125 -0.609375 2.21875 -1.03125q1.421875 -0.421875 3.046875 -0.421875q2.4375 0 4.28125 0.703125q1.859375 0.703125 2.734375 1.90625q0.875 1.203125 1.203125 3.21875l-3.4375 0.46875q-0.234375 -1.609375 -1.359375 -2.5q-1.109375 -0.90625 -3.171875 -0.90625q-2.421875 0 -3.453125 0.8125q-1.03125 0.796875 -1.03125 1.875q0 0.671875 0.421875 1.21875q0.4375 0.578125 1.359375 0.9375q0.515625 0.203125 3.09375 0.90625q3.734375 1.0 5.203125 1.640625q1.484375 0.625 2.3125 1.84375q0.84375 1.203125 0.84375 3.0q0 1.75 -1.03125 3.3125q-1.015625 1.546875 -2.953125 2.40625q-1.921875 0.84375 -4.375 0.84375q-4.03125 0 -6.15625 -1.671875q-2.125 -1.6875 -2.703125 -4.984375zm46.05078 3.625q-1.953125 1.65625 -3.765625 2.34375q-1.796875 0.6875 -3.875 0.6875q-3.40625 0 -5.25 -1.671875q-1.828125 -1.671875 -1.828125 -4.265625q0 -1.53125 0.6875 -2.78125q0.6875 -1.265625 1.8125 -2.015625q1.125 -0.765625 2.53125 -1.15625q1.03125 -0.28125 3.125 -0.53125q4.265625 -0.515625 6.265625 -1.21875q0.03125 -0.71875 0.03125 -0.90625q0 -2.15625 -1.0 -3.03125q-1.34375 -1.1875 -4.0 -1.1875q-2.484375 0 -3.671875 0.875q-1.171875 0.859375 -1.75 3.0625l-3.4375 -0.46875q0.46875 -2.203125 1.546875 -3.5625q1.078125 -1.359375 3.109375 -2.09375q2.03125 -0.734375 4.703125 -0.734375q2.65625 0 4.3125 0.625q1.671875 0.625 2.453125 1.578125q0.78125 0.953125 1.09375 2.390625q0.171875 0.90625 0.171875 3.25l0 4.6875q0 4.890625 0.21875 6.203125q0.234375 1.296875 0.890625 2.484375l-3.671875 0q-0.546875 -1.09375 -0.703125 -2.5625zm-0.296875 -7.84375q-1.90625 0.78125 -5.734375 1.328125q-2.171875 0.3125 -3.078125 0.703125q-0.890625 0.390625 -1.375 1.140625q-0.484375 0.75 -0.484375 1.671875q0 1.40625 1.0625 2.34375q1.0625 0.9375 3.109375 0.9375q2.03125 0 3.609375 -0.890625q1.59375 -0.890625 2.328125 -2.4375q0.5625 -1.1875 0.5625 -3.515625l0 -1.28125zm8.964844 10.40625l0 -20.75l3.171875 0l0 3.15625q1.203125 -2.21875 2.234375 -2.921875q1.03125 -0.703125 2.25 -0.703125q1.78125 0 3.625 1.140625l-1.21875 3.265625q-1.28125 -0.765625 -2.578125 -0.765625q-1.15625 0 -2.078125 0.703125q-0.90625 0.6875 -1.296875 1.90625q-0.59375 1.875 -0.59375 4.109375l0 10.859375l-3.515625 0zm27.570312 -6.6875l3.625 0.453125q-0.859375 3.1875 -3.1875 4.953125q-2.3125 1.75 -5.9375 1.75q-4.546875 0 -7.21875 -2.796875q-2.65625 -2.8125 -2.65625 -7.875q0 -5.234375 2.6875 -8.125q2.703125 -2.890625 7.0 -2.890625q4.15625 0 6.796875 2.84375q2.640625 2.828125 2.640625 7.96875q0 0.3125 -0.03125 0.9375l-15.46875 0q0.203125 3.40625 1.9375 5.234375q1.734375 1.8125 4.34375 1.8125q1.921875 0 3.28125 -1.015625q1.375 -1.015625 2.1875 -3.25zm-11.546875 -5.671875l11.578125 0q-0.234375 -2.625 -1.328125 -3.9375q-1.671875 -2.03125 -4.359375 -2.03125q-2.421875 0 -4.078125 1.625q-1.640625 1.625 -1.8125 4.34375zm30.546875 20.34375l-0.390625 -3.296875q1.15625 0.3125 2.015625 0.3125q1.171875 0 1.875 -0.390625q0.703125 -0.390625 1.140625 -1.09375q0.34375 -0.53125 1.078125 -2.609375q0.09375 -0.296875 0.3125 -0.859375l-7.875 -20.796875l3.796875 0l4.3125 12.015625q0.84375 2.28125 1.5 4.8125q0.609375 -2.421875 1.453125 -4.734375l4.4375 -12.09375l3.515625 0l-7.890625 21.109375q-1.28125 3.40625 -1.984375 4.703125q-0.9375 1.734375 -2.15625 2.546875q-1.203125 0.8125 -2.875 0.8125q-1.015625 0 -2.265625 -0.4375zm18.84375 -18.359375q0 -5.765625 3.203125 -8.53125q2.671875 -2.3125 6.53125 -2.3125q4.265625 0 6.984375 2.8125q2.71875 2.796875 2.71875 7.734375q0 4.015625 -1.203125 6.3125q-1.203125 2.28125 -3.5 3.5625q-2.296875 1.265625 -5.0 1.265625q-4.359375 0 -7.046875 -2.796875q-2.6875 -2.796875 -2.6875 -8.046875zm3.609375 0q0 3.984375 1.734375 5.96875q1.75 1.984375 4.390625 1.984375q2.609375 0 4.34375 -1.984375q1.75 -2.0 1.75 -6.078125q0 -3.859375 -1.75 -5.828125q-1.75 -1.984375 -4.34375 -1.984375q-2.640625 0 -4.390625 1.96875q-1.734375 1.96875 -1.734375 5.953125zm33.54297 10.375l0 -3.046875q-2.421875 3.515625 -6.578125 3.515625q-1.84375 0 -3.4375 -0.703125q-1.59375 -0.703125 -2.359375 -1.765625q-0.765625 -1.0625 -1.078125 -2.609375q-0.21875 -1.03125 -0.21875 -3.28125l0 -12.859375l3.515625 0l0 11.515625q0 2.75 0.21875 3.703125q0.328125 1.390625 1.390625 2.1875q1.078125 0.78125 2.671875 0.78125q1.578125 0 2.953125 -0.8125q1.390625 -0.8125 1.96875 -2.203125q0.578125 -1.390625 0.578125 -4.046875l0 -11.125l3.515625 0l0 20.75l-3.140625 0zm19.765625 0l0 -28.640594l3.515625 0l0 10.2812195q2.453125 -2.859375 6.203125 -2.859375q2.3125 0 4.0 0.921875q1.703125 0.90625 2.4375 2.515625q0.734375 1.59375 0.734375 4.640625l0 13.140625l-3.515625 0l0 -13.140625q0 -2.640625 -1.140625 -3.84375q-1.140625 -1.203125 -3.234375 -1.203125q-1.5625 0 -2.9375 0.8125q-1.375 0.8125 -1.96875 2.203125q-0.578125 1.375 -0.578125 3.828125l0 11.34375l-3.515625 0zm20.933594 -10.375q0 -5.765625 3.203125 -8.53125q2.671875 -2.3125 6.53125 -2.3125q4.265625 0 6.984375 2.8125q2.71875 2.796875 2.71875 7.734375q0 4.015625 -1.203125 6.3125q-1.203125 2.28125 -3.5 3.5625q-2.296875 1.265625 -5.0 1.265625q-4.359375 0 -7.046875 -2.796875q-2.6875 -2.796875 -2.6875 -8.046875zm3.609375 0q0 3.984375 1.734375 5.96875q1.75 1.984375 4.390625 1.984375q2.609375 0 4.34375 -1.984375q1.75 -2.0 1.75 -6.078125q0 -3.859375 -1.75 -5.828125q-1.75 -1.984375 -4.34375 -1.984375q-2.640625 0 -4.390625 1.96875q-1.734375 1.96875 -1.734375 5.953125zm19.949219 18.328125l0 -28.703125l3.203125 0l0 2.703125q1.125 -1.578125 2.546875 -2.375q1.4375 -0.796875 3.46875 -0.796875q2.65625 0 4.6875 1.375q2.03125 1.359375 3.0625 3.859375q1.03125 2.484375 1.03125 5.453125q0 3.1875 -1.140625 5.734375q-1.140625 2.546875 -3.328125 3.90625q-2.171875 1.359375 -4.5625 1.359375q-1.765625 0 -3.171875 -0.734375q-1.390625 -0.75 -2.28125 -1.890625l0 10.109375l-3.515625 0zm3.1875 -18.203125q0 4.0 1.609375 5.921875q1.625 1.90625 3.9375 1.90625q2.34375 0 4.0 -1.984375q1.671875 -1.984375 1.671875 -6.140625q0 -3.96875 -1.625 -5.9375q-1.625 -1.96875 -3.890625 -1.96875q-2.25 0 -3.984375 2.09375q-1.71875 2.09375 -1.71875 6.109375zm19.074219 -14.3437195l0 -4.046875l3.515625 0l0 4.046875l-3.515625 0zm0 24.59372l0 -20.75l3.515625 0l0 20.75l-3.515625 0zm8.871094 0l0 -20.75l3.15625 0l0 2.953125q2.296875 -3.421875 6.609375 -3.421875q1.875 0 3.4375 0.6875q1.578125 0.671875 2.359375 1.765625q0.78125 1.09375 1.09375 2.59375q0.203125 0.96875 0.203125 3.421875l0 12.75l-3.515625 0l0 -12.625q0 -2.140625 -0.421875 -3.203125q-0.40625 -1.0625 -1.453125 -1.703125q-1.046875 -0.640625 -2.453125 -0.640625q-2.234375 0 -3.875 1.4375q-1.625 1.421875 -1.625 5.40625l0 11.328125l-3.515625 0zm21.605469 1.71875l3.40625 0.515625q0.21875 1.578125 1.203125 2.296875q1.296875 0.984375 3.5625 0.984375q2.453125 0 3.78125 -0.984375q1.328125 -0.96875 1.796875 -2.734375q0.265625 -1.078125 0.25 -4.515625q-2.3125 2.71875 -5.75 2.71875q-4.265625 0 -6.609375 -3.078125q-2.34375 -3.09375 -2.34375 -7.40625q0 -2.96875 1.0625 -5.484375q1.078125 -2.515625 3.109375 -3.875q2.046875 -1.375 4.8125 -1.375q3.671875 0 6.046875 2.96875l0 -2.5l3.25 0l0 17.9375q0 4.84375 -1.0 6.859375q-0.984375 2.03125 -3.125 3.203125q-2.125 1.171875 -5.25 1.171875q-3.71875 0 -6.0 -1.671875q-2.28125 -1.671875 -2.203125 -5.03125zm2.90625 -12.46875q0 4.09375 1.609375 5.96875q1.625 1.875 4.078125 1.875q2.421875 0 4.0625 -1.859375q1.640625 -1.875 1.640625 -5.859375q0 -3.8125 -1.703125 -5.734375q-1.6875 -1.9375 -4.0625 -1.9375q-2.34375 0 -3.984375 1.90625q-1.640625 1.890625 -1.640625 5.640625zm31.9375 10.75l0 -18.015625l-3.109375 0l0 -2.734375l3.109375 0l0 -2.2030945q0 -2.09375 0.359375 -3.109375q0.515625 -1.359375 1.796875 -2.203125q1.28125 -0.859375 3.578125 -0.859375q1.484375 0 3.28125 0.359375l-0.53125 3.0625q-1.09375 -0.203125 -2.0625 -0.203125q-1.609375 0 -2.28125 0.6875q-0.65625 0.6875 -0.65625 2.5625l0 1.9062195l4.046875 0l0 2.734375l-4.046875 0l0 18.015625l-3.484375 0zm8.957031 -10.375q0 -5.765625 3.203125 -8.53125q2.671875 -2.3125 6.53125 -2.3125q4.265625 0 6.984375 2.8125q2.71875 2.796875 2.71875 7.734375q0 4.015625 -1.203125 6.3125q-1.203125 2.28125 -3.5 3.5625q-2.296875 1.265625 -5.0 1.265625q-4.359375 0 -7.046875 -2.796875q-2.6875 -2.796875 -2.6875 -8.046875zm3.609375 0q0 3.984375 1.734375 5.96875q1.75 1.984375 4.390625 1.984375q2.609375 0 4.34375 -1.984375q1.75 -2.0 1.75 -6.078125q0 -3.859375 -1.75 -5.828125q-1.75 -1.984375 -4.34375 -1.984375q-2.640625 0 -4.390625 1.96875q-1.734375 1.96875 -1.734375 5.953125zm19.902344 10.375l0 -20.75l3.171875 0l0 3.15625q1.203125 -2.21875 2.234375 -2.921875q1.03125 -0.703125 2.25 -0.703125q1.78125 0 3.625 1.140625l-1.21875 3.265625q-1.28125 -0.765625 -2.578125 -0.765625q-1.15625 0 -2.078125 0.703125q-0.90625 0.6875 -1.296875 1.90625q-0.59375 1.875 -0.59375 4.109375l0 10.859375l-3.515625 0zm19.945312 -7.046875q-0.015625 -0.703125 -0.015625 -1.0625q0 -2.0625 0.578125 -3.578125q0.4375 -1.125 1.390625 -2.28125q0.703125 -0.84375 2.53125 -2.453125q1.828125 -1.609375 2.375 -2.5625q0.546875 -0.953125 0.546875 -2.09375q0 -2.0468445 -1.609375 -3.5937195q-1.59375 -1.5625 -3.921875 -1.5625q-2.25 0 -3.75 1.40625q-1.5 1.40625 -1.96875 4.3905945l-3.609375 -0.421875q0.484375 -3.9999695 2.890625 -6.1249695q2.421875 -2.140625 6.375 -2.140625q4.203125 0 6.703125 2.296875q2.5 2.28125 2.5 5.5155945q0 1.875 -0.875 3.46875q-0.875 1.578125 -3.4375 3.84375q-1.71875 1.515625 -2.25 2.25q-0.53125 0.71875 -0.78125 1.65625q-0.25 0.9375 -0.296875 3.046875l-3.375 0zm-0.21875 7.046875l0 -4.0l4.015625 0l0 4.0l-4.015625 0z" fill-rule="nonzero"></path><path fill="#000000" d="m94.06488 629.3606l-7.609375 -28.640625l3.890625 0l4.359375 18.78125q0.703125 2.9375 1.203125 5.859375q1.09375 -4.59375 1.296875 -5.296875l5.453125 -19.34375l4.5625 0l4.109375 14.5q1.53125 5.390625 2.21875 10.140625q0.546875 -2.71875 1.421875 -6.234375l4.5 -18.40625l3.8125 0l-7.859375 28.640625l-3.65625 0l-6.03125 -21.8125q-0.765625 -2.734375 -0.890625 -3.359375q-0.453125 1.96875 -0.84375 3.359375l-6.078125 21.8125l-3.859375 0zm32.30078 0l0 -28.640625l3.515625 0l0 10.28125q2.453125 -2.859375 6.203125 -2.859375q2.3125 0 4.0 0.921875q1.703125 0.90625 2.4375 2.515625q0.734375 1.59375 0.734375 4.640625l0 13.140625l-3.515625 0l0 -13.140625q0 -2.640625 -1.140625 -3.84375q-1.140625 -1.203125 -3.234375 -1.203125q-1.5625 0 -2.9375 0.8125q-1.375 0.8125 -1.96875 2.203125q-0.578125 1.375 -0.578125 3.828125l0 11.34375l-3.515625 0zm35.777344 -2.5625q-1.953125 1.65625 -3.765625 2.34375q-1.796875 0.6875 -3.875 0.6875q-3.40625 0 -5.25 -1.671875q-1.828125 -1.671875 -1.828125 -4.265625q0 -1.53125 0.6875 -2.78125q0.6875 -1.265625 1.8125 -2.015625q1.125 -0.765625 2.53125 -1.15625q1.03125 -0.28125 3.125 -0.53125q4.265625 -0.515625 6.265625 -1.21875q0.03125 -0.71875 0.03125 -0.90625q0 -2.15625 -1.0 -3.03125q-1.34375 -1.1875 -4.0 -1.1875q-2.484375 0 -3.671875 0.875q-1.171875 0.859375 -1.75 3.0625l-3.4375 -0.46875q0.46875 -2.203125 1.546875 -3.5625q1.078125 -1.359375 3.109375 -2.09375q2.03125 -0.734375 4.703125 -0.734375q2.65625 0 4.3125 0.625q1.671875 0.625 2.453125 1.578125q0.78125 0.953125 1.09375 2.390625q0.171875 0.90625 0.171875 3.25l0 4.6875q0 4.890625 0.21875 6.203125q0.234375 1.296875 0.890625 2.484375l-3.671875 0q-0.546875 -1.09375 -0.703125 -2.5625zm-0.296875 -7.84375q-1.90625 0.78125 -5.734375 1.328125q-2.171875 0.3125 -3.078125 0.703125q-0.890625 0.390625 -1.375 1.140625q-0.484375 0.75 -0.484375 1.671875q0 1.40625 1.0625 2.34375q1.0625 0.9375 3.109375 0.9375q2.03125 0 3.609375 -0.890625q1.59375 -0.890625 2.328125 -2.4375q0.5625 -1.1875 0.5625 -3.515625l0 -1.28125zm16.683594 7.265625l0.515625 3.09375q-1.484375 0.328125 -2.65625 0.328125q-1.921875 0 -2.984375 -0.609375q-1.046875 -0.609375 -1.484375 -1.59375q-0.421875 -0.984375 -0.421875 -4.15625l0 -11.9375l-2.578125 0l0 -2.734375l2.578125 0l0 -5.125l3.5 -2.109375l0 7.234375l3.53125 0l0 2.734375l-3.53125 0l0 12.140625q0 1.5 0.1875 1.9375q0.1875 0.421875 0.59375 0.671875q0.421875 0.25 1.203125 0.25q0.59375 0 1.546875 -0.125zm13.1484375 -3.046875l3.46875 -0.546875q0.296875 2.078125 1.625 3.203125q1.34375 1.109375 3.75 1.109375q2.421875 0 3.59375 -0.984375q1.171875 -0.984375 1.171875 -2.3125q0 -1.203125 -1.03125 -1.875q-0.71875 -0.46875 -3.59375 -1.203125q-3.875 -0.96875 -5.375 -1.671875q-1.484375 -0.71875 -2.265625 -1.984375q-0.765625 -1.265625 -0.765625 -2.78125q0 -1.390625 0.640625 -2.5625q0.640625 -1.1875 1.734375 -1.96875q0.8125 -0.609375 2.21875 -1.03125q1.421875 -0.421875 3.046875 -0.421875q2.4375 0 4.28125 0.703125q1.859375 0.703125 2.734375 1.90625q0.875 1.203125 1.203125 3.21875l-3.4375 0.46875q-0.234375 -1.609375 -1.359375 -2.5q-1.109375 -0.90625 -3.171875 -0.90625q-2.421875 0 -3.453125 0.8125q-1.03125 0.796875 -1.03125 1.875q0 0.671875 0.421875 1.21875q0.4375 0.578125 1.359375 0.9375q0.515625 0.203125 3.09375 0.90625q3.734375 1.0 5.203125 1.640625q1.484375 0.625 2.3125 1.84375q0.84375 1.203125 0.84375 3.0q0 1.75 -1.03125 3.3125q-1.015625 1.546875 -2.953125 2.40625q-1.921875 0.84375 -4.375 0.84375q-4.03125 0 -6.15625 -1.671875q-2.125 -1.6875 -2.703125 -4.984375zm29.078125 3.046875l0.515625 3.09375q-1.484375 0.328125 -2.65625 0.328125q-1.921875 0 -2.984375 -0.609375q-1.046875 -0.609375 -1.484375 -1.59375q-0.421875 -0.984375 -0.421875 -4.15625l0 -11.9375l-2.578125 0l0 -2.734375l2.578125 0l0 -5.125l3.5 -2.109375l0 7.234375l3.53125 0l0 2.734375l-3.53125 0l0 12.140625q0 1.5 0.1875 1.9375q0.1875 0.421875 0.59375 0.671875q0.421875 0.25 1.203125 0.25q0.59375 0 1.546875 -0.125zm2.1289062 -7.234375q0 -5.765625 3.203125 -8.53125q2.671875 -2.3125 6.53125 -2.3125q4.265625 0 6.984375 2.8125q2.71875 2.796875 2.71875 7.734375q0 4.015625 -1.203125 6.3125q-1.203125 2.28125 -3.5 3.5625q-2.296875 1.265625 -5.0 1.265625q-4.359375 0 -7.046875 -2.796875q-2.6875 -2.796875 -2.6875 -8.046875zm3.609375 0q0 3.984375 1.734375 5.96875q1.75 1.984375 4.390625 1.984375q2.609375 0 4.34375 -1.984375q1.75 -2.0 1.75 -6.078125q0 -3.859375 -1.75 -5.828125q-1.75 -1.984375 -4.34375 -1.984375q-2.640625 0 -4.390625 1.96875q-1.734375 1.96875 -1.734375 5.953125zm19.902344 10.375l0 -20.75l3.171875 0l0 3.15625q1.203125 -2.21875 2.234375 -2.921875q1.03125 -0.703125 2.25 -0.703125q1.78125 0 3.625 1.140625l-1.21875 3.265625q-1.28125 -0.765625 -2.578125 -0.765625q-1.15625 0 -2.078125 0.703125q-0.90625 0.6875 -1.296875 1.90625q-0.59375 1.875 -0.59375 4.109375l0 10.859375l-3.515625 0zm13.2109375 7.984375l-0.390625 -3.296875q1.15625 0.3125 2.015625 0.3125q1.171875 0 1.875 -0.390625q0.703125 -0.390625 1.140625 -1.09375q0.34375 -0.53125 1.078125 -2.609375q0.09375 -0.296875 0.3125 -0.859375l-7.875 -20.796875l3.796875 0l4.3125 12.015625q0.84375 2.28125 1.5 4.8125q0.609375 -2.421875 1.453125 -4.734375l4.4375 -12.09375l3.515625 0l-7.890625 21.109375q-1.28125 3.40625 -1.984375 4.703125q-0.9375 1.734375 -2.15625 2.546875q-1.203125 0.8125 -2.875 0.8125q-1.015625 0 -2.265625 -0.4375zm44.80078 -15.578125l3.453125 0.4375q-0.5625 3.578125 -2.90625 5.609375q-2.328125 2.015625 -5.71875 2.015625q-4.265625 0 -6.859375 -2.78125q-2.578125 -2.78125 -2.578125 -7.984375q0 -3.359375 1.109375 -5.875q1.125 -2.515625 3.390625 -3.78125q2.28125 -1.265625 4.953125 -1.265625q3.375 0 5.515625 1.71875q2.15625 1.703125 2.765625 4.84375l-3.421875 0.53125q-0.484375 -2.09375 -1.734375 -3.140625q-1.234375 -1.0625 -2.984375 -1.0625q-2.65625 0 -4.328125 1.90625q-1.65625 1.90625 -1.65625 6.03125q0 4.171875 1.59375 6.078125q1.609375 1.890625 4.1875 1.890625q2.078125 0 3.453125 -1.265625q1.390625 -1.28125 1.765625 -3.90625zm5.15625 -2.78125q0 -5.765625 3.203125 -8.53125q2.671875 -2.3125 6.53125 -2.3125q4.265625 0 6.984375 2.8125q2.71875 2.796875 2.71875 7.734375q0 4.015625 -1.203125 6.3125q-1.203125 2.28125 -3.5 3.5625q-2.296875 1.265625 -5.0 1.265625q-4.359375 0 -7.046875 -2.796875q-2.6875 -2.796875 -2.6875 -8.046875zm3.609375 0q0 3.984375 1.734375 5.96875q1.75 1.984375 4.390625 1.984375q2.609375 0 4.34375 -1.984375q1.75 -2.0 1.75 -6.078125q0 -3.859375 -1.75 -5.828125q-1.75 -1.984375 -4.34375 -1.984375q-2.640625 0 -4.390625 1.96875q-1.734375 1.96875 -1.734375 5.953125zm33.54297 10.375l0 -3.046875q-2.421875 3.515625 -6.578125 3.515625q-1.84375 0 -3.4375 -0.703125q-1.59375 -0.703125 -2.359375 -1.765625q-0.765625 -1.0625 -1.078125 -2.609375q-0.21875 -1.03125 -0.21875 -3.28125l0 -12.859375l3.515625 0l0 11.515625q0 2.75 0.21875 3.703125q0.328125 1.390625 1.390625 2.1875q1.078125 0.78125 2.671875 0.78125q1.578125 0 2.953125 -0.8125q1.390625 -0.8125 1.96875 -2.203125q0.578125 -1.390625 0.578125 -4.046875l0 -11.125l3.515625 0l0 20.75l-3.140625 0zm8.574219 0l0 -28.640625l3.515625 0l0 28.640625l-3.515625 0zm22.417969 0l0 -2.625q-1.96875 3.09375 -5.796875 3.09375q-2.484375 0 -4.5625 -1.359375q-2.078125 -1.375 -3.21875 -3.828125q-1.140625 -2.453125 -1.140625 -5.640625q0 -3.09375 1.03125 -5.625q1.03125 -2.53125 3.09375 -3.875q2.078125 -1.359375 4.640625 -1.359375q1.875 0 3.328125 0.796875q1.46875 0.796875 2.390625 2.0625l0 -10.28125l3.5 0l0 28.640625l-3.265625 0zm-11.109375 -10.359375q0 3.984375 1.671875 5.96875q1.6875 1.96875 3.96875 1.96875q2.3125 0 3.921875 -1.875q1.609375 -1.890625 1.609375 -5.765625q0 -4.25 -1.640625 -6.234375q-1.640625 -2.0 -4.046875 -2.0q-2.34375 0 -3.921875 1.921875q-1.5625 1.90625 -1.5625 6.015625zm30.859375 18.34375l-0.390625 -3.296875q1.15625 0.3125 2.015625 0.3125q1.171875 0 1.875 -0.390625q0.703125 -0.390625 1.140625 -1.09375q0.34375 -0.53125 1.078125 -2.609375q0.09375 -0.296875 0.3125 -0.859375l-7.875 -20.796875l3.796875 0l4.3125 12.015625q0.84375 2.28125 1.5 4.8125q0.609375 -2.421875 1.453125 -4.734375l4.4375 -12.09375l3.515625 0l-7.890625 21.109375q-1.28125 3.40625 -1.984375 4.703125q-0.9375 1.734375 -2.15625 2.546875q-1.203125 0.8125 -2.875 0.8125q-1.015625 0 -2.265625 -0.4375zm18.84375 -18.359375q0 -5.765625 3.203125 -8.53125q2.671875 -2.3125 6.53125 -2.3125q4.265625 0 6.984375 2.8125q2.71875 2.796875 2.71875 7.734375q0 4.015625 -1.203125 6.3125q-1.203125 2.28125 -3.5 3.5625q-2.296875 1.265625 -5.0 1.265625q-4.359375 0 -7.046875 -2.796875q-2.6875 -2.796875 -2.6875 -8.046875zm3.609375 0q0 3.984375 1.734375 5.96875q1.75 1.984375 4.390625 1.984375q2.609375 0 4.34375 -1.984375q1.75 -2.0 1.75 -6.078125q0 -3.859375 -1.75 -5.828125q-1.75 -1.984375 -4.34375 -1.984375q-2.640625 0 -4.390625 1.96875q-1.734375 1.96875 -1.734375 5.953125zm33.54297 10.375l0 -3.046875q-2.421875 3.515625 -6.578125 3.515625q-1.84375 0 -3.4375 -0.703125q-1.59375 -0.703125 -2.359375 -1.765625q-0.765625 -1.0625 -1.078125 -2.609375q-0.21875 -1.03125 -0.21875 -3.28125l0 -12.859375l3.515625 0l0 11.515625q0 2.75 0.21875 3.703125q0.328125 1.390625 1.390625 2.1875q1.078125 0.78125 2.671875 0.78125q1.578125 0 2.953125 -0.8125q1.390625 -0.8125 1.96875 -2.203125q0.578125 -1.390625 0.578125 -4.046875l0 -11.125l3.515625 0l0 20.75l-3.140625 0zm8.605469 0l0 -20.75l3.171875 0l0 3.15625q1.203125 -2.21875 2.234375 -2.921875q1.03125 -0.703125 2.25 -0.703125q1.78125 0 3.625 1.140625l-1.21875 3.265625q-1.28125 -0.765625 -2.578125 -0.765625q-1.15625 0 -2.078125 0.703125q-0.90625 0.6875 -1.296875 1.90625q-0.59375 1.875 -0.59375 4.109375l0 10.859375l-3.515625 0zm37.933594 0l0 -2.625q-1.96875 3.09375 -5.796875 3.09375q-2.484375 0 -4.5625 -1.359375q-2.078125 -1.375 -3.21875 -3.828125q-1.140625 -2.453125 -1.140625 -5.640625q0 -3.09375 1.03125 -5.625q1.03125 -2.53125 3.09375 -3.875q2.078125 -1.359375 4.640625 -1.359375q1.875 0 3.328125 0.796875q1.46875 0.796875 2.390625 2.0625l0 -10.28125l3.5 0l0 28.640625l-3.265625 0zm-11.109375 -10.359375q0 3.984375 1.671875 5.96875q1.6875 1.96875 3.96875 1.96875q2.3125 0 3.921875 -1.875q1.609375 -1.890625 1.609375 -5.765625q0 -4.25 -1.640625 -6.234375q-1.640625 -2.0 -4.046875 -2.0q-2.34375 0 -3.921875 1.921875q-1.5625 1.90625 -1.5625 6.015625zm33.433594 7.796875q-1.953125 1.65625 -3.765625 2.34375q-1.796875 0.6875 -3.875 0.6875q-3.40625 0 -5.25 -1.671875q-1.828125 -1.671875 -1.828125 -4.265625q0 -1.53125 0.6875 -2.78125q0.6875 -1.265625 1.8125 -2.015625q1.125 -0.765625 2.53125 -1.15625q1.03125 -0.28125 3.125 -0.53125q4.265625 -0.515625 6.265625 -1.21875q0.03125 -0.71875 0.03125 -0.90625q0 -2.15625 -1.0 -3.03125q-1.34375 -1.1875 -4.0 -1.1875q-2.484375 0 -3.671875 0.875q-1.171875 0.859375 -1.75 3.0625l-3.4375 -0.46875q0.46875 -2.203125 1.546875 -3.5625q1.078125 -1.359375 3.109375 -2.09375q2.03125 -0.734375 4.703125 -0.734375q2.65625 0 4.3125 0.625q1.671875 0.625 2.453125 1.578125q0.78125 0.953125 1.09375 2.390625q0.171875 0.90625 0.171875 3.25l0 4.6875q0 4.890625 0.21875 6.203125q0.234375 1.296875 0.890625 2.484375l-3.671875 0q-0.546875 -1.09375 -0.703125 -2.5625zm-0.296875 -7.84375q-1.90625 0.78125 -5.734375 1.328125q-2.171875 0.3125 -3.078125 0.703125q-0.890625 0.390625 -1.375 1.140625q-0.484375 0.75 -0.484375 1.671875q0 1.40625 1.0625 2.34375q1.0625 0.9375 3.109375 0.9375q2.03125 0 3.609375 -0.890625q1.59375 -0.890625 2.328125 -2.4375q0.5625 -1.1875 0.5625 -3.515625l0 -1.28125zm16.683594 7.265625l0.515625 3.09375q-1.484375 0.328125 -2.65625 0.328125q-1.921875 0 -2.984375 -0.609375q-1.046875 -0.609375 -1.484375 -1.59375q-0.421875 -0.984375 -0.421875 -4.15625l0 -11.9375l-2.578125 0l0 -2.734375l2.578125 0l0 -5.125l3.5 -2.109375l0 7.234375l3.53125 0l0 2.734375l-3.53125 0l0 12.140625q0 1.5 0.1875 1.9375q0.1875 0.421875 0.59375 0.671875q0.421875 0.25 1.203125 0.25q0.59375 0 1.546875 -0.125zm16.972656 0.578125q-1.953125 1.65625 -3.765625 2.34375q-1.796875 0.6875 -3.875 0.6875q-3.40625 0 -5.25 -1.671875q-1.828125 -1.671875 -1.828125 -4.265625q0 -1.53125 0.6875 -2.78125q0.6875 -1.265625 1.8125 -2.015625q1.125 -0.765625 2.53125 -1.15625q1.03125 -0.28125 3.125 -0.53125q4.265625 -0.515625 6.265625 -1.21875q0.03125 -0.71875 0.03125 -0.90625q0 -2.15625 -1.0 -3.03125q-1.34375 -1.1875 -4.0 -1.1875q-2.484375 0 -3.671875 0.875q-1.171875 0.859375 -1.75 3.0625l-3.4375 -0.46875q0.46875 -2.203125 1.546875 -3.5625q1.078125 -1.359375 3.109375 -2.09375q2.03125 -0.734375 4.703125 -0.734375q2.65625 0 4.3125 0.625q1.671875 0.625 2.453125 1.578125q0.78125 0.953125 1.09375 2.390625q0.171875 0.90625 0.171875 3.25l0 4.6875q0 4.890625 0.21875 6.203125q0.234375 1.296875 0.890625 2.484375l-3.671875 0q-0.546875 -1.09375 -0.703125 -2.5625zm-0.296875 -7.84375q-1.90625 0.78125 -5.734375 1.328125q-2.171875 0.3125 -3.078125 0.703125q-0.890625 0.390625 -1.375 1.140625q-0.484375 0.75 -0.484375 1.671875q0 1.40625 1.0625 2.34375q1.0625 0.9375 3.109375 0.9375q2.03125 0 3.609375 -0.890625q1.59375 -0.890625 2.328125 -2.4375q0.5625 -1.1875 0.5625 -3.515625l0 -1.28125zm27.796875 7.265625l0.515625 3.09375q-1.484375 0.328125 -2.65625 0.328125q-1.921875 0 -2.984375 -0.609375q-1.046875 -0.609375 -1.484375 -1.59375q-0.421875 -0.984375 -0.421875 -4.15625l0 -11.9375l-2.578125 0l0 -2.734375l2.578125 0l0 -5.125l3.5 -2.109375l0 7.234375l3.53125 0l0 2.734375l-3.53125 0l0 12.140625q0 1.5 0.1875 1.9375q0.1875 0.421875 0.59375 0.671875q0.421875 0.25 1.203125 0.25q0.59375 0 1.546875 -0.125zm17.644531 -3.546875l3.625 0.453125q-0.859375 3.1875 -3.1875 4.953125q-2.3125 1.75 -5.9375 1.75q-4.546875 0 -7.21875 -2.796875q-2.65625 -2.8125 -2.65625 -7.875q0 -5.234375 2.6875 -8.125q2.703125 -2.890625 7.0 -2.890625q4.15625 0 6.796875 2.84375q2.640625 2.828125 2.640625 7.96875q0 0.3125 -0.03125 0.9375l-15.46875 0q0.203125 3.40625 1.9375 5.234375q1.734375 1.8125 4.34375 1.8125q1.921875 0 3.28125 -1.015625q1.375 -1.015625 2.1875 -3.25zm-11.546875 -5.671875l11.578125 0q-0.234375 -2.625 -1.328125 -3.9375q-1.671875 -2.03125 -4.359375 -2.03125q-2.421875 0 -4.078125 1.625q-1.640625 1.625 -1.8125 4.34375zm19.511719 12.359375l0 -28.640625l3.515625 0l0 28.640625l-3.515625 0zm8.886719 0l0 -28.640625l3.515625 0l0 28.640625l-3.515625 0zm15.542969 -7.046875q-0.015625 -0.703125 -0.015625 -1.0625q0 -2.0625 0.578125 -3.578125q0.4375 -1.125 1.390625 -2.28125q0.703125 -0.84375 2.53125 -2.453125q1.828125 -1.609375 2.375 -2.5625q0.546875 -0.953125 0.546875 -2.09375q0 -2.046875 -1.609375 -3.59375q-1.59375 -1.5625 -3.921875 -1.5625q-2.25 0 -3.75 1.40625q-1.5 1.40625 -1.96875 4.390625l-3.609375 -0.421875q0.484375 -4.0 2.890625 -6.125q2.421875 -2.140625 6.375 -2.140625q4.203125 0 6.703125 2.296875q2.5 2.28125 2.5 5.515625q0 1.875 -0.875 3.46875q-0.875 1.578125 -3.4375 3.84375q-1.71875 1.515625 -2.25 2.25q-0.53125 0.71875 -0.78125 1.65625q-0.25 0.9375 -0.296875 3.046875l-3.375 0zm-0.21875 7.046875l0 -4.0l4.015625 0l0 4.0l-4.015625 0z" fill-rule="nonzero"></path></g></svg>

