<?xml version="1.0" standalone="yes"?>

<svg version="1.1" viewBox="0.0 0.0 960.0 720.0" fill="none" stroke="none" stroke-linecap="square" stroke-miterlimit="10" xmlns="http://www.w3.org/2000/svg" xmlns:xlink="http://www.w3.org/1999/xlink"><clipPath id="p.0"><path d="m0 0l960.0 0l0 720.0l-960.0 0l0 -720.0z" clip-rule="nonzero"></path></clipPath><g clip-path="url(#p.0)"><path fill="#000000" fill-opacity="0.0" d="m0 0l960.0 0l0 720.0l-960.0 0z" fill-rule="nonzero"></path><path fill="#000000" fill-opacity="0.0" d="m50.43832 32.82677l881.41736 0l0 227.37007l-881.41736 0z" fill-rule="nonzero"></path><path fill="#000000" d="m298.51807 118.62677l0 -57.26563l7.578125 0l0 57.26563l-7.578125 0zm20.039062 0l0 -41.484375l6.328125 0l0 5.890625q4.5625 -6.828125 13.203125 -6.828125q3.75 0 6.890625 1.34375q3.140625 1.34375 4.703125 3.53125q1.5625 2.1875 2.1875 5.203125q0.390625 1.953125 0.390625 6.828125l0 25.515625l-7.03125 0l0 -25.234375q0 -4.296875 -0.828125 -6.421875q-0.8125 -2.140625 -2.90625 -3.40625q-2.078125 -1.265625 -4.890625 -1.265625q-4.5 0 -7.765625 2.859375q-3.25 2.84375 -3.25 10.8125l0 22.65625l-7.03125 0zm46.164062 0l0 -36.015625l-6.203125 0l0 -5.46875l6.203125 0l0 -4.421875q0 -4.171875 0.75 -6.203125q1.015625 -2.7343788 3.5625 -4.437504q2.5625 -1.703125 7.171875 -1.703125q2.96875 0 6.5625 0.703125l-1.046875 6.140629q-2.1875 -0.390625 -4.140625 -0.390625q-3.203125 0 -4.53125 1.375q-1.328125 1.359375 -1.328125 5.109375l0 3.828125l8.078125 0l0 5.46875l-8.078125 0l0 36.015625l-7.0 0zm17.929688 -20.75q0 -11.515625 6.40625 -17.0625q5.359375 -4.609375 13.046875 -4.609375q8.5625 0 13.984375 5.609375q5.4375 5.59375 5.4375 15.484375q0 8.0 -2.40625 12.59375q-2.40625 4.59375 -7.0 7.140625q-4.578125 2.53125 -10.015625 2.53125q-8.703125 0 -14.078125 -5.578125q-5.375 -5.59375 -5.375 -16.109375zm7.234375 0q0 7.96875 3.46875 11.9375q3.484375 3.96875 8.75 3.96875q5.234375 0 8.703125 -3.984375q3.484375 -3.984375 3.484375 -12.15625q0 -7.6875 -3.5 -11.65625q-3.484375 -3.96875 -8.6875 -3.96875q-5.265625 0 -8.75 3.953125q-3.46875 3.9375 -3.46875 11.90625zm39.804688 20.75l0 -41.484375l6.328125 0l0 6.28125q2.421875 -4.40625 4.46875 -5.8125q2.046875 -1.40625 4.515625 -1.40625q3.546875 0 7.21875 2.265625l-2.421875 6.515625q-2.578125 -1.515625 -5.15625 -1.515625q-2.296875 0 -4.140625 1.390625q-1.828125 1.375 -2.609375 3.84375q-1.171875 3.75 -1.171875 8.203125l0 21.71875l-7.03125 0zm26.71875 0l0 -41.484375l6.28125 0l0 5.8125q1.953125 -3.046875 5.1875 -4.890625q3.25 -1.859375 7.390625 -1.859375q4.609375 0 7.5625 1.921875q2.953125 1.90625 4.15625 5.34375q4.921875 -7.265625 12.8125 -7.265625q6.171875 0 9.484375 3.421875q3.328125 3.40625 3.328125 10.515625l0 28.484375l-6.984375 0l0 -26.140625q0 -4.21875 -0.6875 -6.0625q-0.6875 -1.859375 -2.484375 -2.984375q-1.796875 -1.140625 -4.21875 -1.140625q-4.375 0 -7.265625 2.90625q-2.890625 2.90625 -2.890625 9.3125l0 24.109375l-7.03125 0l0 -26.953125q0 -4.6875 -1.71875 -7.03125q-1.71875 -2.34375 -5.625 -2.34375q-2.96875 0 -5.484375 1.5625q-2.515625 1.5625 -3.65625 4.578125q-1.125 3.0 -1.125 8.65625l0 21.53125l-7.03125 0zm93.703125 -5.125q-3.90625 3.328125 -7.515625 4.703125q-3.609375 1.359375 -7.75 1.359375q-6.84375 0 -10.515625 -3.34375q-3.671875 -3.34375 -3.671875 -8.53125q0 -3.046875 1.390625 -5.5625q1.390625 -2.53125 3.625 -4.046875q2.25 -1.53125 5.0625 -2.3125q2.078125 -0.546875 6.25 -1.046875q8.515625 -1.015625 12.546875 -2.421875q0.03125 -1.453125 0.03125 -1.84375q0 -4.296875 -1.984375 -6.046875q-2.703125 -2.390625 -8.015625 -2.390625q-4.953125 0 -7.328125 1.75q-2.359375 1.734375 -3.484375 6.140625l-6.875 -0.9375q0.9375 -4.40625 3.078125 -7.125q2.15625 -2.71875 6.21875 -4.171875q4.0625 -1.46875 9.40625 -1.46875q5.3125 0 8.625 1.25q3.328125 1.25 4.890625 3.140625q1.5625 1.890625 2.1875 4.78125q0.359375 1.796875 0.359375 6.484375l0 9.375q0 9.8125 0.4375 12.40625q0.453125 2.59375 1.78125 4.984375l-7.34375 0q-1.09375 -2.1875 -1.40625 -5.125zm-0.578125 -15.703125q-3.828125 1.5625 -11.484375 2.65625q-4.34375 0.625 -6.140625 1.40625q-1.796875 0.78125 -2.78125 2.296875q-0.96875 1.5 -0.96875 3.328125q0 2.8125 2.125 4.6875q2.140625 1.875 6.234375 1.875q4.0625 0 7.21875 -1.765625q3.171875 -1.78125 4.65625 -4.875q1.140625 -2.375 1.140625 -7.03125l0 -2.578125zm33.3515 14.53125l1.015625 6.21875q-2.96875 0.625 -5.3125 0.625q-3.828125 0 -5.9375 -1.203125q-2.109375 -1.21875 -2.96875 -3.1875q-0.859375 -1.984375 -0.859375 -8.3125l0 -23.859375l-5.15625 0l0 -5.46875l5.15625 0l0 -10.28125l7.0 -4.218754l0 14.500004l7.0625 0l0 5.46875l-7.0625 0l0 24.25q0 3.015625 0.359375 3.875q0.375 0.859375 1.21875 1.375q0.84375 0.5 2.40625 0.5q1.171875 0 3.078125 -0.28125zm6.9140625 -42.890625l0 -8.078129l7.03125 0l0 8.078129l-7.03125 0zm0 49.1875l0 -41.484375l7.03125 0l0 41.484375l-7.03125 0zm15.1171875 -20.75q0 -11.515625 6.40625 -17.0625q5.359375 -4.609375 13.046875 -4.609375q8.5625 0 13.984375 5.609375q5.4375 5.59375 5.4375 15.484375q0 8.0 -2.40625 12.59375q-2.40625 4.59375 -7.0 7.140625q-4.578125 2.53125 -10.015625 2.53125q-8.703125 0 -14.078125 -5.578125q-5.375 -5.59375 -5.375 -16.109375zm7.234375 0q0 7.96875 3.46875 11.9375q3.484375 3.96875 8.75 3.96875q5.234375 0 8.703125 -3.984375q3.484375 -3.984375 3.484375 -12.15625q0 -7.6875 -3.5 -11.65625q-3.484375 -3.96875 -8.6875 -3.96875q-5.265625 0 -8.75 3.953125q-3.46875 3.9375 -3.46875 11.90625zm39.882812 20.75l0 -41.484375l6.328125 0l0 5.890625q4.5625 -6.828125 13.203125 -6.828125q3.75 0 6.890625 1.34375q3.140625 1.34375 4.703125 3.53125q1.5625 2.1875 2.1875 5.203125q0.390625 1.953125 0.390625 6.828125l0 25.515625l-7.03125 0l0 -25.234375q0 -4.296875 -0.828125 -6.421875q-0.8125 -2.140625 -2.90625 -3.40625q-2.078125 -1.265625 -4.890625 -1.265625q-4.5 0 -7.765625 2.859375q-3.25 2.84375 -3.25 10.8125l0 22.65625l-7.03125 0z" fill-rule="nonzero"></path><path fill="#000000" d="m289.12354 214.62675l-22.1875 -57.265625l8.203125 0l14.875 41.59375q1.796875 5.0 3.015625 9.375q1.328125 -4.6875 3.078125 -9.375l15.46875 -41.59375l7.734375 0l-22.421875 57.265625l-7.765625 0zm36.125 -49.1875l0 -8.078125l7.03125 0l0 8.078125l-7.03125 0zm0 49.1875l0 -41.484375l7.03125 0l0 41.484375l-7.03125 0zm14.9296875 -12.390625l6.953125 -1.09375q0.578125 4.1875 3.25 6.421875q2.6875 2.21875 7.484375 2.21875q4.84375 0 7.1875 -1.96875q2.34375 -1.984375 2.34375 -4.640625q0 -2.375 -2.0625 -3.75q-1.453125 -0.9375 -7.1875 -2.375q-7.734375 -1.953125 -10.734375 -3.375q-2.984375 -1.4375 -4.53125 -3.953125q-1.53125 -2.515625 -1.53125 -5.5625q0 -2.78125 1.265625 -5.140625q1.265625 -2.359375 3.453125 -3.921875q1.640625 -1.21875 4.46875 -2.046875q2.84375 -0.84375 6.078125 -0.84375q4.890625 0 8.578125 1.40625q3.6875 1.40625 5.4375 3.8125q1.765625 2.390625 2.4375 6.421875l-6.875 0.9375q-0.46875 -3.203125 -2.71875 -5.0q-2.25 -1.796875 -6.34375 -1.796875q-4.84375 0 -6.921875 1.609375q-2.0625 1.59375 -2.0625 3.734375q0 1.375 0.859375 2.46875q0.859375 1.125 2.6875 1.875q1.0625 0.390625 6.21875 1.796875q7.453125 1.984375 10.40625 3.265625q2.953125 1.265625 4.625 3.6875q1.6875 2.421875 1.6875 6.015625q0 3.515625 -2.0625 6.625q-2.046875 3.09375 -5.921875 4.796875q-3.859375 1.703125 -8.734375 1.703125q-8.09375 0 -12.328125 -3.359375q-4.234375 -3.359375 -5.40625 -9.96875zm70.0 12.390625l0 -6.09375q-4.84375 7.03125 -13.171875 7.03125q-3.671875 0 -6.859375 -1.40625q-3.171875 -1.40625 -4.71875 -3.53125q-1.546875 -2.140625 -2.171875 -5.21875q-0.421875 -2.078125 -0.421875 -6.5625l0 -25.703125l7.03125 0l0 23.0q0 5.515625 0.421875 7.421875q0.671875 2.78125 2.8125 4.359375q2.15625 1.578125 5.3125 1.578125q3.171875 0 5.9375 -1.609375q2.78125 -1.625 3.921875 -4.421875q1.15625 -2.796875 1.15625 -8.109375l0 -22.21875l7.03125 0l0 41.484375l-6.28125 0zm44.367188 -5.125q-3.90625 3.328125 -7.515625 4.703125q-3.609375 1.359375 -7.75 1.359375q-6.84375 0 -10.515625 -3.34375q-3.671875 -3.34375 -3.671875 -8.53125q0 -3.046875 1.390625 -5.5625q1.390625 -2.53125 3.625 -4.046875q2.25 -1.53125 5.0625 -2.3125q2.078125 -0.546875 6.25 -1.046875q8.515625 -1.015625 12.546875 -2.421875q0.03125 -1.453125 0.03125 -1.84375q0 -4.296875 -1.984375 -6.046875q-2.703125 -2.390625 -8.015625 -2.390625q-4.953125 0 -7.328125 1.75q-2.359375 1.734375 -3.484375 6.140625l-6.875 -0.9375q0.9375 -4.40625 3.078125 -7.125q2.15625 -2.71875 6.21875 -4.171875q4.0625 -1.46875 9.40625 -1.46875q5.3125 0 8.625 1.25q3.328125 1.25 4.890625 3.140625q1.5625 1.890625 2.1875 4.78125q0.359375 1.796875 0.359375 6.484375l0 9.375q0 9.8125 0.4375 12.40625q0.453125 2.59375 1.78125 4.984375l-7.34375 0q-1.09375 -2.1875 -1.40625 -5.125zm-0.578125 -15.703125q-3.828125 1.5625 -11.484375 2.65625q-4.34375 0.625 -6.140625 1.40625q-1.796875 0.78125 -2.78125 2.296875q-0.96875 1.5 -0.96875 3.328125q0 2.8125 2.125 4.6875q2.140625 1.875 6.234375 1.875q4.0625 0 7.21875 -1.765625q3.171875 -1.78125 4.65625 -4.875q1.140625 -2.375 1.140625 -7.03125l0 -2.578125zm17.851562 20.828125l0 -57.265625l7.03125 0l0 57.265625l-7.03125 0zm17.960938 -49.1875l0 -8.078125l7.03125 0l0 8.078125l-7.03125 0zm0 49.1875l0 -41.484375l7.03125 0l0 41.484375l-7.03125 0zm14.0234375 0l0 -5.703125l26.40625 -30.3125q-4.484375 0.234375 -7.921875 0.234375l-16.921875 0l0 -5.703125l33.90625 0l0 4.640625l-22.453125 26.328125l-4.34375 4.8125q4.734375 -0.359375 8.875 -0.359375l19.171875 0l0 6.0625l-36.71875 0zm70.78119 -5.125q-3.90625 3.328125 -7.515625 4.703125q-3.609375 1.359375 -7.749939 1.359375q-6.84375 0 -10.515625 -3.34375q-3.671875 -3.34375 -3.671875 -8.53125q0 -3.046875 1.390625 -5.5625q1.390625 -2.53125 3.625 -4.046875q2.25 -1.53125 5.0625 -2.3125q2.078125 -0.546875 6.25 -1.046875q8.515564 -1.015625 12.546814 -2.421875q0.03125 -1.453125 0.03125 -1.84375q0 -4.296875 -1.984375 -6.046875q-2.703125 -2.390625 -8.015625 -2.390625q-4.953064 0 -7.328064 1.75q-2.359375 1.734375 -3.484375 6.140625l-6.875 -0.9375q0.9375 -4.40625 3.078125 -7.125q2.15625 -2.71875 6.21875 -4.171875q4.0625 -1.46875 9.406189 -1.46875q5.3125 0 8.625 1.25q3.328125 1.25 4.890625 3.140625q1.5625 1.890625 2.1875 4.78125q0.359375 1.796875 0.359375 6.484375l0 9.375q0 9.8125 0.4375 12.40625q0.453125 2.59375 1.78125 4.984375l-7.34375 0q-1.09375 -2.1875 -1.40625 -5.125zm-0.578125 -15.703125q-3.828125 1.5625 -11.484375 2.65625q-4.343689 0.625 -6.140564 1.40625q-1.796875 0.78125 -2.78125 2.296875q-0.96875 1.5 -0.96875 3.328125q0 2.8125 2.125 4.6875q2.140625 1.875 6.234375 1.875q4.062439 0 7.218689 -1.765625q3.171875 -1.78125 4.65625 -4.875q1.140625 -2.375 1.140625 -7.03125l0 -2.578125zm33.351562 14.53125l1.015625 6.21875q-2.96875 0.625 -5.3125 0.625q-3.828125 0 -5.9375 -1.203125q-2.109375 -1.21875 -2.96875 -3.1875q-0.859375 -1.984375 -0.859375 -8.3125l0 -23.859375l-5.15625 0l0 -5.46875l5.15625 0l0 -10.28125l7.0 -4.21875l0 14.5l7.0625 0l0 5.46875l-7.0625 0l0 24.25q0 3.015625 0.359375 3.875q0.375 0.859375 1.21875 1.375q0.84375 0.5 2.40625 0.5q1.171875 0 3.078125 -0.28125zm6.9140625 -42.890625l0 -8.078125l7.03125 0l0 8.078125l-7.03125 0zm0 49.1875l0 -41.484375l7.03125 0l0 41.484375l-7.03125 0zm15.1171875 -20.75q0 -11.515625 6.40625 -17.0625q5.359375 -4.609375 13.046875 -4.609375q8.5625 0 13.984375 5.609375q5.4375 5.59375 5.4375 15.484375q0 8.0 -2.40625 12.59375q-2.40625 4.59375 -7.0 7.140625q-4.578125 2.53125 -10.015625 2.53125q-8.703125 0 -14.078125 -5.578125q-5.375 -5.59375 -5.375 -16.109375zm7.234375 0q0 7.96875 3.46875 11.9375q3.484375 3.96875 8.75 3.96875q5.234375 0 8.703125 -3.984375q3.484375 -3.984375 3.484375 -12.15625q0 -7.6875 -3.5 -11.65625q-3.484375 -3.96875 -8.6875 -3.96875q-5.265625 0 -8.75 3.953125q-3.46875 3.9375 -3.46875 11.90625zm39.882812 20.75l0 -41.484375l6.328125 0l0 5.890625q4.5625 -6.828125 13.203125 -6.828125q3.75 0 6.890625 1.34375q3.140625 1.34375 4.703125 3.53125q1.5625 2.1875 2.1875 5.203125q0.390625 1.953125 0.390625 6.828125l0 25.515625l-7.03125 0l0 -25.234375q0 -4.296875 -0.828125 -6.421875q-0.8125 -2.140625 -2.90625 -3.40625q-2.078125 -1.265625 -4.890625 -1.265625q-4.5 0 -7.765625 2.859375q-3.25 2.84375 -3.25 10.8125l0 22.65625l-7.03125 0z" fill-rule="nonzero"></path><path fill="#000000" fill-opacity="0.0" d="m36.2021 297.2362l909.8898 0l0 247.4961l-909.8898 0z" fill-rule="nonzero"></path><path fill="#000000" d="m148.10402 323.72247l0 4.890625l-4.515625 0l0 -3.859375q0 -3.140625 0.75 -4.546875q0.984375 -1.875 3.109375 -2.84375l1.03125 1.640625q-1.28125 0.546875 -1.890625 1.609375q-0.609375 1.0625 -0.6875 3.109375l2.203125 0zm7.265625 0l0 4.890625l-4.515625 0l0 -3.859375q0 -3.140625 0.75 -4.546875q0.984375 -1.875 3.109375 -2.84375l1.03125 1.640625q-1.28125 0.546875 -1.890625 1.609375q-0.609375 1.0625 -0.6875 3.109375l2.203125 0zm14.703125 28.59375l0 -30.3125l-11.328125 0l0 -4.046875l27.234375 0l0 4.046875l-11.359375 0l0 30.3125l-4.546875 0zm20.039062 0l0 -34.359375l4.21875 0l0 12.328125q2.953125 -3.421875 7.453125 -3.421875q2.765625 0 4.796875 1.09375q2.046875 1.078125 2.921875 3.0q0.875 1.921875 0.875 5.578125l0 15.78125l-4.21875 0l0 -15.78125q0 -3.15625 -1.375 -4.59375q-1.359375 -1.453125 -3.875 -1.453125q-1.875 0 -3.53125 0.984375q-1.640625 0.96875 -2.34375 2.640625q-0.703125 1.65625 -0.703125 4.578125l0 13.625l-4.21875 0zm43.726562 -8.015625l4.359375 0.53125q-1.03125 3.828125 -3.828125 5.9375q-2.78125 2.109375 -7.109375 2.109375q-5.46875 0 -8.671875 -3.359375q-3.1875 -3.375 -3.1875 -9.4375q0 -6.28125 3.234375 -9.75q3.234375 -3.46875 8.390625 -3.46875q4.984375 0 8.140625 3.40625q3.171875 3.390625 3.171875 9.546875q0 0.375 -0.015625 1.125l-18.5625 0q0.234375 4.109375 2.3125 6.296875q2.09375 2.171875 5.203125 2.171875q2.328125 0 3.96875 -1.21875q1.640625 -1.21875 2.59375 -3.890625zm-13.84375 -6.828125l13.890625 0q-0.28125 -3.140625 -1.59375 -4.703125q-2.015625 -2.4375 -5.21875 -2.4375q-2.90625 0 -4.890625 1.953125q-1.984375 1.9375 -2.1875 5.1875zm53.156235 14.84375l0 -3.65625q-2.90625 4.21875 -7.90625 4.21875q-2.203125 0 -4.109375 -0.84375q-1.90625 -0.84375 -2.84375 -2.125q-0.921875 -1.28125 -1.296875 -3.125q-0.25 -1.25 -0.25 -3.9375l0 -15.421875l4.21875 0l0 13.796875q0 3.3125 0.25 4.453125q0.40625 1.671875 1.6875 2.625q1.296875 0.9375 3.1875 0.9375q1.90625 0 3.5625 -0.96875q1.671875 -0.96875 2.359375 -2.640625q0.6875 -1.6875 0.6875 -4.875l0 -13.328125l4.21875 0l0 24.890625l-3.765625 0zm8.6953125 -7.4375l4.171875 -0.65625q0.34375 2.515625 1.953125 3.859375q1.609375 1.328125 4.484375 1.328125q2.90625 0 4.3125 -1.1875q1.40625 -1.1875 1.40625 -2.78125q0 -1.421875 -1.234375 -2.25q-0.875 -0.5625 -4.3125 -1.421875q-4.640625 -1.171875 -6.4375 -2.03125q-1.796875 -0.859375 -2.71875 -2.359375q-0.921875 -1.515625 -0.921875 -3.34375q0 -1.671875 0.75 -3.078125q0.765625 -1.421875 2.078125 -2.359375q0.984375 -0.734375 2.6875 -1.234375q1.703125 -0.5 3.640625 -0.5q2.9375 0 5.140625 0.84375q2.21875 0.84375 3.265625 2.28125q1.0625 1.4375 1.46875 3.859375l-4.125 0.5625q-0.28125 -1.921875 -1.640625 -3.0q-1.34375 -1.078125 -3.796875 -1.078125q-2.90625 0 -4.15625 0.96875q-1.234375 0.953125 -1.234375 2.234375q0 0.828125 0.515625 1.484375q0.515625 0.671875 1.609375 1.125q0.640625 0.234375 3.734375 1.078125q4.46875 1.1875 6.234375 1.953125q1.78125 0.765625 2.78125 2.21875q1.015625 1.453125 1.015625 3.609375q0 2.109375 -1.234375 3.96875q-1.234375 1.859375 -3.5625 2.890625q-2.3125 1.015625 -5.234375 1.015625q-4.859375 0 -7.40625 -2.015625q-2.53125 -2.015625 -3.234375 -5.984375zm42.71875 -0.578125l4.359375 0.53125q-1.03125 3.828125 -3.828125 5.9375q-2.78125 2.109375 -7.109375 2.109375q-5.46875 0 -8.671875 -3.359375q-3.1875 -3.375 -3.1875 -9.4375q0 -6.28125 3.234375 -9.75q3.234375 -3.46875 8.390625 -3.46875q4.984375 0 8.140625 3.40625q3.171875 3.390625 3.171875 9.546875q0 0.375 -0.015625 1.125l-18.5625 0q0.234375 4.109375 2.3125 6.296875q2.09375 2.171875 5.203125 2.171875q2.328125 0 3.96875 -1.21875q1.640625 -1.21875 2.59375 -3.890625zm-13.84375 -6.828125l13.890625 0q-0.28125 -3.140625 -1.59375 -4.703125q-2.015625 -2.4375 -5.21875 -2.4375q-2.90625 0 -4.890625 1.953125q-1.984375 1.9375 -2.1875 5.1875zm35.265625 2.390625q0 -6.90625 3.84375 -10.234375q3.21875 -2.765625 7.828125 -2.765625q5.140625 0 8.390625 3.359375q3.265625 3.359375 3.265625 9.296875q0 4.796875 -1.453125 7.5625q-1.4375 2.75 -4.1875 4.28125q-2.75 1.515625 -6.015625 1.515625q-5.21875 0 -8.453125 -3.34375q-3.21875 -3.359375 -3.21875 -9.671875zm4.34375 0q0 4.78125 2.078125 7.171875q2.09375 2.375 5.25 2.375q3.140625 0 5.21875 -2.390625q2.09375 -2.390625 2.09375 -7.296875q0 -4.609375 -2.09375 -6.984375q-2.09375 -2.390625 -5.21875 -2.390625q-3.15625 0 -5.25 2.375q-2.078125 2.359375 -2.078125 7.140625zm24.929688 12.453125l0 -21.609375l-3.71875 0l0 -3.28125l3.71875 0l0 -2.65625q0 -2.5 0.453125 -3.71875q0.609375 -1.640625 2.140625 -2.65625q1.53125 -1.03125 4.296875 -1.03125q1.78125 0 3.9375 0.421875l-0.625 3.6875q-1.3125 -0.234375 -2.484375 -0.234375q-1.921875 0 -2.71875 0.828125q-0.796875 0.8125 -0.796875 3.0625l0 2.296875l4.84375 0l0 3.28125l-4.84375 0l0 21.609375l-4.203125 0zm41.90625 -9.125l4.15625 0.546875q-0.6875 4.28125 -3.484375 6.71875q-2.796875 2.421875 -6.875 2.421875q-5.109375 0 -8.21875 -3.34375q-3.109375 -3.34375 -3.109375 -9.578125q0 -4.03125 1.328125 -7.046875q1.34375 -3.03125 4.078125 -4.53125q2.734375 -1.515625 5.9375 -1.515625q4.0625 0 6.640625 2.046875q2.578125 2.046875 3.296875 5.828125l-4.09375 0.625q-0.59375 -2.5 -2.078125 -3.765625q-1.484375 -1.265625 -3.59375 -1.265625q-3.1875 0 -5.1875 2.28125q-1.984375 2.28125 -1.984375 7.234375q0 5.015625 1.921875 7.296875q1.921875 2.265625 5.015625 2.265625q2.484375 0 4.140625 -1.515625q1.671875 -1.53125 2.109375 -4.703125zm6.1875 -3.328125q0 -6.90625 3.84375 -10.234375q3.21875 -2.765625 7.828125 -2.765625q5.140625 0 8.390625 3.359375q3.265625 3.359375 3.265625 9.296875q0 4.796875 -1.453125 7.5625q-1.4375 2.75 -4.1875 4.28125q-2.75 1.515625 -6.015625 1.515625q-5.21875 0 -8.453125 -3.34375q-3.21875 -3.359375 -3.21875 -9.671875zm4.34375 0q0 4.78125 2.078125 7.171875q2.09375 2.375 5.25 2.375q3.140625 0 5.21875 -2.390625q2.09375 -2.390625 2.09375 -7.296875q0 -4.609375 -2.09375 -6.984375q-2.09375 -2.390625 -5.21875 -2.390625q-3.15625 0 -5.25 2.375q-2.078125 2.359375 -2.078125 7.140625zm23.929688 12.453125l0 -24.890625l3.765625 0l0 3.484375q1.171875 -1.828125 3.109375 -2.9375q1.953125 -1.109375 4.4375 -1.109375q2.765625 0 4.53125 1.15625q1.78125 1.140625 2.5 3.203125q2.953125 -4.359375 7.6875 -4.359375q3.703125 0 5.6875 2.046875q2.0 2.046875 2.0 6.3125l0 17.09375l-4.1875 0l0 -15.6875q0 -2.53125 -0.421875 -3.640625q-0.40625 -1.109375 -1.484375 -1.78125q-1.078125 -0.6875 -2.53125 -0.6875q-2.625 0 -4.359375 1.75q-1.734375 1.734375 -1.734375 5.578125l0 14.46875l-4.21875 0l0 -16.171875q0 -2.8125 -1.03125 -4.21875q-1.03125 -1.40625 -3.375 -1.40625q-1.78125 0 -3.296875 0.9375q-1.5 0.9375 -2.1875 2.75q-0.671875 1.796875 -0.671875 5.1875l0 12.921875l-4.21875 0zm39.984375 9.546875l0 -34.4375l3.84375 0l0 3.234375q1.359375 -1.90625 3.0625 -2.84375q1.71875 -0.953125 4.15625 -0.953125q3.1875 0 5.625 1.640625q2.4375 1.640625 3.671875 4.625q1.25 2.984375 1.25 6.546875q0 3.828125 -1.375 6.890625q-1.375 3.046875 -3.984375 4.6875q-2.609375 1.625 -5.5 1.625q-2.109375 0 -3.78125 -0.890625q-1.671875 -0.890625 -2.75 -2.25l0 12.125l-4.21875 0zm3.8125 -21.859375q0 4.8125 1.9375 7.109375q1.953125 2.296875 4.71875 2.296875q2.8125 0 4.8125 -2.375q2.015625 -2.390625 2.015625 -7.375q0 -4.765625 -1.96875 -7.125q-1.953125 -2.375 -4.671875 -2.375q-2.6875 0 -4.765625 2.53125q-2.078125 2.515625 -2.078125 7.3125zm39.195312 12.3125l0 -3.65625q-2.90625 4.21875 -7.90625 4.21875q-2.203125 0 -4.109375 -0.84375q-1.90625 -0.84375 -2.84375 -2.125q-0.921875 -1.28125 -1.296875 -3.125q-0.25 -1.25 -0.25 -3.9375l0 -15.421875l4.21875 0l0 13.796875q0 3.3125 0.25 4.453125q0.40625 1.671875 1.6875 2.625q1.296875 0.9375 3.1875 0.9375q1.90625 0 3.5625 -0.96875q1.671875 -0.96875 2.359375 -2.640625q0.6875 -1.6875 0.6875 -4.875l0 -13.328125l4.21875 0l0 24.890625l-3.765625 0zm19.585938 -3.78125l0.609375 3.734375q-1.78125 0.375 -3.1875 0.375q-2.296875 0 -3.5625 -0.71875q-1.265625 -0.734375 -1.78125 -1.921875q-0.515625 -1.1875 -0.515625 -4.984375l0 -14.3125l-3.09375 0l0 -3.28125l3.09375 0l0 -6.171875l4.203125 -2.53125l0 8.703125l4.234375 0l0 3.28125l-4.234375 0l0 14.546875q0 1.8125 0.21875 2.328125q0.21875 0.515625 0.71875 0.828125q0.515625 0.296875 1.453125 0.296875q0.703125 0 1.84375 -0.171875zm21.164062 -4.234375l4.359375 0.53125q-1.03125 3.828125 -3.828125 5.9375q-2.78125 2.109375 -7.109375 2.109375q-5.46875 0 -8.671875 -3.359375q-3.1875 -3.375 -3.1875 -9.4375q0 -6.28125 3.234375 -9.75q3.234375 -3.46875 8.390625 -3.46875q4.984375 0 8.140625 3.40625q3.171875 3.390625 3.171875 9.546875q0 0.375 -0.015625 1.125l-18.5625 0q0.234375 4.109375 2.3125 6.296875q2.09375 2.171875 5.203125 2.171875q2.328125 0 3.96875 -1.21875q1.640625 -1.21875 2.59375 -3.890625zm-13.84375 -6.828125l13.890625 0q-0.28125 -3.140625 -1.59375 -4.703125q-2.015625 -2.4375 -5.21875 -2.4375q-2.90625 0 -4.890625 1.953125q-1.984375 1.9375 -2.1875 5.1875zm23.460938 14.84375l0 -24.890625l3.796875 0l0 3.765625q1.453125 -2.640625 2.671875 -3.484375q1.234375 -0.84375 2.71875 -0.84375q2.125 0 4.328125 1.359375l-1.453125 3.90625q-1.546875 -0.90625 -3.09375 -0.90625q-1.375 0 -2.484375 0.828125q-1.09375 0.828125 -1.5625 2.3125q-0.703125 2.25 -0.703125 4.921875l0 13.03125l-4.21875 0zm14.390625 -10.3125l0 -4.25l12.953125 0l0 4.25l-12.953125 0zm15.9375 2.875l4.171875 -0.65625q0.34375 2.515625 1.953125 3.859375q1.609375 1.328125 4.484375 1.328125q2.90625 0 4.3125 -1.1875q1.40625 -1.1875 1.40625 -2.78125q0 -1.421875 -1.234375 -2.25q-0.875 -0.5625 -4.3125 -1.421875q-4.640625 -1.171875 -6.4375 -2.03125q-1.796875 -0.859375 -2.71875 -2.359375q-0.921875 -1.515625 -0.921875 -3.34375q0 -1.671875 0.75 -3.078125q0.765625 -1.421875 2.078125 -2.359375q0.984375 -0.734375 2.6875 -1.234375q1.703125 -0.5 3.640625 -0.5q2.9375 0 5.140625 0.84375q2.21875 0.84375 3.265625 2.28125q1.0625 1.4375 1.46875 3.859375l-4.125 0.5625q-0.28125 -1.921875 -1.640625 -3.0q-1.34375 -1.078125 -3.796875 -1.078125q-2.90625 0 -4.15625 0.96875q-1.234375 0.953125 -1.234375 2.234375q0 0.828125 0.515625 1.484375q0.515625 0.671875 1.609375 1.125q0.640625 0.234375 3.734375 1.078125q4.46875 1.1875 6.234375 1.953125q1.78125 0.765625 2.78125 2.21875q1.015625 1.453125 1.015625 3.609375q0 2.109375 -1.234375 3.96875q-1.234375 1.859375 -3.5625 2.890625q-2.3125 1.015625 -5.234375 1.015625q-4.859375 0 -7.40625 -2.015625q-2.53125 -2.015625 -3.234375 -5.984375zm42.0 7.4375l0 -3.65625q-2.90625 4.21875 -7.90625 4.21875q-2.203125 0 -4.109375 -0.84375q-1.90625 -0.84375 -2.84375 -2.125q-0.921875 -1.28125 -1.296875 -3.125q-0.25 -1.25 -0.25 -3.9375l0 -15.421875l4.21875 0l0 13.796875q0 3.3125 0.25 4.453125q0.40625 1.671875 1.6875 2.625q1.296875 0.9375 3.1875 0.9375q1.90625 0 3.5625 -0.96875q1.671875 -0.96875 2.359375 -2.640625q0.6875 -1.6875 0.6875 -4.875l0 -13.328125l4.21875 0l0 24.890625l-3.765625 0zm10.3828125 9.546875l0 -34.4375l3.84375 0l0 3.234375q1.359375 -1.90625 3.0625 -2.84375q1.71875 -0.953125 4.15625 -0.953125q3.1875 0 5.625 1.640625q2.4375 1.640625 3.671875 4.625q1.25 2.984375 1.25 6.546875q0 3.828125 -1.375 6.890625q-1.375 3.046875 -3.984375 4.6875q-2.609375 1.625 -5.5 1.625q-2.109375 0 -3.78125 -0.890625q-1.671875 -0.890625 -2.75 -2.25l0 12.125l-4.21875 0zm3.8125 -21.859375q0 4.8125 1.9375 7.109375q1.953125 2.296875 4.71875 2.296875q2.8125 0 4.8125 -2.375q2.015625 -2.390625 2.015625 -7.375q0 -4.765625 -1.96875 -7.125q-1.953125 -2.375 -4.671875 -2.375q-2.6875 0 -4.765625 2.53125q-2.078125 2.515625 -2.078125 7.3125zm22.882812 21.859375l0 -34.4375l3.84375 0l0 3.234375q1.359375 -1.90625 3.0625 -2.84375q1.71875 -0.953125 4.15625 -0.953125q3.1875 0 5.625 1.640625q2.4375 1.640625 3.671875 4.625q1.25 2.984375 1.25 6.546875q0 3.828125 -1.375 6.890625q-1.375 3.046875 -3.984375 4.6875q-2.609375 1.625 -5.5 1.625q-2.109375 0 -3.78125 -0.890625q-1.671875 -0.890625 -2.75 -2.25l0 12.125l-4.21875 0zm3.8125 -21.859375q0 4.8125 1.9375 7.109375q1.953125 2.296875 4.71875 2.296875q2.8125 0 4.8125 -2.375q2.015625 -2.390625 2.015625 -7.375q0 -4.765625 -1.96875 -7.125q-1.953125 -2.375 -4.671875 -2.375q-2.6875 0 -4.765625 2.53125q-2.078125 2.515625 -2.078125 7.3125zm21.304688 -0.140625q0 -6.90625 3.84375 -10.234375q3.21875 -2.765625 7.828125 -2.765625q5.140625 0 8.390625 3.359375q3.265625 3.359375 3.265625 9.296875q0 4.796875 -1.453125 7.5625q-1.4375 2.75 -4.1875 4.28125q-2.75 1.515625 -6.015625 1.515625q-5.21875 0 -8.453125 -3.34375q-3.21875 -3.359375 -3.21875 -9.671875zm4.34375 0q0 4.78125 2.078125 7.171875q2.09375 2.375 5.25 2.375q3.140625 0 5.21875 -2.390625q2.09375 -2.390625 2.09375 -7.296875q0 -4.609375 -2.09375 -6.984375q-2.09375 -2.390625 -5.21875 -2.390625q-3.15625 0 -5.25 2.375q-2.078125 2.359375 -2.078125 7.140625zm23.882812 12.453125l0 -24.890625l3.796875 0l0 3.765625q1.453125 -2.640625 2.671875 -3.484375q1.234375 -0.84375 2.71875 -0.84375q2.125 0 4.328125 1.359375l-1.453125 3.90625q-1.546875 -0.90625 -3.09375 -0.90625q-1.375 0 -2.484375 0.828125q-1.09375 0.828125 -1.5625 2.3125q-0.703125 2.25 -0.703125 4.921875l0 13.03125l-4.21875 0zm25.234375 -3.78125l0.609375 3.734375q-1.78125 0.375 -3.1875 0.375q-2.296875 0 -3.5625 -0.71875q-1.265625 -0.734375 -1.78125 -1.921875q-0.515625 -1.1875 -0.515625 -4.984375l0 -14.3125l-3.09375 0l0 -3.28125l3.09375 0l0 -6.171875l4.203125 -2.53125l0 8.703125l4.234375 0l0 3.28125l-4.234375 0l0 14.546875q0 1.8125 0.21875 2.328125q0.21875 0.515625 0.71875 0.828125q0.515625 0.296875 1.453125 0.296875q0.703125 0 1.84375 -0.171875zm21.164062 -4.234375l4.359375 0.53125q-1.03125 3.828125 -3.828125 5.9375q-2.78125 2.109375 -7.109375 2.109375q-5.46875 0 -8.671875 -3.359375q-3.1875 -3.375 -3.1875 -9.4375q0 -6.28125 3.234375 -9.75q3.234375 -3.46875 8.390625 -3.46875q4.984375 0 8.140625 3.40625q3.171875 3.390625 3.171875 9.546875q0 0.375 -0.015625 1.125l-18.5625 0q0.234375 4.109375 2.3125 6.296875q2.09375 2.171875 5.203125 2.171875q2.328125 0 3.96875 -1.21875q1.640625 -1.21875 2.59375 -3.890625zm-13.84375 -6.828125l13.890625 0q-0.28125 -3.140625 -1.59375 -4.703125q-2.015625 -2.4375 -5.21875 -2.4375q-2.90625 0 -4.890625 1.953125q-1.984375 1.9375 -2.1875 5.1875zm39.648438 14.84375l0 -3.140625q-2.359375 3.703125 -6.953125 3.703125q-2.984375 0 -5.484375 -1.640625q-2.484375 -1.640625 -3.859375 -4.578125q-1.375 -2.953125 -1.375 -6.765625q0 -3.734375 1.234375 -6.765625q1.25 -3.03125 3.734375 -4.640625q2.484375 -1.625 5.5625 -1.625q2.25 0 4.0 0.953125q1.765625 0.9375 2.859375 2.46875l0 -12.328125l4.203125 0l0 34.359375l-3.921875 0zm-13.328125 -12.421875q0 4.78125 2.015625 7.15625q2.015625 2.359375 4.75 2.359375q2.765625 0 4.703125 -2.265625q1.9375 -2.265625 1.9375 -6.90625q0 -5.109375 -1.96875 -7.5q-1.96875 -2.390625 -4.859375 -2.390625q-2.8125 0 -4.703125 2.296875q-1.875 2.296875 -1.875 7.25zm24.976562 12.421875l0 -4.8125l4.8125 0l0 4.8125q0 2.65625 -0.9375 4.28125q-0.9375 1.625 -2.984375 2.515625l-1.171875 -1.796875q1.34375 -0.59375 1.96875 -1.734375q0.640625 -1.125 0.703125 -3.265625l-2.390625 0z" fill-rule="nonzero"></path><path fill="#000000" d="m111.47121 380.8006l0 -4.84375l4.21875 0l0 4.84375l-4.21875 0zm0 29.515625l0 -24.890625l4.21875 0l0 24.890625l-4.21875 0zm10.6484375 0l0 -24.890625l3.796875 0l0 3.53125q2.734375 -4.09375 7.921875 -4.09375q2.25 0 4.125 0.8125q1.890625 0.796875 2.828125 2.109375q0.9375 1.3125 1.3125 3.125q0.234375 1.171875 0.234375 4.09375l0 15.3125l-4.21875 0l0 -15.140625q0 -2.578125 -0.5 -3.859375q-0.484375 -1.28125 -1.734375 -2.03125q-1.25 -0.765625 -2.9375 -0.765625q-2.703125 0 -4.65625 1.71875q-1.953125 1.703125 -1.953125 6.484375l0 13.59375l-4.21875 0zm35.898438 -3.78125l0.609375 3.734375q-1.78125 0.375 -3.1875 0.375q-2.296875 0 -3.5625 -0.71875q-1.265625 -0.734375 -1.78125 -1.921875q-0.515625 -1.1875 -0.515625 -4.984375l0 -14.3125l-3.09375 0l0 -3.28125l3.09375 0l0 -6.171875l4.203125 -2.53125l0 8.703125l4.234375 0l0 3.28125l-4.234375 0l0 14.546875q0 1.8125 0.21875 2.328125q0.21875 0.515625 0.71875 0.828125q0.515625 0.296875 1.453125 0.296875q0.703125 0 1.84375 -0.171875zm21.164062 -4.234375l4.359375 0.53125q-1.03125 3.828125 -3.828125 5.9375q-2.78125 2.109375 -7.109375 2.109375q-5.46875 0 -8.671875 -3.359375q-3.1875 -3.375 -3.1875 -9.4375q0 -6.28125 3.234375 -9.75q3.234375 -3.46875 8.390625 -3.46875q4.984375 0 8.140625 3.40625q3.171875 3.390625 3.171875 9.546875q0 0.375 -0.015625 1.125l-18.5625 0q0.234375 4.109375 2.3125 6.296875q2.09375 2.171875 5.203125 2.171875q2.328125 0 3.96875 -1.21875q1.640625 -1.21875 2.59375 -3.890625zm-13.84375 -6.828125l13.890625 0q-0.28125 -3.140625 -1.59375 -4.703125q-2.015625 -2.4375 -5.21875 -2.4375q-2.90625 0 -4.890625 1.953125q-1.984375 1.9375 -2.1875 5.1875zm23.460938 14.84375l0 -24.890625l3.796875 0l0 3.765625q1.453125 -2.640625 2.671875 -3.484375q1.234375 -0.84375 2.71875 -0.84375q2.125 0 4.328125 1.359375l-1.453125 3.90625q-1.546875 -0.90625 -3.09375 -0.90625q-1.375 0 -2.484375 0.828125q-1.09375 0.828125 -1.5625 2.3125q-0.703125 2.25 -0.703125 4.921875l0 13.03125l-4.21875 0zm32.265625 -3.078125q-2.34375 2.0 -4.515625 2.828125q-2.15625 0.8125 -4.640625 0.8125q-4.109375 0 -6.3125 -2.0q-2.203125 -2.015625 -2.203125 -5.125q0 -1.828125 0.828125 -3.34375q0.84375 -1.515625 2.1875 -2.421875q1.34375 -0.921875 3.03125 -1.390625q1.25 -0.328125 3.75 -0.625q5.109375 -0.609375 7.53125 -1.453125q0.015625 -0.875 0.015625 -1.109375q0 -2.578125 -1.1875 -3.625q-1.625 -1.4375 -4.8125 -1.4375q-2.96875 0 -4.390625 1.046875q-1.421875 1.046875 -2.09375 3.6875l-4.125 -0.5625q0.5625 -2.640625 1.84375 -4.265625q1.296875 -1.640625 3.734375 -2.515625q2.4375 -0.875 5.640625 -0.875q3.1875 0 5.171875 0.75q2.0 0.75 2.9375 1.890625q0.9375 1.125 1.3125 2.859375q0.21875 1.078125 0.21875 3.890625l0 5.625q0 5.890625 0.265625 7.453125q0.265625 1.546875 1.0625 2.984375l-4.40625 0q-0.65625 -1.3125 -0.84375 -3.078125zm-0.34375 -9.421875q-2.296875 0.9375 -6.890625 1.59375q-2.609375 0.375 -3.6875 0.84375q-1.078125 0.46875 -1.671875 1.375q-0.578125 0.90625 -0.578125 2.0q0 1.6875 1.28125 2.8125q1.28125 1.125 3.734375 1.125q2.4375 0 4.328125 -1.0625q1.90625 -1.0625 2.796875 -2.921875q0.6875 -1.421875 0.6875 -4.21875l0 -1.546875zm27.039062 3.375l4.15625 0.546875q-0.6875 4.28125 -3.484375 6.71875q-2.796875 2.421875 -6.875 2.421875q-5.109375 0 -8.21875 -3.34375q-3.109375 -3.34375 -3.109375 -9.578125q0 -4.03125 1.328125 -7.046875q1.34375 -3.03125 4.078125 -4.53125q2.734375 -1.515625 5.9375 -1.515625q4.0625 0 6.640625 2.046875q2.578125 2.046875 3.296875 5.828125l-4.09375 0.625q-0.59375 -2.5 -2.078125 -3.765625q-1.484375 -1.265625 -3.59375 -1.265625q-3.1875 0 -5.1875 2.28125q-1.984375 2.28125 -1.984375 7.234375q0 5.015625 1.921875 7.296875q1.921875 2.265625 5.015625 2.265625q2.484375 0 4.140625 -1.515625q1.671875 -1.53125 2.109375 -4.703125zm16.968735 5.34375l0.609375 3.734375q-1.78125 0.375 -3.1875 0.375q-2.296875 0 -3.5625 -0.71875q-1.265625 -0.734375 -1.78125 -1.921875q-0.515625 -1.1875 -0.515625 -4.984375l0 -14.3125l-3.0937347 0l0 -3.28125l3.0937347 0l0 -6.171875l4.203125 -2.53125l0 8.703125l4.234375 0l0 3.28125l-4.234375 0l0 14.546875q0 1.8125 0.21875 2.328125q0.21875 0.515625 0.71875 0.828125q0.515625 0.296875 1.453125 0.296875q0.703125 0 1.84375 -0.171875zm4.1484375 -25.734375l0 -4.84375l4.21875 0l0 4.84375l-4.21875 0zm0 29.515625l0 -24.890625l4.21875 0l0 24.890625l-4.21875 0zm17.554688 0l-9.46875 -24.890625l4.453125 0l5.34375 14.90625q0.875 2.40625 1.59375 5.015625q0.5625 -1.96875 1.578125 -4.734375l5.53125 -15.1875l4.328125 0l-9.421875 24.890625l-3.9375 0zm34.125 -8.015625l4.359375 0.53125q-1.03125 3.828125 -3.828125 5.9375q-2.78125 2.109375 -7.109375 2.109375q-5.46875 0 -8.671875 -3.359375q-3.1875 -3.375 -3.1875 -9.4375q0 -6.28125 3.234375 -9.75q3.234375 -3.46875 8.390625 -3.46875q4.984375 0 8.140625 3.40625q3.171875 3.390625 3.171875 9.546875q0 0.375 -0.015625 1.125l-18.5625 0q0.234375 4.109375 2.3125 6.296875q2.09375 2.171875 5.203125 2.171875q2.328125 0 3.96875 -1.21875q1.640625 -1.21875 2.59375 -3.890625zm-13.84375 -6.828125l13.890625 0q-0.28125 -3.140625 -1.59375 -4.703125q-2.015625 -2.4375 -5.21875 -2.4375q-2.90625 0 -4.890625 1.953125q-1.984375 1.9375 -2.1875 5.1875zm24.601562 14.84375l0 -4.8125l4.8125 0l0 4.8125q0 2.65625 -0.9375 4.28125q-0.9375 1.625 -2.984375 2.515625l-1.171875 -1.796875q1.34375 -0.59375 1.96875 -1.734375q0.640625 -1.125 0.703125 -3.265625l-2.390625 0zm32.484375 0l-9.46875 -24.890625l4.453125 0l5.34375 14.90625q0.875 2.40625 1.59375 5.015625q0.5625 -1.96875 1.578125 -4.734375l5.53125 -15.1875l4.328125 0l-9.421875 24.890625l-3.9375 0zm17.109375 -29.515625l0 -4.84375l4.21875 0l0 4.84375l-4.21875 0zm0 29.515625l0 -24.890625l4.21875 0l0 24.890625l-4.21875 0zm8.9609375 -7.4375l4.171875 -0.65625q0.34375 2.515625 1.953125 3.859375q1.609375 1.328125 4.484375 1.328125q2.90625 0 4.3125 -1.1875q1.40625 -1.1875 1.40625 -2.78125q0 -1.421875 -1.234375 -2.25q-0.875 -0.5625 -4.3125 -1.421875q-4.640625 -1.171875 -6.4375 -2.03125q-1.796875 -0.859375 -2.71875 -2.359375q-0.921875 -1.515625 -0.921875 -3.34375q0 -1.671875 0.75 -3.078125q0.765625 -1.421875 2.078125 -2.359375q0.984375 -0.734375 2.6875 -1.234375q1.703125 -0.5 3.640625 -0.5q2.9375 0 5.140625 0.84375q2.21875 0.84375 3.265625 2.28125q1.0625 1.4375 1.46875 3.859375l-4.125 0.5625q-0.28125 -1.921875 -1.640625 -3.0q-1.34375 -1.078125 -3.796875 -1.078125q-2.90625 0 -4.15625 0.96875q-1.234375 0.953125 -1.234375 2.234375q0 0.828125 0.515625 1.484375q0.515625 0.671875 1.609375 1.125q0.640625 0.234375 3.734375 1.078125q4.46875 1.1875 6.234375 1.953125q1.78125 0.765625 2.78125 2.21875q1.015625 1.453125 1.015625 3.609375q0 2.109375 -1.234375 3.96875q-1.234375 1.859375 -3.5625 2.890625q-2.3125 1.015625 -5.234375 1.015625q-4.859375 0 -7.40625 -2.015625q-2.53125 -2.015625 -3.234375 -5.984375zm42.0 7.4375l0 -3.65625q-2.90625 4.21875 -7.90625 4.21875q-2.203125 0 -4.109375 -0.84375q-1.90625 -0.84375 -2.84375 -2.125q-0.921875 -1.28125 -1.296875 -3.125q-0.25 -1.25 -0.25 -3.9375l0 -15.421875l4.21875 0l0 13.796875q0 3.3125 0.25 4.453125q0.40625 1.671875 1.6875 2.625q1.296875 0.9375 3.1875 0.9375q1.90625 0 3.5625 -0.96875q1.671875 -0.96875 2.359375 -2.640625q0.6875 -1.6875 0.6875 -4.875l0 -13.328125l4.21875 0l0 24.890625l-3.765625 0zm26.617188 -3.078125q-2.34375 2.0 -4.515625 2.828125q-2.15625 0.8125 -4.640625 0.8125q-4.109375 0 -6.3125 -2.0q-2.203125 -2.015625 -2.203125 -5.125q0 -1.828125 0.828125 -3.34375q0.84375 -1.515625 2.1875 -2.421875q1.34375 -0.921875 3.03125 -1.390625q1.25 -0.328125 3.75 -0.625q5.109375 -0.609375 7.53125 -1.453125q0.015625 -0.875 0.015625 -1.109375q0 -2.578125 -1.1875 -3.625q-1.625 -1.4375 -4.8125 -1.4375q-2.96875 0 -4.390625 1.046875q-1.421875 1.046875 -2.09375 3.6875l-4.125 -0.5625q0.5625 -2.640625 1.84375 -4.265625q1.296875 -1.640625 3.734375 -2.515625q2.4375 -0.875 5.640625 -0.875q3.1875 0 5.171875 0.75q2.0 0.75 2.9375 1.890625q0.9375 1.125 1.3125 2.859375q0.21875 1.078125 0.21875 3.890625l0 5.625q0 5.890625 0.265625 7.453125q0.265625 1.546875 1.0625 2.984375l-4.40625 0q-0.65625 -1.3125 -0.84375 -3.078125zm-0.34375 -9.421875q-2.296875 0.9375 -6.890625 1.59375q-2.609375 0.375 -3.6875 0.84375q-1.078125 0.46875 -1.671875 1.375q-0.578125 0.90625 -0.578125 2.0q0 1.6875 1.28125 2.8125q1.28125 1.125 3.734375 1.125q2.4375 0 4.328125 -1.0625q1.90625 -1.0625 2.796875 -2.921875q0.6875 -1.421875 0.6875 -4.21875l0 -1.546875zm10.7109375 12.5l0 -34.359375l4.21875 0l0 34.359375l-4.21875 0zm24.046875 0l0 -24.890625l3.796875 0l0 3.765625q1.453125 -2.640625 2.671875 -3.484375q1.234375 -0.84375 2.71875 -0.84375q2.125 0 4.328125 1.359375l-1.453125 3.90625q-1.546875 -0.90625 -3.09375 -0.90625q-1.375 0 -2.484375 0.828125q-1.09375 0.828125 -1.5625 2.3125q-0.703125 2.25 -0.703125 4.921875l0 13.03125l-4.21875 0zm33.0625 -8.015625l4.359375 0.53125q-1.03125 3.828125 -3.828125 5.9375q-2.78125 2.109375 -7.109375 2.109375q-5.46875 0 -8.671875 -3.359375q-3.1875 -3.375 -3.1875 -9.4375q0 -6.28125 3.234375 -9.75q3.234375 -3.46875 8.390625 -3.46875q4.984375 0 8.140625 3.40625q3.171875 3.390625 3.171875 9.546875q0 0.375 -0.015625 1.125l-18.5625 0q0.234375 4.109375 2.3125 6.296875q2.09375 2.171875 5.203125 2.171875q2.328125 0 3.96875 -1.21875q1.640625 -1.21875 2.59375 -3.890625zm-13.84375 -6.828125l13.890625 0q-0.28125 -3.140625 -1.59375 -4.703125q-2.015625 -2.4375 -5.21875 -2.4375q-2.90625 0 -4.890625 1.953125q-1.984375 1.9375 -2.1875 5.1875zm23.507812 24.390625l0 -34.4375l3.84375 0l0 3.234375q1.359375 -1.90625 3.0625 -2.84375q1.71875 -0.953125 4.15625 -0.953125q3.1875 0 5.625 1.640625q2.4375 1.640625 3.671875 4.625q1.25 2.984375 1.25 6.546875q0 3.828125 -1.375 6.890625q-1.375 3.046875 -3.984375 4.6875q-2.609375 1.625 -5.5 1.625q-2.109375 0 -3.78125 -0.890625q-1.671875 -0.890625 -2.75 -2.25l0 12.125l-4.21875 0zm3.8125 -21.859375q0 4.8125 1.9375 7.109375q1.953125 2.296875 4.71875 2.296875q2.8125 0 4.8125 -2.375q2.015625 -2.390625 2.015625 -7.375q0 -4.765625 -1.96875 -7.125q-1.953125 -2.375 -4.671875 -2.375q-2.6875 0 -4.765625 2.53125q-2.078125 2.515625 -2.078125 7.3125zm22.835938 12.3125l0 -24.890625l3.796875 0l0 3.765625q1.453125 -2.640625 2.671875 -3.484375q1.234375 -0.84375 2.71875 -0.84375q2.125 0 4.328125 1.359375l-1.453125 3.90625q-1.546875 -0.90625 -3.09375 -0.90625q-1.375 0 -2.484375 0.828125q-1.09375 0.828125 -1.5625 2.3125q-0.703125 2.25 -0.703125 4.921875l0 13.03125l-4.21875 0zm33.0625 -8.015625l4.359375 0.53125q-1.03125 3.828125 -3.828125 5.9375q-2.78125 2.109375 -7.109375 2.109375q-5.46875 0 -8.671875 -3.359375q-3.1875 -3.375 -3.1875 -9.4375q0 -6.28125 3.234375 -9.75q3.234375 -3.46875 8.390625 -3.46875q4.984375 0 8.140625 3.40625q3.171875 3.390625 3.171875 9.546875q0 0.375 -0.015625 1.125l-18.5625 0q0.234375 4.109375 2.3125 6.296875q2.09375 2.171875 5.203125 2.171875q2.328125 0 3.96875 -1.21875q1.640625 -1.21875 2.59375 -3.890625zm-13.84375 -6.828125l13.890625 0q-0.28125 -3.140625 -1.59375 -4.703125q-2.015625 -2.4375 -5.21875 -2.4375q-2.90625 0 -4.890625 1.953125q-1.984375 1.9375 -2.1875 5.1875zm21.820312 7.40625l4.171875 -0.65625q0.34375 2.515625 1.953125 3.859375q1.609375 1.328125 4.484375 1.328125q2.90625 0 4.3125 -1.1875q1.40625 -1.1875 1.40625 -2.78125q0 -1.421875 -1.234375 -2.25q-0.875 -0.5625 -4.3125 -1.421875q-4.640625 -1.171875 -6.4375 -2.03125q-1.796875 -0.859375 -2.71875 -2.359375q-0.921875 -1.515625 -0.921875 -3.34375q0 -1.671875 0.75 -3.078125q0.765625 -1.421875 2.078125 -2.359375q0.984375 -0.734375 2.6875 -1.234375q1.703125 -0.5 3.640625 -0.5q2.9375 0 5.140625 0.84375q2.21875 0.84375 3.265625 2.28125q1.0625 1.4375 1.46875 3.859375l-4.125 0.5625q-0.28125 -1.921875 -1.640625 -3.0q-1.34375 -1.078125 -3.796875 -1.078125q-2.90625 0 -4.15625 0.96875q-1.234375 0.953125 -1.234375 2.234375q0 0.828125 0.515625 1.484375q0.515625 0.671875 1.609375 1.125q0.640625 0.234375 3.734375 1.078125q4.46875 1.1875 6.234375 1.953125q1.78125 0.765625 2.78125 2.21875q1.015625 1.453125 1.015625 3.609375q0 2.109375 -1.234375 3.96875q-1.234375 1.859375 -3.5625 2.890625q-2.3125 1.015625 -5.234375 1.015625q-4.859375 0 -7.40625 -2.015625q-2.53125 -2.015625 -3.234375 -5.984375zm42.71875 -0.578125l4.359375 0.53125q-1.03125 3.828125 -3.828125 5.9375q-2.78125 2.109375 -7.109375 2.109375q-5.46875 0 -8.671875 -3.359375q-3.1875 -3.375 -3.1875 -9.4375q0 -6.28125 3.234375 -9.75q3.234375 -3.46875 8.390625 -3.46875q4.984375 0 8.140625 3.40625q3.171875 3.390625 3.171875 9.546875q0 0.375 -0.015625 1.125l-18.5625 0q0.234375 4.109375 2.3125 6.296875q2.09375 2.171875 5.203125 2.171875q2.328125 0 3.96875 -1.21875q1.640625 -1.21875 2.59375 -3.890625zm-13.84375 -6.828125l13.890625 0q-0.28125 -3.140625 -1.59375 -4.703125q-2.015625 -2.4375 -5.21875 -2.4375q-2.90625 0 -4.890625 1.953125q-1.984375 1.9375 -2.1875 5.1875zm23.507812 14.84375l0 -24.890625l3.796875 0l0 3.53125q2.734375 -4.09375 7.921875 -4.09375q2.25 0 4.125 0.8125q1.890625 0.796875 2.828125 2.109375q0.9375 1.3125 1.3125 3.125q0.234375 1.171875 0.234375 4.09375l0 15.3125l-4.21875 0l0 -15.140625q0 -2.578125 -0.5 -3.859375q-0.484375 -1.28125 -1.734375 -2.03125q-1.25 -0.765625 -2.9375 -0.765625q-2.703125 0 -4.65625 1.71875q-1.953125 1.703125 -1.953125 6.484375l0 13.59375l-4.21875 0zm35.898438 -3.78125l0.609375 3.734375q-1.78125 0.375 -3.1875 0.375q-2.296875 0 -3.5625 -0.71875q-1.265625 -0.734375 -1.78125 -1.921875q-0.515625 -1.1875 -0.515625 -4.984375l0 -14.3125l-3.09375 0l0 -3.28125l3.09375 0l0 -6.171875l4.203125 -2.53125l0 8.703125l4.234375 0l0 3.28125l-4.234375 0l0 14.546875q0 1.8125 0.21875 2.328125q0.21875 0.515625 0.71875 0.828125q0.515625 0.296875 1.453125 0.296875q0.703125 0 1.84375 -0.171875zm20.367188 0.703125q-2.34375 2.0 -4.515625 2.828125q-2.15625 0.8125 -4.640625 0.8125q-4.109375 0 -6.3125 -2.0q-2.203125 -2.015625 -2.203125 -5.125q0 -1.828125 0.828125 -3.34375q0.84375 -1.515625 2.1875 -2.421875q1.34375 -0.921875 3.03125 -1.390625q1.25 -0.328125 3.75 -0.625q5.109375 -0.609375 7.53125 -1.453125q0.015625 -0.875 0.015625 -1.109375q0 -2.578125 -1.1875 -3.625q-1.625 -1.4375 -4.8125 -1.4375q-2.96875 0 -4.390625 1.046875q-1.421875 1.046875 -2.09375 3.6875l-4.125 -0.5625q0.5625 -2.640625 1.84375 -4.265625q1.296875 -1.640625 3.734375 -2.515625q2.4375 -0.875 5.640625 -0.875q3.1875 0 5.171875 0.75q2.0 0.75 2.9375 1.890625q0.9375 1.125 1.3125 2.859375q0.21875 1.078125 0.21875 3.890625l0 5.625q0 5.890625 0.265625 7.453125q0.265625 1.546875 1.0625 2.984375l-4.40625 0q-0.65625 -1.3125 -0.84375 -3.078125zm-0.34375 -9.421875q-2.296875 0.9375 -6.890625 1.59375q-2.609375 0.375 -3.6875 0.84375q-1.078125 0.46875 -1.671875 1.375q-0.578125 0.90625 -0.578125 2.0q0 1.6875 1.28125 2.8125q1.28125 1.125 3.734375 1.125q2.4375 0 4.328125 -1.0625q1.90625 -1.0625 2.796875 -2.921875q0.6875 -1.421875 0.6875 -4.21875l0 -1.546875zm20.007812 8.71875l0.609375 3.734375q-1.78125 0.375 -3.1875 0.375q-2.296875 0 -3.5625 -0.71875q-1.265625 -0.734375 -1.78125 -1.921875q-0.515625 -1.1875 -0.515625 -4.984375l0 -14.3125l-3.09375 0l0 -3.28125l3.09375 0l0 -6.171875l4.203125 -2.53125l0 8.703125l4.234375 0l0 3.28125l-4.234375 0l0 14.546875q0 1.8125 0.21875 2.328125q0.21875 0.515625 0.71875 0.828125q0.515625 0.296875 1.453125 0.296875q0.703125 0 1.84375 -0.171875zm4.1484375 -25.734375l0 -4.84375l4.21875 0l0 4.84375l-4.21875 0zm0 29.515625l0 -24.890625l4.21875 0l0 24.890625l-4.21875 0zm9.0703125 -12.453125q0 -6.90625 3.84375 -10.234375q3.21875 -2.765625 7.828125 -2.765625q5.140625 0 8.390625 3.359375q3.265625 3.359375 3.265625 9.296875q0 4.796875 -1.453125 7.5625q-1.4375 2.75 -4.1875 4.28125q-2.75 1.515625 -6.015625 1.515625q-5.21875 0 -8.453125 -3.34375q-3.21875 -3.359375 -3.21875 -9.671875zm4.34375 0q0 4.78125 2.078125 7.171875q2.09375 2.375 5.25 2.375q3.140625 0 5.21875 -2.390625q2.09375 -2.390625 2.09375 -7.296875q0 -4.609375 -2.09375 -6.984375q-2.09375 -2.390625 -5.21875 -2.390625q-3.15625 0 -5.25 2.375q-2.078125 2.359375 -2.078125 7.140625zm23.929688 12.453125l0 -24.890625l3.796875 0l0 3.53125q2.734375 -4.09375 7.921875 -4.09375q2.25 0 4.125 0.8125q1.890625 0.796875 2.828125 2.109375q0.9375 1.3125 1.3125 3.125q0.234375 1.171875 0.234375 4.09375l0 15.3125l-4.21875 0l0 -15.140625q0 -2.578125 -0.5 -3.859375q-0.484375 -1.28125 -1.734375 -2.03125q-1.25 -0.765625 -2.9375 -0.765625q-2.703125 0 -4.65625 1.71875q-1.953125 1.703125 -1.953125 6.484375l0 13.59375l-4.21875 0zm25.007812 -7.4375l4.171875 -0.65625q0.34375 2.515625 1.953125 3.859375q1.609375 1.328125 4.484375 1.328125q2.90625 0 4.3125 -1.1875q1.40625 -1.1875 1.40625 -2.78125q0 -1.421875 -1.234375 -2.25q-0.875 -0.5625 -4.3125 -1.421875q-4.640625 -1.171875 -6.4375 -2.03125q-1.796875 -0.859375 -2.71875 -2.359375q-0.921875 -1.515625 -0.921875 -3.34375q0 -1.671875 0.75 -3.078125q0.765625 -1.421875 2.078125 -2.359375q0.984375 -0.734375 2.6875 -1.234375q1.703125 -0.5 3.640625 -0.5q2.9375 0 5.140625 0.84375q2.21875 0.84375 3.265625 2.28125q1.0625 1.4375 1.46875 3.859375l-4.125 0.5625q-0.28125 -1.921875 -1.640625 -3.0q-1.34375 -1.078125 -3.796875 -1.078125q-2.90625 0 -4.15625 0.96875q-1.234375 0.953125 -1.234375 2.234375q0 0.828125 0.515625 1.484375q0.515625 0.671875 1.609375 1.125q0.640625 0.234375 3.734375 1.078125q4.46875 1.1875 6.234375 1.953125q1.78125 0.765625 2.78125 2.21875q1.015625 1.453125 1.015625 3.609375q0 2.109375 -1.234375 3.96875q-1.234375 1.859375 -3.5625 2.890625q-2.3125 1.015625 -5.234375 1.015625q-4.859375 0 -7.40625 -2.015625q-2.53125 -2.015625 -3.234375 -5.984375zm37.445312 -5.015625q0 -6.90625 3.84375 -10.234375q3.21875 -2.765625 7.828125 -2.765625q5.140625 0 8.390625 3.359375q3.265625 3.359375 3.265625 9.296875q0 4.796875 -1.453125 7.5625q-1.4375 2.75 -4.1875 4.28125q-2.75 1.515625 -6.015625 1.515625q-5.21875 0 -8.453125 -3.34375q-3.21875 -3.359375 -3.21875 -9.671875zm4.34375 0q0 4.78125 2.078125 7.171875q2.09375 2.375 5.25 2.375q3.140625 0 5.21875 -2.390625q2.09375 -2.390625 2.09375 -7.296875q0 -4.609375 -2.09375 -6.984375q-2.09375 -2.390625 -5.21875 -2.390625q-3.15625 0 -5.25 2.375q-2.078125 2.359375 -2.078125 7.140625zm24.929688 12.453125l0 -21.609375l-3.71875 0l0 -3.28125l3.71875 0l0 -2.65625q0 -2.5 0.453125 -3.71875q0.609375 -1.640625 2.140625 -2.65625q1.53125 -1.03125 4.296875 -1.03125q1.78125 0 3.9375 0.421875l-0.625 3.6875q-1.3125 -0.234375 -2.484375 -0.234375q-1.921875 0 -2.71875 0.828125q-0.796875 0.8125 -0.796875 3.0625l0 2.296875l4.84375 0l0 3.28125l-4.84375 0l0 21.609375l-4.203125 0z" fill-rule="nonzero"></path><path fill="#000000" d="m145.0337 465.2381q-2.34375 2.0 -4.515625 2.828125q-2.15625 0.8125 -4.640625 0.8125q-4.109375 0 -6.3125 -2.0q-2.203125 -2.015625 -2.203125 -5.125q0 -1.828125 0.828125 -3.34375q0.84375 -1.515625 2.1875 -2.421875q1.34375 -0.921875 3.03125 -1.390625q1.25 -0.328125 3.75 -0.625q5.109375 -0.609375 7.53125 -1.453125q0.015625 -0.875 0.015625 -1.109375q0 -2.578125 -1.1875 -3.625q-1.625 -1.4375 -4.8125 -1.4375q-2.96875 0 -4.390625 1.046875q-1.421875 1.046875 -2.09375 3.6875l-4.125 -0.5625q0.5625 -2.640625 1.84375 -4.265625q1.296875 -1.640625 3.734375 -2.515625q2.4375 -0.875 5.640625 -0.875q3.1875 0 5.171875 0.75q2.0 0.75 2.9375 1.890625q0.9375 1.125 1.3125 2.859375q0.21875 1.078125 0.21875 3.890625l0 5.625q0 5.890625 0.265625 7.453125q0.265625 1.546875 1.0625 2.984375l-4.40625 0q-0.65625 -1.3125 -0.84375 -3.078125zm-0.34375 -9.421875q-2.296875 0.9375 -6.890625 1.59375q-2.609375 0.375 -3.6875 0.84375q-1.078125 0.46875 -1.671875 1.375q-0.578125 0.90625 -0.578125 2.0q0 1.6875 1.28125 2.8125q1.28125 1.125 3.734375 1.125q2.4375 0 4.328125 -1.0625q1.90625 -1.0625 2.796875 -2.921875q0.6875 -1.421875 0.6875 -4.21875l0 -1.546875zm14.6953125 12.5l-3.921875 0l0 -34.359375l4.21875 0l0 12.25q2.671875 -3.34375 6.828125 -3.34375q2.296875 0 4.34375 0.921875q2.046875 0.921875 3.375 2.609375q1.328125 1.671875 2.078125 4.046875q0.75 2.359375 0.75 5.046875q0 6.40625 -3.171875 9.90625q-3.15625 3.484375 -7.59375 3.484375q-4.40625 0 -6.90625 -3.6875l0 3.125zm-0.046875 -12.640625q0 4.484375 1.21875 6.46875q1.984375 3.265625 5.390625 3.265625q2.765625 0 4.78125 -2.40625q2.015625 -2.40625 2.015625 -7.15625q0 -4.875 -1.9375 -7.1875q-1.9375 -2.328125 -4.671875 -2.328125q-2.765625 0 -4.78125 2.40625q-2.015625 2.390625 -2.015625 6.9375zm21.164062 5.203125l4.171875 -0.65625q0.34375 2.515625 1.953125 3.859375q1.609375 1.328125 4.484375 1.328125q2.90625 0 4.3125 -1.1875q1.40625 -1.1875 1.40625 -2.78125q0 -1.421875 -1.234375 -2.25q-0.875 -0.5625 -4.3125 -1.421875q-4.640625 -1.171875 -6.4375 -2.03125q-1.796875 -0.859375 -2.71875 -2.359375q-0.921875 -1.515625 -0.921875 -3.34375q0 -1.671875 0.75 -3.078125q0.765625 -1.421875 2.078125 -2.359375q0.984375 -0.734375 2.6875 -1.234375q1.703125 -0.5 3.640625 -0.5q2.9375 0 5.140625 0.84375q2.21875 0.84375 3.265625 2.28125q1.0625 1.4375 1.46875 3.859375l-4.125 0.5625q-0.28125 -1.921875 -1.640625 -3.0q-1.34375 -1.078125 -3.796875 -1.078125q-2.90625 0 -4.15625 0.96875q-1.234375 0.953125 -1.234375 2.234375q0 0.828125 0.515625 1.484375q0.515625 0.671875 1.609375 1.125q0.640625 0.234375 3.734375 1.078125q4.46875 1.1875 6.234375 1.953125q1.78125 0.765625 2.78125 2.21875q1.015625 1.453125 1.015625 3.609375q0 2.109375 -1.234375 3.96875q-1.234375 1.859375 -3.5625 2.890625q-2.3125 1.015625 -5.234375 1.015625q-4.859375 0 -7.40625 -2.015625q-2.53125 -2.015625 -3.234375 -5.984375zm34.890625 3.65625l0.609375 3.734375q-1.78125 0.375 -3.1875 0.375q-2.296875 0 -3.5625 -0.71875q-1.265625 -0.734375 -1.78125 -1.921875q-0.515625 -1.1875 -0.515625 -4.984375l0 -14.3125l-3.09375 0l0 -3.28125l3.09375 0l0 -6.171875l4.203125 -2.53125l0 8.703125l4.234375 0l0 3.28125l-4.234375 0l0 14.546875q0 1.8125 0.21875 2.328125q0.21875 0.515625 0.71875 0.828125q0.515625 0.296875 1.453125 0.296875q0.703125 0 1.84375 -0.171875zm4.0859375 3.78125l0 -24.890625l3.796875 0l0 3.765625q1.453125 -2.640625 2.671875 -3.484375q1.234375 -0.84375 2.71875 -0.84375q2.125 0 4.328125 1.359375l-1.453125 3.90625q-1.546875 -0.90625 -3.09375 -0.90625q-1.375 0 -2.484375 0.828125q-1.09375 0.828125 -1.5625 2.3125q-0.703125 2.25 -0.703125 4.921875l0 13.03125l-4.21875 0zm32.265625 -3.078125q-2.34375 2.0 -4.515625 2.828125q-2.15625 0.8125 -4.640625 0.8125q-4.109375 0 -6.3125 -2.0q-2.203125 -2.015625 -2.203125 -5.125q0 -1.828125 0.828125 -3.34375q0.84375 -1.515625 2.1875 -2.421875q1.34375 -0.921875 3.03125 -1.390625q1.25 -0.328125 3.75 -0.625q5.109375 -0.609375 7.53125 -1.453125q0.015625 -0.875 0.015625 -1.109375q0 -2.578125 -1.1875 -3.625q-1.625 -1.4375 -4.8125 -1.4375q-2.96875 0 -4.390625 1.046875q-1.421875 1.046875 -2.09375 3.6875l-4.125 -0.5625q0.5625 -2.640625 1.84375 -4.265625q1.296875 -1.640625 3.734375 -2.515625q2.4375 -0.875 5.640625 -0.875q3.1875 0 5.171875 0.75q2.0 0.75 2.9375 1.890625q0.9375 1.125 1.3125 2.859375q0.21875 1.078125 0.21875 3.890625l0 5.625q0 5.890625 0.265625 7.453125q0.26560974 1.546875 1.0624847 2.984375l-4.4062347 0q-0.65625 -1.3125 -0.84375 -3.078125zm-0.34375 -9.421875q-2.296875 0.9375 -6.890625 1.59375q-2.609375 0.375 -3.6875 0.84375q-1.078125 0.46875 -1.671875 1.375q-0.578125 0.90625 -0.578125 2.0q0 1.6875 1.28125 2.8125q1.28125 1.125 3.734375 1.125q2.4375 0 4.328125 -1.0625q1.90625 -1.0625 2.796875 -2.921875q0.6875 -1.421875 0.6875 -4.21875l0 -1.546875zm27.039047 3.375l4.15625 0.546875q-0.6875 4.28125 -3.484375 6.71875q-2.796875 2.421875 -6.875 2.421875q-5.109375 0 -8.21875 -3.34375q-3.109375 -3.34375 -3.109375 -9.578125q0 -4.03125 1.328125 -7.046875q1.34375 -3.03125 4.078125 -4.53125q2.734375 -1.515625 5.9375 -1.515625q4.0625 0 6.640625 2.046875q2.578125 2.046875 3.296875 5.828125l-4.09375 0.625q-0.59375 -2.5 -2.078125 -3.765625q-1.484375 -1.265625 -3.59375 -1.265625q-3.1875 0 -5.1875 2.28125q-1.984375 2.28125 -1.984375 7.234375q0 5.015625 1.921875 7.296875q1.921875 2.265625 5.015625 2.265625q2.484375 0 4.140625 -1.515625q1.671875 -1.53125 2.109375 -4.703125zm16.96875 5.34375l0.609375 3.734375q-1.78125 0.375 -3.1875 0.375q-2.296875 0 -3.5625 -0.71875q-1.265625 -0.734375 -1.78125 -1.921875q-0.515625 -1.1875 -0.515625 -4.984375l0 -14.3125l-3.09375 0l0 -3.28125l3.09375 0l0 -6.171875l4.203125 -2.53125l0 8.703125l4.234375 0l0 3.28125l-4.234375 0l0 14.546875q0 1.8125 0.21875 2.328125q0.21875 0.515625 0.71875 0.828125q0.515625 0.296875 1.453125 0.296875q0.703125 0 1.84375 -0.171875zm33.609375 3.78125l0 -3.140625q-2.359375 3.703125 -6.953125 3.703125q-2.984375 0 -5.484375 -1.640625q-2.484375 -1.640625 -3.859375 -4.578125q-1.375 -2.953125 -1.375 -6.765625q0 -3.734375 1.234375 -6.765625q1.25 -3.03125 3.734375 -4.640625q2.484375 -1.625 5.5625 -1.625q2.25 0 4.0 0.953125q1.765625 0.9375 2.859375 2.46875l0 -12.328125l4.203125 0l0 34.359375l-3.921875 0zm-13.328125 -12.421875q0 4.78125 2.015625 7.15625q2.015625 2.359375 4.75 2.359375q2.765625 0 4.703125 -2.265625q1.9375 -2.265625 1.9375 -6.90625q0 -5.109375 -1.96875 -7.5q-1.96875 -2.390625 -4.859375 -2.390625q-2.8125 0 -4.703125 2.296875q-1.875 2.296875 -1.875 7.25zm40.117188 9.34375q-2.34375 2.0 -4.515625 2.828125q-2.15625 0.8125 -4.640625 0.8125q-4.109375 0 -6.3125 -2.0q-2.203125 -2.015625 -2.203125 -5.125q0 -1.828125 0.828125 -3.34375q0.84375 -1.515625 2.1875 -2.421875q1.34375 -0.921875 3.03125 -1.390625q1.25 -0.328125 3.75 -0.625q5.109375 -0.609375 7.53125 -1.453125q0.015625 -0.875 0.015625 -1.109375q0 -2.578125 -1.1875 -3.625q-1.625 -1.4375 -4.8125 -1.4375q-2.96875 0 -4.390625 1.046875q-1.421875 1.046875 -2.09375 3.6875l-4.125 -0.5625q0.5625 -2.640625 1.84375 -4.265625q1.296875 -1.640625 3.734375 -2.515625q2.4375 -0.875 5.640625 -0.875q3.1875 0 5.171875 0.75q2.0 0.75 2.9375 1.890625q0.9375 1.125 1.3125 2.859375q0.21875 1.078125 0.21875 3.890625l0 5.625q0 5.890625 0.265625 7.453125q0.265625 1.546875 1.0625 2.984375l-4.40625 0q-0.65625 -1.3125 -0.84375 -3.078125zm-0.34375 -9.421875q-2.296875 0.9375 -6.890625 1.59375q-2.609375 0.375 -3.6875 0.84375q-1.078125 0.46875 -1.671875 1.375q-0.578125 0.90625 -0.578125 2.0q0 1.6875 1.28125 2.8125q1.28125 1.125 3.734375 1.125q2.4375 0 4.328125 -1.0625q1.90625 -1.0625 2.796875 -2.921875q0.6875 -1.421875 0.6875 -4.21875l0 -1.546875zm20.007812 8.71875l0.609375 3.734375q-1.78125 0.375 -3.1875 0.375q-2.296875 0 -3.5625 -0.71875q-1.265625 -0.734375 -1.78125 -1.921875q-0.515625 -1.1875 -0.515625 -4.984375l0 -14.3125l-3.09375 0l0 -3.28125l3.09375 0l0 -6.171875l4.203125 -2.53125l0 8.703125l4.234375 0l0 3.28125l-4.234375 0l0 14.546875q0 1.8125 0.21875 2.328125q0.21875 0.515625 0.71875 0.828125q0.515625 0.296875 1.453125 0.296875q0.703125 0 1.84375 -0.171875zm20.367188 0.703125q-2.34375 2.0 -4.515625 2.828125q-2.15625 0.8125 -4.640625 0.8125q-4.109375 0 -6.3125 -2.0q-2.203125 -2.015625 -2.203125 -5.125q0 -1.828125 0.828125 -3.34375q0.84375 -1.515625 2.1875 -2.421875q1.34375 -0.921875 3.03125 -1.390625q1.25 -0.328125 3.75 -0.625q5.109375 -0.609375 7.53125 -1.453125q0.015625 -0.875 0.015625 -1.109375q0 -2.578125 -1.1875 -3.625q-1.625 -1.4375 -4.8125 -1.4375q-2.96875 0 -4.390625 1.046875q-1.421875 1.046875 -2.09375 3.6875l-4.125 -0.5625q0.5625 -2.640625 1.84375 -4.265625q1.296875 -1.640625 3.734375 -2.515625q2.4375 -0.875 5.640625 -0.875q3.1875 0 5.171875 0.75q2.0 0.75 2.9375 1.890625q0.9375 1.125 1.3125 2.859375q0.21875 1.078125 0.21875 3.890625l0 5.625q0 5.890625 0.265625 7.453125q0.265625 1.546875 1.0625 2.984375l-4.40625 0q-0.65625 -1.3125 -0.84375 -3.078125zm-0.34375 -9.421875q-2.296875 0.9375 -6.890625 1.59375q-2.609375 0.375 -3.6875 0.84375q-1.078125 0.46875 -1.671875 1.375q-0.578125 0.90625 -0.578125 2.0q0 1.6875 1.28125 2.8125q1.28125 1.125 3.734375 1.125q2.4375 0 4.328125 -1.0625q1.90625 -1.0625 2.796875 -2.921875q0.6875 -1.421875 0.6875 -4.21875l0 -1.546875zm33.34375 8.71875l0.609375 3.734375q-1.78125 0.375 -3.1875 0.375q-2.296875 0 -3.5625 -0.71875q-1.265625 -0.734375 -1.78125 -1.921875q-0.515625 -1.1875 -0.515625 -4.984375l0 -14.3125l-3.09375 0l0 -3.28125l3.09375 0l0 -6.171875l4.203125 -2.53125l0 8.703125l4.234375 0l0 3.28125l-4.234375 0l0 14.546875q0 1.8125 0.21875 2.328125q0.21875 0.515625 0.71875 0.828125q0.515625 0.296875 1.453125 0.296875q0.703125 0 1.84375 -0.171875zm2.5546875 -8.671875q0 -6.90625 3.84375 -10.234375q3.21875 -2.765625 7.828125 -2.765625q5.140625 0 8.390625 3.359375q3.265625 3.359375 3.265625 9.296875q0 4.796875 -1.453125 7.5625q-1.4375 2.75 -4.1875 4.28125q-2.75 1.515625 -6.015625 1.515625q-5.21875 0 -8.453125 -3.34375q-3.21875 -3.359375 -3.21875 -9.671875zm4.34375 0q0 4.78125 2.078125 7.171875q2.09375 2.375 5.25 2.375q3.140625 0 5.21875 -2.390625q2.09375 -2.390625 2.09375 -7.296875q0 -4.609375 -2.09375 -6.984375q-2.09375 -2.390625 -5.21875 -2.390625q-3.15625 0 -5.25 2.375q-2.078125 2.359375 -2.078125 7.140625zm53.5 9.375q-2.34375 2.0 -4.515625 2.828125q-2.15625 0.8125 -4.640625 0.8125q-4.109375 0 -6.3125 -2.0q-2.203125 -2.015625 -2.203125 -5.125q0 -1.828125 0.828125 -3.34375q0.84375 -1.515625 2.1875 -2.421875q1.34375 -0.921875 3.03125 -1.390625q1.25 -0.328125 3.75 -0.625q5.109375 -0.609375 7.53125 -1.453125q0.015625 -0.875 0.015625 -1.109375q0 -2.578125 -1.1875 -3.625q-1.625 -1.4375 -4.8125 -1.4375q-2.96875 0 -4.390625 1.046875q-1.421875 1.046875 -2.09375 3.6875l-4.125 -0.5625q0.5625 -2.640625 1.84375 -4.265625q1.296875 -1.640625 3.734375 -2.515625q2.4375 -0.875 5.640625 -0.875q3.1875 0 5.171875 0.75q2.0 0.75 2.9375 1.890625q0.9375 1.125 1.3125 2.859375q0.21875 1.078125 0.21875 3.890625l0 5.625q0 5.890625 0.265625 7.453125q0.265625 1.546875 1.0625 2.984375l-4.40625 0q-0.65625 -1.3125 -0.84375 -3.078125zm-0.34375 -9.421875q-2.296875 0.9375 -6.890625 1.59375q-2.609375 0.375 -3.6875 0.84375q-1.078125 0.46875 -1.671875 1.375q-0.578125 0.90625 -0.578125 2.0q0 1.6875 1.28125 2.8125q1.28125 1.125 3.734375 1.125q2.4375 0 4.328125 -1.0625q1.90625 -1.0625 2.796875 -2.921875q0.6875 -1.421875 0.6875 -4.21875l0 -1.546875zm10.8046875 12.5l0 -24.890625l3.765625 0l0 3.484375q1.171875 -1.828125 3.109375 -2.9375q1.953125 -1.109375 4.4375 -1.109375q2.765625 0 4.53125 1.15625q1.78125 1.140625 2.5 3.203125q2.953125 -4.359375 7.6875 -4.359375q3.703125 0 5.6875 2.046875q2.0 2.046875 2.0 6.3125l0 17.09375l-4.1875 0l0 -15.6875q0 -2.53125 -0.421875 -3.640625q-0.40625 -1.109375 -1.484375 -1.78125q-1.078125 -0.6875 -2.53125 -0.6875q-2.625 0 -4.359375 1.75q-1.734375 1.734375 -1.734375 5.578125l0 14.46875l-4.21875 0l0 -16.171875q0 -2.8125 -1.03125 -4.21875q-1.03125 -1.40625 -3.375 -1.40625q-1.78125 0 -3.296875 0.9375q-1.5 0.9375 -2.1875 2.75q-0.671875 1.796875 -0.671875 5.1875l0 12.921875l-4.21875 0zm39.984375 9.546875l0 -34.4375l3.84375 0l0 3.234375q1.359375 -1.90625 3.0625 -2.84375q1.71875 -0.953125 4.15625 -0.953125q3.1875 0 5.625 1.640625q2.4375 1.640625 3.671875 4.625q1.25 2.984375 1.25 6.546875q0 3.828125 -1.375 6.890625q-1.375 3.046875 -3.984375 4.6875q-2.609375 1.625 -5.5 1.625q-2.109375 0 -3.78125 -0.890625q-1.671875 -0.890625 -2.75 -2.25l0 12.125l-4.21875 0zm3.8125 -21.859375q0 4.8125 1.9375 7.109375q1.953125 2.296875 4.71875 2.296875q2.8125 0 4.8125 -2.375q2.015625 -2.390625 2.015625 -7.375q0 -4.765625 -1.96875 -7.125q-1.953125 -2.375 -4.671875 -2.375q-2.6875 0 -4.765625 2.53125q-2.078125 2.515625 -2.078125 7.3125zm22.789062 12.3125l0 -34.359375l4.21875 0l0 34.359375l-4.21875 0zm10.7734375 -29.515625l0 -4.84375l4.21875 0l0 4.84375l-4.21875 0zm0 29.515625l0 -24.890625l4.21875 0l0 24.890625l-4.21875 0zm11.6484375 0l0 -21.609375l-3.71875 0l0 -3.28125l3.71875 0l0 -2.65625q0 -2.5 0.453125 -3.71875q0.609375 -1.640625 2.140625 -2.65625q1.53125 -1.03125 4.296875 -1.03125q1.78125 0 3.9375 0.421875l-0.625 3.6875q-1.3125 -0.234375 -2.484375 -0.234375q-1.921875 0 -2.71875 0.828125q-0.796875 0.8125 -0.796875 3.0625l0 2.296875l4.84375 0l0 3.28125l-4.84375 0l0 21.609375l-4.203125 0zm12.1484375 9.59375l-0.46875 -3.96875q1.375 0.375 2.40625 0.375q1.40625 0 2.25 -0.46875q0.84375 -0.46875 1.390625 -1.3125q0.390625 -0.625 1.28125 -3.140625q0.125 -0.34375 0.375 -1.03125l-9.4375 -24.9375l4.546875 0l5.171875 14.40625q1.015625 2.75 1.8125 5.765625q0.71875 -2.90625 1.734375 -5.671875l5.3125 -14.5l4.21875 0l-9.46875 25.3125q-1.515625 4.109375 -2.359375 5.65625q-1.125 2.078125 -2.578125 3.046875q-1.453125 0.984375 -3.46875 0.984375q-1.21875 0 -2.71875 -0.515625zm53.757812 -18.71875l4.15625 0.546875q-0.6875 4.28125 -3.484375 6.71875q-2.796875 2.421875 -6.875 2.421875q-5.109375 0 -8.21875 -3.34375q-3.109375 -3.34375 -3.109375 -9.578125q0 -4.03125 1.328125 -7.046875q1.34375 -3.03125 4.078125 -4.53125q2.734375 -1.515625 5.9375 -1.515625q4.0625 0 6.640625 2.046875q2.578125 2.046875 3.296875 5.828125l-4.09375 0.625q-0.59375 -2.5 -2.078125 -3.765625q-1.484375 -1.265625 -3.59375 -1.265625q-3.1875 0 -5.1875 2.28125q-1.984375 2.28125 -1.984375 7.234375q0 5.015625 1.921875 7.296875q1.921875 2.265625 5.015625 2.265625q2.484375 0 4.140625 -1.515625q1.671875 -1.53125 2.109375 -4.703125zm6.1875 -3.328125q0 -6.90625 3.84375 -10.234375q3.21875 -2.765625 7.828125 -2.765625q5.140625 0 8.390625 3.359375q3.265625 3.359375 3.265625 9.296875q0 4.796875 -1.453125 7.5625q-1.4375 2.75 -4.1875 4.28125q-2.75 1.515625 -6.015625 1.515625q-5.21875 0 -8.453125 -3.34375q-3.21875 -3.359375 -3.21875 -9.671875zm4.34375 0q0 4.78125 2.078125 7.171875q2.09375 2.375 5.25 2.375q3.140625 0 5.21875 -2.390625q2.09375 -2.390625 2.09375 -7.296875q0 -4.609375 -2.09375 -6.984375q-2.09375 -2.390625 -5.21875 -2.390625q-3.15625 0 -5.25 2.375q-2.078125 2.359375 -2.078125 7.140625zm23.148438 14.515625l4.109375 0.609375q0.25 1.90625 1.421875 2.765625q1.578125 1.171875 4.296875 1.171875q2.921875 0 4.515625 -1.171875q1.59375 -1.171875 2.15625 -3.28125q0.328125 -1.28125 0.3125 -5.421875q-2.765625 3.265625 -6.890625 3.265625q-5.140625 0 -7.953125 -3.703125q-2.8125 -3.703125 -2.8125 -8.890625q0 -3.5625 1.28125 -6.5625q1.296875 -3.015625 3.75 -4.65625q2.453125 -1.640625 5.75 -1.640625q4.40625 0 7.265625 3.5625l0 -3.0l3.890625 0l0 21.515625q0 5.8125 -1.1875 8.234375q-1.171875 2.4375 -3.75 3.84375q-2.5625 1.40625 -6.3125 1.40625q-4.453125 0 -7.203125 -2.015625q-2.734375 -2.0 -2.640625 -6.03125zm3.5 -14.953125q0 4.890625 1.9375 7.140625q1.953125 2.25 4.875 2.25q2.90625 0 4.875 -2.234375q1.96875 -2.234375 1.96875 -7.015625q0 -4.578125 -2.03125 -6.890625q-2.015625 -2.328125 -4.875 -2.328125q-2.8125 0 -4.78125 2.296875q-1.96875 2.28125 -1.96875 6.78125zm23.976562 12.890625l0 -24.890625l3.796875 0l0 3.53125q2.734375 -4.09375 7.921875 -4.09375q2.25 0 4.125 0.8125q1.890625 0.796875 2.828125 2.109375q0.9375 1.3125 1.3125 3.125q0.234375 1.171875 0.234375 4.09375l0 15.3125l-4.21875 0l0 -15.140625q0 -2.578125 -0.5 -3.859375q-0.484375 -1.28125 -1.734375 -2.03125q-1.25 -0.765625 -2.9375 -0.765625q-2.703125 0 -4.65625 1.71875q-1.953125 1.703125 -1.953125 6.484375l0 13.59375l-4.21875 0zm26.710938 -29.515625l0 -4.84375l4.21875 0l0 4.84375l-4.21875 0zm0 29.515625l0 -24.890625l4.21875 0l0 24.890625l-4.21875 0zm19.851562 -3.78125l0.609375 3.734375q-1.78125 0.375 -3.1875 0.375q-2.296875 0 -3.5625 -0.71875q-1.265625 -0.734375 -1.78125 -1.921875q-0.515625 -1.1875 -0.515625 -4.984375l0 -14.3125l-3.09375 0l0 -3.28125l3.09375 0l0 -6.171875l4.203125 -2.53125l0 8.703125l4.234375 0l0 3.28125l-4.234375 0l0 14.546875q0 1.8125 0.21875 2.328125q0.21875 0.515625 0.71875 0.828125q0.515625 0.296875 1.453125 0.296875q0.703125 0 1.84375 -0.171875zm4.1484375 -25.734375l0 -4.84375l4.21875 0l0 4.84375l-4.21875 0zm0 29.515625l0 -24.890625l4.21875 0l0 24.890625l-4.21875 0zm9.0703125 -12.453125q0 -6.90625 3.84375 -10.234375q3.21875 -2.765625 7.828125 -2.765625q5.140625 0 8.390625 3.359375q3.265625 3.359375 3.265625 9.296875q0 4.796875 -1.453125 7.5625q-1.4375 2.75 -4.1875 4.28125q-2.75 1.515625 -6.015625 1.515625q-5.21875 0 -8.453125 -3.34375q-3.21875 -3.359375 -3.21875 -9.671875zm4.34375 0q0 4.78125 2.078125 7.171875q2.09375 2.375 5.25 2.375q3.140625 0 5.21875 -2.390625q2.09375 -2.390625 2.09375 -7.296875q0 -4.609375 -2.09375 -6.984375q-2.09375 -2.390625 -5.21875 -2.390625q-3.15625 0 -5.25 2.375q-2.078125 2.359375 -2.078125 7.140625zm23.929688 12.453125l0 -24.890625l3.796875 0l0 3.53125q2.734375 -4.09375 7.921875 -4.09375q2.25 0 4.125 0.8125q1.890625 0.796875 2.828125 2.109375q0.9375 1.3125 1.3125 3.125q0.234375 1.171875 0.234375 4.09375l0 15.3125l-4.21875 0l0 -15.140625q0 -2.578125 -0.5 -3.859375q-0.484375 -1.28125 -1.734375 -2.03125q-1.25 -0.765625 -2.9375 -0.765625q-2.703125 0 -4.65625 1.71875q-1.953125 1.703125 -1.953125 6.484375l0 13.59375l-4.21875 0zm27.882812 0l0 -4.8125l4.8125 0l0 4.8125l-4.8125 0zm11.0234375 -29.8125l0 -4.90625l4.515625 0l0 3.875q0 3.140625 -0.71875 4.515625q-1.015625 1.90625 -3.140625 2.859375l-1.03125 -1.65625q1.265625 -0.515625 1.875 -1.625q0.625 -1.125 0.703125 -3.0625l-2.203125 0zm7.265625 0l0 -4.90625l4.515625 0l0 3.875q0 3.140625 -0.71875 4.515625q-1.015625 1.90625 -3.140625 2.859375l-1.03125 -1.65625q1.265625 -0.515625 1.875 -1.625q0.625 -1.125 0.703125 -3.0625l-2.203125 0z" fill-rule="nonzero"></path></g></svg>

