<?xml version="1.0" standalone="yes"?>

<svg version="1.1" viewBox="0.0 0.0 960.0 720.0" fill="none" stroke="none" stroke-linecap="square" stroke-miterlimit="10" xmlns="http://www.w3.org/2000/svg" xmlns:xlink="http://www.w3.org/1999/xlink"><clipPath id="p.0"><path d="m0 0l960.0 0l0 720.0l-960.0 0l0 -720.0z" clip-rule="nonzero"></path></clipPath><g clip-path="url(#p.0)"><path fill="#000000" fill-opacity="0.0" d="m0 0l960.0 0l0 720.0l-960.0 0z" fill-rule="nonzero"></path><path fill="#000000" fill-opacity="0.0" d="m211.76378 8.826772l628.4724 0l0 189.13387l-628.4724 0z" fill-rule="nonzero"></path><path fill="#000000" d="m226.51378 111.26928l11.4375 -1.0q0.8125 6.875 3.78125 11.28125q2.96875 4.40625 9.21875 7.1249924q6.2500153 2.71875 14.062515 2.71875q6.9375 0 12.25 -2.0625q5.3125 -2.0624924 7.90625 -5.6562424q2.59375 -3.59375 2.59375 -7.84375q0 -4.3125 -2.5 -7.53125q-2.5 -3.21875 -8.25 -5.40625q-3.6875 -1.4375 -16.3125 -4.46875q-12.625015 -3.03125 -17.687515 -5.71875q-6.5625 -3.4375 -9.78125 -8.53125q-3.21875 -5.09375 -3.21875 -11.40625q0 -6.9375 3.9375 -12.968754q3.9375 -6.03125 11.5 -9.15625q7.5625 -3.125 16.812515 -3.125q10.1875 0 17.96875 3.28125q7.78125 3.28125 11.96875 9.65625q4.1875 6.375004 4.5 14.437504l-11.625 0.875q-0.9375 -8.6875 -6.34375 -13.125004q-5.40625 -4.4375 -15.96875 -4.4375q-11.000015 0 -16.031265 4.03125q-5.03125 4.031254 -5.03125 9.718754q0 4.9375 3.5625 8.125q3.5 3.1875 18.281265 6.53125q14.78125 3.34375 20.28125 5.84375q8.0 3.6875 11.8125 9.34375q3.8125 5.65625 3.8125 13.03125q0 7.3125 -4.1875 13.781242q-4.1875 6.46875 -12.03125 10.0625q-7.84375 3.59375 -17.65625 3.59375q-12.437515 0 -20.843765 -3.625q-8.40625 -3.625 -13.1875 -10.906242q-4.78125 -7.28125 -5.03125 -16.46875zm112.625015 19.374992l1.625 9.9375q-4.75 1.0 -8.5 1.0q-6.125 0 -9.5 -1.9375q-3.375 -1.9375 -4.75 -5.09375q-1.375 -3.15625 -1.375 -13.281242l0 -38.1875l-8.25 0l0 -8.75l8.25 0l0 -16.437504l11.1875 -6.75l0 23.187504l11.3125 0l0 8.75l-11.3125 0l0 38.8125q0 4.8125 0.59375 6.1874924q0.59375 1.375 1.9375 2.1875q1.34375 0.8125 3.84375 0.8125q1.875 0 4.9375 -0.4375zm54.3125 1.875q-6.25 5.3125 -12.03125 7.5q-5.78125 2.1875 -12.40625 2.1875q-10.9375 0 -16.8125 -5.34375q-5.875 -5.34375 -5.875 -13.656242q0 -4.875 2.21875 -8.90625q2.21875 -4.03125 5.8125 -6.46875q3.59375 -2.4375 8.09375 -3.6875q3.3125 -0.875 10.0 -1.6875q13.625 -1.625 20.0625 -3.875q0.0625 -2.3125 0.0625 -2.9375q0 -6.875 -3.1875 -9.6875q-4.3125 -3.8125 -12.8125 -3.8125q-7.9375 0 -11.71875 2.78125q-3.78125 2.78125 -5.59375 9.84375l-11.0 -1.5q1.5 -7.0625 4.9375 -11.40625q3.4375 -4.34375 9.9375 -6.6875q6.5 -2.34375 15.0625 -2.34375q8.5 0 13.8125 2.0q5.3125 2.0 7.8125 5.03125q2.5 3.03125 3.5 7.65625q0.5625 2.875 0.5625 10.375l0 15.0q0 15.687492 0.71875 19.843742q0.71875 4.15625 2.84375 7.96875l-11.75 0q-1.75 -3.5 -2.25 -8.1875zm-0.9375 -25.124992q-6.125 2.5 -18.375 4.25q-6.9375 1.0 -9.8125 2.25q-2.875 1.25 -4.4375 3.65625q-1.5625 2.40625 -1.5625 5.34375q0 4.5 3.40625 7.4999924q3.40625 3.0 9.96875 3.0q6.5 0 11.5625 -2.84375q5.0625 -2.8437424 7.4375 -7.7812424q1.8125 -3.8125 1.8125 -11.25l0 -4.125zm26.75 38.812492l10.9375 1.625q0.6875 5.0625 3.8125 7.375q4.1875 3.125 11.4375 3.125q7.8125 0 12.0625 -3.125q4.25 -3.125 5.75 -8.75q0.875 -3.4375 0.8125 -14.4375q-7.375 8.6875 -18.375 8.6875q-13.6875 0 -21.1875 -9.875q-7.5 -9.874992 -7.5 -23.687492q0 -9.5 3.4375 -17.53125q3.4375 -8.03125 9.96875 -12.40625q6.53125 -4.375 15.34375 -4.375q11.75 0 19.375 9.5l0 -8.0l10.375 0l0 57.374992q0 15.5 -3.15625 21.96875q-3.15625 6.46875 -10.0 10.21875q-6.84375 3.75 -16.84375 3.75q-11.875 0 -19.1875 -5.34375q-7.3125 -5.34375 -7.0625 -16.09375zm9.3125 -39.874992q0 13.0625 5.1875 19.0625q5.1875 5.9999924 13.0 5.9999924q7.75 0 13.0 -5.9687424q5.25 -5.96875 5.25 -18.71875q0 -12.1875 -5.40625 -18.375q-5.40625 -6.1875 -13.03125 -6.1875q-7.5 0 -12.75 6.09375q-5.25 6.09375 -5.25 18.09375zm109.375 13.0l11.625 1.4375q-2.75 10.187492 -10.1875 15.812492q-7.4375 5.625 -19.0 5.625q-14.5625 0 -23.09375 -8.96875q-8.53125 -8.968742 -8.53125 -25.156242q0 -16.75 8.625 -26.0q8.625 -9.25 22.375 -9.25q13.3125 0 21.75 9.0625q8.4375 9.0625 8.4375 25.5q0 1.0 -0.0625 3.0l-49.5 0q0.625 10.9375 6.1875 16.75q5.5625 5.8124924 13.875 5.8124924q6.1875 0 10.5625 -3.25q4.375 -3.2499924 6.9375 -10.374992zm-36.9375 -18.1875l37.0625 0q-0.75 -8.375 -4.25 -12.5625q-5.375 -6.5 -13.9375 -6.5q-7.75 0 -13.03125 5.1875q-5.28125 5.1875 -5.84375 13.875zm58.1875 19.75l11.125 -1.75q0.9375 6.6875 5.21875 10.249992q4.28125 3.5625 11.96875 3.5625q7.75 0 11.5 -3.15625q3.75 -3.1562424 3.75 -7.4062424q0 -3.8125 -3.3125 -6.0q-2.3125 -1.5 -11.5 -3.8125q-12.375 -3.125 -17.15625 -5.40625q-4.78125 -2.28125 -7.25 -6.3125q-2.46875 -4.03125 -2.46875 -8.90625q0 -4.4375 2.03125 -8.21875q2.03125 -3.78125 5.53125 -6.28125q2.625 -1.9375 7.15625 -3.28125q4.53125 -1.34375 9.71875 -1.34375q7.8125 0 13.71875 2.25q5.90625 2.25 8.71875 6.09375q2.8125 3.84375 3.875 10.28125l-11.0 1.5q-0.75 -5.125 -4.34375 -8.0q-3.59375 -2.875 -10.15625 -2.875q-7.75 0 -11.0625 2.5625q-3.3125 2.5625 -3.3125 6.0q0 2.1875 1.375 3.9375q1.375 1.8125 4.3125 3.0q1.6875 0.625 9.9375 2.875q11.9375 3.1875 16.65625 5.21875q4.71875 2.03125 7.40625 5.90625q2.6875 3.875 2.6875 9.625q0 5.625 -3.28125 10.593742q-3.28125 4.96875 -9.46875 7.6875q-6.1875 2.71875 -14.0 2.71875q-12.9375 0 -19.71875 -5.375q-6.78125 -5.375 -8.65625 -15.937492z" fill-rule="nonzero"></path><path fill="#000000" fill-opacity="0.0" d="m142.15486 237.96063l909.88983 0l0 471.49603l-909.88983 0z" fill-rule="nonzero"></path><path fill="#000000" d="m146.18611 291.4019q5.15625 0 10.125 2.671875q4.96875 2.671875 7.734375 7.640625q2.765625 4.96875 2.765625 10.3125q0 8.578125 -6.046875 14.625q-6.046875 6.046875 -14.578125 6.046875q-8.578125 0 -14.625 -6.046875q-6.0468826 -6.046875 -6.0468826 -14.625q0 -5.390625 2.7656326 -10.328125q2.765625 -4.953125 7.734375 -7.625q4.96875 -2.671875 10.171875 -2.671875z" fill-rule="nonzero"></path><path fill="#000000" d="m206.74861 339.12064l0 -68.71875l49.687485 0l0 8.109375l-40.593735 0l0 21.046875l38.015625 0l0 8.0625l-38.015625 0l0 23.390625l42.187485 0l0 8.109375l-51.281235 0zm57.14061 0l18.1875 -25.875l-16.828125 -23.90625l10.546875 0l7.640625 11.671875q2.15625 3.328125 3.46875 5.578125q2.0625 -3.09375 3.796875 -5.484375l8.390625 -11.765625l10.078125 0l-17.203125 23.4375l18.515625 26.34375l-10.359375 0l-10.21875 -15.46875l-2.71875 -4.171875l-13.078125 19.640625l-10.21875 0zm53.625 19.078125l0 -68.859375l7.6875 0l0 6.46875q2.71875 -3.796875 6.140625 -5.6875q3.421875 -1.90625 8.296875 -1.90625q6.375 0 11.25 3.28125q4.875 3.28125 7.359375 9.265625q2.484375 5.96875 2.484375 13.09375q0 7.640625 -2.75 13.765625q-2.734375 6.109375 -7.96875 9.375q-5.21875 3.25 -10.984375 3.25q-4.21875 0 -7.578125 -1.78125q-3.34375 -1.78125 -5.5 -4.5l0 24.234375l-8.4375 0zm7.640625 -43.6875q0 9.609375 3.890625 14.203125q3.890625 4.59375 9.421875 4.59375q5.625 0 9.625 -4.75q4.015625 -4.765625 4.015625 -14.75q0 -9.515625 -3.921875 -14.25q-3.90625 -4.734375 -9.34375 -4.734375q-5.390625 0 -9.546875 5.046875q-4.140625 5.03125 -4.140625 14.640625zm45.5625 24.609375l0 -68.71875l8.4375 0l0 68.71875l-8.4375 0zm18.375 -24.890625q0 -13.828125 7.6875 -20.484375q6.421875 -5.53125 15.65625 -5.53125q10.265625 0 16.78125 6.734375q6.515625 6.71875 6.515625 18.578125q0 9.609375 -2.890625 15.125q-2.875 5.5 -8.390625 8.546875q-5.5 3.046875 -12.015625 3.046875q-10.453125 0 -16.90625 -6.703125q-6.4375 -6.703125 -6.4375 -19.3125zm8.671875 0q0 9.5625 4.171875 14.328125q4.171875 4.75 10.5 4.75q6.28125 0 10.453125 -4.78125q4.171875 -4.78125 4.171875 -14.578125q0 -9.234375 -4.203125 -13.984375q-4.1875 -4.765625 -10.421875 -4.765625q-6.328125 0 -10.5 4.734375q-4.171875 4.734375 -4.171875 14.296875zm47.765625 24.890625l0 -49.78125l7.59375 0l0 7.546875q2.90625 -5.296875 5.359375 -6.984375q2.46875 -1.6875 5.421875 -1.6875q4.265625 0 8.671875 2.71875l-2.90625 7.828125q-3.09375 -1.828125 -6.1875 -1.828125q-2.765625 0 -4.96875 1.671875q-2.203125 1.65625 -3.140625 4.609375q-1.40625 4.5 -1.40625 9.84375l0 26.0625l-8.4375 0zm64.546875 -6.140625q-4.6875 3.984375 -9.03125 5.625q-4.328125 1.640625 -9.296875 1.640625q-8.203125 0 -12.609375 -4.0q-4.40625 -4.015625 -4.40625 -10.25q0 -3.65625 1.65625 -6.671875q1.671875 -3.03125 4.359375 -4.859375q2.703125 -1.828125 6.078125 -2.765625q2.484375 -0.65625 7.5 -1.265625q10.21875 -1.21875 15.046875 -2.90625q0.046875 -1.734375 0.046875 -2.203125q0 -5.15625 -2.390625 -7.265625q-3.234375 -2.859375 -9.609375 -2.859375q-5.953125 0 -8.796875 2.09375q-2.828125 2.078125 -4.1875 7.375l-8.25 -1.125q1.125 -5.296875 3.703125 -8.546875q2.578125 -3.265625 7.453125 -5.015625q4.875 -1.765625 11.296875 -1.765625q6.375 0 10.359375 1.5q3.984375 1.5 5.859375 3.78125q1.875 2.265625 2.625 5.734375q0.421875 2.15625 0.421875 7.78125l0 11.25q0 11.765625 0.53125 14.890625q0.546875 3.109375 2.140625 5.96875l-8.8125 0q-1.3125 -2.625 -1.6875 -6.140625zm-0.703125 -18.84375q-4.59375 1.875 -13.78125 3.1875q-5.203125 0.75 -7.359375 1.6875q-2.15625 0.9375 -3.328125 2.75q-1.171875 1.796875 -1.171875 4.0q0 3.375 2.546875 5.625q2.5625 2.25 7.484375 2.25q4.875 0 8.671875 -2.125q3.796875 -2.140625 5.578125 -5.84375q1.359375 -2.859375 1.359375 -8.4375l0 -3.09375zm40.03125 17.4375l1.21875 7.453125q-3.5625 0.75 -6.375 0.75q-4.59375 0 -7.125 -1.453125q-2.53125 -1.453125 -3.5625 -3.8125q-1.03125 -2.375 -1.03125 -9.96875l0 -28.640625l-6.1875 0l0 -6.5625l6.1875 0l0 -12.328125l8.390625 -5.0625l0 17.390625l8.484375 0l0 6.5625l-8.484375 0l0 29.109375q0 3.609375 0.4375 4.640625q0.453125 1.03125 1.453125 1.640625q1.015625 0.609375 2.890625 0.609375q1.40625 0 3.703125 -0.328125zm8.296875 -51.46875l0 -9.703125l8.4375 0l0 9.703125l-8.4375 0zm0 59.015625l0 -49.78125l8.4375 0l0 49.78125l-8.4375 0zm18.140625 -24.890625q0 -13.828125 7.6875 -20.484375q6.421875 -5.53125 15.65625 -5.53125q10.265625 0 16.78125 6.734375q6.515625 6.71875 6.515625 18.578125q0 9.609375 -2.890625 15.125q-2.875 5.5 -8.390625 8.546875q-5.5 3.046875 -12.015625 3.046875q-10.453125 0 -16.90625 -6.703125q-6.4375 -6.703125 -6.4375 -19.3125zm8.671875 0q0 9.5625 4.171875 14.328125q4.171875 4.75 10.5 4.75q6.28125 0 10.453125 -4.78125q4.171875 -4.78125 4.171875 -14.578125q0 -9.234375 -4.203125 -13.984375q-4.1875 -4.765625 -10.421875 -4.765625q-6.328125 0 -10.5 4.734375q-4.171875 4.734375 -4.171875 14.296875zm47.859375 24.890625l0 -49.78125l7.59375 0l0 7.078125q5.484375 -8.203125 15.84375 -8.203125q4.5 0 8.265625 1.625q3.78125 1.609375 5.65625 4.234375q1.875 2.625 2.625 6.234375q0.46875 2.34375 0.46875 8.203125l0 30.609375l-8.4375 0l0 -30.28125q0 -5.15625 -0.984375 -7.703125q-0.984375 -2.5625 -3.5 -4.078125q-2.5 -1.53125 -5.875 -1.53125q-5.390625 0 -9.3125 3.421875q-3.90625 3.421875 -3.90625 12.984375l0 27.1875l-8.4375 0z" fill-rule="nonzero"></path><path fill="#000000" d="m146.18611 521.40186q5.15625 0 10.125 2.671875q4.96875 2.671875 7.734375 7.640625q2.765625 4.96875 2.765625 10.3125q0 8.578125 -6.046875 14.625q-6.046875 6.046875 -14.578125 6.046875q-8.578125 0 -14.625 -6.046875q-6.0468826 -6.046875 -6.0468826 -14.625q0 -5.390625 2.7656326 -10.328125q2.765625 -4.953125 7.734375 -7.625q4.96875 -2.671875 10.171875 -2.671875z" fill-rule="nonzero"></path><path fill="#000000" d="m206.74861 569.1206l0 -68.71872l49.687485 0l0 8.109375l-40.593735 0l0 21.046844l38.015625 0l0 8.0625l-38.015625 0l0 23.390625l42.187485 0l0 8.109375l-51.281235 0zm57.14061 0l18.1875 -25.875l-16.828125 -23.90625l10.546875 0l7.640625 11.671875q2.15625 3.328125 3.46875 5.578125q2.0625 -3.09375 3.796875 -5.484375l8.390625 -11.765625l10.078125 0l-17.203125 23.4375l18.515625 26.34375l-10.359375 0l-10.21875 -15.46875l-2.71875 -4.171875l-13.078125 19.640625l-10.21875 0zm53.625 19.078125l0 -68.859375l7.6875 0l0 6.46875q2.71875 -3.796875 6.140625 -5.6875q3.421875 -1.90625 8.296875 -1.90625q6.375 0 11.25 3.28125q4.875 3.28125 7.359375 9.265625q2.484375 5.96875 2.484375 13.09375q0 7.640625 -2.75 13.765625q-2.734375 6.109375 -7.96875 9.375q-5.21875 3.25 -10.984375 3.25q-4.21875 0 -7.578125 -1.78125q-3.34375 -1.78125 -5.5 -4.5l0 24.234375l-8.4375 0zm7.640625 -43.6875q0 9.609375 3.890625 14.203125q3.890625 4.59375 9.421875 4.59375q5.625 0 9.625 -4.75q4.015625 -4.765625 4.015625 -14.75q0 -9.515625 -3.921875 -14.25q-3.90625 -4.734375 -9.34375 -4.734375q-5.390625 0 -9.546875 5.046875q-4.140625 5.03125 -4.140625 14.640625zm45.5625 24.609375l0 -68.71872l8.4375 0l0 68.71872l-8.4375 0zm54.0 -6.140625q-4.6875 3.984375 -9.03125 5.625q-4.328125 1.640625 -9.296875 1.640625q-8.203125 0 -12.609375 -4.0q-4.40625 -4.015625 -4.40625 -10.25q0 -3.65625 1.65625 -6.671875q1.671875 -3.03125 4.359375 -4.859375q2.703125 -1.828125 6.078125 -2.765625q2.484375 -0.65625 7.5 -1.265625q10.21875 -1.21875 15.046875 -2.90625q0.046875 -1.734375 0.046875 -2.203125q0 -5.15625 -2.390625 -7.265625q-3.234375 -2.859375 -9.609375 -2.859375q-5.953125 0 -8.796875 2.09375q-2.828125 2.078125 -4.1875 7.375l-8.25 -1.125q1.125 -5.296875 3.703125 -8.546875q2.578125 -3.265625 7.453125 -5.015625q4.875 -1.765625 11.296875 -1.765625q6.375 0 10.359375 1.5q3.984375 1.5 5.859375 3.78125q1.875 2.265625 2.625 5.734375q0.421875 2.15625 0.421875 7.78125l0 11.25q0 11.765625 0.53125 14.890625q0.546875 3.109375 2.140625 5.96875l-8.8125 0q-1.3125 -2.625 -1.6875 -6.140625zm-0.703125 -18.84375q-4.59375 1.875 -13.78125 3.1875q-5.203125 0.75 -7.359375 1.6875q-2.15625 0.9375 -3.328125 2.75q-1.171875 1.796875 -1.171875 4.0q0 3.375 2.546875 5.625q2.5625 2.25 7.484375 2.25q4.875 0 8.671875 -2.125q3.796875 -2.140625 5.578125 -5.84375q1.359375 -2.859375 1.359375 -8.4375l0 -3.09375zm21.609375 24.984375l0 -49.78125l7.59375 0l0 7.078125q5.484375 -8.203125 15.84375 -8.203125q4.5 0 8.265625 1.625q3.78125 1.609375 5.65625 4.234375q1.875 2.625 2.625 6.234375q0.46875 2.34375 0.46875 8.203125l0 30.609375l-8.4375 0l0 -30.28125q0 -5.15625 -0.984375 -7.703125q-0.984375 -2.5625 -3.5 -4.078125q-2.5 -1.53125 -5.875 -1.53125q-5.390625 0 -9.3125 3.421875q-3.90625 3.421875 -3.90625 12.984375l0 27.1875l-8.4375 0zm85.875 -6.140625q-4.6875 3.984375 -9.03125 5.625q-4.328125 1.640625 -9.296875 1.640625q-8.203125 0 -12.609375 -4.0q-4.40625 -4.015625 -4.40625 -10.25q0 -3.65625 1.65625 -6.671875q1.671875 -3.03125 4.359375 -4.859375q2.703125 -1.828125 6.078125 -2.765625q2.484375 -0.65625 7.5 -1.265625q10.21875 -1.21875 15.046875 -2.90625q0.046875 -1.734375 0.046875 -2.203125q0 -5.15625 -2.390625 -7.265625q-3.234375 -2.859375 -9.609375 -2.859375q-5.953125 0 -8.796875 2.09375q-2.828125 2.078125 -4.1875 7.375l-8.25 -1.125q1.125 -5.296875 3.703125 -8.546875q2.578125 -3.265625 7.453125 -5.015625q4.875 -1.765625 11.296875 -1.765625q6.375 0 10.359375 1.5q3.984375 1.5 5.859375 3.78125q1.875 2.265625 2.625 5.734375q0.421875 2.15625 0.421875 7.78125l0 11.25q0 11.765625 0.53125 14.890625q0.546875 3.109375 2.140625 5.96875l-8.8125 0q-1.3125 -2.625 -1.6875 -6.140625zm-0.703125 -18.84375q-4.59375 1.875 -13.78125 3.1875q-5.203125 0.75 -7.359375 1.6875q-2.15625 0.9375 -3.328125 2.75q-1.171875 1.796875 -1.171875 4.0q0 3.375 2.546875 5.625q2.5625 2.25 7.484375 2.25q4.875 0 8.671875 -2.125q3.796875 -2.140625 5.578125 -5.84375q1.359375 -2.859375 1.359375 -8.4375l0 -3.09375zm40.03125 17.4375l1.21875 7.453125q-3.5625 0.75 -6.375 0.75q-4.59375 0 -7.125 -1.453125q-2.53125 -1.453125 -3.5625 -3.8125q-1.03125 -2.375 -1.03125 -9.96875l0 -28.640625l-6.1875 0l0 -6.5625l6.1875 0l0 -12.3280945l8.390625 -5.0625l0 17.390594l8.484375 0l0 6.5625l-8.484375 0l0 29.109375q0 3.609375 0.4375 4.640625q0.453125 1.03125 1.453125 1.640625q1.015625 0.609375 2.890625 0.609375q1.40625 0 3.703125 -0.328125zm8.296875 -51.46872l0 -9.703125l8.4375 0l0 9.703125l-8.4375 0zm0 59.015594l0 -49.78125l8.4375 0l0 49.78125l-8.4375 0zm18.140625 -24.890625q0 -13.828125 7.6875 -20.484375q6.421875 -5.53125 15.65625 -5.53125q10.265625 0 16.78125 6.734375q6.515625 6.71875 6.515625 18.578125q0 9.609375 -2.890625 15.125q-2.875 5.5 -8.390625 8.546875q-5.5 3.046875 -12.015625 3.046875q-10.453125 0 -16.90625 -6.703125q-6.4375 -6.703125 -6.4375 -19.3125zm8.671875 0q0 9.5625 4.171875 14.328125q4.171875 4.75 10.5 4.75q6.28125 0 10.453125 -4.78125q4.171875 -4.78125 4.171875 -14.578125q0 -9.234375 -4.203125 -13.984375q-4.1875 -4.765625 -10.421875 -4.765625q-6.328125 0 -10.5 4.734375q-4.171875 4.734375 -4.171875 14.296875zm47.859375 24.890625l0 -49.78125l7.59375 0l0 7.078125q5.484375 -8.203125 15.84375 -8.203125q4.5 0 8.265625 1.625q3.78125 1.609375 5.65625 4.234375q1.875 2.625 2.625 6.234375q0.46875 2.34375 0.46875 8.203125l0 30.609375l-8.4375 0l0 -30.28125q0 -5.15625 -0.984375 -7.703125q-0.984375 -2.5625 -3.5 -4.078125q-2.5 -1.53125 -5.875 -1.53125q-5.390625 0 -9.3125 3.421875q-3.90625 3.421875 -3.90625 12.984375l0 27.1875l-8.4375 0z" fill-rule="nonzero"></path></g></svg>

